<?xml version="1.0" encoding="UTF-8" standalone="no"?>
<svg
   viewBox="0 0 20 20"
   fill="currentColor"
   version="1.1"
   id="svg1"
   sodipodi:docname="archive-box-arrow-up.svg"
   inkscape:version="1.3.2 (091e20e, 2023-11-25)"
   width="20"
   height="20"
   xmlns:inkscape="http://www.inkscape.org/namespaces/inkscape"
   xmlns:sodipodi="http://sodipodi.sourceforge.net/DTD/sodipodi-0.dtd"
   xmlns="http://www.w3.org/2000/svg"
   xmlns:svg="http://www.w3.org/2000/svg">
  <defs
     id="defs1" />
  <sodipodi:namedview
     id="namedview1"
     pagecolor="#ffffff"
     bordercolor="#000000"
     borderopacity="0.25"
     inkscape:showpageshadow="2"
     inkscape:pageopacity="0.0"
     inkscape:pagecheckerboard="0"
     inkscape:deskcolor="#d1d1d1"
     showgrid="true"
     inkscape:zoom="30.720768"
     inkscape:cx="6.4777026"
     inkscape:cy="9.537522"
     inkscape:window-width="2560"
     inkscape:window-height="1387"
     inkscape:window-x="1512"
     inkscape:window-y="25"
     inkscape:window-maximized="1"
     inkscape:current-layer="svg1">
    <inkscape:grid
       id="grid1"
       units="px"
       originx="0"
       originy="0"
       spacingx="0.5"
       spacingy="0.5"
       empcolor="#0099e5"
       empopacity="0.6"
       color="#0099e5"
       opacity="0.14901961"
       empspacing="2"
       dotted="false"
       gridanglex="30"
       gridanglez="30"
       visible="true" />
    <inkscape:grid
       id="grid2"
       units="px"
       originx="0"
       originy="0"
       spacingx="4"
       spacingy="4"
       empcolor="#e50000"
       empopacity="0.6"
       color="#0099e5"
       opacity="0.14901961"
       empspacing="1"
       dotted="false"
       gridanglex="30"
       gridanglez="30"
       visible="true" />
  </sodipodi:namedview>
  <path
     id="path1"
     style="fill:#000000"
     d="M 2,3 C 1.44772,3 1,3.44772 1,4 v 1 c 0,0.55228 0.44772,1 1,1 h 16 c 0.5523,0 1,-0.44772 1,-1 V 4 C 19,3.44772 18.5523,3 18,3 Z m 0,4.5 0.8105469,7.708984 C 2.9176968,16.226883 3.7772723,17 4.8007812,17 H 15.199219 c 1.023499,0 1.883034,-0.773117 1.990234,-1.791016 L 18,7.5 Z M 10,9 c 0.2126,0 0.414341,0.089947 0.556641,0.2480469 l 2.25,2.5000001 c 0.277099,0.3079 0.253212,0.781494 -0.05469,1.058594 -0.3079,0.277099 -0.781494,0.253212 -1.058594,-0.05469 L 10.75,11.705078 V 14.25 C 10.75,14.66421 10.4142,15 10,15 9.5857904,15 9.25,14.66421 9.25,14.25 v -2.544922 l -0.9433594,1.046875 c -0.2770897,0.3079 -0.750714,0.331787 -1.0585937,0.05469 -0.3078897,-0.2771 -0.3317872,-0.750694 -0.054687,-1.058594 l 2.25,-2.5000001 C 9.5855892,9.089947 9.7873802,9 10,9 Z" />
</svg>
