<?xml version="1.0" encoding="UTF-8" standalone="no"?>
<svg
   viewBox="0 0 20 20"
   fill="currentColor"
   version="1.1"
   id="svg1"
   sodipodi:docname="arrow-path-clock.svg"
   inkscape:version="1.3.2 (091e20e, 2023-11-25)"
   width="20"
   height="20"
   xml:space="preserve"
   xmlns:inkscape="http://www.inkscape.org/namespaces/inkscape"
   xmlns:sodipodi="http://sodipodi.sourceforge.net/DTD/sodipodi-0.dtd"
   xmlns="http://www.w3.org/2000/svg"
   xmlns:svg="http://www.w3.org/2000/svg"><defs
     id="defs1" /><sodipodi:namedview
     id="namedview1"
     pagecolor="#ffffff"
     bordercolor="#000000"
     borderopacity="0.25"
     inkscape:showpageshadow="2"
     inkscape:pageopacity="0.0"
     inkscape:pagecheckerboard="0"
     inkscape:deskcolor="#d1d1d1"
     showgrid="true"
     inkscape:zoom="51.451655"
     inkscape:cx="11.107515"
     inkscape:cy="6.8025023"
     inkscape:window-width="1800"
     inkscape:window-height="1097"
     inkscape:window-x="0"
     inkscape:window-y="44"
     inkscape:window-maximized="1"
     inkscape:current-layer="svg1"><inkscape:grid
       id="grid1"
       units="px"
       originx="0"
       originy="0"
       spacingx="0.5"
       spacingy="0.5"
       empcolor="#0099e5"
       empopacity="0.6"
       color="#0099e5"
       opacity="0.14901961"
       empspacing="2"
       dotted="false"
       gridanglex="30"
       gridanglez="30"
       visible="true" /><inkscape:grid
       id="grid2"
       units="px"
       originx="0"
       originy="0"
       spacingx="4"
       spacingy="4"
       empcolor="#e50000"
       empopacity="0.6"
       color="#0099e5"
       opacity="0.14901961"
       empspacing="1"
       dotted="false"
       gridanglex="30"
       gridanglez="30"
       visible="true" /></sodipodi:namedview><path
     style="color:#000000;fill:currentColor;stroke-linecap:round;stroke-linejoin:round;-inkscape-stroke:none"
     d="m 10.001109,4.4139844 a 0.75,0.75 0 0 0 -0.7499998,0.75 V 9.999922 a 0.750075,0.750075 0 0 0 0.7499998,0.75 h 3.625 a 0.75,0.75 0 0 0 0.75,-0.75 0.75,0.75 0 0 0 -0.75,-0.7500001 h -2.875 V 5.1639844 a 0.75,0.75 0 0 0 -0.75,-0.75 z"
     id="path1-4"
     inkscape:label="path1" /><path
     style="color:#000000;fill:currentColor;stroke-linecap:round;stroke-linejoin:round;-inkscape-stroke:none"
     d="M 8.9542342,2.0682813 C 7.251391,2.2921338 5.621525,3.0629281 4.342906,4.3417187 L 3.589,5.095625 V 2.8690625 a 0.75000501,0.75000501 0 0 0 -0.75,-0.75 0.75000501,0.75000501 0 0 0 -0.75,0.75 V 6.908125 a 0.75000501,0.75000501 0 0 0 0.75,0.75 h 4.039062 a 0.75000501,0.75000501 0 0 0 0.75,-0.75 0.75000501,0.75000501 0 0 0 -0.75,-0.75 H 4.647593 l 0.75586,-0.7558594 c 2.082123,-2.0824034 5.294429,-2.5047981 7.845703,-1.03125 2.551274,1.4735479 3.790996,4.4672666 3.029297,7.3125004 -0.7617,2.845233 -3.331982,4.817049 -6.277344,4.816406 C 7.055747,16.499279 4.48481,14.525388 3.721812,11.679609 a 0.75000501,0.75000501 0 0 0 -0.917969,-0.529296 0.75000501,0.75000501 0 0 0 -0.53125,0.917968 c 0.936881,3.494312 4.111399,5.930852 7.728516,5.931641 3.617117,7.9e-4 6.79115,-2.433619 7.726562,-5.927734 C 18.663084,8.5780713 17.131872,4.8815605 13.999156,3.0721875 12.432798,2.1675008 10.657077,1.8444287 8.9542342,2.0682813 Z"
     id="path3"
     inkscape:label="path2" /></svg>
