<?xml version="1.0" encoding="UTF-8" standalone="no"?>
<svg
   viewBox="0 0 20 20"
   fill="currentColor"
   version="1.1"
   id="svg1"
   sodipodi:docname="arrows-crossing.svg"
   inkscape:version="1.3.2 (091e20e, 2023-11-25)"
   width="20"
   height="20"
   xmlns:inkscape="http://www.inkscape.org/namespaces/inkscape"
   xmlns:sodipodi="http://sodipodi.sourceforge.net/DTD/sodipodi-0.dtd"
   xmlns="http://www.w3.org/2000/svg"
   xmlns:svg="http://www.w3.org/2000/svg">
  <defs
     id="defs1" />
  <sodipodi:namedview
     id="namedview1"
     pagecolor="#ffffff"
     bordercolor="#000000"
     borderopacity="0.25"
     inkscape:showpageshadow="2"
     inkscape:pageopacity="0.0"
     inkscape:pagecheckerboard="0"
     inkscape:deskcolor="#d1d1d1"
     showgrid="false"
     inkscape:zoom="30.086455"
     inkscape:cx="8.8578066"
     inkscape:cy="8.3426246"
     inkscape:window-width="1800"
     inkscape:window-height="1097"
     inkscape:window-x="356"
     inkscape:window-y="1484"
     inkscape:window-maximized="1"
     inkscape:current-layer="svg1">
    <inkscape:grid
       id="grid1"
       units="px"
       originx="0"
       originy="0"
       spacingx="0.25"
       spacingy="0.25"
       empcolor="#0099e5"
       empopacity="0.6"
       color="#0099e5"
       opacity="0.14901961"
       empspacing="2"
       dotted="false"
       gridanglex="30"
       gridanglez="30"
       visible="false" />
    <inkscape:grid
       id="grid2"
       units="px"
       originx="0"
       originy="0"
       spacingx="4"
       spacingy="4"
       empcolor="#e50000"
       empopacity="0.6"
       color="#0099e5"
       opacity="0.14901961"
       empspacing="1"
       dotted="false"
       gridanglex="30"
       gridanglez="30"
       visible="false" />
  </sodipodi:namedview>
  <path
     id="path1"
     style="fill:#000000"
     d="M 3,5.25 A 0.75,0.75 0 0 0 2.25,6 0.75,0.75 0 0 0 3,6.75 c 2.1388846,0 3.3082849,0.4598447 4.0585938,1.078125 C 7.2314667,7.9705782 7.3824639,8.1272547 7.5214844,8.2929688 7.6973471,7.839842 7.913186,7.3491438 8.2128906,6.8476562 8.1478042,6.7879467 8.0815319,6.7294034 8.0117188,6.671875 6.9417187,5.7901583 5.3611064,5.25 3,5.25 Z m 11.216797,5.251953 a 0.75,0.75 0 0 0 -0.519531,0.242188 0.75,0.75 0 0 0 0.04687,1.058593 L 15.322266,13.25 H 14.25 c -1.674565,0 -2.451724,-0.413072 -3,-1.007812 -0.111616,-0.121076 -0.211219,-0.257592 -0.306641,-0.402344 -0.212381,0.453975 -0.470368,0.931335 -0.810547,1.40039 0.0053,0.0058 0.01025,0.01175 0.01563,0.01758 C 10.98297,14.163069 12.299573,14.75 14.25,14.75 h 1.072266 l -1.578125,1.447266 a 0.75,0.75 0 0 0 -0.04687,1.058593 0.75,0.75 0 0 0 1.058593,0.04687 l 3,-2.75 a 0.75,0.75 0 0 0 0.01172,-0.01563 0.75,0.75 0 0 0 0.02148,-0.02539 0.75,0.75 0 0 0 0.01367,-0.0059 0.75,0.75 0 0 0 0.06055,-0.09766 0.75,0.75 0 0 0 0.07422,-0.123047 0.75,0.75 0 0 0 0.03516,-0.140625 0.75,0.75 0 0 0 0.02344,-0.134765 A 0.75,0.75 0 0 0 18,14 a 0.75,0.75 0 0 0 -0.002,-0.01367 0.75,0.75 0 0 0 -0.02148,-0.109375 0.75,0.75 0 0 0 -0.0039,-0.02148 0.75,0.75 0 0 0 -0.0039,-0.01758 0.75,0.75 0 0 0 -0.02148,-0.107422 0.75,0.75 0 0 0 -0.01367,-0.0332 0.75,0.75 0 0 0 -0.0625,-0.09375 0.75,0.75 0 0 0 -0.0078,-0.01172 0.75,0.75 0 0 0 -0.0098,-0.01367 0.75,0.75 0 0 0 -0.05078,-0.08398 0.75,0.75 0 0 0 -0.0059,-0.0039 0.75,0.75 0 0 0 -0.03516,-0.0332 0.75,0.75 0 0 0 -0.0059,-0.0098 l -3,-2.75 a 0.75,0.75 0 0 0 -0.539062,-0.195313 z m 0.539062,-7.8046874 a 0.75,0.75 0 0 0 -1.058593,0.046875 0.75,0.75 0 0 0 0.04687,1.0585938 L 15.322266,5.25 H 14.25 c -1.950429,0 -3.267029,0.5869304 -4.101562,1.4921875 C 9.3139036,7.6474446 8.964024,8.7486612 8.5820313,9.7265625 8.2000385,10.704464 7.8089034,11.553594 7.0585937,12.171875 6.3082841,12.790156 5.1388868,13.25 3,13.25 A 0.75,0.75 0 0 0 2.25,14 0.75,0.75 0 0 0 3,14.75 c 2.3611087,0 3.9417177,-0.540157 5.0117188,-1.421875 1.070001,-0.881718 1.5694934,-2.032591 1.96875,-3.054687 C 10.379725,9.2513408 10.701723,8.3525539 11.25,7.7578125 11.798277,7.1630711 12.575433,6.75 14.25,6.75 h 1.072266 l -1.578125,1.4472656 a 0.75,0.75 0 0 0 -0.04687,1.0585938 0.75,0.75 0 0 0 1.058593,0.046875 l 3,-2.75 a 0.75,0.75 0 0 0 0.01172,-0.015625 0.75,0.75 0 0 0 0.02148,-0.025391 0.75,0.75 0 0 0 0.01367,-0.00586 0.75,0.75 0 0 0 0.06055,-0.097656 0.75,0.75 0 0 0 0.07422,-0.1230469 0.75,0.75 0 0 0 0.03516,-0.140625 0.75,0.75 0 0 0 0.02344,-0.1347656 A 0.75,0.75 0 0 0 18,6 0.75,0.75 0 0 0 17.998,5.986328 0.75,0.75 0 0 0 17.97652,5.876953 0.75,0.75 0 0 0 17.97262,5.855469 0.75,0.75 0 0 0 17.96872,5.837891 0.75,0.75 0 0 0 17.94724,5.7304691 a 0.75,0.75 0 0 0 -0.01367,-0.033203 0.75,0.75 0 0 0 -0.0625,-0.09375 0.75,0.75 0 0 0 -0.0078,-0.011719 0.75,0.75 0 0 0 -0.0098,-0.013672 0.75,0.75 0 0 0 -0.05078,-0.083984 0.75,0.75 0 0 0 -0.0059,-0.00391 0.75,0.75 0 0 0 -0.03516,-0.033203 0.75,0.75 0 0 0 -0.0059,-0.00977 z" />
</svg>
