<?xml version="1.0" encoding="UTF-8" standalone="no"?>
<svg
   viewBox="0 0 20 20"
   fill="currentColor"
   version="1.1"
   id="svg1"
   sodipodi:docname="checklist-boxes.svg"
   inkscape:version="1.3.2 (091e20e, 2023-11-25)"
   width="20"
   height="20"
   xmlns:inkscape="http://www.inkscape.org/namespaces/inkscape"
   xmlns:sodipodi="http://sodipodi.sourceforge.net/DTD/sodipodi-0.dtd"
   xmlns="http://www.w3.org/2000/svg"
   xmlns:svg="http://www.w3.org/2000/svg">
  <defs
     id="defs1" />
  <sodipodi:namedview
     id="namedview1"
     pagecolor="#ffffff"
     bordercolor="#000000"
     borderopacity="0.25"
     inkscape:showpageshadow="2"
     inkscape:pageopacity="0.0"
     inkscape:pagecheckerboard="0"
     inkscape:deskcolor="#d1d1d1"
     showgrid="true"
     inkscape:zoom="29.750659"
     inkscape:cx="5.4956766"
     inkscape:cy="7.3275688"
     inkscape:window-width="2560"
     inkscape:window-height="1387"
     inkscape:window-x="0"
     inkscape:window-y="25"
     inkscape:window-maximized="0"
     inkscape:current-layer="svg1">
    <inkscape:grid
       id="grid1"
       units="px"
       originx="0"
       originy="0"
       spacingx="0.25"
       spacingy="0.25"
       empcolor="#0099e5"
       empopacity="0.6"
       color="#0099e5"
       opacity="0.14901961"
       empspacing="2"
       dotted="false"
       gridanglex="30"
       gridanglez="30"
       visible="true" />
    <inkscape:grid
       id="grid2"
       units="px"
       originx="0"
       originy="0"
       spacingx="4"
       spacingy="4"
       empcolor="#e50000"
       empopacity="0.6"
       color="#0099e5"
       opacity="0.14901961"
       empspacing="1"
       dotted="false"
       gridanglex="30"
       gridanglez="30"
       visible="true" />
  </sodipodi:namedview>
  <path
     id="path1"
     style="fill:#000000"
     d="M 2.75,14 C 2.3358036,14.000041 2.0000414,14.335804 2,14.75 v 3 c 4.14e-5,0.414196 0.3358036,0.749959 0.75,0.75 h 3 c 0.4141964,-4.1e-5 0.7499586,-0.335804 0.75,-0.75 v -3 C 6.4999586,14.335804 6.1641964,14.000041 5.75,14 Z M 3.5,15.5 H 5 V 17 H 3.5 Z M 2.75,7.5 C 2.3358036,7.5000414 2.0000414,7.8358036 2,8.25 v 3 c 4.14e-5,0.414196 0.3358036,0.749959 0.75,0.75 h 3 c 0.4141964,-4.1e-5 0.7499586,-0.335804 0.75,-0.75 v -3 C 6.4999586,7.8358036 6.1641964,7.5000414 5.75,7.5 Z M 3.5,9 H 5 v 1.5 H 3.5 Z M 6.1939929,1.8708988 C 5.8604689,1.6266954 5.3922078,1.6983216 5.1469598,2.031055 L 3.7815191,3.8865237 3.2736298,3.3943362 C 2.9764085,3.1057883 2.5015132,3.1127839 2.2129227,3.4099612 1.9238024,3.7066025 1.9299243,4.1814174 2.2265967,4.4705081 l 1.12517,1.0917969 C 3.6781605,5.8792968 4.2093685,5.8351128 4.47889,5.468555 L 6.3541733,2.9197269 C 6.599744,2.585908 6.5280129,2.1162275 6.1939929,1.8708988 Z M 8.75,2.999805 c -0.4142136,0 -0.75,0.3357864 -0.75,0.75 0,0.4142136 0.3357864,0.75 0.75,0.75 h 8.5 c 0.414214,0 0.75,-0.3357864 0.75,-0.75 0,-0.4142136 -0.335786,-0.75 -0.75,-0.75 z M 8.75,9.25 C 8.3357864,9.25 8,9.5857864 8,10 c 0,0.414214 0.3357864,0.75 0.75,0.75 h 8.5 C 17.664214,10.75 18,10.414214 18,10 18,9.5857864 17.664214,9.25 17.25,9.25 Z m 0,6.250187 c -0.4142136,0 -0.75,0.335786 -0.75,0.75 0,0.414214 0.3357864,0.75 0.75,0.75 h 8.5 c 0.414214,0 0.75,-0.335786 0.75,-0.75 0,-0.414214 -0.335786,-0.75 -0.75,-0.75 z"
     sodipodi:nodetypes="ccccccccccccccccccccccccccccccccccccccsssssssssssssssssssss" />
</svg>
