<?xml version="1.0" encoding="UTF-8" standalone="no"?>
<svg
   viewBox="0 0 20 20"
   fill="currentColor"
   version="1.1"
   id="svg1"
   sodipodi:docname="checklist.svg"
   inkscape:version="1.3.2 (091e20e, 2023-11-25)"
   width="20"
   height="20"
   xmlns:inkscape="http://www.inkscape.org/namespaces/inkscape"
   xmlns:sodipodi="http://sodipodi.sourceforge.net/DTD/sodipodi-0.dtd"
   xmlns="http://www.w3.org/2000/svg"
   xmlns:svg="http://www.w3.org/2000/svg">
  <defs
     id="defs1" />
  <sodipodi:namedview
     id="namedview1"
     pagecolor="#ffffff"
     bordercolor="#000000"
     borderopacity="0.25"
     inkscape:showpageshadow="2"
     inkscape:pageopacity="0.0"
     inkscape:pagecheckerboard="0"
     inkscape:deskcolor="#d1d1d1"
     showgrid="true"
     inkscape:zoom="30.857827"
     inkscape:cx="19.71947"
     inkscape:cy="5.735984"
     inkscape:window-width="2560"
     inkscape:window-height="1387"
     inkscape:window-x="1800"
     inkscape:window-y="25"
     inkscape:window-maximized="0"
     inkscape:current-layer="svg1">
    <inkscape:grid
       id="grid1"
       units="px"
       originx="0"
       originy="0"
       spacingx="0.5"
       spacingy="0.5"
       empcolor="#0099e5"
       empopacity="0.6"
       color="#0099e5"
       opacity="0.14901961"
       empspacing="2"
       dotted="false"
       gridanglex="30"
       gridanglez="30"
       visible="true" />
    <inkscape:grid
       id="grid2"
       units="px"
       originx="0"
       originy="0"
       spacingx="4"
       spacingy="4"
       empcolor="#e50000"
       empopacity="0.6"
       color="#0099e5"
       opacity="0.14901961"
       empspacing="1"
       dotted="false"
       gridanglex="30"
       gridanglez="30"
       visible="true" />
  </sodipodi:namedview>
  <path
     id="path1"
     style="fill:#000000"
     d="M 5.6367187,14.234562 A 0.75,0.75 0 0 0 5.1464844,14.531437 L 3.78125,16.386906 3.2734375,15.894718 a 0.75,0.75 0 0 0 -1.0605469,0.01563 0.75,0.75 0 0 0 0.013672,1.060547 l 1.125,1.091797 a 0.750075,0.750075 0 0 0 1.1269531,-0.09375 l 1.875,-2.548828 A 0.75,0.75 0 0 0 6.1933594,14.371281 0.75,0.75 0 0 0 5.6367187,14.234562 Z M 6.1933594,1.8708988 A 0.75,0.75 0 0 0 5.1464844,2.031055 L 3.78125,3.8865237 3.2734375,3.3943362 a 0.75,0.75 0 0 0 -1.0605469,0.015625 0.75,0.75 0 0 0 0.013672,1.0605469 l 1.125,1.0917969 a 0.750075,0.750075 0 0 0 1.126953,-0.09375 l 1.875,-2.5488281 A 0.75,0.75 0 0 0 6.1933594,1.8708988 Z m 0,6.250195 A 0.75,0.75 0 0 0 5.1464844,8.28125 L 3.78125,10.136719 3.2734375,9.6445313 a 0.75,0.75 0 0 0 -1.0605469,0.015625 0.75,0.75 0 0 0 0.013672,1.0605467 l 1.125,1.091797 a 0.750075,0.750075 0 0 0 1.1269531,-0.09375 l 1.875,-2.5488281 A 0.75,0.75 0 0 0 6.1933594,8.1210938 Z M 8.75,2.999805 a 0.75,0.75 0 0 0 -0.75,0.75 0.75,0.75 0 0 0 0.75,0.75 h 8.5 a 0.75,0.75 0 0 0 0.75,-0.75 0.75,0.75 0 0 0 -0.75,-0.75 z M 8.75,9.25 A 0.75,0.75 0 0 0 8,10 0.75,0.75 0 0 0 8.75,10.75 h 8.5 A 0.75,0.75 0 0 0 18,10 0.75,0.75 0 0 0 17.25,9.25 Z m 0,6.250187 a 0.75,0.75 0 0 0 -0.75,0.75 0.75,0.75 0 0 0 0.75,0.75 h 8.5 a 0.75,0.75 0 0 0 0.75,-0.75 0.75,0.75 0 0 0 -0.75,-0.75 z" />
</svg>
