<?xml version="1.0" encoding="UTF-8" standalone="no"?>
<svg
   viewBox="0 0 20 20"
   fill="currentColor"
   version="1.1"
   id="svg1"
   sodipodi:docname="circle-dashed.svg"
   inkscape:version="1.3.2 (091e20e, 2023-11-25)"
   width="20"
   height="20"
   xmlns:inkscape="http://www.inkscape.org/namespaces/inkscape"
   xmlns:sodipodi="http://sodipodi.sourceforge.net/DTD/sodipodi-0.dtd"
   xmlns="http://www.w3.org/2000/svg"
   xmlns:svg="http://www.w3.org/2000/svg">
  <defs
     id="defs1" />
  <sodipodi:namedview
     id="namedview1"
     pagecolor="#ffffff"
     bordercolor="#000000"
     borderopacity="0.25"
     inkscape:showpageshadow="2"
     inkscape:pageopacity="0.0"
     inkscape:pagecheckerboard="0"
     inkscape:deskcolor="#d1d1d1"
     showgrid="true"
     inkscape:zoom="29.199861"
     inkscape:cx="10.359638"
     inkscape:cy="9.7945672"
     inkscape:window-width="1800"
     inkscape:window-height="1097"
     inkscape:window-x="1"
     inkscape:window-y="44"
     inkscape:window-maximized="0"
     inkscape:current-layer="svg1">
    <inkscape:grid
       id="grid1"
       units="px"
       originx="0"
       originy="0"
       spacingx="0.25"
       spacingy="0.25"
       empcolor="#0099e5"
       empopacity="0.6"
       color="#0099e5"
       opacity="0.14901961"
       empspacing="2"
       dotted="false"
       gridanglex="30"
       gridanglez="30"
       visible="true" />
    <inkscape:grid
       id="grid2"
       units="px"
       originx="0"
       originy="0"
       spacingx="4"
       spacingy="4"
       empcolor="#e50000"
       empopacity="0.6"
       color="#0099e5"
       opacity="0.14901961"
       empspacing="1"
       dotted="false"
       gridanglex="30"
       gridanglez="30"
       visible="true" />
  </sodipodi:namedview>
  <path
     id="path1"
     style="fill:#000000"
     d="m 11.166344,2.2887181 a 0.74999499,0.74999499 0 0 0 -0.329468,0.4715794 0.74999499,0.74999499 0 0 0 0.569831,0.8944563 c 0.740267,0.1641133 1.445378,0.4551339 2.084872,0.862537 A 0.74999499,0.74999499 0 0 0 14.526867,4.288478 0.74999499,0.74999499 0 0 0 14.298054,3.2531901 C 13.510996,2.7517788 12.642417,2.3924495 11.731332,2.190466 a 0.74999499,0.74999499 0 0 0 -0.564988,0.098252 z M 5.7016031,3.2528682 A 0.74999499,0.74999499 0 0 0 5.4720342,4.2883865 0.74999499,0.74999499 0 0 0 6.5075525,4.5179554 C 7.1470456,4.1105533 7.8527875,3.8189333 8.5930541,3.654821 A 0.74999499,0.74999499 0 0 0 9.1621358,2.7596419 0.74999499,0.74999499 0 0 0 8.2686039,2.1895108 C 7.3575194,2.3914934 6.488661,2.751457 5.7016031,3.2528682 Z M 3.25319,5.7019462 C 2.7517788,6.4890042 2.3924491,7.3575828 2.1904662,8.2686678 A 0.74999499,0.74999499 0 0 0 2.7602977,9.163124 0.74999499,0.74999499 0 0 0 3.6547539,8.5932926 C 3.8188669,7.8530256 4.1098887,7.1479154 4.5172904,6.5084215 A 0.74999499,0.74999499 0 0 0 4.2874289,5.4714872 0.74999499,0.74999499 0 0 0 3.25319,5.7019462 Z M 2.7585927,10.836218 a 0.74999499,0.74999499 0 0 0 -0.5690818,0.895178 c 0.2019831,0.911085 0.5619462,1.779943 1.0633574,2.567001 a 0.74999499,0.74999499 0 0 0 1.0355184,0.229569 0.74999499,0.74999499 0 0 0 0.2295688,-1.035519 C 4.1105536,12.852954 3.8189337,12.147213 3.6548204,11.406946 A 0.74999499,0.74999499 0 0 0 2.7585927,10.836218 Z m 3.1835429,4.546412 a 0.74999499,0.74999499 0 0 0 -0.4706492,0.329941 0.74999499,0.74999499 0 0 0 0.2304598,1.034239 c 0.787058,0.501411 1.6556365,0.86074 2.5667214,1.062723 A 0.74999499,0.74999499 0 0 0 9.1631237,17.239701 0.74999499,0.74999499 0 0 0 8.5932922,16.345245 C 7.8530254,16.181132 7.1468653,15.888464 6.507372,15.481062 A 0.74999499,0.74999499 0 0 0 5.9421356,15.38263 Z m 5.4648104,0.96255 a 0.74999499,0.74999499 0 0 0 -0.570728,0.896228 0.74999499,0.74999499 0 0 0 0.895178,0.569081 c 0.911086,-0.201982 1.779943,-0.561946 2.567001,-1.063357 a 0.74999499,0.74999499 0 0 0 0.229569,-1.035519 0.74999499,0.74999499 0 0 0 -1.035518,-0.229569 c -0.639494,0.407402 -1.345235,0.699023 -2.085502,0.863136 z m 5.268817,-5.408405 a 0.74999499,0.74999499 0 0 0 -0.330517,0.469932 c -0.164112,0.740267 -0.456781,1.446427 -0.864183,2.08592 a 0.74999499,0.74999499 0 0 0 0.23046,1.034239 0.74999499,0.74999499 0 0 0 1.035287,-0.228812 c 0.501411,-0.787058 0.860742,-1.655636 1.062724,-2.566722 a 0.74999499,0.74999499 0 0 0 -0.569832,-0.894456 0.74999499,0.74999499 0 0 0 -0.563939,0.0999 z m -0.96415,-5.464741 a 0.74999499,0.74999499 0 0 0 -0.229569,1.0355183 c 0.407403,0.6394942 0.699023,1.3452352 0.863136,2.0855021 a 0.74999499,0.74999499 0 0 0 0.895179,0.5690809 0.74999499,0.74999499 0 0 0 0.57013,-0.8935314 C 17.608506,7.3575194 17.248543,6.488661 16.747132,5.7016029 A 0.74999499,0.74999499 0 0 0 15.711613,5.472034 Z" />
</svg>
