<?xml version="1.0" encoding="UTF-8" standalone="no"?>
<svg
   viewBox="0 0 20 20"
   fill="currentColor"
   version="1.1"
   id="svg1"
   sodipodi:docname="compass.svg"
   inkscape:version="1.3.2 (091e20e, 2023-11-25)"
   width="20"
   height="20"
   xml:space="preserve"
   xmlns:inkscape="http://www.inkscape.org/namespaces/inkscape"
   xmlns:sodipodi="http://sodipodi.sourceforge.net/DTD/sodipodi-0.dtd"
   xmlns="http://www.w3.org/2000/svg"
   xmlns:svg="http://www.w3.org/2000/svg"><defs
     id="defs1" /><sodipodi:namedview
     id="namedview1"
     pagecolor="#ffffff"
     bordercolor="#000000"
     borderopacity="0.25"
     inkscape:showpageshadow="2"
     inkscape:pageopacity="0.0"
     inkscape:pagecheckerboard="0"
     inkscape:deskcolor="#d1d1d1"
     showgrid="false"
     inkscape:zoom="16.374714"
     inkscape:cx="20.916396"
     inkscape:cy="-4.8245117"
     inkscape:window-width="2560"
     inkscape:window-height="1387"
     inkscape:window-x="1800"
     inkscape:window-y="25"
     inkscape:window-maximized="1"
     inkscape:current-layer="svg1"><inkscape:grid
       id="grid1"
       units="px"
       originx="0"
       originy="0"
       spacingx="0.5"
       spacingy="0.5"
       empcolor="#0099e5"
       empopacity="0.6"
       color="#0099e5"
       opacity="0.14901961"
       empspacing="2"
       dotted="false"
       gridanglex="30"
       gridanglez="30"
       visible="false" /><inkscape:grid
       id="grid2"
       units="px"
       originx="0"
       originy="0"
       spacingx="4"
       spacingy="4"
       empcolor="#e50000"
       empopacity="0.6"
       color="#0099e5"
       opacity="0.14901961"
       empspacing="1"
       dotted="false"
       gridanglex="30"
       gridanglez="30"
       visible="false" /></sodipodi:namedview><path
     id="path8"
     style="fill:#000000;stroke-width:1.5;stroke-linecap:round;stroke-linejoin:round"
     d="m 11,10 a 1,1 0 0 1 -1,1 1,1 0 0 1 -1,-1 1,1 0 0 1 1,-1 1,1 0 0 1 1,1 z M 10,2 c -4.418252,0 -8,3.5817437 -8,8 0,4.418258 3.581748,8 8,8 4.418252,0 8,-3.581742 8,-8 0,-4.4182564 -3.581748,-8 -8,-8 z m 3.712891,3.6914062 c 0.06171,0.00207 0.123306,0.014918 0.18164,0.035156 0.375271,0.1303134 0.529714,0.5769836 0.316407,0.9121094 l -2.871094,4.5117191 c -0.04841,0.07613 -0.11332,0.141041 -0.189453,0.189453 L 6.6386719,14.210938 C 6.0836529,14.56295 5.4370498,13.916348 5.7890625,13.361328 L 8.6601562,8.8496094 C 8.7085662,8.7734745 8.7734765,8.7085673 8.8496094,8.6601562 L 13.361328,5.7890625 c 0.104621,-0.066695 0.227558,-0.1017137 0.351563,-0.097656 z" /></svg>
