<?xml version="1.0" encoding="UTF-8" standalone="no"?>
<svg
   viewBox="0 0 20 20"
   fill="currentColor"
   version="1.1"
   id="svg1"
   sodipodi:docname="cookie.svg"
   inkscape:version="1.3.2 (091e20e, 2023-11-25)"
   width="20"
   height="20"
   xmlns:inkscape="http://www.inkscape.org/namespaces/inkscape"
   xmlns:sodipodi="http://sodipodi.sourceforge.net/DTD/sodipodi-0.dtd"
   xmlns="http://www.w3.org/2000/svg"
   xmlns:svg="http://www.w3.org/2000/svg">
  <defs
     id="defs1" />
  <sodipodi:namedview
     id="namedview1"
     pagecolor="#ffffff"
     bordercolor="#000000"
     borderopacity="0.25"
     inkscape:showpageshadow="2"
     inkscape:pageopacity="0.0"
     inkscape:pagecheckerboard="0"
     inkscape:deskcolor="#d1d1d1"
     showgrid="false"
     inkscape:zoom="25.673506"
     inkscape:cx="9.0560283"
     inkscape:cy="6.6995134"
     inkscape:window-width="2560"
     inkscape:window-height="1387"
     inkscape:window-x="1800"
     inkscape:window-y="25"
     inkscape:window-maximized="1"
     inkscape:current-layer="svg1">
    <inkscape:grid
       id="grid1"
       units="px"
       originx="0"
       originy="0"
       spacingx="0.5"
       spacingy="0.5"
       empcolor="#0099e5"
       empopacity="0.6"
       color="#0099e5"
       opacity="0.14901961"
       empspacing="2"
       dotted="false"
       gridanglex="30"
       gridanglez="30"
       visible="false" />
    <inkscape:grid
       id="grid2"
       units="px"
       originx="0"
       originy="0"
       spacingx="4"
       spacingy="4"
       empcolor="#e50000"
       empopacity="0.6"
       color="#0099e5"
       opacity="0.14901961"
       empspacing="1"
       dotted="false"
       gridanglex="30"
       gridanglez="30"
       visible="false" />
  </sodipodi:namedview>
  <path
     id="path1"
     style="fill:#000000"
     d="m 16.246711,6.5 a 0.75,0.75 0 0 0 -0.75,0.75 0.75,0.75 0 0 0 0.75,0.7500001 0.75,0.75 0 0 0 0.75,-0.7500001 0.75,0.75 0 0 0 -0.75,-0.75 z M 15.25,3 A 0.75,0.75 0 0 0 14.5,3.75 0.75,0.75 0 0 0 15.25,4.5 0.75,0.75 0 0 0 16,3.75 0.75,0.75 0 0 0 15.25,3 Z m -2,2 A 0.75,0.75 0 0 0 12.5,5.75 0.75,0.75 0 0 0 13.25,6.5 0.75,0.75 0 0 0 14,5.75 0.75,0.75 0 0 0 13.25,5 Z M 9.6503906,2 C 5.3997832,2.1854325 2,5.7031648 2,9.9960938 2,14.407628 5.5923775,18 10.003906,18 14.296833,18 17.814565,14.600222 18,10.349609 A 0.750075,0.750075 0 0 0 16.707031,9.7988281 c -0.267682,0.2806229 -0.638121,0.4550779 -1.060547,0.4550779 -0.654927,0 -1.199288,-0.423371 -1.392578,-1.003906 A 0.750075,0.750075 0 0 0 13.162109,8.8417969 c -0.220763,0.1299283 -0.468747,0.203125 -0.740234,0.203125 -0.818787,0 -1.466797,-0.648008 -1.466797,-1.4667969 0,-0.2735435 0.07264,-0.5238299 0.201172,-0.7421875 A 0.750075,0.750075 0 0 0 10.748047,5.7441406 C 10.167615,5.5503315 9.7460938,5.0078824 9.7460938,4.3535156 c 0,-0.4224193 0.174458,-0.792861 0.4550782,-1.0605468 A 0.750075,0.750075 0 0 0 9.6503906,2 Z M 7.25,6 A 0.75,0.75 0 0 1 8,6.75 0.75,0.75 0 0 1 7.25,7.5 0.75,0.75 0 0 1 6.5,6.75 0.75,0.75 0 0 1 7.25,6 Z m -1.5,3.5 c 0.2932737,0 0.5964445,0.094627 0.84375,0.3144531 C 6.8410552,10.034282 7,10.391011 7,10.75 7,11.108989 6.8410552,11.46572 6.59375,11.685547 6.3464445,11.905376 6.0432737,12 5.75,12 5.4567264,12 5.1555084,11.905375 4.9082031,11.685547 4.6608979,11.46572 4.5,11.108989 4.5,10.75 4.5,10.391011 4.6608979,10.034282 4.9082031,9.8144531 5.1555084,9.5946276 5.4567263,9.5 5.75,9.5 Z m 4,0.5 A 0.75,0.75 0 0 1 10.5,10.75 0.75,0.75 0 0 1 9.75,11.5 0.75,0.75 0 0 1 9,10.75 0.75,0.75 0 0 1 9.75,10 Z m 3,2 c 0.293275,0 0.594491,0.09463 0.841797,0.314453 C 13.839103,12.534281 14,12.891011 14,13.25 14,13.608989 13.839103,13.965719 13.591797,14.185547 13.344491,14.405376 13.043275,14.5 12.75,14.5 12.456727,14.5 12.155509,14.405375 11.908203,14.185547 11.660897,13.965719 11.5,13.608989 11.5,13.25 c 0,-0.358989 0.160897,-0.715719 0.408203,-0.935547 C 12.155509,12.094627 12.456727,12 12.75,12 Z m -4.5,1.5 A 0.75,0.75 0 0 1 9,14.25 0.75,0.75 0 0 1 8.25,15 0.75,0.75 0 0 1 7.5,14.25 0.75,0.75 0 0 1 8.25,13.5 Z" />
</svg>
