<?xml version="1.0" encoding="UTF-8" standalone="no"?>
<svg
   viewBox="0 0 20 20"
   fill="currentColor"
   version="1.1"
   id="svg1"
   sodipodi:docname="dice.svg"
   inkscape:version="1.3.2 (091e20e, 2023-11-25)"
   width="20"
   height="20"
   xmlns:inkscape="http://www.inkscape.org/namespaces/inkscape"
   xmlns:sodipodi="http://sodipodi.sourceforge.net/DTD/sodipodi-0.dtd"
   xmlns="http://www.w3.org/2000/svg"
   xmlns:svg="http://www.w3.org/2000/svg">
  <defs
     id="defs1" />
  <sodipodi:namedview
     id="namedview1"
     pagecolor="#ffffff"
     bordercolor="#000000"
     borderopacity="0.25"
     inkscape:showpageshadow="2"
     inkscape:pageopacity="0.0"
     inkscape:pagecheckerboard="0"
     inkscape:deskcolor="#d1d1d1"
     showgrid="false"
     inkscape:zoom="24.629584"
     inkscape:cx="13.743634"
     inkscape:cy="13.479724"
     inkscape:window-width="2560"
     inkscape:window-height="1387"
     inkscape:window-x="0"
     inkscape:window-y="25"
     inkscape:window-maximized="1"
     inkscape:current-layer="svg1">
    <inkscape:grid
       id="grid1"
       units="px"
       originx="0"
       originy="0"
       spacingx="0.25"
       spacingy="0.25"
       empcolor="#0099e5"
       empopacity="0.6"
       color="#0099e5"
       opacity="0.14901961"
       empspacing="2"
       dotted="false"
       gridanglex="30"
       gridanglez="30"
       visible="false" />
    <inkscape:grid
       id="grid2"
       units="px"
       originx="0"
       originy="0"
       spacingx="4"
       spacingy="4"
       empcolor="#e50000"
       empopacity="0.6"
       color="#0099e5"
       opacity="0.14901961"
       empspacing="1"
       dotted="false"
       gridanglex="30"
       gridanglez="30"
       visible="false" />
  </sodipodi:namedview>
  <path
     id="path1"
     d="M 2,6.4433594 V 14.25 c 0,0.2732 0.1475496,0.52425 0.3867188,0.65625 L 9.25,18.693359 v -8.25 z M 3.7988281,8.9003906 C 4.1766044,8.8846411 4.6131435,9.1637782 4.8828125,9.6308594 5.2279893,10.228722 5.1685045,10.908766 4.75,11.150391 4.3314956,11.392011 3.7123643,11.103725 3.3671875,10.505859 3.0220105,9.9079972 3.0814954,9.2259988 3.5,8.984375 3.5915478,8.9315199 3.6930507,8.9048005 3.7988281,8.9003906 Z m 3,1.7500004 c 0.3777767,-0.01575 0.8143151,0.263391 1.0839844,0.730468 C 8.2279896,11.978725 8.1685048,12.658766 7.75,12.900391 7.3314952,13.142012 6.7123646,12.853721 6.3671875,12.255859 6.0220102,11.657996 6.081495,10.976 6.5,10.734375 6.5915479,10.68152 6.6930506,10.6548 6.7988281,10.650391 Z m -3,1.5 c 0.3777771,-0.01575 0.8143147,0.26339 1.0839844,0.730468 C 5.2279899,13.478725 5.1685053,14.158766 4.75,14.400391 4.3314948,14.642013 3.7123649,14.353721 3.3671875,13.755859 3.0220099,13.157995 3.0814947,12.476 3.5,12.234375 3.591548,12.18152 3.6930505,12.1548 3.7988281,12.150391 Z m 3,1.75 C 7.1766056,13.884642 7.6131426,14.16378 7.8828125,14.630859 8.2279902,15.228725 8.1685056,15.908766 7.75,16.150391 7.3314944,16.392014 6.7123652,16.103721 6.3671875,15.505859 6.0220096,14.907994 6.0814942,14.226 6.5,13.984375 6.5915481,13.93152 6.6930504,13.9048 6.7988281,13.900391 Z M 18,6.4433594 10.75,10.443359 v 8.25 L 17.611328,14.90625 C 17.850528,14.774251 18,14.5232 18,14.25 Z m -4.84375,4.2070316 c 0.122285,-0.0024 0.239124,0.02358 0.34375,0.08398 0.418506,0.241625 0.47799,0.92362 0.132812,1.521484 -0.345176,0.597862 -0.964306,0.886154 -1.382812,0.644532 -0.418506,-0.241625 -0.47799,-0.921666 -0.132812,-1.519532 0.258881,-0.448395 0.672206,-0.723156 1.039062,-0.730468 z m 3,1.5 c 0.122285,-0.0024 0.239124,0.02358 0.34375,0.08398 0.418506,0.241625 0.47799,0.923619 0.132812,1.521484 -0.345177,0.597862 -0.964306,0.886155 -1.382812,0.644532 -0.418506,-0.241625 -0.477989,-0.921666 -0.132812,-1.519532 0.258883,-0.448396 0.672206,-0.723156 1.039062,-0.730468 z M 10,1 C 9.8752251,1 9.7494786,1.0315371 9.6367188,1.09375 L 2.5234375,5.0175781 10,9.1425781 17.476562,5.0175781 10.361328,1.09375 C 10.248578,1.0315371 10.124775,1 10,1 Z m 0,3.1972656 a 1.25,0.875 0 0 1 1.25,0.875 1.25,0.875 0 0 1 -1.25,0.875 1.25,0.875 0 0 1 -1.25,-0.875 1.25,0.875 0 0 1 1.25,-0.875 z"
     fill="#000000" />
</svg>
