<?xml version="1.0" encoding="UTF-8" standalone="no"?>
<svg
   viewBox="0 0 20 20"
   fill="currentColor"
   version="1.1"
   id="svg1"
   sodipodi:docname="dots-3x2.svg"
   inkscape:version="1.3.2 (091e20e, 2023-11-25)"
   width="20"
   height="20"
   xmlns:inkscape="http://www.inkscape.org/namespaces/inkscape"
   xmlns:sodipodi="http://sodipodi.sourceforge.net/DTD/sodipodi-0.dtd"
   xmlns="http://www.w3.org/2000/svg"
   xmlns:svg="http://www.w3.org/2000/svg">
  <defs
     id="defs1" />
  <sodipodi:namedview
     id="namedview1"
     pagecolor="#ffffff"
     bordercolor="#000000"
     borderopacity="0.25"
     inkscape:showpageshadow="2"
     inkscape:pageopacity="0.0"
     inkscape:pagecheckerboard="0"
     inkscape:deskcolor="#d1d1d1"
     showgrid="true"
     inkscape:zoom="23.752104"
     inkscape:cx="2.7787012"
     inkscape:cy="6.6520423"
     inkscape:window-width="2560"
     inkscape:window-height="1387"
     inkscape:window-x="1800"
     inkscape:window-y="25"
     inkscape:window-maximized="0"
     inkscape:current-layer="svg1">
    <inkscape:grid
       id="grid1"
       units="px"
       originx="0"
       originy="0"
       spacingx="0.25"
       spacingy="0.25"
       empcolor="#0099e5"
       empopacity="0.6"
       color="#0099e5"
       opacity="0.14901961"
       empspacing="2"
       dotted="false"
       gridanglex="30"
       gridanglez="30"
       visible="true" />
    <inkscape:grid
       id="grid2"
       units="px"
       originx="0"
       originy="0"
       spacingx="4"
       spacingy="4"
       empcolor="#e50000"
       empopacity="0.6"
       color="#0099e5"
       opacity="0.14901961"
       empspacing="1"
       dotted="false"
       gridanglex="30"
       gridanglez="30"
       visible="true" />
  </sodipodi:namedview>
  <path
     id="path1"
     style="fill:#000000"
     d="M 17,7.25 C 17,6.2938686 16.206131,5.5 15.25,5.5 14.293869,5.5 13.5,6.2938686 13.5,7.25 13.5,8.2061314 14.293869,9 15.25,9 16.206131,9 17,8.2061314 17,7.25 Z m 0,5.5 C 17,11.793868 16.206131,11 15.25,11 c -0.956131,0 -1.75,0.793868 -1.75,1.75 0,0.956131 0.793869,1.75 1.75,1.75 0.956131,0 1.75,-0.793869 1.75,-1.75 z m -5.25,-5.5 c 0,-0.9561314 -0.793869,-1.75 -1.750001,-1.75 -0.95613,0 -1.75,0.7938686 -1.75,1.75 0,0.9561314 0.79387,1.75 1.75,1.75 C 10.956131,9 11.75,8.2061314 11.75,7.25 Z m -10e-7,5.5 c 0,-0.956132 -0.793868,-1.75 -1.75,-1.75 -0.956131,0 -1.75,0.793868 -1.75,1.75 0,0.956131 0.793869,1.75 1.75,1.75 0.956132,0 1.75,-0.793869 1.75,-1.75 z M 6.5,7.25 C 6.5,6.2938686 5.706132,5.5 4.75,5.5 3.793868,5.5 3,6.2938686 3,7.25 3,8.2061314 3.793868,9 4.75,9 5.706132,9 6.5,8.2061314 6.5,7.25 Z m 0,5.5 C 6.5,11.793868 5.706132,11 4.75,11 3.793868,11 3,11.793868 3,12.75 c 0,0.956131 0.793868,1.75 1.75,1.75 0.956132,0 1.75,-0.793869 1.75,-1.75 z" />
</svg>
