<?xml version="1.0" encoding="UTF-8" standalone="no"?>
<svg
   viewBox="0 0 20 20"
   fill="currentColor"
   version="1.1"
   id="svg1"
   sodipodi:docname="dots-2x3.svg"
   inkscape:version="1.3.2 (091e20e, 2023-11-25)"
   width="20"
   height="20"
   xmlns:inkscape="http://www.inkscape.org/namespaces/inkscape"
   xmlns:sodipodi="http://sodipodi.sourceforge.net/DTD/sodipodi-0.dtd"
   xmlns="http://www.w3.org/2000/svg"
   xmlns:svg="http://www.w3.org/2000/svg">
  <defs
     id="defs1" />
  <sodipodi:namedview
     id="namedview1"
     pagecolor="#ffffff"
     bordercolor="#000000"
     borderopacity="0.25"
     inkscape:showpageshadow="2"
     inkscape:pageopacity="0.0"
     inkscape:pagecheckerboard="0"
     inkscape:deskcolor="#d1d1d1"
     showgrid="true"
     inkscape:zoom="23.752104"
     inkscape:cx="2.7365997"
     inkscape:cy="6.6520424"
     inkscape:window-width="2560"
     inkscape:window-height="1387"
     inkscape:window-x="1800"
     inkscape:window-y="25"
     inkscape:window-maximized="0"
     inkscape:current-layer="svg1">
    <inkscape:grid
       id="grid1"
       units="px"
       originx="0"
       originy="0"
       spacingx="0.25"
       spacingy="0.25"
       empcolor="#0099e5"
       empopacity="0.6"
       color="#0099e5"
       opacity="0.14901961"
       empspacing="2"
       dotted="false"
       gridanglex="30"
       gridanglez="30"
       visible="true" />
    <inkscape:grid
       id="grid2"
       units="px"
       originx="0"
       originy="0"
       spacingx="4"
       spacingy="4"
       empcolor="#e50000"
       empopacity="0.6"
       color="#0099e5"
       opacity="0.14901961"
       empspacing="1"
       dotted="false"
       gridanglex="30"
       gridanglez="30"
       visible="true" />
  </sodipodi:namedview>
  <path
     id="path1"
     style="fill:#000000"
     d="M 7.25,3 C 6.2938686,3 5.5,3.7938686 5.5,4.7499999 c 0,0.9561314 0.7938686,1.75 1.75,1.75 0.9561314,0 1.75,-0.7938686 1.75,-1.75 C 9,3.7938687 8.2061314,3.0000001 7.25,3 Z m 5.5,0 C 11.793868,3 11,3.7938686 11,4.7499999 c 0,0.9561314 0.793868,1.75 1.75,1.75 0.956131,0 1.75,-0.7938686 1.75,-1.75 C 14.5,3.7938687 13.706131,3.0000001 12.75,3 Z m -5.5,5.2500005 c -0.9561314,0 -1.75,0.7938683 -1.75,1.7500005 0,0.95613 0.7938686,1.75 1.75,1.75 0.9561314,0 1.75,-0.79387 1.75,-1.75 C 9,9.0438689 8.2061314,8.2500005 7.25,8.2500005 Z m 5.5,3e-7 c -0.956132,0 -1.75,0.7938683 -1.75,1.7500002 0,0.956131 0.793868,1.75 1.75,1.75 0.956131,0 1.75,-0.793869 1.75,-1.75 0,-0.9561318 -0.793869,-1.7500002 -1.75,-1.7500002 z M 7.25,13.5 C 6.2938686,13.5 5.5,14.293868 5.5,15.25 5.5,16.206132 6.2938686,17 7.25,17 8.2061314,17 9,16.206132 9,15.25 9,14.293868 8.2061314,13.5 7.25,13.5 Z m 5.5,0 c -0.956132,0 -1.75,0.793868 -1.75,1.75 0,0.956132 0.793868,1.75 1.75,1.75 0.956131,0 1.75,-0.793868 1.75,-1.75 0,-0.956132 -0.793869,-1.75 -1.75,-1.75 z" />
</svg>
