<?xml version="1.0" encoding="UTF-8" standalone="no"?>
<svg
   viewBox="0 0 20 20"
   fill="currentColor"
   version="1.1"
   id="svg1"
   sodipodi:docname="dots-3x3.svg"
   inkscape:version="1.3.2 (091e20e, 2023-11-25)"
   width="20"
   height="20"
   xmlns:inkscape="http://www.inkscape.org/namespaces/inkscape"
   xmlns:sodipodi="http://sodipodi.sourceforge.net/DTD/sodipodi-0.dtd"
   xmlns="http://www.w3.org/2000/svg"
   xmlns:svg="http://www.w3.org/2000/svg">
  <defs
     id="defs1" />
  <sodipodi:namedview
     id="namedview1"
     pagecolor="#ffffff"
     bordercolor="#000000"
     borderopacity="0.25"
     inkscape:showpageshadow="2"
     inkscape:pageopacity="0.0"
     inkscape:pagecheckerboard="0"
     inkscape:deskcolor="#d1d1d1"
     showgrid="true"
     inkscape:zoom="30.301036"
     inkscape:cx="5.2638465"
     inkscape:cy="11.385749"
     inkscape:window-width="2560"
     inkscape:window-height="1387"
     inkscape:window-x="1512"
     inkscape:window-y="25"
     inkscape:window-maximized="0"
     inkscape:current-layer="svg1">
    <inkscape:grid
       id="grid1"
       units="px"
       originx="0"
       originy="0"
       spacingx="0.25"
       spacingy="0.25"
       empcolor="#0099e5"
       empopacity="0.6"
       color="#0099e5"
       opacity="0.14901961"
       empspacing="2"
       dotted="false"
       gridanglex="30"
       gridanglez="30"
       visible="true" />
    <inkscape:grid
       id="grid2"
       units="px"
       originx="0"
       originy="0"
       spacingx="4"
       spacingy="4"
       empcolor="#e50000"
       empopacity="0.6"
       color="#0099e5"
       opacity="0.14901961"
       empspacing="1"
       dotted="false"
       gridanglex="30"
       gridanglez="30"
       visible="true" />
  </sodipodi:namedview>
  <path
     id="path1"
     style="fill:#000000"
     d="M 4.5,17 C 5.3284,17 6,16.3284 6,15.5 6,14.67157 5.3284,14 4.5,14 3.6716,14 3,14.67157 3,15.5 3,16.3284 3.6716,17 4.5,17 Z m 7,-1.5 C 11.5,16.3284 10.82843,17 10,17 9.1716,17 8.5,16.3284 8.5,15.5 8.5,14.67157 9.1716,14 10,14 c 0.82843,0 1.5,0.67157 1.5,1.5 z m 5.5,0 C 17,16.3284 16.32843,17 15.5,17 14.67157,17 14,16.3284 14,15.5 14,14.67157 14.67157,14 15.5,14 16.32843,14 17,14.67157 17,15.5 Z M 4.5,6 C 5.3284,6 6,5.3284 6,4.5 6,3.67157 5.3284,3 4.5,3 3.6716,3 3,3.67157 3,4.5 3,5.3284 3.6716,6 4.5,6 Z m 7,-1.5 C 11.5,5.3284 10.82843,6 10,6 9.1716,6 8.5,5.3284 8.5,4.5 8.5,3.67157 9.1716,3 10,3 c 0.82843,0 1.5,0.67157 1.5,1.5 z m 5.5,0 C 17,5.3284 16.32843,6 15.5,6 14.67157,6 14,5.3284 14,4.5 14,3.67157 14.67157,3 15.5,3 16.32843,3 17,3.67157 17,4.5 Z m -12.5,7 C 5.3284,11.5 6,10.8284 6,10 6,9.17157 5.3284,8.5 4.5,8.5 3.6716,8.5 3,9.17157 3,10 c 0,0.8284 0.6716,1.5 1.5,1.5 z m 7,-1.5 c 0,0.8284 -0.67157,1.5 -1.5,1.5 -0.8284,0 -1.5,-0.6716 -1.5,-1.5 0,-0.82843 0.6716,-1.5 1.5,-1.5 0.82843,0 1.5,0.67157 1.5,1.5 z m 5.5,0 c 0,0.8284 -0.67157,1.5 -1.5,1.5 C 14.67157,11.5 14,10.8284 14,10 14,9.17157 14.67157,8.5 15.5,8.5 16.32843,8.5 17,9.17157 17,10 Z" />
</svg>
