<?xml version="1.0" encoding="UTF-8" standalone="no"?>
<svg
   viewBox="0 0 20 20"
   fill="currentColor"
   version="1.1"
   id="svg1"
   sodipodi:docname="face-smile-plus.svg"
   inkscape:version="1.3.2 (091e20e, 2023-11-25)"
   width="20"
   height="20"
   xmlns:inkscape="http://www.inkscape.org/namespaces/inkscape"
   xmlns:sodipodi="http://sodipodi.sourceforge.net/DTD/sodipodi-0.dtd"
   xmlns="http://www.w3.org/2000/svg"
   xmlns:svg="http://www.w3.org/2000/svg">
  <defs
     id="defs1">
    <inkscape:path-effect
       effect="mirror_symmetry"
       start_point="13.093381,7.925489"
       end_point="13.593381,11.894116"
       center_point="13.343381,9.9098025"
       id="path-effect3"
       is_visible="true"
       lpeversion="1.2"
       lpesatellites=""
       mode="free"
       discard_orig_path="false"
       fuse_paths="false"
       oposite_fuse="false"
       split_items="false"
       split_open="false"
       link_styles="false" />
    <inkscape:path-effect
       effect="mirror_symmetry"
       start_point="12,17.496996"
       end_point="12,24.996996"
       center_point="12,21.246996"
       id="path-effect2"
       is_visible="true"
       lpeversion="1.2"
       lpesatellites=""
       mode="free"
       discard_orig_path="false"
       fuse_paths="false"
       oposite_fuse="false"
       split_items="false"
       split_open="false"
       link_styles="false" />
  </defs>
  <sodipodi:namedview
     id="namedview1"
     pagecolor="#ffffff"
     bordercolor="#000000"
     borderopacity="0.25"
     inkscape:showpageshadow="2"
     inkscape:pageopacity="0.0"
     inkscape:pagecheckerboard="0"
     inkscape:deskcolor="#d1d1d1"
     showgrid="false"
     inkscape:zoom="27.00946"
     inkscape:cx="9.5522089"
     inkscape:cy="2.0363236"
     inkscape:window-width="2560"
     inkscape:window-height="1387"
     inkscape:window-x="1800"
     inkscape:window-y="25"
     inkscape:window-maximized="1"
     inkscape:current-layer="svg1">
    <inkscape:grid
       id="grid1"
       units="px"
       originx="0"
       originy="0"
       spacingx="0.25"
       spacingy="0.25"
       empcolor="#0099e5"
       empopacity="0.6"
       color="#0099e5"
       opacity="0.14901961"
       empspacing="2"
       dotted="false"
       gridanglex="30"
       gridanglez="30"
       visible="false"
       snapvisiblegridlinesonly="false"
       enabled="true" />
    <inkscape:grid
       id="grid2"
       units="px"
       originx="0"
       originy="0"
       spacingx="4"
       spacingy="4"
       empcolor="#e50000"
       empopacity="0.6"
       color="#0099e5"
       opacity="0.14901961"
       empspacing="1"
       dotted="false"
       gridanglex="30"
       gridanglez="30"
       visible="false"
       snapvisiblegridlinesonly="false"
       enabled="true" />
  </sodipodi:namedview>
  <path
     id="path1"
     style="fill:#000000"
     d="m 15,2 a 0.75,0.75 0 0 0 -0.75,0.75 v 1.5 h -1.5 A 0.75,0.75 0 0 0 12,5 0.75,0.75 0 0 0 12.75,5.75 h 1.5 v 1.5 A 0.75,0.75 0 0 0 15,8 0.75,0.75 0 0 0 15.75,7.25 v -1.5 h 1.5 A 0.75,0.75 0 0 0 18,5 0.75,0.75 0 0 0 17.25,4.25 h -1.5 V 2.75 A 0.75,0.75 0 0 0 15,2 Z M 10,2 A 8,8 0 0 0 10,18 8,8 0 0 0 17.492188,7.2265625 2.25,2.25 0 0 1 17.25,7.25 2.25,2.25 0 0 1 15,9.5 2.25,2.25 0 0 1 12.75,7.25 2.25,2.25 0 0 1 10.5,5 2.25,2.25 0 0 1 12.75,2.75 2.25,2.25 0 0 1 12.773438,2.5195312 8,8 0 0 0 10,2 Z M 8,8 C 8.5519988,8 9,8.6720016 9,9.5 9,10.327998 8.5519988,11 8,11 7.4480012,11 7,10.327998 7,9.5 7,8.6720016 7.4480012,8 8,8 Z m 4,0 c 0.551999,0 1,0.6720008 1,1.5 C 13,10.327999 12.551999,11 12,11 11.448001,11 11,10.327999 11,9.5 11,8.6720008 11.448001,8 12,8 Z m 1.058594,4.757812 a 0.75024029,0.75024029 0 0 1 0.476562,1.277344 5,5 0 0 1 -7.0703122,0 0.75,0.75 0 0 1 1.0605468,-1.060547 3.5,3.5 0 0 0 4.9492184,0 0.75024029,0.75024029 0 0 1 0.583985,-0.216797 z" />
</svg>
