<?xml version="1.0" encoding="UTF-8" standalone="no"?>
<svg
   viewBox="0 0 20 20"
   fill="currentColor"
   version="1.1"
   id="svg1"
   sodipodi:docname="floppy-disk.svg"
   inkscape:version="1.3.2 (091e20e, 2023-11-25)"
   width="20"
   height="20"
   xmlns:inkscape="http://www.inkscape.org/namespaces/inkscape"
   xmlns:sodipodi="http://sodipodi.sourceforge.net/DTD/sodipodi-0.dtd"
   xmlns="http://www.w3.org/2000/svg"
   xmlns:svg="http://www.w3.org/2000/svg"><defs
     id="defs1"><inkscape:path-effect
       effect="mirror_symmetry"
       start_point="13.093381,7.925489"
       end_point="13.593381,11.894116"
       center_point="13.343381,9.9098025"
       id="path-effect3"
       is_visible="true"
       lpeversion="1.2"
       lpesatellites=""
       mode="free"
       discard_orig_path="false"
       fuse_paths="false"
       oposite_fuse="false"
       split_items="false"
       split_open="false"
       link_styles="false" /><inkscape:path-effect
       effect="mirror_symmetry"
       start_point="12,17.496996"
       end_point="12,24.996996"
       center_point="12,21.246996"
       id="path-effect2"
       is_visible="true"
       lpeversion="1.2"
       lpesatellites=""
       mode="free"
       discard_orig_path="false"
       fuse_paths="false"
       oposite_fuse="false"
       split_items="false"
       split_open="false"
       link_styles="false" /></defs><sodipodi:namedview
     id="namedview1"
     pagecolor="#ffffff"
     bordercolor="#000000"
     borderopacity="0.25"
     inkscape:showpageshadow="2"
     inkscape:pageopacity="0.0"
     inkscape:pagecheckerboard="0"
     inkscape:deskcolor="#d1d1d1"
     showgrid="true"
     inkscape:zoom="14.057505"
     inkscape:cx="12.022048"
     inkscape:cy="10.81273"
     inkscape:window-width="2560"
     inkscape:window-height="1387"
     inkscape:window-x="1800"
     inkscape:window-y="25"
     inkscape:window-maximized="1"
     inkscape:current-layer="svg1"><inkscape:grid
       id="grid1"
       units="px"
       originx="0"
       originy="0"
       spacingx="0.25"
       spacingy="0.25"
       empcolor="#0099e5"
       empopacity="0.6"
       color="#0099e5"
       opacity="0.14901961"
       empspacing="2"
       dotted="false"
       gridanglex="30"
       gridanglez="30"
       visible="true"
       snapvisiblegridlinesonly="false"
       enabled="true" /><inkscape:grid
       id="grid2"
       units="px"
       originx="0"
       originy="0"
       spacingx="4"
       spacingy="4"
       empcolor="#e50000"
       empopacity="0.6"
       color="#0099e5"
       opacity="0.14901961"
       empspacing="1"
       dotted="false"
       gridanglex="30"
       gridanglez="30"
       visible="true"
       snapvisiblegridlinesonly="false"
       enabled="true" /></sodipodi:namedview><path
     id="path1"
     style="fill:#000000"
     d="M 10.75,4 C 10.335786,4 10,4.3357864 10,4.75 V 6.5 c 0,0.4142136 0.335786,0.75 0.75,0.75 0.414214,0 0.75,-0.3357864 0.75,-0.75 V 4.75 C 11.5,4.3357864 11.164214,4 10.75,4 Z M 4.25,2 C 3.6250024,2 3.0865995,2.2884005 2.6875,2.6875 2.2884005,3.0865995 2,3.6250024 2,4.25 v 11.5 c 0,0.624996 0.2884005,1.163399 0.6875,1.5625 C 3.0865995,17.711601 3.6250024,18 4.25,18 h 11.5 c 0.624996,0 1.163399,-0.288399 1.5625,-0.6875 C 17.711601,16.913399 18,16.374996 18,15.75 V 6.5 c 4.8e-4,-0.1990974 -0.07822,-0.3902171 -0.21875,-0.53125 l -3.75,-3.75 C 13.890217,2.0782164 13.699097,1.99952 13.5,2 Z m 1.5,1.5 h 6.75 c 0.414196,4.14e-5 0.749959,0.3358036 0.75,0.75 V 7 c -4.1e-5,0.4141964 -0.335804,0.7499586 -0.75,0.75 H 5.75 C 5.3358036,7.7499586 5.0000414,7.4141964 5,7 V 4.25 C 5.0000414,3.8358036 5.3358036,3.5000414 5.75,3.5 Z m 0,6.75 h 8.5 c 0.414196,4.1e-5 0.749959,0.335804 0.75,0.75 v 4.25 c -4.1e-5,0.414196 -0.335804,0.749959 -0.75,0.75 H 5.75 C 5.3358036,15.999959 5.0000414,15.664196 5,15.25 V 11 c 4.14e-5,-0.414196 0.3358036,-0.749959 0.75,-0.75 z"
     sodipodi:nodetypes="ssssssssssssssssccccscccccccccccccccccc" /></svg>
