<?xml version="1.0" encoding="UTF-8" standalone="no"?>
<svg
   viewBox="0 0 20 20"
   fill="currentColor"
   version="1.1"
   id="svg1"
   sodipodi:docname="gamepad.svg"
   inkscape:version="1.3.2 (091e20e, 2023-11-25)"
   width="20"
   height="20"
   xmlns:inkscape="http://www.inkscape.org/namespaces/inkscape"
   xmlns:sodipodi="http://sodipodi.sourceforge.net/DTD/sodipodi-0.dtd"
   xmlns="http://www.w3.org/2000/svg"
   xmlns:svg="http://www.w3.org/2000/svg">
  <defs
     id="defs1" />
  <sodipodi:namedview
     id="namedview1"
     pagecolor="#ffffff"
     bordercolor="#000000"
     borderopacity="0.25"
     inkscape:showpageshadow="2"
     inkscape:pageopacity="0.0"
     inkscape:pagecheckerboard="0"
     inkscape:deskcolor="#d1d1d1"
     showgrid="false"
     inkscape:zoom="1"
     inkscape:cx="14.5"
     inkscape:cy="10"
     inkscape:window-width="1800"
     inkscape:window-height="1097"
     inkscape:window-x="356"
     inkscape:window-y="1484"
     inkscape:window-maximized="1"
     inkscape:current-layer="svg1">
    <inkscape:grid
       id="grid1"
       units="px"
       originx="0"
       originy="0"
       spacingx="0.25"
       spacingy="0.25"
       empcolor="#0099e5"
       empopacity="0.6"
       color="#0099e5"
       opacity="0.14901961"
       empspacing="2"
       dotted="false"
       gridanglex="30"
       gridanglez="30"
       visible="false" />
    <inkscape:grid
       id="grid2"
       units="px"
       originx="0"
       originy="0"
       spacingx="4"
       spacingy="4"
       empcolor="#e50000"
       empopacity="0.6"
       color="#0099e5"
       opacity="0.14901961"
       empspacing="1"
       dotted="false"
       gridanglex="30"
       gridanglez="30"
       visible="false" />
  </sodipodi:namedview>
  <path
     id="path1"
     style="fill:#000000"
     d="M 5.9726562,5 C 3.7830418,5 2,6.7938291 2,8.9882812 V 11.011719 C 2,13.206171 3.7830419,15 5.9726562,15 H 14.027344 C 16.216958,15 18,13.206171 18,11.011719 V 8.9882812 C 18,6.7938292 16.216959,5 14.027344,5 Z M 6.5,7.5 c 0.4142132,0 0.75,0.3357868 0.75,0.75 v 1 h 1 C 8.6642132,9.25 9,9.5857868 9,10 9,10.414214 8.6642132,10.75 8.25,10.75 h -1 v 1 c 0,0.414214 -0.3357868,0.75 -0.75,0.75 -0.4142132,0 -0.75,-0.335786 -0.75,-0.75 v -1 h -1 C 4.3357868,10.75 4,10.414214 4,10 4,9.5857868 4.3357868,9.25 4.75,9.25 h 1 v -1 C 5.75,7.8357868 6.0857868,7.5 6.5,7.5 Z m 8.25,0.25 c 0.681471,-9e-7 1.25,0.568528 1.25,1.25 0,0.6814719 -0.568529,1.250001 -1.25,1.25 -0.681469,-2e-6 -1.25,-0.56853 -1.25,-1.25 0,-0.6814701 0.568531,-1.2499981 1.25,-1.25 z m -2.5,2 c 0.681471,-9e-7 1.249999,0.568529 1.25,1.25 -10e-7,0.681471 -0.568529,1.250001 -1.25,1.25 -0.681469,-2e-6 -1.249999,-0.568531 -1.25,-1.25 10e-7,-0.681469 0.568531,-1.249998 1.25,-1.25 z"
     sodipodi:nodetypes="ssssssssssscssscssscssscssssssssssss" />
</svg>
