<?xml version="1.0" encoding="UTF-8" standalone="no"?>
<svg
   viewBox="0 0 20 20"
   fill="currentColor"
   version="1.1"
   id="svg1"
   sodipodi:docname="h5.svg"
   inkscape:version="1.3.2 (091e20e, 2023-11-25)"
   width="20"
   height="20"
   xmlns:inkscape="http://www.inkscape.org/namespaces/inkscape"
   xmlns:sodipodi="http://sodipodi.sourceforge.net/DTD/sodipodi-0.dtd"
   xmlns="http://www.w3.org/2000/svg"
   xmlns:svg="http://www.w3.org/2000/svg"><defs
     id="defs1" /><sodipodi:namedview
     id="namedview1"
     pagecolor="#ffffff"
     bordercolor="#000000"
     borderopacity="0.25"
     inkscape:showpageshadow="2"
     inkscape:pageopacity="0.0"
     inkscape:pagecheckerboard="0"
     inkscape:deskcolor="#d1d1d1"
     showgrid="true"
     inkscape:zoom="14.797321"
     inkscape:cx="8.0082065"
     inkscape:cy="-3.6493093"
     inkscape:window-width="2560"
     inkscape:window-height="1387"
     inkscape:window-x="1800"
     inkscape:window-y="25"
     inkscape:window-maximized="1"
     inkscape:current-layer="svg1"><inkscape:grid
       id="grid1"
       units="px"
       originx="0"
       originy="0"
       spacingx="0.5"
       spacingy="0.5"
       empcolor="#0099e5"
       empopacity="0.6"
       color="#0099e5"
       opacity="0.14901961"
       empspacing="2"
       dotted="false"
       gridanglex="30"
       gridanglez="30"
       visible="true" /><inkscape:grid
       id="grid2"
       units="px"
       originx="0"
       originy="0"
       spacingx="4"
       spacingy="4"
       empcolor="#e50000"
       empopacity="0.6"
       color="#0099e5"
       opacity="0.14901961"
       empspacing="1"
       dotted="false"
       gridanglex="30"
       gridanglez="30"
       visible="true" /></sodipodi:namedview><path
     id="path1"
     style="fill:#000000"
     d="M 13.433594,8 A 0.750075,0.750075 0 0 0 12.685547,8.7070313 L 12.501953,11.873047 A 0.750075,0.750075 0 0 0 13.25,12.666016 h 1.841797 c 0.51531,-1e-6 0.684353,0.116329 0.763672,0.201172 C 15.934788,12.95203 16,13.111728 16,13.417969 c 0,0.333382 -0.02382,0.659722 -0.08789,0.818359 -0.06284,0.155577 -0.04651,0.193741 -0.375,0.234375 -0.792297,0.05558 -1.38812,0.03208 -2.185546,-0.07617 a 0.75,0.75 0 0 0 -0.845704,0.642578 0.75,0.75 0 0 0 0.642579,0.84375 c 0.881577,0.119676 1.628286,0.15058 2.523437,0.08594 a 0.750075,0.750075 0 0 0 0.03516,-0.0039 c 0.78214,-0.09302 1.376885,-0.62229 1.595703,-1.164063 C 17.521553,14.257055 17.5,13.751351 17.5,13.417969 c 0,-0.527216 -0.12167,-1.119268 -0.548828,-1.576172 -0.427158,-0.456905 -1.085471,-0.675782 -1.859375,-0.675781 H 14.044922 L 14.142578,9.5 H 16.75 A 0.75,0.75 0 0 0 17.5,8.75 0.75,0.75 0 0 0 16.75,8 Z M 2.75,4 A 0.75,0.75 0 0 1 3.5,4.75 v 4.5 h 5 v -4.5 a 0.75,0.75 0 0 1 1.5,0 v 10.5 a 0.75,0.75 0 0 1 -1.5,0 v -4.5 h -5 v 4.5 a 0.75,0.75 0 0 1 -1.5,0 V 4.75 A 0.75,0.75 0 0 1 2.75,4 Z" /></svg>
