<?xml version="1.0" encoding="UTF-8" standalone="no"?>
<svg
   viewBox="0 0 20 20"
   fill="currentColor"
   version="1.1"
   id="svg1"
   sodipodi:docname="h6.svg"
   inkscape:version="1.3.2 (091e20e, 2023-11-25)"
   width="20"
   height="20"
   xmlns:inkscape="http://www.inkscape.org/namespaces/inkscape"
   xmlns:sodipodi="http://sodipodi.sourceforge.net/DTD/sodipodi-0.dtd"
   xmlns="http://www.w3.org/2000/svg"
   xmlns:svg="http://www.w3.org/2000/svg"><defs
     id="defs1" /><sodipodi:namedview
     id="namedview1"
     pagecolor="#ffffff"
     bordercolor="#000000"
     borderopacity="0.25"
     inkscape:showpageshadow="2"
     inkscape:pageopacity="0.0"
     inkscape:pagecheckerboard="0"
     inkscape:deskcolor="#d1d1d1"
     showgrid="true"
     inkscape:zoom="20.809285"
     inkscape:cx="9.4429003"
     inkscape:cy="7.3044318"
     inkscape:window-width="2560"
     inkscape:window-height="1387"
     inkscape:window-x="1800"
     inkscape:window-y="25"
     inkscape:window-maximized="1"
     inkscape:current-layer="svg1"><inkscape:grid
       id="grid1"
       units="px"
       originx="0"
       originy="0"
       spacingx="0.5"
       spacingy="0.5"
       empcolor="#0099e5"
       empopacity="0.6"
       color="#0099e5"
       opacity="0.14901961"
       empspacing="2"
       dotted="false"
       gridanglex="30"
       gridanglez="30"
       visible="true" /><inkscape:grid
       id="grid2"
       units="px"
       originx="0"
       originy="0"
       spacingx="4"
       spacingy="4"
       empcolor="#e50000"
       empopacity="0.6"
       color="#0099e5"
       opacity="0.14901961"
       empspacing="1"
       dotted="false"
       gridanglex="30"
       gridanglez="30"
       visible="true" /></sodipodi:namedview><path
     id="path1"
     style="fill:#000000"
     d="M 14.908203,8.0214844 C 14.395667,8.0778814 13.936809,8.2465454 13.550781,8.5566406 12.778727,9.176831 12.5,10.197681 12.5,11.400391 v 1.841797 0.333984 c 0,0.763576 0.311682,1.444049 0.818359,1.857422 0.506678,0.413372 1.140111,0.566405 1.765625,0.566406 0.625514,-10e-7 1.250696,-0.163195 1.71875,-0.599609 C 17.270789,14.963976 17.5,14.30418 17.5,13.576172 c 0,-0.728009 -0.229211,-1.387804 -0.697266,-1.824219 -0.468054,-0.436414 -1.093235,-0.599609 -1.71875,-0.599609 -0.374073,0 -0.725767,0.151823 -1.083984,0.261719 v -0.01367 c 0,-0.972888 0.220623,-1.4572503 0.490234,-1.6738285 0.269611,-0.2165782 0.788465,-0.3300869 1.757813,-0.1054687 A 0.75,0.75 0 0 0 17.146484,9.0605469 0.75,0.75 0 0 0 16.585937,8.1601563 C 15.987279,8.0214346 15.42074,7.9650874 14.908203,8.0214844 Z m 0.175781,4.6308596 c 0.374484,0 0.580035,0.08978 0.695313,0.197265 C 15.894575,12.957094 16,13.132704 16,13.576172 c 0,0.443467 -0.105425,0.62103 -0.220703,0.728516 C 15.664019,14.412173 15.458468,14.5 15.083984,14.5 14.7095,14.5 14.425614,14.402011 14.265625,14.271484 14.105636,14.140957 14,13.984072 14,13.576172 v -0.333984 c 0,-0.294586 0.04204,-0.319594 0.189453,-0.41211 0.147417,-0.09252 0.478208,-0.177734 0.894531,-0.177734 z M 2.75,4 A 0.75,0.75 0 0 1 3.5,4.75 v 4.5 h 5 v -4.5 a 0.75,0.75 0 0 1 1.5,0 v 10.5 a 0.75,0.75 0 0 1 -1.5,0 v -4.5 h -5 v 4.5 a 0.75,0.75 0 0 1 -1.5,0 V 4.75 A 0.75,0.75 0 0 1 2.75,4 Z" /></svg>
