<?xml version="1.0" encoding="UTF-8" standalone="no"?>
<svg
   viewBox="0 0 20 20"
   fill="currentColor"
   version="1.1"
   id="svg1"
   sodipodi:docname="headphones-slash.svg"
   inkscape:version="1.3.2 (091e20e, 2023-11-25)"
   width="20"
   height="20"
   xmlns:inkscape="http://www.inkscape.org/namespaces/inkscape"
   xmlns:sodipodi="http://sodipodi.sourceforge.net/DTD/sodipodi-0.dtd"
   xmlns="http://www.w3.org/2000/svg"
   xmlns:svg="http://www.w3.org/2000/svg"><defs
     id="defs1" /><sodipodi:namedview
     id="namedview1"
     pagecolor="#ffffff"
     bordercolor="#000000"
     borderopacity="0.25"
     inkscape:showpageshadow="2"
     inkscape:pageopacity="0.0"
     inkscape:pagecheckerboard="0"
     inkscape:deskcolor="#d1d1d1"
     showgrid="false"
     inkscape:zoom="14.446973"
     inkscape:cx="28.518084"
     inkscape:cy="1.3151544"
     inkscape:window-width="2560"
     inkscape:window-height="1387"
     inkscape:window-x="1800"
     inkscape:window-y="25"
     inkscape:window-maximized="1"
     inkscape:current-layer="svg1"><inkscape:grid
       id="grid1"
       units="px"
       originx="0"
       originy="0"
       spacingx="0.5"
       spacingy="0.5"
       empcolor="#0099e5"
       empopacity="0.6"
       color="#0099e5"
       opacity="0.14901961"
       empspacing="2"
       dotted="false"
       gridanglex="30"
       gridanglez="30"
       visible="false" /><inkscape:grid
       id="grid2"
       units="px"
       originx="0"
       originy="0"
       spacingx="4"
       spacingy="4"
       empcolor="#e50000"
       empopacity="0.6"
       color="#0099e5"
       opacity="0.14901961"
       empspacing="1"
       dotted="false"
       gridanglex="30"
       gridanglez="30"
       visible="false" /></sodipodi:namedview><path
     id="path1"
     style="color:#000000;fill:#000000;stroke-width:0.999998;stroke-linecap:round;stroke-linejoin:round;-inkscape-stroke:none"
     d="M 17.851562 14.671875 C 18.173135 13.236463 17.966088 12.105622 17.269531 11.359375 C 17.218121 11.304305 17.165539 11.251552 17.111328 11.201172 C 17.885209 8.3149263 16.813408 5.217736 14.367188 3.4257812 C 13.06962 2.4752622 11.534572 2 10 2 C 8.6903724 2 7.3811272 2.3467749 6.21875 3.0390625 L 7.3203125 4.140625 C 9.2769032 3.140783 11.66618 3.3057272 13.480469 4.6347656 C 15.315913 5.9793015 16.176133 8.2278224 15.759766 10.400391 C 15.320436 10.232068 14.84907 10.105652 14.367188 9.9765625 A 0.75004344 0.75009084 0 0 0 14.132812 9.9511719 A 0.75004344 0.75009084 0 0 0 13.527344 10.347656 L 17.851562 14.671875 z " /><path
     id="path2"
     style="color:#000000;fill:#000000;stroke-width:0.999998;stroke-linecap:round;stroke-linejoin:round;-inkscape-stroke:none"
     d="M 12.154297 15.333984 L 11.791016 16.685547 A 0.75004344 0.75009084 0 0 0 12.322266 17.603516 C 13.176972 17.83248 13.998283 18.047522 14.808594 17.988281 L 12.154297 15.333984 z " /><path
     id="path3"
     style="color:#000000;fill:#000000;stroke-width:0.999998;stroke-linecap:round;stroke-linejoin:round;-inkscape-stroke:none"
     d="M 3.2421875 6.421875 C 2.601408 7.9038141 2.455475 9.5855324 2.8886719 11.201172 C 2.8344609 11.251555 2.7818743 11.304302 2.7304688 11.359375 C 1.9851073 12.15791 1.7988896 13.397364 2.2226562 14.978516 C 2.6464237 16.559662 3.4279061 17.538496 4.4726562 17.857422 C 5.5174066 18.176346 6.5695453 17.900386 7.6777344 17.603516 A 0.75004344 0.75009084 0 0 0 8.2089844 16.685547 L 7.3808594 13.595703 L 6.5527344 10.505859 A 0.75004344 0.75009084 0 0 0 5.8671875 9.9511719 A 0.75004344 0.75009084 0 0 0 5.6328125 9.9765625 C 5.1509281 10.105652 4.6795646 10.232068 4.2402344 10.400391 C 4.0577941 9.4484339 4.1219166 8.4826927 4.4042969 7.5839844 L 3.2421875 6.421875 z " /><path
     clip-rule="evenodd"
     d="m 2.2103159,2.2103157 a 0.75,0.75 0 0 1 1.06,0 L 17.770316,16.710316 a 0.75,0.75 0 1 1 -1.06,1.06 L 2.2103159,3.2703157 a 0.75,0.75 0 0 1 0,-1.06 z"
     fill-rule="evenodd"
     id="path4"
     style="fill:currentColor" /></svg>
