<?xml version="1.0" encoding="UTF-8" standalone="no"?>
<svg
   viewBox="0 0 20 20"
   fill="currentColor"
   version="1.1"
   id="svg1"
   sodipodi:docname="headphones.svg"
   inkscape:version="1.3.2 (091e20e, 2023-11-25)"
   width="20"
   height="20"
   xmlns:inkscape="http://www.inkscape.org/namespaces/inkscape"
   xmlns:sodipodi="http://sodipodi.sourceforge.net/DTD/sodipodi-0.dtd"
   xmlns="http://www.w3.org/2000/svg"
   xmlns:svg="http://www.w3.org/2000/svg">
  <defs
     id="defs1" />
  <sodipodi:namedview
     id="namedview1"
     pagecolor="#ffffff"
     bordercolor="#000000"
     borderopacity="0.25"
     inkscape:showpageshadow="2"
     inkscape:pageopacity="0.0"
     inkscape:pagecheckerboard="0"
     inkscape:deskcolor="#d1d1d1"
     showgrid="true"
     inkscape:zoom="11.22216"
     inkscape:cx="11.227785"
     inkscape:cy="20.227835"
     inkscape:window-width="1800"
     inkscape:window-height="1097"
     inkscape:window-x="0"
     inkscape:window-y="44"
     inkscape:window-maximized="1"
     inkscape:current-layer="svg1">
    <inkscape:grid
       id="grid1"
       units="px"
       originx="0"
       originy="0"
       spacingx="0.5"
       spacingy="0.5"
       empcolor="#0099e5"
       empopacity="0.6"
       color="#0099e5"
       opacity="0.14901961"
       empspacing="2"
       dotted="false"
       gridanglex="30"
       gridanglez="30"
       visible="true" />
    <inkscape:grid
       id="grid2"
       units="px"
       originx="0"
       originy="0"
       spacingx="4"
       spacingy="4"
       empcolor="#e50000"
       empopacity="0.6"
       color="#0099e5"
       opacity="0.14901961"
       empspacing="1"
       dotted="false"
       gridanglex="30"
       gridanglez="30"
       visible="true" />
  </sodipodi:namedview>
  <path
     id="path1"
     style="color:#000000;fill:#000000;stroke-width:0.999998;stroke-linecap:round;stroke-linejoin:round;-inkscape-stroke:none"
     d="m 9.9999998,2.0000005 c -1.5345727,0 -3.0694359,0.4752914 -4.3670036,1.4258113 C 3.1867721,5.2177685 2.1150894,8.3151186 2.888971,11.201367 2.83476,11.25175 2.7821802,11.3045 2.7307746,11.359573 1.9854124,12.158109 1.7992162,13.397637 2.2229833,14.97879 c 0.4237679,1.581148 1.2051542,2.560041 2.2499054,2.878967 1.0447514,0.318924 2.0967531,0.04296 3.2049433,-0.253911 A 0.75004344,0.75009084 0 0 0 8.2090597,16.685857 L 7.3809695,13.595948 6.5528794,10.506039 A 0.75004344,0.75009084 0 0 0 5.8673613,9.9513404 0.75004344,0.75009084 0 0 0 5.6329962,9.9767315 C 5.1511113,10.105821 4.6798073,10.232246 4.2404766,10.400569 3.8241087,8.2279987 4.6842317,5.9793592 6.5196776,4.6348218 c 2.0707473,-1.5169048 4.8898974,-1.5169048 6.9606454,0 1.835446,1.3445372 2.695569,3.5931768 2.279201,5.7657472 -0.43933,-0.168323 -0.910636,-0.294748 -1.392519,-0.4238375 a 0.75004344,0.75009084 0 0 0 -0.234366,-0.025392 0.75004344,0.75009084 0 0 0 -0.685518,0.5546995 l -0.82809,3.089909 -0.82809,3.089909 a 0.75004344,0.75009084 0 0 0 0.531228,0.917988 c 1.10819,0.296869 2.160191,0.572836 3.204943,0.253911 1.044751,-0.318925 1.826137,-1.297818 2.249905,-2.878966 0.423766,-1.581153 0.237572,-2.820682 -0.507791,-3.619217 -0.05141,-0.05507 -0.103986,-0.107826 -0.158197,-0.158206 C 17.884911,8.3151185 16.813228,5.2177683 14.367005,3.4258118 13.069436,2.4752918 11.534573,2.0000005 9.9999998,2.0000005 Z" />
</svg>
