<?xml version="1.0" encoding="UTF-8" standalone="no"?>
<svg
   viewBox="0 0 20 20"
   fill="currentColor"
   version="1.1"
   id="svg1"
   sodipodi:docname="lettered-list.svg"
   inkscape:version="1.3.2 (091e20e, 2023-11-25)"
   width="20"
   height="20"
   xmlns:inkscape="http://www.inkscape.org/namespaces/inkscape"
   xmlns:sodipodi="http://sodipodi.sourceforge.net/DTD/sodipodi-0.dtd"
   xmlns="http://www.w3.org/2000/svg"
   xmlns:svg="http://www.w3.org/2000/svg">
  <defs
     id="defs1">
    <inkscape:path-effect
       effect="fillet_chamfer"
       id="path-effect93-9"
       is_visible="true"
       lpeversion="1"
       nodesatellites_param="F,0,0,1,0,0,0,1 @ F,0,0,1,0,1,0,1 @ F,0,0,1,0,1,0,1 @ F,0,1,1,0,0,0,1"
       radius="0"
       unit="px"
       method="auto"
       mode="F"
       chamfer_steps="1"
       flexible="false"
       use_knot_distance="true"
       apply_no_radius="true"
       apply_with_radius="true"
       only_selected="false"
       hide_knots="false" />
    <inkscape:path-effect
       effect="fillet_chamfer"
       id="path-effect93-9-5"
       is_visible="true"
       lpeversion="1"
       nodesatellites_param="F,0,0,1,0,0,0,1 @ F,0,0,1,0,1.125,0,1 @ F,0,0,1,0,1.125,0,1 @ F,0,0,1,0,0,0,1"
       radius="0"
       unit="px"
       method="auto"
       mode="F"
       chamfer_steps="1"
       flexible="false"
       use_knot_distance="true"
       apply_no_radius="true"
       apply_with_radius="true"
       only_selected="false"
       hide_knots="false" />
    <inkscape:path-effect
       effect="fillet_chamfer"
       id="path-effect94-2"
       is_visible="true"
       lpeversion="1"
       nodesatellites_param="F,0,0,1,0,0,0,1 @ F,0,0,1,0,0,0,1 @ F,0,0,1,0,0.875,0,1 @ F,0,0,1,0,0.875,0,1 @ F,0,0,1,0,0,0,1 @ F,0,0,1,0,0.875,0,1 @ F,0,0,1,0,0.875,0,1"
       radius="0"
       unit="px"
       method="auto"
       mode="F"
       chamfer_steps="1"
       flexible="false"
       use_knot_distance="true"
       apply_no_radius="true"
       apply_with_radius="true"
       only_selected="false"
       hide_knots="false" />
  </defs>
  <sodipodi:namedview
     id="namedview1"
     pagecolor="#ffffff"
     bordercolor="#000000"
     borderopacity="0.25"
     inkscape:showpageshadow="2"
     inkscape:pageopacity="0.0"
     inkscape:pagecheckerboard="0"
     inkscape:deskcolor="#d1d1d1"
     showgrid="true"
     inkscape:zoom="32.425224"
     inkscape:cx="3.9629641"
     inkscape:cy="6.4147591"
     inkscape:window-width="2560"
     inkscape:window-height="1387"
     inkscape:window-x="0"
     inkscape:window-y="25"
     inkscape:window-maximized="0"
     inkscape:current-layer="svg1">
    <inkscape:grid
       id="grid1"
       units="px"
       originx="0"
       originy="0"
       spacingx="0.25"
       spacingy="0.25"
       empcolor="#0099e5"
       empopacity="0.6"
       color="#0099e5"
       opacity="0.14901961"
       empspacing="2"
       dotted="false"
       gridanglex="30"
       gridanglez="30"
       visible="true" />
    <inkscape:grid
       id="grid2"
       units="px"
       originx="0"
       originy="0"
       spacingx="4"
       spacingy="4"
       empcolor="#e50000"
       empopacity="0.6"
       color="#0099e5"
       opacity="0.14901961"
       empspacing="1"
       dotted="false"
       gridanglex="30"
       gridanglez="30"
       visible="true" />
  </sodipodi:namedview>
  <path
     id="path1"
     style="fill:#000000"
     d="M 2.625,7.5 A 0.6250625,0.6250625 0 0 0 2,8.125 v 3.75 A 0.6250625,0.6250625 0 0 0 2.625,12.5 H 4 c 0.8210234,0 1.5,-0.678977 1.5,-1.5 V 10.875 C 5.5,10.535631 5.328861,10.252909 5.1347656,10 5.328861,9.7470908 5.5,9.4643686 5.5,9.125 V 9 C 5.5,8.1789766 4.8210234,7.5 4,7.5 Z M 3.25,8.75 H 4 C 4.1454739,8.75 4.25,8.8545261 4.25,9 V 9.125 C 4.25,9.2704739 4.1454739,9.375 4,9.375 H 3.25 Z m 0,1.875 H 4 c 0.1454739,0 0.25,0.104526 0.25,0.25 V 11 c 0,0.145474 -0.1045261,0.25 -0.25,0.25 H 3.25 Z M 3.75,1.25 C 2.7923861,1.25 2,2.0423861 2,3 V 4.375 5.5 A 0.75,0.75 0 0 0 2.75,6.25 0.75,0.75 0 0 0 3.5,5.5 V 5.125 H 4 V 5.5 A 0.75,0.75 0 0 0 4.75,6.25 0.75,0.75 0 0 0 5.5,5.5 V 4.375 3 C 5.5,2.0423861 4.7076139,1.25 3.75,1.25 Z m 0,1.5 C 3.8969545,2.75 4,2.8530455 4,3 V 3.625 H 3.5 V 3 C 3.5,2.8530455 3.6030455,2.75 3.75,2.75 Z m 0.125,11 C 2.8483506,13.75 2,14.598351 2,15.625 v 1.25 c 0,1.026649 0.8483506,1.875 1.875,1.875 H 4.75 A 0.75,0.75 0 0 0 5.5,18 0.75,0.75 0 0 0 4.75,17.25 H 3.875 C 3.65901,17.25 3.5,17.09099 3.5,16.875 v -1.25 C 3.5,15.40901 3.65901,15.25 3.875,15.25 H 4.75 A 0.75,0.75 0 0 0 5.5,14.5 0.75,0.75 0 0 0 4.75,13.75 Z M 7.75,3 a 0.75,0.75 0 0 0 0,1.5 h 9.5 a 0.75,0.75 0 0 0 0,-1.5 z m 0,6.25 a 0.75000005,0.75000005 0 0 0 0,1.5 h 9.5 a 0.75000005,0.75000005 0 0 0 0,-1.5 z m 0,6.25 a 0.75,0.75 0 0 0 0,1.5 h 9.5 a 0.75,0.75 0 0 0 0,-1.5 z" />
</svg>
