<?xml version="1.0" encoding="UTF-8" standalone="no"?>
<svg
   viewBox="0 0 20 20"
   fill="currentColor"
   version="1.1"
   id="svg1"
   sodipodi:docname="lock-semi-open.svg"
   inkscape:version="1.3.2 (091e20e, 2023-11-25)"
   width="20"
   height="20"
   xmlns:inkscape="http://www.inkscape.org/namespaces/inkscape"
   xmlns:sodipodi="http://sodipodi.sourceforge.net/DTD/sodipodi-0.dtd"
   xmlns="http://www.w3.org/2000/svg"
   xmlns:svg="http://www.w3.org/2000/svg">
  <defs
     id="defs1" />
  <sodipodi:namedview
     id="namedview1"
     pagecolor="#ffffff"
     bordercolor="#000000"
     borderopacity="0.25"
     inkscape:showpageshadow="2"
     inkscape:pageopacity="0.0"
     inkscape:pagecheckerboard="0"
     inkscape:deskcolor="#d1d1d1"
     showgrid="true"
     inkscape:zoom="18.633906"
     inkscape:cx="1.4758044"
     inkscape:cy="1.395306"
     inkscape:window-width="2560"
     inkscape:window-height="1387"
     inkscape:window-x="1800"
     inkscape:window-y="25"
     inkscape:window-maximized="1"
     inkscape:current-layer="svg1">
    <inkscape:grid
       id="grid1"
       units="px"
       originx="0"
       originy="0"
       spacingx="0.5"
       spacingy="0.5"
       empcolor="#0099e5"
       empopacity="0.6"
       color="#0099e5"
       opacity="0.14901961"
       empspacing="2"
       dotted="false"
       gridanglex="30"
       gridanglez="30"
       visible="true" />
    <inkscape:grid
       id="grid2"
       units="px"
       originx="0"
       originy="0"
       spacingx="4"
       spacingy="4"
       empcolor="#e50000"
       empopacity="0.6"
       color="#0099e5"
       opacity="0.14901961"
       empspacing="1"
       dotted="false"
       gridanglex="30"
       gridanglez="30"
       visible="true" />
  </sodipodi:namedview>
  <path
     id="path1"
     style="fill:#000000"
     d="M 10 0 C 7.5215524 0 5.5 2.0347401 5.5 4.5195312 L 5.5 5.1464844 L 5.5 6 A 0.75 0.75 0 0 0 6.25 6.75 A 0.75 0.75 0 0 0 7 6 L 7 5.1464844 L 7 4.5195312 C 7 2.8413279 8.3362899 1.5 10 1.5 C 11.66371 1.5 13 2.8413279 13 4.5195312 L 13 8.9960938 L 5.5 8.9960938 L 5.5 9 L 5 9 A 2 2 0 0 0 3 11 L 3 17 A 2 2 0 0 0 5 19 L 15 19 A 2 2 0 0 0 17 17 L 17 11 A 2 2 0 0 0 15 9 L 14.5 9 L 14.5 8.9960938 L 14.5 4.5195312 C 14.5 2.0347401 12.478448 5.9211835e-16 10 0 z " />
</svg>
