<?xml version="1.0" encoding="UTF-8" standalone="no"?>
<svg
   viewBox="0 0 20 20"
   fill="currentColor"
   version="1.1"
   id="svg1"
   sodipodi:docname="mask.svg"
   inkscape:version="1.3.2 (091e20e, 2023-11-25)"
   width="20"
   height="20"
   xmlns:inkscape="http://www.inkscape.org/namespaces/inkscape"
   xmlns:sodipodi="http://sodipodi.sourceforge.net/DTD/sodipodi-0.dtd"
   xmlns="http://www.w3.org/2000/svg"
   xmlns:svg="http://www.w3.org/2000/svg"><defs
     id="defs1"><inkscape:path-effect
       effect="mirror_symmetry"
       start_point="13.093381,7.925489"
       end_point="13.593381,11.894116"
       center_point="13.343381,9.9098025"
       id="path-effect3"
       is_visible="true"
       lpeversion="1.2"
       lpesatellites=""
       mode="free"
       discard_orig_path="false"
       fuse_paths="false"
       oposite_fuse="false"
       split_items="false"
       split_open="false"
       link_styles="false" /><inkscape:path-effect
       effect="mirror_symmetry"
       start_point="12,17.496996"
       end_point="12,24.996996"
       center_point="12,21.246996"
       id="path-effect2"
       is_visible="true"
       lpeversion="1.2"
       lpesatellites=""
       mode="free"
       discard_orig_path="false"
       fuse_paths="false"
       oposite_fuse="false"
       split_items="false"
       split_open="false"
       link_styles="false" /></defs><sodipodi:namedview
     id="namedview1"
     pagecolor="#ffffff"
     bordercolor="#000000"
     borderopacity="0.25"
     inkscape:showpageshadow="2"
     inkscape:pageopacity="0.0"
     inkscape:pagecheckerboard="0"
     inkscape:deskcolor="#d1d1d1"
     showgrid="true"
     inkscape:zoom="30.382205"
     inkscape:cx="10.532481"
     inkscape:cy="11.783213"
     inkscape:window-width="1800"
     inkscape:window-height="1017"
     inkscape:window-x="0"
     inkscape:window-y="44"
     inkscape:window-maximized="1"
     inkscape:current-layer="svg1"><inkscape:grid
       id="grid1"
       units="px"
       originx="0"
       originy="0"
       spacingx="0.5"
       spacingy="0.5"
       empcolor="#0099e5"
       empopacity="0.6"
       color="#0099e5"
       opacity="0.14901961"
       empspacing="2"
       dotted="false"
       gridanglex="30"
       gridanglez="30"
       visible="true"
       snapvisiblegridlinesonly="false"
       enabled="true" /><inkscape:grid
       id="grid2"
       units="px"
       originx="0"
       originy="0"
       spacingx="4"
       spacingy="4"
       empcolor="#e50000"
       empopacity="0.6"
       color="#0099e5"
       opacity="0.14901961"
       empspacing="1"
       dotted="false"
       gridanglex="30"
       gridanglez="30"
       visible="true"
       snapvisiblegridlinesonly="false"
       enabled="true" /></sodipodi:namedview><path
     id="path2"
     style="color:#000000;fill:#000000;stroke-width:0.833333;stroke-linecap:round;stroke-linejoin:round;-inkscape-stroke:none"
     d="m 4.9088543,5.5160587 c -0.2048747,0.00228 -0.4082196,0.00797 -0.608724,0.016276 -0.8020171,0.033242 -1.5612026,0.1025391 -2.2167968,0.1025391 -0.317167,4.17e-4 -0.5837474,0.2383102 -0.6201172,0.5533853 0,0 -0.080683,0.690056 -0.1204427,1.5445964 -0.039759,0.8545401 -0.055483,1.8562951 0.1334635,2.6416015 0.2311211,0.960594 0.6420695,1.982698 1.4192709,2.747395 0.6705629,0.659775 1.5518003,1.01694 2.3974609,1.188151 1.1658078,0.236027 2.5094969,0.298829 3.7093096,-0.229492 C 9.4507827,13.883022 9.739196,13.554104 10,13.261826 c 0.260804,0.292278 0.549217,0.621196 0.997722,0.818685 1.199812,0.528321 2.543501,0.465519 3.70931,0.229492 0.84566,-0.171211 1.726896,-0.528376 2.39746,-1.188151 0.777201,-0.764697 1.18815,-1.786801 1.419271,-2.747395 0.188945,-0.7853064 0.173223,-1.7870614 0.133464,-2.6416014 -0.03976,-0.8545404 -0.120443,-1.5445964 -0.120443,-1.5445964 -0.03637,-0.3150753 -0.30295,-0.5529685 -0.620117,-0.5533854 -1.311189,0 -3.037917,-0.2758891 -4.689128,0.00814 C 12.542223,5.7608923 11.706378,6.066282 11.002604,6.3428816 10.442383,6.5630582 10.167058,6.690258 10,6.7644311 9.8329418,6.690258 9.5576168,6.5630617 8.997396,6.3428816 8.2936217,6.066282 7.4577769,5.7608923 6.7724611,5.6430118 6.153257,5.536503 5.5234784,5.509228 4.9088543,5.5160587 Z m 1.1458334,3.0843094 c 0.308194,8.209e-4 0.6349018,0.041958 0.9684245,0.1236984 0.5336345,0.1307891 0.9903434,0.3382975 1.3346355,0.621745 0.1721458,0.1417233 0.3202316,0.3035925 0.4199216,0.512695 0.099692,0.2090985 0.1380875,0.4892585 0.0472,0.7405595 -0.1817758,0.502601 -0.6527133,0.680638 -1.1035158,0.758463 -0.4508025,0.07782 -0.9670148,0.04941 -1.500651,-0.08138 C 5.6870671,11.145362 5.2303598,10.937852 4.8860678,10.654404 4.7139221,10.51268 4.5658345,10.350808 4.466146,10.141709 4.366457,9.9326098 4.3280579,9.6524515 4.4189452,9.4011498 4.60072,8.898549 5.0716584,8.7205115 5.5224607,8.6426865 5.6915117,8.6135031 5.8697709,8.5998781 6.0546873,8.6003698 Z m 7.7441403,0.017908 c 0.252373,-0.006 0.493617,0.013058 0.717774,0.058592 0.448312,0.091078 0.913848,0.2816484 1.080729,0.7893884 0.08344,0.2538708 0.03745,0.5328625 -0.06836,0.7389315 -0.10581,0.206069 -0.25832,0.363088 -0.43457,0.499674 -0.352498,0.273175 -0.81528,0.467683 -1.35254,0.582683 -0.53726,0.115 -1.053965,0.126885 -1.502278,0.03581 -0.448312,-0.09108 -0.913849,-0.281648 -1.080729,-0.789388 -0.08344,-0.253871 -0.03745,-0.532863 0.06836,-0.7389319 0.10581,-0.2060691 0.259949,-0.3630875 0.436199,-0.4996741 0.352498,-0.2731742 0.813651,-0.4676825 1.350911,-0.5826825 0.26863,-0.0575 0.532133,-0.088439 0.784505,-0.094401 z" /></svg>
