<?xml version="1.0" encoding="UTF-8" standalone="no"?>
<svg
   viewBox="0 0 20 20"
   fill="currentColor"
   version="1.1"
   id="svg1"
   sodipodi:docname="microphone-slash.svg"
   inkscape:version="1.3.2 (091e20e, 2023-11-25)"
   width="20"
   height="20"
   xmlns:inkscape="http://www.inkscape.org/namespaces/inkscape"
   xmlns:sodipodi="http://sodipodi.sourceforge.net/DTD/sodipodi-0.dtd"
   xmlns="http://www.w3.org/2000/svg"
   xmlns:svg="http://www.w3.org/2000/svg"><defs
     id="defs1" /><sodipodi:namedview
     id="namedview1"
     pagecolor="#ffffff"
     bordercolor="#000000"
     borderopacity="0.25"
     inkscape:showpageshadow="2"
     inkscape:pageopacity="0.0"
     inkscape:pagecheckerboard="0"
     inkscape:deskcolor="#d1d1d1"
     showgrid="false"
     inkscape:zoom="20.909594"
     inkscape:cx="11.597547"
     inkscape:cy="6.1694167"
     inkscape:window-width="2560"
     inkscape:window-height="1387"
     inkscape:window-x="1800"
     inkscape:window-y="25"
     inkscape:window-maximized="1"
     inkscape:current-layer="svg1"><inkscape:grid
       id="grid1"
       units="px"
       originx="0"
       originy="0"
       spacingx="0.5"
       spacingy="0.5"
       empcolor="#0099e5"
       empopacity="0.6"
       color="#0099e5"
       opacity="0.14901961"
       empspacing="2"
       dotted="false"
       gridanglex="30"
       gridanglez="30"
       visible="false" /><inkscape:grid
       id="grid2"
       units="px"
       originx="0"
       originy="0"
       spacingx="4"
       spacingy="4"
       empcolor="#e50000"
       empopacity="0.6"
       color="#0099e5"
       opacity="0.14901961"
       empspacing="1"
       dotted="false"
       gridanglex="30"
       gridanglez="30"
       visible="false" /></sodipodi:namedview><path
     style="fill:#000000"
     d="M 7.0234375,10.203125 A 3,3 0 0 0 9.796875,12.976562 Z"
     id="path1" /><path
     style="fill:#000000"
     d="M 15.083984,8.9121094 A 0.75,0.75 0 0 0 14.5,9.6425781 V 10 a 4.5,4.5 0 0 1 -0.169922,1.150391 l 1.19336,1.193359 A 6.001,6.001 0 0 0 16,10 V 9.6425781 A 0.75,0.75 0 0 0 15.083984,8.9121094 Z"
     id="path2" /><path
     style="fill:#000000"
     d="M 4.5839844,8.9121094 A 0.75,0.75 0 0 0 4,9.6425781 V 10 c 0,3.059997 2.290003,5.584125 5.25,5.953125 V 17.5 h -1.5 a 0.75,0.75 0 0 0 0,1.5 h 4.5 a 0.75,0.75 0 0 0 0,-1.5 h -1.5 v -1.546875 a 6.001,6.001 0 0 0 1.591797,-0.431641 L 11.162109,14.341797 A 4.5,4.5 0 0 1 5.5,10 V 9.6425781 A 0.75,0.75 0 0 0 4.5839844,8.9121094 Z"
     id="path3" /><path
     style="fill:#000000"
     d="M 10,1 A 3,3 0 0 0 7.0175781,3.8378906 L 13,9.8203125 V 4 A 3,3 0 0 0 10,1 Z"
     id="path4" /><path
     d="m 2.2103159,2.2103157 a 0.75,0.75 0 0 1 1.06,0 L 17.770316,16.710316 a 0.75,0.75 0 1 1 -1.06,1.06 L 2.2103159,3.2703157 a 0.75,0.75 0 0 1 0,-1.06 z"
     id="path5"
     style="fill:#000000" /></svg>
