<?xml version="1.0" encoding="UTF-8" standalone="no"?>
<svg
   viewBox="0 0 20 20"
   fill="currentColor"
   version="1.1"
   id="svg1"
   sodipodi:docname="password-pencil.svg"
   inkscape:version="1.3.2 (091e20e, 2023-11-25)"
   width="20"
   height="20"
   xmlns:inkscape="http://www.inkscape.org/namespaces/inkscape"
   xmlns:sodipodi="http://sodipodi.sourceforge.net/DTD/sodipodi-0.dtd"
   xmlns="http://www.w3.org/2000/svg"
   xmlns:svg="http://www.w3.org/2000/svg">
  <defs
     id="defs1" />
  <sodipodi:namedview
     id="namedview1"
     pagecolor="#ffffff"
     bordercolor="#000000"
     borderopacity="0.25"
     inkscape:showpageshadow="2"
     inkscape:pageopacity="0.0"
     inkscape:pagecheckerboard="0"
     inkscape:deskcolor="#d1d1d1"
     showgrid="false"
     inkscape:zoom="13.258391"
     inkscape:cx="12.180965"
     inkscape:cy="14.255124"
     inkscape:window-width="2560"
     inkscape:window-height="1387"
     inkscape:window-x="1800"
     inkscape:window-y="25"
     inkscape:window-maximized="0"
     inkscape:current-layer="svg1">
    <inkscape:grid
       id="grid1"
       units="px"
       originx="0"
       originy="0"
       spacingx="0.5"
       spacingy="0.5"
       empcolor="#0099e5"
       empopacity="0.6"
       color="#0099e5"
       opacity="0.14901961"
       empspacing="2"
       dotted="false"
       gridanglex="30"
       gridanglez="30"
       visible="false" />
    <inkscape:grid
       id="grid2"
       units="px"
       originx="0"
       originy="0"
       spacingx="4"
       spacingy="4"
       empcolor="#e50000"
       empopacity="0.6"
       color="#0099e5"
       opacity="0.14901961"
       empspacing="1"
       dotted="false"
       gridanglex="30"
       gridanglez="30"
       visible="false" />
  </sodipodi:namedview>
  <path
     id="path1"
     style="fill:#000000"
     d="m 17.302734,4.8203125 c -0.332342,0.06353 -0.620242,0.229611 -0.861328,0.4707031 l -2.796875,2.796875 C 13.377102,8.3553315 13.157938,8.6628945 13.001953,9 l -0.433594,0.9355469 a 0.750075,0.750075 0 0 0 0.996094,0.9960941 L 14.5,10.498047 c 0.337187,-0.155998 0.644707,-0.375211 0.912109,-0.6425782 l 2.796875,-2.7968751 c 0.2411,-0.2410852 0.407169,-0.5289706 0.470703,-0.8613281 0.06353,-0.3323574 0.006,-0.7655616 -0.302734,-1.0742187 C 18.068281,4.8143558 17.635077,4.7567821 17.302734,4.8203125 Z M 4.4667969,6 C 3.1123203,6 2,7.1159458 2,8.4707031 V 11.529297 C 2,12.884038 3.1123044,14 4.4667969,14 H 15.533203 C 16.887679,14 18,12.884054 18,11.529297 V 9.3886719 l -1.527344,1.5273441 c -0.384127,0.384077 -0.835981,0.708442 -1.34375,0.943359 l -0.933594,0.433594 c -0.882607,0.409499 -1.933415,0.15252 -2.537109,-0.451172 -0.603692,-0.603694 -0.860671,-1.654503 -0.451172,-2.5371095 L 11.640625,8.3691406 C 11.87546,7.8616304 12.199711,7.4116358 12.583984,7.0273438 L 13.611328,6 Z M 5,8.5 C 5.8284263,8.5 6.5,9.1715737 6.5,10 6.5,10.828426 5.8284263,11.5 5,11.5 4.1715737,11.5 3.5,10.828426 3.5,10 3.5,9.1715737 4.1715737,8.5 5,8.5 Z m 4,0 c 0.8284263,0 1.5,0.6715737 1.5,1.5 0,0.828426 -0.6715737,1.5 -1.5,1.5 C 8.1715737,11.5 7.5,10.828426 7.5,10 7.5,9.1715737 8.1715737,8.5 9,8.5 Z" />
</svg>
