<?xml version="1.0" encoding="UTF-8" standalone="no"?>
<svg
   viewBox="0 0 20 20"
   fill="currentColor"
   version="1.1"
   id="svg1"
   sodipodi:docname="password.svg"
   inkscape:version="1.3.2 (091e20e, 2023-11-25)"
   width="20"
   height="20"
   xmlns:inkscape="http://www.inkscape.org/namespaces/inkscape"
   xmlns:sodipodi="http://sodipodi.sourceforge.net/DTD/sodipodi-0.dtd"
   xmlns="http://www.w3.org/2000/svg"
   xmlns:svg="http://www.w3.org/2000/svg">
  <defs
     id="defs1" />
  <sodipodi:namedview
     id="namedview1"
     pagecolor="#ffffff"
     bordercolor="#000000"
     borderopacity="0.25"
     inkscape:showpageshadow="2"
     inkscape:pageopacity="0.0"
     inkscape:pagecheckerboard="0"
     inkscape:deskcolor="#d1d1d1"
     showgrid="false"
     inkscape:zoom="33.105101"
     inkscape:cx="9.4396329"
     inkscape:cy="6.222606"
     inkscape:window-width="2560"
     inkscape:window-height="1387"
     inkscape:window-x="1800"
     inkscape:window-y="25"
     inkscape:window-maximized="1"
     inkscape:current-layer="svg1">
    <inkscape:grid
       id="grid1"
       units="px"
       originx="0"
       originy="0"
       spacingx="0.5"
       spacingy="0.5"
       empcolor="#0099e5"
       empopacity="0.6"
       color="#0099e5"
       opacity="0.14901961"
       empspacing="2"
       dotted="false"
       gridanglex="30"
       gridanglez="30"
       visible="false" />
    <inkscape:grid
       id="grid2"
       units="px"
       originx="0"
       originy="0"
       spacingx="4"
       spacingy="4"
       empcolor="#e50000"
       empopacity="0.6"
       color="#0099e5"
       opacity="0.14901961"
       empspacing="1"
       dotted="false"
       gridanglex="30"
       gridanglez="30"
       visible="false" />
  </sodipodi:namedview>
  <path
     id="path1"
     style="fill:#000000"
     d="M 4.4667969 6 C 3.112319 6 2 7.1159444 2 8.4707031 L 2 11.529297 C 2 12.884039 3.1123031 14 4.4667969 14 L 15.533203 14 C 16.88768 14 18 12.884055 18 11.529297 L 18 8.4707031 C 18 7.1159442 16.887682 6 15.533203 6 L 4.4667969 6 z M 5.5 8.5 A 1.5 1.5 0 0 1 7 10 A 1.5 1.5 0 0 1 5.5 11.5 A 1.5 1.5 0 0 1 4 10 A 1.5 1.5 0 0 1 5.5 8.5 z M 10 8.5 A 1.5 1.5 0 0 1 11.5 10 A 1.5 1.5 0 0 1 10 11.5 A 1.5 1.5 0 0 1 8.5 10 A 1.5 1.5 0 0 1 10 8.5 z M 14.5 8.5 A 1.5 1.5 0 0 1 16 10 A 1.5 1.5 0 0 1 14.5 11.5 A 1.5 1.5 0 0 1 13 10 A 1.5 1.5 0 0 1 14.5 8.5 z " />
</svg>
