<?xml version="1.0" encoding="UTF-8" standalone="no"?>
<svg
   viewBox="0 0 20 20"
   fill="currentColor"
   version="1.1"
   id="svg1"
   sodipodi:docname="photo-plus.svg"
   inkscape:version="1.3.2 (091e20e, 2023-11-25)"
   width="20"
   height="20"
   xmlns:inkscape="http://www.inkscape.org/namespaces/inkscape"
   xmlns:sodipodi="http://sodipodi.sourceforge.net/DTD/sodipodi-0.dtd"
   xmlns="http://www.w3.org/2000/svg"
   xmlns:svg="http://www.w3.org/2000/svg">
  <defs
     id="defs1">
    <inkscape:path-effect
       effect="fillet_chamfer"
       id="path-effect8"
       is_visible="true"
       lpeversion="1"
       nodesatellites_param="F,0,0,1,0,0,0,1 @ F,0,0,1,0,3.25,0,1 @ F,0,0,1,0,3.25,0,1 @ F,0,0,1,0,0,0,1"
       radius="0"
       unit="px"
       method="auto"
       mode="F"
       chamfer_steps="1"
       flexible="false"
       use_knot_distance="true"
       apply_no_radius="true"
       apply_with_radius="true"
       only_selected="false"
       hide_knots="false" />
  </defs>
  <sodipodi:namedview
     id="namedview1"
     pagecolor="#ffffff"
     bordercolor="#000000"
     borderopacity="0.25"
     inkscape:showpageshadow="2"
     inkscape:pageopacity="0.0"
     inkscape:pagecheckerboard="0"
     inkscape:deskcolor="#d1d1d1"
     showgrid="true"
     inkscape:zoom="8.262769"
     inkscape:cx="6.1117526"
     inkscape:cy="-4.8409922"
     inkscape:window-width="2560"
     inkscape:window-height="1387"
     inkscape:window-x="0"
     inkscape:window-y="25"
     inkscape:window-maximized="0"
     inkscape:current-layer="svg1">
    <inkscape:grid
       id="grid1"
       units="px"
       originx="0"
       originy="0"
       spacingx="0.25"
       spacingy="0.25"
       empcolor="#0099e5"
       empopacity="0.6"
       color="#0099e5"
       opacity="0.14901961"
       empspacing="2"
       dotted="false"
       gridanglex="30"
       gridanglez="30"
       visible="true" />
    <inkscape:grid
       id="grid2"
       units="px"
       originx="0"
       originy="0"
       spacingx="4"
       spacingy="4"
       empcolor="#e50000"
       empopacity="0.6"
       color="#0099e5"
       opacity="0.14901961"
       empspacing="1"
       dotted="false"
       gridanglex="30"
       gridanglez="30"
       visible="true" />
  </sodipodi:namedview>
  <path
     id="path1"
     d="M 3.25,3 C 2.0073636,3 1,4.0073636 1,5.25 v 9.5 C 1,15.992597 2.0073636,17 3.25,17 h 13.5 C 17.992597,17 19,15.992597 19,14.75 V 6.1113281 C 18.759713,6.1998969 18.50607,6.2467945 18.25,6.25 18.25,7.4926407 17.242641,8.5 16,8.5 14.757359,8.5 13.75,7.4926407 13.75,6.25 12.507359,6.25 11.5,5.2426407 11.5,4 c 0.0036,-0.3478762 0.08786,-0.6901748 0.246094,-1 z M 11,6 c 0.552298,0 1,0.4477212 1,1 0,0.5522788 -0.447702,1 -1,1 C 10.447701,8 10,7.5522788 10,7 10,6.4477212 10.447701,6 11,6 Z M 6,7.8710938 c 0.1919423,0 0.3848051,0.074258 0.53125,0.2207031 l 5.1875,5.1894531 c 0.2929,0.2929 0.7696,0.2929 1.0625,0 0.2929,-0.2929 0.2929,-0.7696 0,-1.0625 L 12.310547,11.75 14.21875,9.8417969 c 0.2929,-0.2928897 0.7696,-0.2928897 1.0625,0 L 17.5,12.060547 V 14.75 c 0,0.4142 -0.3358,0.75 -0.75,0.75 H 3.25 C 2.8357904,15.5 2.5,15.1642 2.5,14.75 V 11.060547 L 5.46875,8.0917969 C 5.6151949,7.945352 5.8080577,7.8710938 6,7.8710938 Z M 16,1 c -0.414214,0 -0.75,0.3357864 -0.75,0.75 v 1.5 h -1.5 C 13.335786,3.25 13,3.5857864 13,4 c 0,0.4142136 0.335786,0.75 0.75,0.75 h 1.5 v 1.5 C 15.25,6.6642136 15.585786,7 16,7 16.414214,7 16.75,6.6642136 16.75,6.25 v -1.5 h 1.5 C 18.664214,4.75 19,4.4142136 19,4 19,3.5857864 18.664214,3.25 18.25,3.25 h -1.5 V 1.75 C 16.75,1.3357864 16.414214,1 16,1 Z"
     style="fill:#000000" />
</svg>
