<?xml version="1.0" encoding="UTF-8" standalone="no"?>
<svg
   viewBox="0 0 20 20"
   fill="currentColor"
   version="1.1"
   id="svg1"
   sodipodi:docname="pin-slash.svg"
   inkscape:version="1.3.2 (091e20e, 2023-11-25)"
   width="20"
   height="20"
   xmlns:inkscape="http://www.inkscape.org/namespaces/inkscape"
   xmlns:sodipodi="http://sodipodi.sourceforge.net/DTD/sodipodi-0.dtd"
   xmlns="http://www.w3.org/2000/svg"
   xmlns:svg="http://www.w3.org/2000/svg">
  <defs
     id="defs1" />
  <sodipodi:namedview
     id="namedview1"
     pagecolor="#ffffff"
     bordercolor="#000000"
     borderopacity="0.25"
     inkscape:showpageshadow="2"
     inkscape:pageopacity="0.0"
     inkscape:pagecheckerboard="0"
     inkscape:deskcolor="#d1d1d1"
     showgrid="true"
     inkscape:zoom="35.256972"
     inkscape:cx="5.2046444"
     inkscape:cy="10.579468"
     inkscape:window-width="2560"
     inkscape:window-height="1387"
     inkscape:window-x="1800"
     inkscape:window-y="25"
     inkscape:window-maximized="1"
     inkscape:current-layer="svg1">
    <inkscape:grid
       id="grid1"
       units="px"
       originx="0"
       originy="0"
       spacingx="0.5"
       spacingy="0.5"
       empcolor="#0099e5"
       empopacity="0.6"
       color="#0099e5"
       opacity="0.14901961"
       empspacing="2"
       dotted="false"
       gridanglex="30"
       gridanglez="30"
       visible="true" />
    <inkscape:grid
       id="grid2"
       units="px"
       originx="0"
       originy="0"
       spacingx="4"
       spacingy="4"
       empcolor="#e50000"
       empopacity="0.6"
       color="#0099e5"
       opacity="0.14901961"
       empspacing="1"
       dotted="false"
       gridanglex="30"
       gridanglez="30"
       visible="true" />
  </sodipodi:namedview>
  <path
     id="path1"
     style="fill:#000000"
     d="m 2.2190912,2.2190919 a 0.74915494,0.74915494 0 0 1 1.058806,0 L 17.76156,16.702754 A 0.74915494,0.74915494 0 1 1 16.702755,17.76156 L 2.2190912,3.2778979 a 0.74915494,0.74915494 0 0 1 0,-1.058806 z M 13.220703,2 a 0.74994968,0.7499886 0 0 0 -0.529297,0.21875 l -1.611328,1.6113281 a 0.74994968,0.7499886 0 0 0 0,1.0605469 l 0.275391,0.2773438 -1.5058596,1.5058593 3.4765626,3.4765629 1.507812,-1.5058598 0.275391,0.2753907 a 0.74994968,0.7499886 0 0 0 1.060547,0 L 17.78125,7.3085938 a 0.74994968,0.7499886 0 0 0 0,-1.0605469 L 13.751953,2.21875 A 0.74994968,0.7499886 0 0 0 13.220703,2 Z M 4.7636719,7.9394531 c -0.3372955,0.2003 -0.6506865,0.4436411 -0.9316407,0.7246094 a 0.74994968,0.7499886 0 0 0 0,1.0605469 l 2.6914063,2.6894526 -4.3027344,4.302735 a 0.74987469,0.74991361 0 0 0 0,1.0625 0.74987469,0.74991361 0 0 0 1.0625,0 l 4.3007813,-4.302735 2.6914066,2.691407 a 0.74994968,0.7499886 0 0 0 1.060547,0 c 0.280707,-0.280723 0.522465,-0.594663 0.722656,-0.931641 z" />
</svg>
