<?xml version="1.0" encoding="UTF-8" standalone="no"?>
<svg
   viewBox="0 0 20 20"
   fill="currentColor"
   version="1.1"
   id="svg1"
   sodipodi:docname="quotation-mark.svg"
   inkscape:version="1.3.2 (091e20e, 2023-11-25)"
   width="20"
   height="20"
   xmlns:inkscape="http://www.inkscape.org/namespaces/inkscape"
   xmlns:sodipodi="http://sodipodi.sourceforge.net/DTD/sodipodi-0.dtd"
   xmlns="http://www.w3.org/2000/svg"
   xmlns:svg="http://www.w3.org/2000/svg">
  <defs
     id="defs1" />
  <sodipodi:namedview
     id="namedview1"
     pagecolor="#ffffff"
     bordercolor="#000000"
     borderopacity="0.25"
     inkscape:showpageshadow="2"
     inkscape:pageopacity="0.0"
     inkscape:pagecheckerboard="0"
     inkscape:deskcolor="#d1d1d1"
     showgrid="true"
     inkscape:zoom="60.390263"
     inkscape:cx="6.8802483"
     inkscape:cy="7.5840041"
     inkscape:window-width="2560"
     inkscape:window-height="1387"
     inkscape:window-x="1800"
     inkscape:window-y="25"
     inkscape:window-maximized="0"
     inkscape:current-layer="svg1">
    <inkscape:grid
       id="grid1"
       units="px"
       originx="0"
       originy="0"
       spacingx="0.25"
       spacingy="0.25"
       empcolor="#0099e5"
       empopacity="0.6"
       color="#0099e5"
       opacity="0.14901961"
       empspacing="2"
       dotted="false"
       gridanglex="30"
       gridanglez="30"
       visible="true" />
    <inkscape:grid
       id="grid2"
       units="px"
       originx="0"
       originy="0"
       spacingx="4"
       spacingy="4"
       empcolor="#e50000"
       empopacity="0.6"
       color="#0099e5"
       opacity="0.14901961"
       empspacing="1"
       dotted="false"
       gridanglex="30"
       gridanglez="30"
       visible="true" />
  </sodipodi:namedview>
  <path
     id="path1"
     style="fill:#000000"
     d="M 5.5,6.5 C 3.5832904,6.4999973 2,8.0838874 2,10 c 0,0.874747 0.2365662,1.632528 0.6914062,2.21125 0.3319389,0.422346 0.8228927,0.65297 1.2988282,0.900132 0.026917,0.798377 -0.018799,1.017773 -0.6601563,2.30012 -0.3360163,0.673869 0.4198836,1.367041 1.0625,0.97433 C 7.7979167,14.290841 9,11.832803 9,10 9,8.0838873 7.4166175,6.5000027 5.5,6.5 Z m 9,0 C 12.58329,6.4999973 11,8.0838874 11,10 c 0,0.874747 0.236567,1.632528 0.691406,2.21125 0.33194,0.422346 0.822893,0.65297 1.298828,0.900132 0.02692,0.798377 -0.0188,1.017773 -0.660156,2.30012 -0.336016,0.673869 0.419884,1.367041 1.0625,0.97433 C 16.797917,14.290841 18,11.832803 18,10 18,8.0838873 16.416617,6.5000027 14.5,6.5 Z" />
</svg>
