<?xml version="1.0" encoding="UTF-8" standalone="no"?>
<svg
   viewBox="0 0 20 20"
   fill="currentColor"
   version="1.1"
   id="svg1"
   sodipodi:docname="radial-rays.svg"
   inkscape:version="1.3.2 (091e20e, 2023-11-25)"
   width="20"
   height="20"
   xmlns:inkscape="http://www.inkscape.org/namespaces/inkscape"
   xmlns:sodipodi="http://sodipodi.sourceforge.net/DTD/sodipodi-0.dtd"
   xmlns="http://www.w3.org/2000/svg"
   xmlns:svg="http://www.w3.org/2000/svg">
  <defs
     id="defs1" />
  <sodipodi:namedview
     id="namedview1"
     pagecolor="#ffffff"
     bordercolor="#000000"
     borderopacity="0.25"
     inkscape:showpageshadow="2"
     inkscape:pageopacity="0.0"
     inkscape:pagecheckerboard="0"
     inkscape:deskcolor="#d1d1d1"
     showgrid="true"
     inkscape:zoom="40.838919"
     inkscape:cx="9.8313082"
     inkscape:cy="8.3743647"
     inkscape:window-width="2560"
     inkscape:window-height="1387"
     inkscape:window-x="1512"
     inkscape:window-y="25"
     inkscape:window-maximized="1"
     inkscape:current-layer="svg1">
    <inkscape:grid
       id="grid1"
       units="px"
       originx="0"
       originy="0"
       spacingx="0.25"
       spacingy="0.25"
       empcolor="#0099e5"
       empopacity="0.6"
       color="#0099e5"
       opacity="0.14901961"
       empspacing="2"
       dotted="false"
       gridanglex="30"
       gridanglez="30"
       visible="true" />
    <inkscape:grid
       id="grid2"
       units="px"
       originx="0"
       originy="0"
       spacingx="4"
       spacingy="4"
       empcolor="#e50000"
       empopacity="0.6"
       color="#0099e5"
       opacity="0.14901961"
       empspacing="1"
       dotted="false"
       gridanglex="30"
       gridanglez="30"
       visible="true" />
  </sodipodi:namedview>
  <path
     id="path1"
     style="fill:#000000"
     d="m 15.656854,15.656854 c 0.292894,-0.292893 0.292893,-0.767767 0,-1.06066 l -2.12132,-2.12132 c -0.292893,-0.292894 -0.767767,-0.292894 -1.06066,0 -0.292894,0.292893 -0.292893,0.767767 0,1.06066 l 2.12132,2.12132 c 0.292893,0.292893 0.767767,0.292894 1.06066,0 z M 7.5251263,7.5251261 c 0.2928938,-0.2928931 0.2928938,-0.7677665 -2e-7,-1.06066 l -2.12132,-2.1213202 c -0.2928941,-0.2928936 -0.767767,-0.2928933 -1.0606601,0 -0.2928938,0.2928932 -0.2928938,0.7677663 0,1.0606601 L 6.4644662,7.5251262 C 6.75736,7.81802 7.232233,7.8180199 7.5251263,7.5251261 Z M 18,10 C 18,9.5857865 17.664213,9.2499999 17.25,9.2500001 l -3,2e-7 C 13.835786,9.2499997 13.5,9.5857861 13.5,10 c 0,0.414214 0.335787,0.75 0.75,0.75 h 3 C 17.664213,10.75 18,10.414214 18,10 Z M 6.4999999,10 c 5e-7,-0.4142139 -0.3357857,-0.7500001 -0.75,-0.7499997 l -2.9999997,-2e-7 C 2.3357858,9.2500004 2.0000001,9.5857865 2.0000003,10 c -4e-7,0.414214 0.3357856,0.75 0.75,0.75 H 5.75 c 0.4142144,0 0.7500003,-0.335786 0.7499999,-0.75 z M 15.656854,4.3431458 c -0.292893,-0.2928933 -0.767767,-0.2928933 -1.06066,0 l -2.12132,2.1213203 c -0.292894,0.2928932 -0.292894,0.7677669 0,1.0606602 0.292893,0.2928935 0.767767,0.2928932 1.06066,0 l 2.12132,-2.1213204 c 0.292893,-0.2928932 0.292894,-0.7677666 0,-1.0606601 z M 7.5251263,12.474874 c -0.2928933,-0.292894 -0.7677667,-0.292894 -1.0606602,0 l -2.1213203,2.12132 c -0.2928936,0.292894 -0.2928933,0.767767 0,1.06066 0.2928935,0.292894 0.7677666,0.292894 1.0606601,0 l 2.1213204,-2.12132 c 0.2928935,-0.292894 0.2928935,-0.767767 0,-1.06066 z M 10,2 C 9.5857864,2 9.25,2.3357864 9.25,2.75 v 3 c 0,0.4142136 0.3357864,0.75 0.75,0.75 0.414214,0 0.75,-0.3357864 0.75,-0.75 v -3 C 10.75,2.3357864 10.414214,2 10,2 Z m 0,11.5 c -0.4142136,0 -0.75,0.335786 -0.75,0.75 v 3 c 0,0.414214 0.3357864,0.75 0.75,0.75 0.414214,0 0.75,-0.335786 0.75,-0.75 v -3 C 10.75,13.835786 10.414214,13.5 10,13.5 Z" />
</svg>
