<?xml version="1.0" encoding="UTF-8" standalone="no"?>
<svg
   viewBox="0 0 20 20"
   fill="currentColor"
   version="1.1"
   id="svg1"
   sodipodi:docname="robot.svg"
   inkscape:version="1.3.2 (091e20e, 2023-11-25)"
   width="20"
   height="20"
   xmlns:inkscape="http://www.inkscape.org/namespaces/inkscape"
   xmlns:sodipodi="http://sodipodi.sourceforge.net/DTD/sodipodi-0.dtd"
   xmlns="http://www.w3.org/2000/svg"
   xmlns:svg="http://www.w3.org/2000/svg">
  <defs
     id="defs1">
    <inkscape:path-effect
       effect="fillet_chamfer"
       id="path-effect9"
       is_visible="true"
       lpeversion="1"
       nodesatellites_param="F,0,0,1,0,0,0,1 @ F,0,0,1,0,0.75,0,1 @ F,0,0,1,0,0.75,0,1 @ F,0,0,1,0,0,0,1"
       radius="0"
       unit="px"
       method="auto"
       mode="F"
       chamfer_steps="1"
       flexible="false"
       use_knot_distance="true"
       apply_no_radius="true"
       apply_with_radius="true"
       only_selected="false"
       hide_knots="false" />
    <inkscape:path-effect
       effect="fillet_chamfer"
       id="path-effect7"
       is_visible="true"
       lpeversion="1"
       nodesatellites_param="F,0,0,1,0,0,0,1 @ F,0,0,1,0,0.75,0,1 @ F,0,0,1,0,0.75,0,1 @ F,0,0,1,0,0,0,1"
       radius="0"
       unit="px"
       method="auto"
       mode="F"
       chamfer_steps="1"
       flexible="false"
       use_knot_distance="true"
       apply_no_radius="true"
       apply_with_radius="true"
       only_selected="false"
       hide_knots="false" />
  </defs>
  <sodipodi:namedview
     id="namedview1"
     pagecolor="#ffffff"
     bordercolor="#000000"
     borderopacity="0.25"
     inkscape:showpageshadow="2"
     inkscape:pageopacity="0.0"
     inkscape:pagecheckerboard="0"
     inkscape:deskcolor="#d1d1d1"
     showgrid="false"
     inkscape:zoom="25.909979"
     inkscape:cx="9.3979234"
     inkscape:cy="11.694336"
     inkscape:window-width="1800"
     inkscape:window-height="1097"
     inkscape:window-x="356"
     inkscape:window-y="1484"
     inkscape:window-maximized="1"
     inkscape:current-layer="svg1">
    <inkscape:grid
       id="grid1"
       units="px"
       originx="0"
       originy="0"
       spacingx="0.25"
       spacingy="0.25"
       empcolor="#0099e5"
       empopacity="0.6"
       color="#0099e5"
       opacity="0.14901961"
       empspacing="2"
       dotted="false"
       gridanglex="30"
       gridanglez="30"
       visible="false" />
    <inkscape:grid
       id="grid2"
       units="px"
       originx="0"
       originy="0"
       spacingx="4"
       spacingy="4"
       empcolor="#e50000"
       empopacity="0.6"
       color="#0099e5"
       opacity="0.14901961"
       empspacing="1"
       dotted="false"
       gridanglex="30"
       gridanglez="30"
       visible="false" />
  </sodipodi:namedview>
  <path
     id="path1"
     style="fill:#000000"
     d="M 10 3 C 9.1771016 3 8.5 3.6771005 8.5 4.5 C 8.5 5.0505738 8.8029223 5.5359639 9.25 5.796875 L 9.25 7 L 7.25 7 C 5.4422169 7 3.9255492 8.2924572 3.5761719 10 L 3.5 10 C 2.6804596 10 2 10.68046 2 11.5 L 2 12.5 C 2 13.31954 2.6804596 14 3.5 14 L 3.5761719 14 C 3.9255492 15.707542 5.4422169 17 7.25 17 L 12.75 17 C 14.557783 17 16.07445 15.707542 16.423828 14 L 16.5 14 C 17.31954 14 18 13.31954 18 12.5 L 18 11.5 C 18 10.68046 17.31954 10 16.5 10 L 16.423828 10 C 16.07445 8.2924572 14.557783 7 12.75 7 L 10.75 7 L 10.75 5.796875 C 11.197078 5.5359639 11.5 5.0505738 11.5 4.5 C 11.5 3.6771005 10.822898 3 10 3 z M 8 9.25 C 8.6857502 9.25 9.2500002 9.8142507 9.25 10.5 C 9.25 11.18575 8.6857503 11.75 8 11.75 C 7.3142498 11.75 6.75 11.18575 6.75 10.5 C 6.7499998 9.8142507 7.3142499 9.25 8 9.25 z M 12 9.25 C 12.685749 9.25 13.25 9.8142505 13.25 10.5 C 13.25 11.18575 12.68575 11.75 12 11.75 C 11.31425 11.75 10.75 11.18575 10.75 10.5 C 10.75 9.8142505 11.314251 9.25 12 9.25 z M 7.5 13.25 L 12.5 13.25 A 0.75 0.75 0 0 1 13.25 14 A 0.75 0.75 0 0 1 12.5 14.75 L 7.5 14.75 A 0.75 0.75 0 0 1 6.75 14 A 0.75 0.75 0 0 1 7.5 13.25 z " />
</svg>
