<?xml version="1.0" encoding="UTF-8" standalone="no"?>
<svg
   viewBox="0 0 20 20"
   fill="currentColor"
   version="1.1"
   id="svg1"
   sodipodi:docname="shield.svg"
   inkscape:version="1.3.2 (091e20e, 2023-11-25)"
   width="20"
   height="20"
   xmlns:inkscape="http://www.inkscape.org/namespaces/inkscape"
   xmlns:sodipodi="http://sodipodi.sourceforge.net/DTD/sodipodi-0.dtd"
   xmlns="http://www.w3.org/2000/svg"
   xmlns:svg="http://www.w3.org/2000/svg"><defs
     id="defs1" /><sodipodi:namedview
     id="namedview1"
     pagecolor="#ffffff"
     bordercolor="#000000"
     borderopacity="0.25"
     inkscape:showpageshadow="2"
     inkscape:pageopacity="0.0"
     inkscape:pagecheckerboard="0"
     inkscape:deskcolor="#d1d1d1"
     showgrid="true"
     inkscape:zoom="17.204065"
     inkscape:cx="9.2129391"
     inkscape:cy="8.951373"
     inkscape:window-width="1800"
     inkscape:window-height="1097"
     inkscape:window-x="0"
     inkscape:window-y="44"
     inkscape:window-maximized="1"
     inkscape:current-layer="svg1"><inkscape:grid
       id="grid1"
       units="px"
       originx="0"
       originy="0"
       spacingx="0.5"
       spacingy="0.5"
       empcolor="#0099e5"
       empopacity="0.6"
       color="#0099e5"
       opacity="0.14901961"
       empspacing="2"
       dotted="false"
       gridanglex="30"
       gridanglez="30"
       visible="true" /><inkscape:grid
       id="grid2"
       units="px"
       originx="0"
       originy="0"
       spacingx="4"
       spacingy="4"
       empcolor="#e50000"
       empopacity="0.6"
       color="#0099e5"
       opacity="0.14901961"
       empspacing="1"
       dotted="false"
       gridanglex="30"
       gridanglez="30"
       visible="true" /></sodipodi:namedview><path
     d="m 9.661,2.0363384 c 0.196588,-0.1630596 0.481412,-0.1630596 0.678,0 1.997614,1.6616558 4.482501,2.6267524 7.078,2.749 0.241341,0.00743 0.442896,0.1862598 0.479,0.425 0.069,0.52 0.104,1.05 0.104,1.59 0,5.1619996 -3.26,9.5629996 -7.834,11.2559996 -0.107144,0.03949 -0.2248563,0.03949 -0.332,0 C 5.26,16.363338 2,11.962338 2,6.7993384 c 0,-0.538 0.035,-1.069 0.104,-1.589 0.036173,-0.2391015 0.2382776,-0.4180479 0.48,-0.425 2.5952699,-0.1227456 5.0797857,-1.0881855 7.077,-2.75 z"
     id="path1"
     style="fill:#000000" /></svg>
