<svg xmlns="http://www.w3.org/2000/svg" viewBox="0 0 16 16" fill="currentColor" aria-hidden="true" data-slot="icon">
  <path d="M5.5 2C4.68 2 4 2.68 4 3.5S4.68 5 5.5 5 7 4.32 7 3.5 6.32 2 5.5 2Zm5 0C9.68 2 9 2.68 9 3.5S9.68 5 10.5 5 12 4.32 12 3.5 11.32 2 10.5 2Zm-5 4.5C4.68 6.5 4 7.18 4 8s.68 1.5 1.5 1.5S7 8.82 7 8s-.68-1.5-1.5-1.5Zm5 0C9.68 6.5 9 7.18 9 8s.68 1.5 1.5 1.5S12 8.82 12 8s-.68-1.5-1.5-1.5Zm-5 4.5c-.82 0-1.5.68-1.5 1.5S4.68 14 5.5 14 7 13.32 7 12.5 6.32 11 5.5 11Zm5 0c-.82 0-1.5.68-1.5 1.5s.68 1.5 1.5 1.5 1.5-.68 1.5-1.5-.68-1.5-1.5-1.5Z"/>
</svg>
