<svg xmlns="http://www.w3.org/2000/svg" viewBox="0 0 16 16" fill="currentColor" aria-hidden="true" data-slot="icon">
  <path d="M14 5.5c0-.82-.68-1.5-1.5-1.5S11 4.68 11 5.5 11.68 7 12.5 7 14 6.32 14 5.5Zm0 5c0-.82-.68-1.5-1.5-1.5s-1.5.68-1.5 1.5.68 1.5 1.5 1.5 1.5-.68 1.5-1.5Zm-4.5-5C9.5 4.68 8.82 4 8 4s-1.5.68-1.5 1.5S7.18 7 8 7s1.5-.68 1.5-1.5Zm0 5C9.5 9.68 8.82 9 8 9s-1.5.68-1.5 1.5S7.18 12 8 12s1.5-.68 1.5-1.5ZM5 5.5C5 4.68 4.32 4 3.5 4S2 4.68 2 5.5 2.68 7 3.5 7 5 6.32 5 5.5Zm0 5C5 9.68 4.32 9 3.5 9S2 9.68 2 10.5 2.68 12 3.5 12 5 11.32 5 10.5Z"/>
</svg>
