<svg xmlns="http://www.w3.org/2000/svg" viewBox="0 0 24 24" fill="currentColor" aria-hidden="true" data-slot="icon">
  <path d="M21.25 8.5c0-1.23-1.02-2.25-2.25-2.25s-2.25 1.02-2.25 2.25 1.02 2.25 2.25 2.25 2.25-1.02 2.25-2.25zm0 7c0-1.23-1.02-2.25-2.25-2.25s-2.25 1.02-2.25 2.25 1.02 2.25 2.25 2.25 2.25-1.02 2.25-2.25zm-7-7c0-1.23-1.02-2.25-2.25-2.25S9.75 7.27 9.75 8.5s1.02 2.25 2.25 2.25 2.25-1.02 2.25-2.25zm0 7c0-1.23-1.02-2.25-2.25-2.25s-2.25 1.02-2.25 2.25 1.02 2.25 2.25 2.25 2.25-1.02 2.25-2.25zm-7-7c0-1.23-1.02-2.25-2.25-2.25S2.75 7.27 2.75 8.5 3.77 10.75 5 10.75 7.25 9.73 7.25 8.5zm0 7c0-1.23-1.02-2.25-2.25-2.25s-2.25 1.02-2.25 2.25S3.77 17.75 5 17.75s2.25-1.02 2.25-2.25z"/>
</svg>
