<?xml version="1.0" encoding="UTF-8" standalone="no"?>
<svg
   viewBox="0 0 24 24"
   fill="currentColor"
   version="1.1"
   id="svg1"
   sodipodi:docname="archive-box-arrow-up.svg"
   inkscape:version="1.3.2 (091e20e, 2023-11-25)"
   width="24"
   height="24"
   xmlns:inkscape="http://www.inkscape.org/namespaces/inkscape"
   xmlns:sodipodi="http://sodipodi.sourceforge.net/DTD/sodipodi-0.dtd"
   xmlns="http://www.w3.org/2000/svg"
   xmlns:svg="http://www.w3.org/2000/svg">
  <defs
     id="defs1" />
  <sodipodi:namedview
     id="namedview1"
     pagecolor="#ffffff"
     bordercolor="#000000"
     borderopacity="0.25"
     inkscape:showpageshadow="2"
     inkscape:pageopacity="0.0"
     inkscape:pagecheckerboard="0"
     inkscape:deskcolor="#d1d1d1"
     showgrid="true"
     inkscape:zoom="36.478475"
     inkscape:cx="8.3610952"
     inkscape:cy="12.281215"
     inkscape:window-width="2560"
     inkscape:window-height="1387"
     inkscape:window-x="1512"
     inkscape:window-y="25"
     inkscape:window-maximized="1"
     inkscape:current-layer="svg1">
    <inkscape:grid
       id="grid1"
       units="px"
       originx="0"
       originy="0"
       spacingx="0.5"
       spacingy="0.5"
       empcolor="#0099e5"
       empopacity="0.6"
       color="#0099e5"
       opacity="0.14901961"
       empspacing="2"
       dotted="false"
       gridanglex="30"
       gridanglez="30"
       visible="true" />
    <inkscape:grid
       id="grid2"
       units="px"
       originx="0"
       originy="0"
       spacingx="4"
       spacingy="4"
       empcolor="#e50000"
       empopacity="0.6"
       color="#0099e5"
       opacity="0.14901961"
       empspacing="1"
       dotted="false"
       gridanglex="30"
       gridanglez="30"
       visible="true" />
  </sodipodi:namedview>
  <path
     id="path1"
     style="fill:#000000"
     d="m 3.0859375,9 0.5410156,9.175781 C 3.720223,19.76148 5.0326653,21 6.6210938,21 H 17.378906 c 1.588399,0 2.900941,-1.23852 2.994141,-2.824219 L 20.912109,9 Z M 12,10.5 c 0.191925,0 0.3848,0.0723 0.53125,0.21875 l 3,3 c 0.2929,0.2929 0.2929,0.7696 0,1.0625 -0.2929,0.2929 -0.7696,0.2929 -1.0625,0 L 12.75,13.060547 V 18 c 0,0.4142 -0.3358,0.75 -0.75,0.75 -0.4142,0 -0.75,-0.3358 -0.75,-0.75 V 13.060547 L 9.53125,14.78125 c -0.2928897,0.2929 -0.7696103,0.2929 -1.0625,0 -0.2928897,-0.2929 -0.2928897,-0.7696 0,-1.0625 l 3,-3 C 11.6152,10.5723 11.808075,10.5 12,10.5 Z M 3.375,3 C 2.33947,3 1.5,3.83947 1.5,4.875 v 0.75 C 1.5,6.66053 2.33947,7.5 3.375,7.5 h 17.25 C 21.6605,7.5 22.5,6.66053 22.5,5.625 V 4.875 C 22.5,3.83947 21.6605,3 20.625,3 Z" />
</svg>
