<?xml version="1.0" encoding="UTF-8" standalone="no"?>
<svg
   viewBox="0 0 24 24"
   fill="currentColor"
   version="1.1"
   id="svg1"
   sodipodi:docname="arrow-path-single-counterclockwise.svg"
   inkscape:version="1.3.2 (091e20e, 2023-11-25)"
   width="24"
   height="24"
   xmlns:inkscape="http://www.inkscape.org/namespaces/inkscape"
   xmlns:sodipodi="http://sodipodi.sourceforge.net/DTD/sodipodi-0.dtd"
   xmlns="http://www.w3.org/2000/svg"
   xmlns:svg="http://www.w3.org/2000/svg">
  <defs
     id="defs1" />
  <sodipodi:namedview
     id="namedview1"
     pagecolor="#ffffff"
     bordercolor="#000000"
     borderopacity="0.25"
     inkscape:showpageshadow="2"
     inkscape:pageopacity="0.0"
     inkscape:pagecheckerboard="0"
     inkscape:deskcolor="#d1d1d1"
     showgrid="true"
     inkscape:zoom="32.95807"
     inkscape:cx="11.044336"
     inkscape:cy="9.4969152"
     inkscape:window-width="2560"
     inkscape:window-height="1387"
     inkscape:window-x="1512"
     inkscape:window-y="25"
     inkscape:window-maximized="1"
     inkscape:current-layer="svg1">
    <inkscape:grid
       id="grid1"
       units="px"
       originx="0"
       originy="0"
       spacingx="0.5"
       spacingy="0.5"
       empcolor="#0099e5"
       empopacity="0.6"
       color="#0099e5"
       opacity="0.14901961"
       empspacing="2"
       dotted="false"
       gridanglex="30"
       gridanglez="30"
       visible="true" />
    <inkscape:grid
       id="grid2"
       units="px"
       originx="0"
       originy="0"
       spacingx="4"
       spacingy="4"
       empcolor="#e50000"
       empopacity="0.6"
       color="#0099e5"
       opacity="0.14901961"
       empspacing="1"
       dotted="false"
       gridanglex="30"
       gridanglez="30"
       visible="true" />
  </sodipodi:namedview>
  <path
     d="m 10.726281,2.3337379 c 2.074913,-0.2727976 4.239334,0.1198669 6.148438,1.2226562 3.818209,2.2055781 5.683031,6.7096439 4.542968,10.9687509 -1.140062,4.259106 -5.005473,7.225573 -9.414061,7.224609 C 7.595037,21.748791 3.72752,18.780629 2.585657,14.521238 a 0.75,0.75 0 0 1 0.529296,-0.917968 0.75,0.75 0 0 1 0.919922,0.529297 c 0.968023,3.610927 4.231998,6.116371 7.968751,6.117187 3.736753,8.17e-4 6.998452,-2.502987 7.964843,-6.113281 C 20.93486,10.526179 19.359518,6.7249237 16.122765,4.8552222 12.886014,2.9855202 8.809333,3.5214777 6.167688,6.163816 L 4.919641,7.4118629 h 3.207031 a 0.75,0.75 0 0 1 0.75,0.75 0.75,0.75 0 0 1 -0.75,0.75 H 3.113 A 0.75,0.75 0 0 1 2.507532,8.5134254 0.75,0.75 0 0 1 2.405969,8.2653785 0.75,0.75 0 0 1 2.363,8.1618629 v -5.015625 a 0.75,0.75 0 0 1 0.75,-0.75 0.75,0.75 0 0 1 0.75,0.75 V 6.3474097 L 5.107141,5.1032691 C 6.665504,3.5444974 8.65137,2.6065355 10.726281,2.3337379 Z"
     id="path1" />
</svg>
