<?xml version="1.0" encoding="UTF-8" standalone="no"?>
<svg
   viewBox="0 0 24 24"
   fill="currentColor"
   version="1.1"
   id="svg1"
   sodipodi:docname="arrow-bottom-left-on-square.svg"
   inkscape:version="1.3.2 (091e20e, 2023-11-25)"
   width="24"
   height="24"
   xmlns:inkscape="http://www.inkscape.org/namespaces/inkscape"
   xmlns:sodipodi="http://sodipodi.sourceforge.net/DTD/sodipodi-0.dtd"
   xmlns="http://www.w3.org/2000/svg"
   xmlns:svg="http://www.w3.org/2000/svg">
  <defs
     id="defs1" />
  <sodipodi:namedview
     id="namedview1"
     pagecolor="#ffffff"
     bordercolor="#000000"
     borderopacity="0.25"
     inkscape:showpageshadow="2"
     inkscape:pageopacity="0.0"
     inkscape:pagecheckerboard="0"
     inkscape:deskcolor="#d1d1d1"
     showgrid="false"
     inkscape:zoom="14.398102"
     inkscape:cx="4.2019427"
     inkscape:cy="6.0424631"
     inkscape:window-width="2560"
     inkscape:window-height="1387"
     inkscape:window-x="0"
     inkscape:window-y="25"
     inkscape:window-maximized="1"
     inkscape:current-layer="svg1">
    <inkscape:grid
       id="grid1"
       units="px"
       originx="0"
       originy="0"
       spacingx="0.5"
       spacingy="0.5"
       empcolor="#0099e5"
       empopacity="0.6"
       color="#0099e5"
       opacity="0.14901961"
       empspacing="2"
       dotted="false"
       gridanglex="30"
       gridanglez="30"
       visible="false" />
    <inkscape:grid
       id="grid2"
       units="px"
       originx="0"
       originy="0"
       spacingx="4"
       spacingy="4"
       empcolor="#e50000"
       empopacity="0.6"
       color="#0099e5"
       opacity="0.14901961"
       empspacing="1"
       dotted="false"
       gridanglex="30"
       gridanglez="30"
       visible="false" />
  </sodipodi:namedview>
  <path
     fill-rule="evenodd"
     clip-rule="evenodd"
     d="M 8.25,21.75 H 3 C 2.8011,21.75 2.6103,21.67098 2.4697,21.53033 2.329,21.38968 2.25,21.19891 2.25,21 V 15.75 C 2.25,15.33579 2.5858,15 3,15 c 0.4142,0 0.75,0.33579 0.75,0.75 v 3.43934 L 15.96967,6.9697 c 0.29289,-0.2929 0.76777,-0.2929 1.06066,0 0.29289,0.2929 0.29289,0.7677 0,1.0606 L 4.8107,20.25 H 8.25 C 8.6642,20.25 9,20.58579 9,21 9,21.41421 8.6642,21.75 8.25,21.75 Z m 10.5,-4.5 c 0.82843,0 1.5,-0.67157 1.5,-1.5 V 5.25 c 0,-0.8284 -0.67157,-1.5 -1.5,-1.5 H 8.25 c -0.8284,0 -1.5,0.6716 -1.5,1.5 v 8.25 c 0,0.4142 -0.3358,0.75 -0.75,0.75 -0.4142,0 -0.75,-0.3358 -0.75,-0.75 V 5.25 c 0,-1.6569 1.3431,-3 3,-3 h 10.5 c 1.65685,0 3,1.3431 3,3 v 10.5 c 0,1.65685 -1.34315,3 -3,3 H 10.5 c -0.4142,0 -0.75,-0.33579 -0.75,-0.75 0,-0.41421 0.3358,-0.75 0.75,-0.75 z"
     fill="#000000"
     id="path1" />
</svg>
