<?xml version="1.0" encoding="UTF-8" standalone="no"?>
<svg
   viewBox="0 0 24 24"
   fill="currentColor"
   version="1.1"
   id="svg1"
   sodipodi:docname="arrow-path-clock.svg"
   inkscape:version="1.3.2 (091e20e, 2023-11-25)"
   width="24"
   height="24"
   xmlns:inkscape="http://www.inkscape.org/namespaces/inkscape"
   xmlns:sodipodi="http://sodipodi.sourceforge.net/DTD/sodipodi-0.dtd"
   xmlns="http://www.w3.org/2000/svg"
   xmlns:svg="http://www.w3.org/2000/svg">
  <defs
     id="defs1" />
  <sodipodi:namedview
     id="namedview1"
     pagecolor="#ffffff"
     bordercolor="#000000"
     borderopacity="0.25"
     inkscape:showpageshadow="2"
     inkscape:pageopacity="0.0"
     inkscape:pagecheckerboard="0"
     inkscape:deskcolor="#d1d1d1"
     showgrid="true"
     inkscape:zoom="32.254042"
     inkscape:cx="11.765967"
     inkscape:cy="12.0295"
     inkscape:window-width="1800"
     inkscape:window-height="1097"
     inkscape:window-x="0"
     inkscape:window-y="44"
     inkscape:window-maximized="1"
     inkscape:current-layer="svg1">
    <inkscape:grid
       id="grid1"
       units="px"
       originx="0"
       originy="0"
       spacingx="0.5"
       spacingy="0.5"
       empcolor="#0099e5"
       empopacity="0.6"
       color="#0099e5"
       opacity="0.14901961"
       empspacing="2"
       dotted="false"
       gridanglex="30"
       gridanglez="30"
       visible="true" />
    <inkscape:grid
       id="grid2"
       units="px"
       originx="0"
       originy="0"
       spacingx="4"
       spacingy="4"
       empcolor="#e50000"
       empopacity="0.6"
       color="#0099e5"
       opacity="0.14901961"
       empspacing="1"
       dotted="false"
       gridanglex="30"
       gridanglez="30"
       visible="true" />
  </sodipodi:namedview>
  <path
     style="color:#000000;fill:currentColor;stroke-linecap:round;stroke-linejoin:round;-inkscape-stroke:none"
     d="m 12.252672,5.25 a 0.75,0.75 0 0 0 -0.75,0.75 v 6 a 0.750075,0.750075 0 0 0 0.75,0.75 h 4.499999 a 0.75,0.75 0 0 0 0.75,-0.75 0.75,0.75 0 0 0 -0.75,-0.75 H 13.002672 V 6 a 0.75,0.75 0 0 0 -0.75,-0.75 z"
     id="path1" />
  <path
     style="color:#000000;fill:currentColor;stroke-linecap:round;stroke-linejoin:round;-inkscape-stroke:none"
     d="M 10.977281,2.3359375 C 8.902406,2.6086595 6.9165196,3.5470898 5.3581406,5.1054687 L 4.114,6.3496094 V 3.1503906 a 0.75000501,0.75000501 0 0 0 -0.75,-0.75 0.75000501,0.75000501 0 0 0 -0.75,0.75 v 5.0117188 a 0.75000501,0.75000501 0 0 0 0.75,0.75 h 5.013672 a 0.75000501,0.75000501 0 0 0 0.75,-0.75 0.75000501,0.75000501 0 0 0 -0.75,-0.75 H 5.1725938 L 6.4186875,6.1660156 C 9.0603,3.5244036 13.136995,2.9882009 16.373765,4.8574219 c 3.23677,1.8692208 4.812052,5.6701051 3.845703,9.2792971 -0.966349,3.609192 -4.228005,6.112143 -7.964843,6.111328 -3.736839,-8.16e-4 -7.000769,-2.505408 -7.96875,-6.115234 a 0.75000501,0.75000501 0 0 0 -0.9199218,-0.53125 0.75000501,0.75000501 0 0 0 -0.5292969,0.919921 c 1.1419051,4.25843 5.0094654,7.225601 9.4179687,7.226563 4.408503,9.62e-4 8.273958,-2.966465 9.414062,-7.224609 C 22.808791,10.265293 20.941957,5.7635833 17.123765,3.5585938 15.214669,2.4560988 13.052156,2.0632155 10.977281,2.3359375 Z"
     id="path3"
     inkscape:label="path2" />
</svg>
