<?xml version="1.0" encoding="UTF-8" standalone="no"?>
<svg
   viewBox="0 0 24 24"
   fill="currentColor"
   version="1.1"
   id="svg1"
   sodipodi:docname="arrows-crossing.svg"
   inkscape:version="1.3.2 (091e20e, 2023-11-25)"
   width="24"
   height="24"
   xmlns:inkscape="http://www.inkscape.org/namespaces/inkscape"
   xmlns:sodipodi="http://sodipodi.sourceforge.net/DTD/sodipodi-0.dtd"
   xmlns="http://www.w3.org/2000/svg"
   xmlns:svg="http://www.w3.org/2000/svg">
  <defs
     id="defs1" />
  <sodipodi:namedview
     id="namedview1"
     pagecolor="#ffffff"
     bordercolor="#000000"
     borderopacity="0.25"
     inkscape:showpageshadow="2"
     inkscape:pageopacity="0.0"
     inkscape:pagecheckerboard="0"
     inkscape:deskcolor="#d1d1d1"
     showgrid="false"
     inkscape:zoom="20.974854"
     inkscape:cx="12.753366"
     inkscape:cy="15.971505"
     inkscape:window-width="1800"
     inkscape:window-height="1097"
     inkscape:window-x="356"
     inkscape:window-y="1484"
     inkscape:window-maximized="1"
     inkscape:current-layer="svg1">
    <inkscape:grid
       id="grid1"
       units="px"
       originx="0"
       originy="0"
       spacingx="0.25"
       spacingy="0.25"
       empcolor="#0099e5"
       empopacity="0.6"
       color="#0099e5"
       opacity="0.14901961"
       empspacing="2"
       dotted="false"
       gridanglex="30"
       gridanglez="30"
       visible="false" />
    <inkscape:grid
       id="grid2"
       units="px"
       originx="0"
       originy="0"
       spacingx="4"
       spacingy="4"
       empcolor="#e50000"
       empopacity="0.6"
       color="#0099e5"
       opacity="0.14901961"
       empspacing="1"
       dotted="false"
       gridanglex="30"
       gridanglez="30"
       visible="false" />
  </sodipodi:namedview>
  <path
     id="path1"
     style="fill:#000000"
     d="M 3,7.25 A 0.75,0.75 0 0 0 2.25,8 0.75,0.75 0 0 0 3,8.75 c 2.1388846,0 3.385985,0.4591609 4.2773438,1.1074219 C 7.6131198,10.101622 7.9033532,10.381247 8.1679688,10.6875 8.415734,10.290119 8.6894217,9.8518026 9.0214844,9.3984375 8.7643838,9.1328124 8.4825488,8.8770454 8.1601562,8.6425781 6.989019,7.7908421 5.3611063,7.25 3,7.25 Z m 15.25,5.248047 a 0.75,0.75 0 0 0 -0.53125,0.220703 0.75,0.75 0 0 0 0,1.0625 L 19.1875,15.25 H 17 c -2.138885,0 -3.385985,-0.459161 -4.277344,-1.107422 -0.335776,-0.2442 -0.626009,-0.523825 -0.890625,-0.830078 -0.247765,0.397381 -0.521453,0.835697 -0.853515,1.289062 0.2571,0.265626 0.538935,0.521393 0.861328,0.75586 C 13.010981,16.209158 14.638893,16.75 17,16.75 h 2.1875 l -1.46875,1.46875 a 0.75,0.75 0 0 0 0,1.0625 0.75,0.75 0 0 0 1.0625,0 l 2.75,-2.75 A 0.75,0.75 0 0 0 21.724609,16.0625 0.75,0.75 0 0 0 21.75,16 a 0.75,0.75 0 0 0 -0.02539,-0.128906 0.75,0.75 0 0 0 0,-0.06445 0.75,0.75 0 0 0 -0.01953,-0.0332 0.75,0.75 0 0 0 -0.173828,-0.304688 l -2.75,-2.75 A 0.75,0.75 0 0 0 18.25,12.498047 Z M 18.25,4.5 a 0.75,0.75 0 0 0 -0.53125,0.21875 0.75,0.75 0 0 0 0,1.0625 L 19.1875,7.25 H 17 c -2.361109,0 -3.989018,0.5408412 -5.160156,1.3925781 C 10.668705,9.4943151 9.9882806,10.601564 9.3632813,11.601563 8.7382819,12.601562 8.1687034,13.494317 7.2773437,14.142578 6.3859841,14.79084 5.1388867,15.25 3,15.25 A 0.75,0.75 0 0 0 2.25,16 0.75,0.75 0 0 0 3,16.75 c 2.3611087,0 3.9890179,-0.540841 5.1601563,-1.392578 1.1711383,-0.851737 1.8515627,-1.958986 2.4765627,-2.958984 0.624999,-1 1.194578,-1.892755 2.085937,-2.5410161 C 13.614016,9.2091603 14.861113,8.75 17,8.75 h 2.1875 l -1.46875,1.46875 a 0.75,0.75 0 0 0 0,1.0625 0.75,0.75 0 0 0 1.0625,0 l 2.75,-2.75 A 0.75,0.75 0 0 0 21.724609,8.0625 0.75,0.75 0 0 0 21.75,8 0.75,0.75 0 0 0 21.724609,7.8710937 0.75,0.75 0 0 0 21.705078,7.7734375 0.75,0.75 0 0 0 21.53125,7.46875 l -2.75,-2.75 A 0.75,0.75 0 0 0 18.25,4.5 Z" />
</svg>
