<?xml version="1.0" encoding="UTF-8" standalone="no"?>
<svg
   viewBox="0 0 24 24"
   fill="currentColor"
   version="1.1"
   id="svg1"
   sodipodi:docname="check-double.svg"
   inkscape:version="1.3.2 (091e20e, 2023-11-25)"
   width="24"
   height="24"
   xmlns:inkscape="http://www.inkscape.org/namespaces/inkscape"
   xmlns:sodipodi="http://sodipodi.sourceforge.net/DTD/sodipodi-0.dtd"
   xmlns="http://www.w3.org/2000/svg"
   xmlns:svg="http://www.w3.org/2000/svg">
  <defs
     id="defs1" />
  <sodipodi:namedview
     id="namedview1"
     pagecolor="#ffffff"
     bordercolor="#000000"
     borderopacity="0.25"
     inkscape:showpageshadow="2"
     inkscape:pageopacity="0.0"
     inkscape:pagecheckerboard="0"
     inkscape:deskcolor="#d1d1d1"
     showgrid="false"
     inkscape:zoom="1"
     inkscape:cx="12.5"
     inkscape:cy="17"
     inkscape:window-width="2560"
     inkscape:window-height="1387"
     inkscape:window-x="1800"
     inkscape:window-y="25"
     inkscape:window-maximized="1"
     inkscape:current-layer="svg1"
     showguides="true">
    <inkscape:grid
       id="grid1"
       units="px"
       originx="0"
       originy="0"
       spacingx="0.25"
       spacingy="0.25"
       empcolor="#0099e5"
       empopacity="0.6"
       color="#0099e5"
       opacity="0.14901961"
       empspacing="2"
       dotted="false"
       gridanglex="30"
       gridanglez="30"
       visible="false" />
    <inkscape:grid
       id="grid2"
       units="px"
       originx="0"
       originy="0"
       spacingx="4"
       spacingy="4"
       empcolor="#e50000"
       empopacity="0.6"
       color="#0099e5"
       opacity="0.14901961"
       empspacing="1"
       dotted="false"
       gridanglex="30"
       gridanglez="30"
       visible="false" />
  </sodipodi:namedview>
  <path
     id="path1"
     style="fill:#000000;stroke-width:0.999996"
     d="M 14.904378,6.2953012 7.4270509,16.110171 3.5311779,12.218843 c -0.2930626,-0.294071 -0.7692932,-0.294071 -1.0623558,0 -0.2940818,0.293051 -0.2940818,0.769264 0,1.062315 l 4.5032124,4.498646 c 0.3212045,0.320957 0.8517085,0.285102 1.1268004,-0.07616 L 16.095622,7.2052993 C 16.346713,6.8763032 16.283784,6.4060977 15.955017,6.1547007 15.626483,5.9027174 15.155081,5.9658125 14.904378,6.2953012 Z m 5.499959,-3.934e-4 -7.477483,9.8157992 -0.988215,-0.986267 -0.91986,1.205004 1.453028,1.451083 c 0.321203,0.320958 0.851785,0.285091 1.126877,-0.07617 L 21.595663,7.2050041 C 21.846754,6.8760083 21.783815,6.4056846 21.455047,6.1542874 21.123505,5.8999957 20.652539,5.9687048 20.404337,6.2949078 Z"
     sodipodi:nodetypes="ccccccccccccccccccc" />
</svg>
