<?xml version="1.0" encoding="UTF-8" standalone="no"?>
<svg
   viewBox="0 0 24 24"
   fill="currentColor"
   version="1.1"
   id="svg1"
   sodipodi:docname="checklist-boxes.svg"
   inkscape:version="1.3.2 (091e20e, 2023-11-25)"
   width="24"
   height="24"
   xmlns:inkscape="http://www.inkscape.org/namespaces/inkscape"
   xmlns:sodipodi="http://sodipodi.sourceforge.net/DTD/sodipodi-0.dtd"
   xmlns="http://www.w3.org/2000/svg"
   xmlns:svg="http://www.w3.org/2000/svg">
  <defs
     id="defs1" />
  <sodipodi:namedview
     id="namedview1"
     pagecolor="#ffffff"
     bordercolor="#000000"
     borderopacity="0.25"
     inkscape:showpageshadow="2"
     inkscape:pageopacity="0.0"
     inkscape:pagecheckerboard="0"
     inkscape:deskcolor="#d1d1d1"
     showgrid="true"
     inkscape:zoom="44.599392"
     inkscape:cx="10.145878"
     inkscape:cy="11.973257"
     inkscape:window-width="2560"
     inkscape:window-height="1387"
     inkscape:window-x="0"
     inkscape:window-y="25"
     inkscape:window-maximized="0"
     inkscape:current-layer="svg1">
    <inkscape:grid
       id="grid1"
       units="px"
       originx="0"
       originy="0"
       spacingx="0.25"
       spacingy="0.25"
       empcolor="#0099e5"
       empopacity="0.6"
       color="#0099e5"
       opacity="0.14901961"
       empspacing="2"
       dotted="false"
       gridanglex="30"
       gridanglez="30"
       visible="true" />
    <inkscape:grid
       id="grid2"
       units="px"
       originx="0"
       originy="0"
       spacingx="4"
       spacingy="4"
       empcolor="#e50000"
       empopacity="0.6"
       color="#0099e5"
       opacity="0.14901961"
       empspacing="1"
       dotted="false"
       gridanglex="30"
       gridanglez="30"
       visible="true" />
  </sodipodi:namedview>
  <path
     style="fill:#000000"
     d="M 7.1347656,3.7597656 A 0.75,0.75 0 0 0 6.6445312,4.0585937 L 4.96875,6.3574219 4.2753906,5.6777344 A 0.75,0.75 0 0 0 3.2148438,5.6894531 0.75,0.75 0 0 0 3.2246094,6.75 l 1.3125,1.2851563 a 0.750075,0.750075 0 0 0 1.1308593,-0.09375 l 2.1875,-3 A 0.75,0.75 0 0 0 7.6914062,3.8945313 0.75,0.75 0 0 0 7.1347656,3.7597656 Z M 10,5.25 A 0.75,0.75 0 0 0 9.25,6 0.75,0.75 0 0 0 10,6.75 H 20.25 A 0.75,0.75 0 0 0 21,6 0.75,0.75 0 0 0 20.25,5.25 Z M 3.75,9.5 A 0.750075,0.750075 0 0 0 3,10.25 v 3.5 a 0.750075,0.750075 0 0 0 0.75,0.75 h 3.5 A 0.750075,0.750075 0 0 0 8,13.75 v -3.5 A 0.750075,0.750075 0 0 0 7.25,9.5 Z M 4.5,11 h 2 v 2 h -2 z M 10,11.25 A 0.75,0.75 0 0 0 9.25,12 0.75,0.75 0 0 0 10,12.75 H 20.25 A 0.75,0.75 0 0 0 21,12 0.75,0.75 0 0 0 20.25,11.25 Z M 3.75,15.5 A 0.750075,0.750075 0 0 0 3,16.25 v 3.5 a 0.750075,0.750075 0 0 0 0.75,0.75 h 3.5 A 0.750075,0.750075 0 0 0 8,19.75 v -3.5 A 0.750075,0.750075 0 0 0 7.25,15.5 Z M 4.5,17 h 2 v 2 h -2 z M 10,17.25 A 0.75,0.75 0 0 0 9.25,18 0.75,0.75 0 0 0 10,18.75 H 20.25 A 0.75,0.75 0 0 0 21,18 0.75,0.75 0 0 0 20.25,17.25 Z"
     id="path1" />
</svg>
