<?xml version="1.0" encoding="UTF-8" standalone="no"?>
<svg
   viewBox="0 0 24 24"
   fill="currentColor"
   version="1.1"
   id="svg1"
   sodipodi:docname="circle-dashed.svg"
   inkscape:version="1.3.2 (091e20e, 2023-11-25)"
   width="24"
   height="24"
   xmlns:inkscape="http://www.inkscape.org/namespaces/inkscape"
   xmlns:sodipodi="http://sodipodi.sourceforge.net/DTD/sodipodi-0.dtd"
   xmlns="http://www.w3.org/2000/svg"
   xmlns:svg="http://www.w3.org/2000/svg">
  <defs
     id="defs1">
    <inkscape:path-effect
       effect="mirror_symmetry"
       start_point="13.093381,7.925489"
       end_point="13.593381,11.894116"
       center_point="13.343381,9.9098025"
       id="path-effect3"
       is_visible="true"
       lpeversion="1.2"
       lpesatellites=""
       mode="free"
       discard_orig_path="false"
       fuse_paths="false"
       oposite_fuse="false"
       split_items="false"
       split_open="false"
       link_styles="false" />
    <inkscape:path-effect
       effect="mirror_symmetry"
       start_point="12,17.496996"
       end_point="12,24.996996"
       center_point="12,21.246996"
       id="path-effect2"
       is_visible="true"
       lpeversion="1.2"
       lpesatellites=""
       mode="free"
       discard_orig_path="false"
       fuse_paths="false"
       oposite_fuse="false"
       split_items="false"
       split_open="false"
       link_styles="false" />
  </defs>
  <sodipodi:namedview
     id="namedview1"
     pagecolor="#ffffff"
     bordercolor="#000000"
     borderopacity="0.25"
     inkscape:showpageshadow="2"
     inkscape:pageopacity="0.0"
     inkscape:pagecheckerboard="0"
     inkscape:deskcolor="#d1d1d1"
     showgrid="true"
     inkscape:zoom="31.332232"
     inkscape:cx="12.910028"
     inkscape:cy="12.000422"
     inkscape:window-width="1800"
     inkscape:window-height="1097"
     inkscape:window-x="0"
     inkscape:window-y="44"
     inkscape:window-maximized="0"
     inkscape:current-layer="svg1">
    <inkscape:grid
       id="grid1"
       units="px"
       originx="0"
       originy="0"
       spacingx="0.25"
       spacingy="0.25"
       empcolor="#0099e5"
       empopacity="0.6"
       color="#0099e5"
       opacity="0.14901961"
       empspacing="2"
       dotted="false"
       gridanglex="30"
       gridanglez="30"
       visible="true"
       snapvisiblegridlinesonly="false"
       enabled="true" />
    <inkscape:grid
       id="grid2"
       units="px"
       originx="0"
       originy="0"
       spacingx="4"
       spacingy="4"
       empcolor="#e50000"
       empopacity="0.6"
       color="#0099e5"
       opacity="0.14901961"
       empspacing="1"
       dotted="false"
       gridanglex="30"
       gridanglez="30"
       visible="true"
       snapvisiblegridlinesonly="false"
       enabled="true" />
  </sodipodi:namedview>
  <path
     style="fill:#000000"
     d="M 10.139648,2.4288945 C 8.854638,2.6785132 7.6331735,3.1853034 6.5478515,3.9171757 A 0.75,0.75 0 0 0 6.3466796,4.9581913 0.75,0.75 0 0 0 7.3876952,5.1593632 C 8.3060602,4.5400761 9.339423,4.1127701 10.426758,3.9015507 a 0.75,0.75 0 0 0 0.59375,-0.8789062 0.75,0.75 0 0 0 -0.88086,-0.59375 z m 3.71875,0 a 0.75,0.75 0 0 0 -0.878906,0.59375 0.75,0.75 0 0 0 0.59375,0.8789062 c 1.08723,0.21114 2.120737,0.6386789 3.039063,1.2578125 A 0.75,0.75 0 0 0 17.65332,4.9562382 0.75,0.75 0 0 0 17.450195,3.9152226 C 16.36492,3.1835316 15.143284,2.6784193 13.858398,2.4288945 Z M 4.3955078,6.2316288 A 0.75,0.75 0 0 0 3.9169921,6.5480351 C 3.1849977,7.6333495 2.6784206,8.8547762 2.4287109,10.139832 a 0.75,0.75 0 0 0 0.59375,0.878907 0.75,0.75 0 0 0 0.8789062,-0.591797 C 4.1126636,9.3395681 4.5397893,8.3062374 5.1591796,7.3878788 A 0.75,0.75 0 0 0 4.9580077,6.3468632 0.75,0.75 0 0 0 4.3955078,6.2316288 Z m 15.2089842,0 a 0.75,0.75 0 0 0 -0.5625,0.1132813 0.75,0.75 0 0 0 -0.203125,1.0410156 c 0.619455,0.9182975 1.04838,1.9517213 1.259766,3.0390633 a 0.75,0.75 0 0 0 0.878906,0.59375 0.75,0.75 0 0 0 0.59375,-0.878907 C 21.321474,8.8548141 20.815078,7.6332775 20.083008,6.5480351 A 0.75,0.75 0 0 0 19.604492,6.2316288 Z M 3.0224609,12.981629 a 0.75,0.75 0 0 0 -0.59375,0.878907 c 0.2497547,1.284799 0.7564262,2.506681 1.4882812,3.591796 a 0.75,0.75 0 0 0 1.0410156,0.201172 0.75,0.75 0 0 0 0.2011719,-1.041015 c -0.6192724,-0.91819 -1.046478,-1.949954 -1.2578125,-3.03711 a 0.75,0.75 0 0 0 -0.8789062,-0.59375 z m 17.9550781,0 a 0.75,0.75 0 0 0 -0.878906,0.591797 c -0.211298,1.087368 -0.640378,2.120709 -1.259766,3.039063 a 0.75,0.75 0 0 0 0.203125,1.041015 0.75,0.75 0 0 0 1.041016,-0.201172 c 0.731992,-1.085309 1.238569,-2.306747 1.488281,-3.591796 a 0.75,0.75 0 0 0 -0.59375,-0.878907 z M 6.8251952,18.72577 a 0.75,0.75 0 0 0 -0.4785156,0.316406 0.75,0.75 0 0 0 0.203125,1.041016 c 1.0854109,0.731889 2.3066919,1.238714 3.5917974,1.488281 a 0.75,0.75 0 0 0 0.878906,-0.59375 0.75,0.75 0 0 0 -0.59375,-0.878906 C 9.3393427,19.887641 8.3061354,19.460306 7.3876952,18.841004 a 0.75,0.75 0 0 0 -0.5625,-0.115234 z m 9.7871098,0.115234 c -0.918365,0.619287 -1.951728,1.046593 -3.039063,1.257813 a 0.75,0.75 0 0 0 -0.59375,0.878906 0.75,0.75 0 0 0 0.878906,0.59375 c 1.285011,-0.249619 2.506475,-0.756409 3.591797,-1.488281 a 0.75,0.75 0 0 0 0.203125,-1.041016 0.75,0.75 0 0 0 -1.041015,-0.201172 z"
     id="path1" />
</svg>
