<?xml version="1.0" encoding="UTF-8" standalone="no"?>
<svg
   viewBox="0 0 24 24"
   fill="currentColor"
   version="1.1"
   id="svg1"
   sodipodi:docname="compass.svg"
   inkscape:version="1.3.2 (091e20e, 2023-11-25)"
   width="24"
   height="24"
   xmlns:inkscape="http://www.inkscape.org/namespaces/inkscape"
   xmlns:sodipodi="http://sodipodi.sourceforge.net/DTD/sodipodi-0.dtd"
   xmlns="http://www.w3.org/2000/svg"
   xmlns:svg="http://www.w3.org/2000/svg">
  <defs
     id="defs1" />
  <sodipodi:namedview
     id="namedview1"
     pagecolor="#ffffff"
     bordercolor="#000000"
     borderopacity="0.25"
     inkscape:showpageshadow="2"
     inkscape:pageopacity="0.0"
     inkscape:pagecheckerboard="0"
     inkscape:deskcolor="#d1d1d1"
     showgrid="false"
     inkscape:zoom="14.398102"
     inkscape:cx="13.925446"
     inkscape:cy="1.3196184"
     inkscape:window-width="1800"
     inkscape:window-height="1097"
     inkscape:window-x="0"
     inkscape:window-y="44"
     inkscape:window-maximized="1"
     inkscape:current-layer="svg1">
    <inkscape:grid
       id="grid1"
       units="px"
       originx="0"
       originy="0"
       spacingx="0.5"
       spacingy="0.5"
       empcolor="#0099e5"
       empopacity="0.6"
       color="#0099e5"
       opacity="0.14901961"
       empspacing="2"
       dotted="false"
       gridanglex="30"
       gridanglez="30"
       visible="false" />
    <inkscape:grid
       id="grid2"
       units="px"
       originx="0"
       originy="0"
       spacingx="4"
       spacingy="4"
       empcolor="#e50000"
       empopacity="0.6"
       color="#0099e5"
       opacity="0.14901961"
       empspacing="1"
       dotted="false"
       gridanglex="30"
       gridanglez="30"
       visible="false" />
  </sodipodi:namedview>
  <g
     id="path6" />
  <path
     id="path8"
     style="fill:#000000;stroke-width:1.5;stroke-linecap:round;stroke-linejoin:round"
     d="M 13.25,12 A 1.25,1.25 0 0 1 12,13.25 1.25,1.25 0 0 1 10.75,12 1.25,1.25 0 0 1 12,10.75 1.25,1.25 0 0 1 13.25,12 Z M 12,2.25 c -5.3847503,0 -9.75,4.3652448 -9.75,9.75 0,5.384757 4.3652497,9.75 9.75,9.75 5.38475,0 9.75,-4.365243 9.75,-9.75 0,-5.3847553 -4.36525,-9.75 -9.75,-9.75 z m 4.52539,4.5 c 0.07521,0.00252 0.14961,0.01635 0.220704,0.041015 0.457361,0.1588196 0.646687,0.7028933 0.386718,1.1113282 l -3.499999,5.5000008 c -0.059,0.09279 -0.137682,0.171467 -0.230469,0.230469 L 7.9023438,17.132812 C 7.2259144,17.561828 6.4381722,16.774086 6.8671875,16.097656 l 3.5000005,-5.5 c 0.059,-0.09279 0.137681,-0.171467 0.230468,-0.230468 l 5.5,-3.5000005 C 16.225162,6.7859034 16.374259,6.7450549 16.52539,6.75 Z" />
</svg>
