<?xml version="1.0" encoding="UTF-8" standalone="no"?>
<svg
   viewBox="0 0 24 24"
   fill="currentColor"
   version="1.1"
   id="svg1"
   sodipodi:docname="cookie.svg"
   inkscape:version="1.3.2 (091e20e, 2023-11-25)"
   width="24"
   height="24"
   xmlns:inkscape="http://www.inkscape.org/namespaces/inkscape"
   xmlns:sodipodi="http://sodipodi.sourceforge.net/DTD/sodipodi-0.dtd"
   xmlns="http://www.w3.org/2000/svg"
   xmlns:svg="http://www.w3.org/2000/svg">
  <defs
     id="defs1" />
  <sodipodi:namedview
     id="namedview1"
     pagecolor="#ffffff"
     bordercolor="#000000"
     borderopacity="0.25"
     inkscape:showpageshadow="2"
     inkscape:pageopacity="0.0"
     inkscape:pagecheckerboard="0"
     inkscape:deskcolor="#d1d1d1"
     showgrid="true"
     inkscape:zoom="46.6082"
     inkscape:cx="10.09479"
     inkscape:cy="13.130737"
     inkscape:window-width="2560"
     inkscape:window-height="1387"
     inkscape:window-x="1800"
     inkscape:window-y="25"
     inkscape:window-maximized="0"
     inkscape:current-layer="svg1">
    <inkscape:grid
       id="grid1"
       units="px"
       originx="0"
       originy="0"
       spacingx="0.5"
       spacingy="0.5"
       empcolor="#0099e5"
       empopacity="0.6"
       color="#0099e5"
       opacity="0.14901961"
       empspacing="2"
       dotted="false"
       gridanglex="30"
       gridanglez="30"
       visible="true" />
    <inkscape:grid
       id="grid2"
       units="px"
       originx="0"
       originy="0"
       spacingx="4"
       spacingy="4"
       empcolor="#e50000"
       empopacity="0.6"
       color="#0099e5"
       opacity="0.14901961"
       empspacing="1"
       dotted="false"
       gridanglex="30"
       gridanglez="30"
       visible="true" />
  </sodipodi:namedview>
  <path
     id="path1"
     style="fill:#000000"
     d="m 19,8.750089 c -0.414214,0 -0.75,0.335786 -0.75,0.75 0,0.414214 0.335786,0.75 0.75,0.75 0.414214,0 0.75,-0.335786 0.75,-0.75 0,-0.414214 -0.335786,-0.75 -0.75,-0.75 z M 18,5.2500888 c -0.414214,0 -0.75,0.3357864 -0.75,0.75 0,0.4142136 0.335786,0.75 0.75,0.75 0.414214,0 0.75,-0.3357864 0.75,-0.75 0,-0.4142136 -0.335786,-0.75 -0.75,-0.75 z M 15.5,7.750089 c -0.414214,0 -0.75,0.335786 -0.75,0.75 0,0.414213 0.335786,0.75 0.75,0.75 0.414214,0 0.75,-0.335787 0.75,-0.75 0,-0.414214 -0.335786,-0.75 -0.75,-0.75 z m -1,-3.5000002 c -0.414214,0 -0.75,0.3357864 -0.75,0.75 0,0.4142136 0.335786,0.75 0.75,0.75 0.414214,0 0.75,-0.3357864 0.75,-0.75 0,-0.4142136 -0.335786,-0.75 -0.75,-0.75 z M 11.568359,2.2598544 C 6.3893709,2.4857879 2.25,6.7687955 2.25,12.000089 c 0,5.375838 4.3741681,9.75 9.75,9.75 5.231291,0 9.514306,-4.13937 9.740234,-9.318359 0.03148,-0.693423 -0.814746,-1.053903 -1.292968,-0.550782 -0.364851,0.38248 -0.872967,0.619141 -1.447266,0.619141 -0.89064,0 -1.634563,-0.57465 -1.898438,-1.367188 -0.150527,-0.452967 -0.68026,-0.651972 -1.091796,-0.410156 -0.300021,0.176571 -0.639673,0.277344 -1.009766,0.277344 -1.113438,0 -2,-0.886561 -2,-2 C 13,8.627926 13.100206,8.285983 13.275391,7.98837 13.517328,7.5774216 13.319386,7.0479971 12.867188,6.8965732 12.074981,6.6320516 11.5,5.8900053 11.5,5.0000888 11.5,4.4257917 11.736663,3.9176694 12.119141,3.5528232 12.622263,3.0746012 12.261783,2.2283688 11.568359,2.2598544 Z M 9.75,6.7500888 c 0.414214,0 0.75,0.3357864 0.75,0.75 C 10.5,7.914302 10.164214,8.250089 9.75,8.250089 9.3357864,8.250089 9,7.914302 9,7.5000888 c 0,-0.4142136 0.3357864,-0.75 0.75,-0.75 z M 6.25,8.250089 c 0.2951377,0 0.599653,0.09574 0.8457031,0.314453 C 7.3417534,8.783254 7.5,9.135506 7.5,9.500089 7.5,9.864672 7.3417534,10.216925 7.0957031,10.435636 6.849653,10.654344 6.5451377,10.750089 6.25,10.750089 c -0.2951377,0 -0.5996531,-0.09574 -0.8457031,-0.314453 C 5.1582466,10.216925 5,9.864672 5,9.500089 5,9.135506 5.1582466,8.783254 5.4042969,8.564542 5.6503469,8.345831 5.9548623,8.250089 6.25,8.250089 Z m 4.5,4 c 0.414214,0 0.75,0.335786 0.75,0.75 0,0.414214 -0.335786,0.75 -0.75,0.75 -0.414214,0 -0.75,-0.335786 -0.75,-0.75 0,-0.414214 0.335786,-0.75 0.75,-0.75 z m -5,1 c 0.4142136,0 0.75,0.335786 0.75,0.75 0,0.414214 -0.3357864,0.75 -0.75,0.75 -0.4142136,0 -0.75,-0.335786 -0.75,-0.75 0,-0.414214 0.3357864,-0.75 0.75,-0.75 z m 10.154297,0.314453 c 0.295138,0 0.599652,0.09574 0.845703,0.314453 0.24605,0.218712 0.404297,0.570964 0.404297,0.935547 0,0.364583 -0.158247,0.716836 -0.404297,0.935547 -0.246051,0.218708 -0.550565,0.314453 -0.845703,0.314453 -0.295138,0 -0.599652,-0.09574 -0.845703,-0.314453 -0.246051,-0.218711 -0.404297,-0.570964 -0.404297,-0.935547 0,-0.364583 0.158246,-0.716835 0.404297,-0.935547 0.246051,-0.218707 0.550565,-0.314453 0.845703,-0.314453 z M 9.75,15.750089 c 0.295138,0 0.599652,0.09574 0.845703,0.314453 C 10.841753,16.283254 11,16.635506 11,17.000089 c 0,0.364583 -0.158247,0.716836 -0.404297,0.935547 -0.246051,0.218708 -0.550565,0.314453 -0.845703,0.314453 -0.2951371,0 -0.5996537,-0.09574 -0.8457031,-0.314453 C 8.658247,17.716925 8.5,17.364672 8.5,17.000089 8.5,16.635506 8.658247,16.283254 8.9042969,16.064542 9.1503463,15.845835 9.4548629,15.750089 9.75,15.750089 Z m 4.75,1.75 c 0.414214,0 0.75,0.335786 0.75,0.75 0,0.414214 -0.335786,0.75 -0.75,0.75 -0.414214,0 -0.75,-0.335786 -0.75,-0.75 0,-0.414214 0.335786,-0.75 0.75,-0.75 z"
     sodipodi:nodetypes="sssssssssssssssssssscssccsccssccsccsssssssssssssssssssssssssssssssssssssssssssssss" />
</svg>
