<?xml version="1.0" encoding="UTF-8" standalone="no"?>
<svg
   viewBox="0 0 24 24"
   fill="currentColor"
   version="1.1"
   id="svg1"
   sodipodi:docname="dice.svg"
   inkscape:version="1.3.2 (091e20e, 2023-11-25)"
   width="24"
   height="24"
   xmlns:inkscape="http://www.inkscape.org/namespaces/inkscape"
   xmlns:sodipodi="http://sodipodi.sourceforge.net/DTD/sodipodi-0.dtd"
   xmlns="http://www.w3.org/2000/svg"
   xmlns:svg="http://www.w3.org/2000/svg">
  <defs
     id="defs1">
    <inkscape:path-effect
       effect="fillet_chamfer"
       id="path-effect3"
       is_visible="true"
       lpeversion="1"
       nodesatellites_param="F,0,0,1,0,0,0,1 @ F,0,0,1,0,0,0,1 @ F,0,0,1,0,0.61745496,0,1 @ F,0,0,1,0,0.84016183,0,1 @ F,0,0,1,0,0.58778548,0,1"
       radius="0"
       unit="px"
       method="auto"
       mode="F"
       chamfer_steps="1"
       flexible="false"
       use_knot_distance="true"
       apply_no_radius="true"
       apply_with_radius="true"
       only_selected="false"
       hide_knots="false" />
    <inkscape:path-effect
       effect="fillet_chamfer"
       id="path-effect2"
       is_visible="true"
       lpeversion="1"
       nodesatellites_param="F,0,0,1,0,0.56922,0,1 @ F,0,0,1,0,0.5692,0,1 @ F,0,0,1,0,0.63273029,0,1 @ F,0,0,1,0,0,0,1 @ F,0,0,1,0,0,0,1"
       radius="0"
       unit="px"
       method="auto"
       mode="F"
       chamfer_steps="1"
       flexible="false"
       use_knot_distance="true"
       apply_no_radius="true"
       apply_with_radius="true"
       only_selected="false"
       hide_knots="false" />
    <inkscape:path-effect
       effect="fillet_chamfer"
       id="path-effect1"
       is_visible="true"
       lpeversion="1"
       nodesatellites_param="F,0,0,1,0,0.6808,0,1 @ F,0,0,1,0,0.5692,0,1 @ F,0,0,1,0,0.56922,0,1 @ F,0,0,1,0,0,0,1 @ F,0,0,1,0,0,0,1"
       radius="0"
       unit="px"
       method="auto"
       mode="F"
       chamfer_steps="1"
       flexible="false"
       use_knot_distance="true"
       apply_no_radius="true"
       apply_with_radius="true"
       only_selected="false"
       hide_knots="false" />
  </defs>
  <sodipodi:namedview
     id="namedview1"
     pagecolor="#ffffff"
     bordercolor="#000000"
     borderopacity="0.25"
     inkscape:showpageshadow="2"
     inkscape:pageopacity="0.0"
     inkscape:pagecheckerboard="0"
     inkscape:deskcolor="#d1d1d1"
     showgrid="false"
     inkscape:zoom="27.704573"
     inkscape:cx="8.5364968"
     inkscape:cy="8.2296882"
     inkscape:window-width="2560"
     inkscape:window-height="1387"
     inkscape:window-x="0"
     inkscape:window-y="25"
     inkscape:window-maximized="1"
     inkscape:current-layer="svg1">
    <inkscape:grid
       id="grid1"
       units="px"
       originx="0"
       originy="0"
       spacingx="0.25"
       spacingy="0.25"
       empcolor="#0099e5"
       empopacity="0.6"
       color="#0099e5"
       opacity="0.14901961"
       empspacing="2"
       dotted="false"
       gridanglex="30"
       gridanglez="30"
       visible="false" />
    <inkscape:grid
       id="grid2"
       units="px"
       originx="0"
       originy="0"
       spacingx="4"
       spacingy="4"
       empcolor="#e50000"
       empopacity="0.6"
       color="#0099e5"
       opacity="0.14901961"
       empspacing="1"
       dotted="false"
       gridanglex="30"
       gridanglez="30"
       visible="false" />
  </sodipodi:namedview>
  <path
     id="path1"
     d="M 2.578125,8.1738281 A 0.32694245,0.32694245 0 0 0 2.25,8.5 v 8 c 0,0.2668 0.1426277,0.514038 0.3730469,0.648438 l 8.0390621,4.689453 A 0.39102904,0.39102904 0 0 0 11.25,21.5 V 13.75 A 0.99100016,0.99100016 0 0 0 10.757812,12.894531 L 2.7421875,8.2167969 A 0.32694245,0.32694245 0 0 0 2.578125,8.1738281 Z m 2.1757812,2.9726559 c 0.1550557,-0.0065 0.2940366,0.02864 0.3886719,0.06641 0.1682409,0.06715 0.270853,0.14895 0.3671875,0.234375 0.1926692,0.170845 0.3431378,0.371509 0.4804688,0.609375 0.1373302,0.237859 0.2354834,0.466463 0.2871094,0.71875 0.025811,0.126137 0.045498,0.258218 0.019531,0.4375 C 6.2709084,13.392169 6.1681605,13.686211 5.875,13.855469 5.5818416,14.024734 5.2756714,13.967541 5.1074219,13.900391 4.939172,13.833237 4.836569,13.749492 4.7402344,13.664062 4.5475641,13.493213 4.3970953,13.2945 4.2597656,13.056641 4.1224354,12.818777 4.0242822,12.588216 3.9726562,12.335938 3.9468456,12.209796 3.927158,12.077716 3.953125,11.898438 3.9790916,11.719155 4.0818395,11.425118 4.375,11.255859 4.5032602,11.181813 4.6333078,11.151558 4.7539062,11.146484 Z m 3.25,1.701172 c 0.1550558,-0.0071 0.2940365,0.02668 0.3886719,0.06445 0.168241,0.06715 0.2708529,0.150904 0.3671875,0.236329 0.1926694,0.170846 0.3431377,0.369559 0.4804688,0.607421 0.13733,0.237864 0.2354826,0.468427 0.2871094,0.720703 0.02583,0.126141 0.045501,0.25822 0.019531,0.4375 C 9.520908,15.093344 9.4181611,15.387382 9.125,15.556641 8.8318413,15.725906 8.5256716,15.666759 8.3574219,15.599609 8.1891719,15.532455 8.0865701,15.450664 7.9902344,15.365234 7.7975639,15.194385 7.6470954,14.993723 7.5097656,14.755859 7.3724352,14.517999 7.2742822,14.289392 7.2226562,14.037109 7.1968455,13.910971 7.177158,13.778891 7.203125,13.599609 7.2290916,13.42033 7.3318392,13.126289 7.625,12.957031 7.7532603,12.882987 7.8833076,12.85315 8.0039062,12.847656 Z m -3.25,1.5 c 0.155056,-0.0071 0.2940363,0.02668 0.3886719,0.06445 0.1682412,0.06715 0.2708527,0.150904 0.3671875,0.236329 0.1926698,0.170848 0.3431375,0.369557 0.4804688,0.607421 0.1373308,0.237864 0.2354834,0.468423 0.2871094,0.720703 0.025811,0.126141 0.045498,0.258219 0.019531,0.4375 C 6.2709084,16.593345 6.1681614,16.887384 5.875,17.056641 5.5818407,17.225908 5.275672,17.166759 5.1074219,17.099609 4.9391717,17.032455 4.8365693,16.950664 4.7402344,16.865234 4.5475635,16.694383 4.3970956,16.493723 4.2597656,16.255859 4.1224348,16.017997 4.0242822,15.789392 3.9726562,15.537109 3.9468453,15.410969 3.927158,15.278891 3.953125,15.099609 3.9790916,14.920328 4.0818386,14.626289 4.375,14.457031 4.5032605,14.382987 4.6333072,14.35315 4.7539062,14.347656 Z m 3.25,1.75 c 0.1550559,-0.0071 0.2940364,0.02668 0.3886719,0.06445 0.1682411,0.06715 0.2708528,0.150904 0.3671875,0.236329 0.1926696,0.170847 0.3431376,0.369558 0.4804688,0.607421 0.1373302,0.237864 0.2354826,0.468427 0.2871094,0.720703 0.02583,0.126142 0.045501,0.25822 0.019531,0.4375 C 9.520908,18.343345 9.4181614,18.637382 9.125,18.806641 8.831841,18.975907 8.5256718,18.916759 8.3574219,18.849609 8.1891718,18.782455 8.0865702,18.700664 7.9902344,18.615234 7.7975637,18.444384 7.6470955,18.243723 7.5097656,18.005859 7.372435,17.767998 7.2742822,17.539392 7.2226562,17.287109 7.1968454,17.16097 7.177158,17.028891 7.203125,16.849609 7.2290916,16.670329 7.3318389,16.376289 7.625,16.207031 7.7532604,16.132987 7.8833074,16.10315 8.0039062,16.097656 Z M 21.447266,8.1738281 a 0.32694245,0.32694245 0 0 0 -0.189454,0.042969 L 13.242188,12.894531 A 0.99100016,0.99100016 0 0 0 12.75,13.75 v 7.798828 a 0.36341938,0.36341938 0 0 0 0.546875,0.3125 l 8.080078,-4.71289 C 21.607353,17.014038 21.75,16.7668 21.75,16.5 v -8 A 0.32694245,0.32694245 0 0 0 21.447266,8.1738281 Z m -5.501954,4.7070309 c 0.134219,-0.0015 0.283104,0.02671 0.429688,0.111329 0.293162,0.169257 0.395905,0.463296 0.421875,0.642578 0.02597,0.179281 0.0063,0.311359 -0.01953,0.4375 -0.05163,0.252282 -0.149778,0.480887 -0.28711,0.71875 -0.137329,0.237863 -0.287798,0.438523 -0.480468,0.609375 -0.09634,0.08543 -0.198938,0.167225 -0.367188,0.234375 -0.16825,0.06715 -0.474418,0.126297 -0.767578,-0.04297 -0.293162,-0.169259 -0.395905,-0.463296 -0.421875,-0.642578 -0.02597,-0.179283 -0.0063,-0.311359 0.01953,-0.4375 0.05163,-0.252283 0.149779,-0.48284 0.28711,-0.720703 0.13733,-0.237865 0.287799,-0.436573 0.480468,-0.607422 0.09634,-0.08542 0.198947,-0.169178 0.367188,-0.236328 0.08412,-0.03358 0.203672,-0.06488 0.33789,-0.06641 z m 3.25,1.5 c 0.134219,-0.0015 0.283104,0.02671 0.429688,0.111329 0.293161,0.169256 0.395905,0.463296 0.421875,0.642578 0.02597,0.17928 0.0063,0.311359 -0.01953,0.4375 -0.05163,0.252281 -0.149779,0.480887 -0.28711,0.71875 -0.137328,0.237862 -0.287799,0.438523 -0.480468,0.609375 -0.09634,0.08543 -0.198938,0.167225 -0.367188,0.234375 -0.16825,0.06715 -0.474418,0.126297 -0.767578,-0.04297 -0.293162,-0.169259 -0.395905,-0.463295 -0.421875,-0.642578 -0.02597,-0.179282 -0.0063,-0.311359 0.01953,-0.4375 0.05163,-0.252283 0.149779,-0.482841 0.28711,-0.720703 0.137329,-0.237865 0.2878,-0.436573 0.480468,-0.607422 0.09633,-0.08542 0.198948,-0.169178 0.367188,-0.236328 0.08412,-0.03358 0.203673,-0.06488 0.33789,-0.06641 z M 12,1.5 c -0.130575,0 -0.260203,0.033448 -0.376953,0.1015625 l -8.0898439,4.71875 a 0.3601815,0.3601815 0 0 0 0,0.6230469 l 7.7402349,4.5156246 a 1.4403213,1.4403213 0 0 0 1.453124,0 l 7.765626,-4.5312496 a 0.34287393,0.34287393 0 0 0 0,-0.5917969 L 12.376953,1.6015625 C 12.260203,1.5334476 12.130575,1.5 12,1.5 Z m -0.09375,4.078125 c 0.03356,-9.765e-4 0.06723,0 0.101562,0 0.274662,0 0.523283,0.029896 0.767579,0.1113281 0.122148,0.040716 0.246392,0.090996 0.388671,0.203125 0.14228,0.1121289 0.34375,0.3470322 0.34375,0.6855469 0,0.3385147 -0.20147,0.573418 -0.34375,0.6855469 -0.142279,0.1121289 -0.266523,0.162409 -0.388671,0.203125 -0.244296,0.081432 -0.492917,0.1113281 -0.767579,0.1113281 -0.274661,0 -0.523282,-0.029896 -0.767578,-0.1113281 -0.122148,-0.040716 -0.246392,-0.090996 -0.388672,-0.203125 -0.142279,-0.1121289 -0.34375,-0.3470322 -0.34375,-0.6855469 0,-0.3385147 0.201471,-0.573418 0.34375,-0.6855469 0.14228,-0.1121289 0.266524,-0.162409 0.388672,-0.203125 0.213759,-0.071253 0.431087,-0.1044925 0.666016,-0.1113281 z"
     fill="#000000" />
</svg>
