<?xml version="1.0" encoding="UTF-8" standalone="no"?>
<svg
   viewBox="0 0 24 24"
   fill="currentColor"
   version="1.1"
   id="svg1"
   sodipodi:docname="dots-2x2.svg"
   inkscape:version="1.3.2 (091e20e, 2023-11-25)"
   width="24"
   height="24"
   xmlns:inkscape="http://www.inkscape.org/namespaces/inkscape"
   xmlns:sodipodi="http://sodipodi.sourceforge.net/DTD/sodipodi-0.dtd"
   xmlns="http://www.w3.org/2000/svg"
   xmlns:svg="http://www.w3.org/2000/svg">
  <defs
     id="defs1" />
  <sodipodi:namedview
     id="namedview1"
     pagecolor="#ffffff"
     bordercolor="#000000"
     borderopacity="0.25"
     inkscape:showpageshadow="2"
     inkscape:pageopacity="0.0"
     inkscape:pagecheckerboard="0"
     inkscape:deskcolor="#d1d1d1"
     showgrid="true"
     inkscape:zoom="26.523898"
     inkscape:cx="8.4263633"
     inkscape:cy="10.971238"
     inkscape:window-width="2560"
     inkscape:window-height="1387"
     inkscape:window-x="1512"
     inkscape:window-y="25"
     inkscape:window-maximized="0"
     inkscape:current-layer="svg1">
    <inkscape:grid
       id="grid1"
       units="px"
       originx="0"
       originy="0"
       spacingx="0.5"
       spacingy="0.5"
       empcolor="#0099e5"
       empopacity="0.6"
       color="#0099e5"
       opacity="0.14901961"
       empspacing="2"
       dotted="false"
       gridanglex="30"
       gridanglez="30"
       visible="true" />
    <inkscape:grid
       id="grid2"
       units="px"
       originx="0"
       originy="0"
       spacingx="4"
       spacingy="4"
       empcolor="#e50000"
       empopacity="0.6"
       color="#0099e5"
       opacity="0.14901961"
       empspacing="1"
       dotted="false"
       gridanglex="30"
       gridanglez="30"
       visible="true" />
  </sodipodi:namedview>
  <path
     id="path1"
     style="fill:#000000"
     d="m 16.5,9 c 0,-0.819559 -0.680441,-1.5 -1.5,-1.5 -0.819559,0 -1.5,0.680441 -1.5,1.5 0,0.819559 0.680441,1.5 1.5,1.5 0.819559,0 1.5,-0.680441 1.5,-1.5 z m 0,6 c 0,-0.819559 -0.680441,-1.5 -1.5,-1.5 -0.819559,0 -1.5,0.680441 -1.5,1.5 0,0.819559 0.680441,1.5 1.5,1.5 0.819559,0 1.5,-0.680441 1.5,-1.5 z m -6,-6 C 10.5,8.180441 9.819559,7.5 9,7.5 8.180441,7.5 7.5,8.180441 7.5,9 c 0,0.819559 0.680441,1.5 1.5,1.5 0.819559,0 1.5,-0.680441 1.5,-1.5 z m 0,6 c 0,-0.819559 -0.680441,-1.5 -1.5,-1.5 -0.819559,0 -1.5,0.680441 -1.5,1.5 0,0.819559 0.680441,1.5 1.5,1.5 0.819559,0 1.5,-0.680441 1.5,-1.5 z" />
</svg>
