<?xml version="1.0" encoding="UTF-8" standalone="no"?>
<svg
   viewBox="0 0 24 24"
   fill="currentColor"
   version="1.1"
   id="svg1"
   sodipodi:docname="dots-2x3.svg"
   inkscape:version="1.3.2 (091e20e, 2023-11-25)"
   width="24"
   height="24"
   xmlns:inkscape="http://www.inkscape.org/namespaces/inkscape"
   xmlns:sodipodi="http://sodipodi.sourceforge.net/DTD/sodipodi-0.dtd"
   xmlns="http://www.w3.org/2000/svg"
   xmlns:svg="http://www.w3.org/2000/svg">
  <defs
     id="defs1" />
  <sodipodi:namedview
     id="namedview1"
     pagecolor="#ffffff"
     bordercolor="#000000"
     borderopacity="0.25"
     inkscape:showpageshadow="2"
     inkscape:pageopacity="0.0"
     inkscape:pagecheckerboard="0"
     inkscape:deskcolor="#d1d1d1"
     showgrid="true"
     inkscape:zoom="20.603307"
     inkscape:cx="7.5716002"
     inkscape:cy="8.0084233"
     inkscape:window-width="2560"
     inkscape:window-height="1387"
     inkscape:window-x="1800"
     inkscape:window-y="25"
     inkscape:window-maximized="0"
     inkscape:current-layer="svg1">
    <inkscape:grid
       id="grid1"
       units="px"
       originx="0"
       originy="0"
       spacingx="0.5"
       spacingy="0.5"
       empcolor="#0099e5"
       empopacity="0.6"
       color="#0099e5"
       opacity="0.14901961"
       empspacing="2"
       dotted="false"
       gridanglex="30"
       gridanglez="30"
       visible="true" />
    <inkscape:grid
       id="grid2"
       units="px"
       originx="0"
       originy="0"
       spacingx="4"
       spacingy="4"
       empcolor="#e50000"
       empopacity="0.6"
       color="#0099e5"
       opacity="0.14901961"
       empspacing="1"
       dotted="false"
       gridanglex="30"
       gridanglez="30"
       visible="true" />
  </sodipodi:namedview>
  <path
     id="path1"
     style="fill:#000000"
     d="M 8.5,2.75 C 7.2706858,2.75 6.25,3.7706858 6.25,5 6.25,6.2293142 7.2706858,7.25 8.5,7.25 9.729314,7.25 10.75,6.2293142 10.75,5 10.75,3.7706858 9.729314,2.75 8.5,2.75 Z m 7,0 c -1.229315,0 -2.25,1.0206858 -2.25,2.25 0,1.2293142 1.020685,2.25 2.25,2.25 1.229314,0 2.25,-1.0206858 2.25,-2.25 0,-1.2293142 -1.020686,-2.25 -2.25,-2.25 z m -7,7 c -1.2293142,0 -2.25,1.020685 -2.25,2.25 0,1.229315 1.0206858,2.25 2.25,2.25 1.229314,0 2.25,-1.020685 2.25,-2.25 0,-1.229315 -1.020686,-2.25 -2.25,-2.25 z m 7,0 c -1.229315,0 -2.25,1.020685 -2.25,2.25 0,1.229315 1.020685,2.25 2.25,2.25 1.229314,0 2.25,-1.020685 2.25,-2.25 0,-1.229315 -1.020686,-2.25 -2.25,-2.25 z m -7,7 c -1.2293142,0 -2.25,1.020685 -2.25,2.25 0,1.229314 1.0206858,2.25 2.25,2.25 1.229314,0 2.25,-1.020686 2.25,-2.25 0,-1.229315 -1.020686,-2.25 -2.25,-2.25 z m 7,0 c -1.229315,0 -2.25,1.020685 -2.25,2.25 0,1.229314 1.020685,2.25 2.25,2.25 1.229314,0 2.25,-1.020686 2.25,-2.25 0,-1.229315 -1.020686,-2.25 -2.25,-2.25 z" />
</svg>
