<?xml version="1.0" encoding="UTF-8" standalone="no"?>
<svg
   viewBox="0 0 24 24"
   fill="currentColor"
   version="1.1"
   id="svg1"
   sodipodi:docname="face-smile-plus.svg"
   inkscape:version="1.3.2 (091e20e, 2023-11-25)"
   width="24"
   height="24"
   xmlns:inkscape="http://www.inkscape.org/namespaces/inkscape"
   xmlns:sodipodi="http://sodipodi.sourceforge.net/DTD/sodipodi-0.dtd"
   xmlns="http://www.w3.org/2000/svg"
   xmlns:svg="http://www.w3.org/2000/svg">
  <defs
     id="defs1" />
  <sodipodi:namedview
     id="namedview1"
     pagecolor="#ffffff"
     bordercolor="#000000"
     borderopacity="0.25"
     inkscape:showpageshadow="2"
     inkscape:pageopacity="0.0"
     inkscape:pagecheckerboard="0"
     inkscape:deskcolor="#d1d1d1"
     showgrid="false"
     inkscape:zoom="16.223891"
     inkscape:cx="15.717562"
     inkscape:cy="0.61637497"
     inkscape:window-width="2560"
     inkscape:window-height="1387"
     inkscape:window-x="1800"
     inkscape:window-y="25"
     inkscape:window-maximized="1"
     inkscape:current-layer="svg1">
    <inkscape:grid
       id="grid1"
       units="px"
       originx="0"
       originy="0"
       spacingx="0.5"
       spacingy="0.5"
       empcolor="#0099e5"
       empopacity="0.6"
       color="#0099e5"
       opacity="0.14901961"
       empspacing="2"
       dotted="false"
       gridanglex="30"
       gridanglez="30"
       visible="false" />
    <inkscape:grid
       id="grid2"
       units="px"
       originx="0"
       originy="0"
       spacingx="4"
       spacingy="4"
       empcolor="#e50000"
       empopacity="0.6"
       color="#0099e5"
       opacity="0.14901961"
       empspacing="1"
       dotted="false"
       gridanglex="30"
       gridanglez="30"
       visible="false" />
  </sodipodi:namedview>
  <path
     id="path1"
     style="fill:#000000"
     d="M 18.5,2.25 A 0.75,0.75 0 0 0 17.75,3 V 4.75 H 16 A 0.75,0.75 0 0 0 15.25,5.5 0.75,0.75 0 0 0 16,6.25 h 1.75 V 8 A 0.75,0.75 0 0 0 18.5,8.75 0.75,0.75 0 0 0 19.25,8 V 6.25 H 21 A 0.75,0.75 0 0 0 21.75,5.5 0.75,0.75 0 0 0 21,4.75 H 19.25 V 3 A 0.75,0.75 0 0 0 18.5,2.25 Z m -6.5,0 c -5.3849784,0 -9.75,4.3650216 -9.75,9.75 0,5.38498 4.3650216,9.75 9.75,9.75 5.38498,0 9.75,-4.36502 9.75,-9.75 0,-1.523838 -0.349382,-2.9653167 -0.972656,-4.25 H 20.75 V 8 A 2.25,2.25 0 0 1 18.5,10.25 2.25,2.25 0 0 1 16.25,8 V 7.75 H 16 A 2.25,2.25 0 0 1 13.75,5.5 2.25,2.25 0 0 1 16,3.25 h 0.25 V 3.2226562 C 14.965316,2.5993814 13.523838,2.25 12,2.25 Z m -2.625,6 c 0.540999,0 0.827547,0.419766 0.935547,0.6347656 C 10.440547,9.1457652 10.5,9.4520006 10.5,9.75 c 0,0.298 -0.05945,0.605236 -0.189453,0.865234 C 10.202547,10.830234 9.914999,11.25 9.375,11.25 8.834001,11.25 8.5474529,10.830234 8.4394531,10.615234 8.3094535,10.354236 8.25,10.048 8.25,9.75 A 1.96,1.96 0 0 1 8.4394531,8.8847656 C 8.5474529,8.669766 8.835001,8.25 9.375,8.25 Z m 5.25,0 c 0.539997,0 0.827547,0.4197662 0.935547,0.6347656 C 15.690547,9.144765 15.75,9.4520009 15.75,9.75 c 0,0.298 -0.05945,0.604237 -0.189453,0.865234 -0.108,0.215 -0.39455,0.634766 -0.935547,0.634766 -0.539997,0 -0.827547,-0.419766 -0.935547,-0.634766 A 1.96,1.96 0 0 1 13.5,9.75 c 0,-0.2979991 0.05945,-0.604235 0.189453,-0.8652344 C 13.797453,8.6697662 14.084003,8.25 14.625,8.25 Z m 0.617188,6.164062 a 0.75,0.75 0 0 1 0.470703,1.298829 5.25,5.25 0 0 1 -7.4257816,0 0.75,0.75 0 0 1 1.0605468,-1.060547 3.75,3.75 0 0 0 5.3046878,0 0.75,0.75 0 0 1 0.589844,-0.238282 z" />
</svg>
