<?xml version="1.0" encoding="UTF-8" standalone="no"?>
<svg
   viewBox="0 0 24 24"
   fill="currentColor"
   version="1.1"
   id="svg1"
   sodipodi:docname="floppy-disk.svg"
   inkscape:version="1.3.2 (091e20e, 2023-11-25)"
   width="24"
   height="24"
   xmlns:inkscape="http://www.inkscape.org/namespaces/inkscape"
   xmlns:sodipodi="http://sodipodi.sourceforge.net/DTD/sodipodi-0.dtd"
   xmlns="http://www.w3.org/2000/svg"
   xmlns:svg="http://www.w3.org/2000/svg"><defs
     id="defs1"><inkscape:path-effect
       effect="mirror_symmetry"
       start_point="13.093381,7.925489"
       end_point="13.593381,11.894116"
       center_point="13.343381,9.9098025"
       id="path-effect3"
       is_visible="true"
       lpeversion="1.2"
       lpesatellites=""
       mode="free"
       discard_orig_path="false"
       fuse_paths="false"
       oposite_fuse="false"
       split_items="false"
       split_open="false"
       link_styles="false" /><inkscape:path-effect
       effect="mirror_symmetry"
       start_point="12,17.496996"
       end_point="12,24.996996"
       center_point="12,21.246996"
       id="path-effect2"
       is_visible="true"
       lpeversion="1.2"
       lpesatellites=""
       mode="free"
       discard_orig_path="false"
       fuse_paths="false"
       oposite_fuse="false"
       split_items="false"
       split_open="false"
       link_styles="false" /></defs><sodipodi:namedview
     id="namedview1"
     pagecolor="#ffffff"
     bordercolor="#000000"
     borderopacity="0.25"
     inkscape:showpageshadow="2"
     inkscape:pageopacity="0.0"
     inkscape:pagecheckerboard="0"
     inkscape:deskcolor="#d1d1d1"
     showgrid="true"
     inkscape:zoom="7.5216138"
     inkscape:cx="18.878927"
     inkscape:cy="-1.4624521"
     inkscape:window-width="2560"
     inkscape:window-height="1387"
     inkscape:window-x="1800"
     inkscape:window-y="25"
     inkscape:window-maximized="1"
     inkscape:current-layer="svg1"><inkscape:grid
       id="grid1"
       units="px"
       originx="0"
       originy="0"
       spacingx="0.25"
       spacingy="0.25"
       empcolor="#0099e5"
       empopacity="0.6"
       color="#0099e5"
       opacity="0.14901961"
       empspacing="2"
       dotted="false"
       gridanglex="30"
       gridanglez="30"
       visible="true"
       snapvisiblegridlinesonly="false"
       enabled="true" /><inkscape:grid
       id="grid2"
       units="px"
       originx="0"
       originy="0"
       spacingx="4"
       spacingy="4"
       empcolor="#e50000"
       empopacity="0.6"
       color="#0099e5"
       opacity="0.14901961"
       empspacing="1"
       dotted="false"
       gridanglex="30"
       gridanglez="30"
       visible="true"
       snapvisiblegridlinesonly="false"
       enabled="true" /></sodipodi:namedview><path
     id="path1"
     style="fill:#000000"
     d="M 13.25,5 A 0.75,0.75 0 0 0 12.5,5.75 v 2.5 A 0.75,0.75 0 0 0 13.25,9 0.75,0.75 0 0 0 14,8.25 V 5.75 A 0.75,0.75 0 0 0 13.25,5 Z M 6,3 C 4.3520357,3 3,4.3520357 3,6 v 12 c 0,1.647963 1.3520358,3 3,3 h 12 c 1.647963,0 3,-1.352037 3,-3 V 7.5 C 21.00048,7.300903 20.92178,7.1097827 20.78125,6.96875 l -3.75,-3.75 C 16.890217,3.0782166 16.699097,2.99952 16.5,3 h -0.75 -9.5 z m 1,1.5 h 8 a 0.750075,0.750075 0 0 1 0.75,0.75 v 3.5 A 0.750075,0.750075 0 0 1 15,9.5 H 7 A 0.750075,0.750075 0 0 1 6.25,8.75 V 5.25 A 0.750075,0.750075 0 0 1 7,4.5 Z m 0,7.75 H 17 A 0.750075,0.750075 0 0 1 17.75,13 v 5 A 0.750075,0.750075 0 0 1 17,18.75 H 7 A 0.750075,0.750075 0 0 1 6.25,18 V 13 A 0.750075,0.750075 0 0 1 7,12.25 Z" /></svg>
