<?xml version="1.0" encoding="UTF-8" standalone="no"?>
<svg
   viewBox="0 0 24 24"
   fill="currentColor"
   version="1.1"
   id="svg1"
   sodipodi:docname="gamepad.svg"
   inkscape:version="1.3.2 (091e20e, 2023-11-25)"
   width="24"
   height="24"
   xmlns:inkscape="http://www.inkscape.org/namespaces/inkscape"
   xmlns:sodipodi="http://sodipodi.sourceforge.net/DTD/sodipodi-0.dtd"
   xmlns="http://www.w3.org/2000/svg"
   xmlns:svg="http://www.w3.org/2000/svg">
  <defs
     id="defs1" />
  <sodipodi:namedview
     id="namedview1"
     pagecolor="#ffffff"
     bordercolor="#000000"
     borderopacity="0.25"
     inkscape:showpageshadow="2"
     inkscape:pageopacity="0.0"
     inkscape:pagecheckerboard="0"
     inkscape:deskcolor="#d1d1d1"
     showgrid="false"
     inkscape:zoom="12.489938"
     inkscape:cx="17.694244"
     inkscape:cy="18.094566"
     inkscape:window-width="1800"
     inkscape:window-height="1097"
     inkscape:window-x="0"
     inkscape:window-y="44"
     inkscape:window-maximized="0"
     inkscape:current-layer="svg1">
    <inkscape:grid
       id="grid1"
       units="px"
       originx="0"
       originy="0"
       spacingx="0.25"
       spacingy="0.25"
       empcolor="#0099e5"
       empopacity="0.6"
       color="#0099e5"
       opacity="0.14901961"
       empspacing="2"
       dotted="false"
       gridanglex="30"
       gridanglez="30"
       visible="false" />
    <inkscape:grid
       id="grid2"
       units="px"
       originx="0"
       originy="0"
       spacingx="4"
       spacingy="4"
       empcolor="#e50000"
       empopacity="0.6"
       color="#0099e5"
       opacity="0.14901961"
       empspacing="1"
       dotted="false"
       gridanglex="30"
       gridanglez="30"
       visible="false" />
  </sodipodi:namedview>
  <path
     id="path1"
     style="fill:#000000"
     d="M 7 6.5 C 4.3814833 6.5 2.25 8.6314833 2.25 11.25 L 2.25 12.75 C 2.25 15.368515 4.3814833 17.5 7 17.5 L 17 17.5 C 19.618515 17.5 21.75 15.368515 21.75 12.75 L 21.75 11.25 C 21.75 8.6314833 19.618515 6.5 17 6.5 L 7 6.5 z M 16 8.5 C 16.681471 8.5 17.25 9.0685289 17.25 9.75 C 17.25 10.431471 16.681471 11 16 11 C 15.318529 11 14.75 10.431471 14.75 9.75 C 14.75 9.0685289 15.318529 8.5 16 8.5 z M 7.5 9 A 0.75 0.75 0 0 1 8.25 9.75 L 8.25 11.25 L 9.75 11.25 A 0.75 0.75 0 0 1 10.5 12 A 0.75 0.75 0 0 1 9.75 12.75 L 8.25 12.75 L 8.25 14.25 A 0.75 0.75 0 0 1 7.5 15 A 0.75 0.75 0 0 1 6.75 14.25 L 6.75 12.75 L 5.25 12.75 A 0.75 0.75 0 0 1 4.5 12 A 0.75 0.75 0 0 1 5.25 11.25 L 6.75 11.25 L 6.75 9.75 A 0.75 0.75 0 0 1 7.5 9 z M 13.75 10.75 C 14.431471 10.75 15 11.318529 15 12 C 15 12.681471 14.431471 13.25 13.75 13.25 C 13.068529 13.25 12.5 12.681471 12.5 12 C 12.5 11.318529 13.068529 10.75 13.75 10.75 z M 18.25 10.75 C 18.931471 10.75 19.5 11.318529 19.5 12 C 19.5 12.681471 18.931471 13.25 18.25 13.25 C 17.568529 13.25 17 12.681471 17 12 C 17 11.318529 17.568529 10.75 18.25 10.75 z M 16 13 C 16.681471 13 17.25 13.568529 17.25 14.25 C 17.25 14.931471 16.681471 15.5 16 15.5 C 15.318529 15.5 14.75 14.931471 14.75 14.25 C 14.75 13.568529 15.318529 13 16 13 z " />
</svg>
