<?xml version="1.0" encoding="UTF-8" standalone="no"?>
<svg
   viewBox="0 0 24 24"
   fill="currentColor"
   version="1.1"
   id="svg1"
   sodipodi:docname="h4.svg"
   inkscape:version="1.3.2 (091e20e, 2023-11-25)"
   width="24"
   height="24"
   xmlns:inkscape="http://www.inkscape.org/namespaces/inkscape"
   xmlns:sodipodi="http://sodipodi.sourceforge.net/DTD/sodipodi-0.dtd"
   xmlns="http://www.w3.org/2000/svg"
   xmlns:svg="http://www.w3.org/2000/svg">
  <defs
     id="defs1" />
  <sodipodi:namedview
     id="namedview1"
     pagecolor="#ffffff"
     bordercolor="#000000"
     borderopacity="0.25"
     inkscape:showpageshadow="2"
     inkscape:pageopacity="0.0"
     inkscape:pagecheckerboard="0"
     inkscape:deskcolor="#d1d1d1"
     showgrid="true"
     inkscape:zoom="24.101875"
     inkscape:cx="7.3853175"
     inkscape:cy="8.8374867"
     inkscape:window-width="2560"
     inkscape:window-height="1387"
     inkscape:window-x="1800"
     inkscape:window-y="25"
     inkscape:window-maximized="1"
     inkscape:current-layer="svg1">
    <inkscape:grid
       id="grid1"
       units="px"
       originx="0"
       originy="0"
       spacingx="0.5"
       spacingy="0.5"
       empcolor="#0099e5"
       empopacity="0.6"
       color="#0099e5"
       opacity="0.14901961"
       empspacing="2"
       dotted="false"
       gridanglex="30"
       gridanglez="30"
       visible="true" />
    <inkscape:grid
       id="grid2"
       units="px"
       originx="0"
       originy="0"
       spacingx="4"
       spacingy="4"
       empcolor="#e50000"
       empopacity="0.6"
       color="#0099e5"
       opacity="0.14901961"
       empspacing="1"
       dotted="false"
       gridanglex="30"
       gridanglez="30"
       visible="true" />
  </sodipodi:namedview>
  <path
     style="fill:#000000"
     d="M 2.2460938,3.7460938 A 0.75,0.75 0 0 0 1.4960937,4.4960937 v 7.5000003 a 0.75,0.75 0 0 0 0,0.002 v 7.5 a 0.75,0.75 0 0 0 0.7500001,0.75 0.75,0.75 0 0 0 0.75,-0.75 v -6.75 h 9.0000002 v 6.75 a 0.75,0.75 0 0 0 0.75,0.75 0.75,0.75 0 0 0 0.75,-0.75 v -7.5 -7.5000001 a 0.75,0.75 0 0 0 -0.75,-0.75 0.75,0.75 0 0 0 -0.75,0.75 V 11.248047 H 2.9960938 V 4.4960937 a 0.75,0.75 0 0 0 -0.75,-0.7499999 z M 21.210937,9.03125 a 0.750075,0.750075 0 0 0 -0.841796,0.3125 l -4.5,7 A 0.750075,0.750075 0 0 0 16.5,17.5 h 3.75 v 2 A 0.75,0.75 0 0 0 21,20.25 0.75,0.75 0 0 0 21.75,19.5 v -2 h 0.5 A 0.75,0.75 0 0 0 23,16.75 0.75,0.75 0 0 0 22.25,16 h -0.5 V 9.75 A 0.750075,0.750075 0 0 0 21.210937,9.03125 Z M 20.25,12.302734 V 16 h -2.376953 z"
     id="path1-8" />
</svg>
