<?xml version="1.0" encoding="UTF-8" standalone="no"?>
<svg
   viewBox="0 0 24 24"
   fill="currentColor"
   version="1.1"
   id="svg1"
   sodipodi:docname="headphones-slash.svg"
   inkscape:version="1.3.2 (091e20e, 2023-11-25)"
   width="24"
   height="24"
   xml:space="preserve"
   xmlns:inkscape="http://www.inkscape.org/namespaces/inkscape"
   xmlns:sodipodi="http://sodipodi.sourceforge.net/DTD/sodipodi-0.dtd"
   xmlns="http://www.w3.org/2000/svg"
   xmlns:svg="http://www.w3.org/2000/svg"><defs
     id="defs1" /><sodipodi:namedview
     id="namedview1"
     pagecolor="#ffffff"
     bordercolor="#000000"
     borderopacity="0.25"
     inkscape:showpageshadow="2"
     inkscape:pageopacity="0.0"
     inkscape:pagecheckerboard="0"
     inkscape:deskcolor="#d1d1d1"
     showgrid="false"
     inkscape:zoom="15.544475"
     inkscape:cx="17.56251"
     inkscape:cy="5.8541701"
     inkscape:window-width="2560"
     inkscape:window-height="1387"
     inkscape:window-x="1800"
     inkscape:window-y="25"
     inkscape:window-maximized="1"
     inkscape:current-layer="svg1"><inkscape:grid
       id="grid1"
       units="px"
       originx="0"
       originy="0"
       spacingx="0.5"
       spacingy="0.5"
       empcolor="#0099e5"
       empopacity="0.6"
       color="#0099e5"
       opacity="0.14901961"
       empspacing="2"
       dotted="false"
       gridanglex="30"
       gridanglez="30"
       visible="false" /><inkscape:grid
       id="grid2"
       units="px"
       originx="0"
       originy="0"
       spacingx="4"
       spacingy="4"
       empcolor="#e50000"
       empopacity="0.6"
       color="#0099e5"
       opacity="0.14901961"
       empspacing="1"
       dotted="false"
       gridanglex="30"
       gridanglez="30"
       visible="false" /></sodipodi:namedview><path
     style="color:#000000;fill:#000000;stroke-width:1;stroke-linecap:round;stroke-linejoin:round;-inkscape-stroke:none"
     d="M 5.4824219,8.6621094 4.3496094,7.5292969 C 3.4714893,9.3420826 3.2489067,11.444758 3.8085938,13.455078 c -0.080491,0.07166 -0.1595362,0.146368 -0.234375,0.226563 -0.8392771,0.899337 -1.0553057,2.289254 -0.5644532,4.121093 0.4908531,1.831841 1.3723004,2.927883 2.5488282,3.28711 1.1765277,0.359224 2.3899856,0.04831 3.6855468,-0.298828 a 0.7501191,0.750075 0 0 0 0.53125,-0.917969 L 8.8046875,16.25 7.8339844,12.628906 A 0.7501191,0.750075 0 0 0 7.1484375,12.074219 0.7501191,0.750075 0 0 0 6.9160156,12.097656 C 6.2976794,12.263335 5.7000187,12.426971 5.1523438,12.650391 4.8606072,11.296325 4.9885592,9.9115984 5.4824219,8.6621094 Z"
     id="path1" /><path
     style="color:#000000;fill:#000000;stroke-width:1;stroke-linecap:round;stroke-linejoin:round;-inkscape-stroke:none"
     d="m 18.011719,21.191406 -3.265625,-3.265625 -0.521485,1.947266 a 0.7501191,0.750075 0 0 0 0.53125,0.917969 c 1.13867,0.305096 2.213325,0.581631 3.25586,0.40039 z"
     id="path2" /><path
     style="color:#000000;fill:#000000;stroke-width:1;stroke-linecap:round;stroke-linejoin:round;-inkscape-stroke:none"
     d="M 7.3242188,4.1445312 8.4140625,5.234375 C 10.816154,3.8095624 13.868975,3.9315529 16.15625,5.6074219 c 2.23519,1.6377054 3.260815,4.4001191 2.691406,7.0429691 -0.547674,-0.22342 -1.145335,-0.387056 -1.763672,-0.552735 a 0.7501191,0.750075 0 0 0 -0.232422,-0.02344 0.7501191,0.750075 0 0 0 -0.685546,0.554687 l -0.07617,0.28125 4.898437,4.898438 c 5.43e-4,-0.002 0.0014,-0.0038 0.002,-0.0059 0.490855,-1.831839 0.274824,-3.221756 -0.564453,-4.121093 -0.07483,-0.0802 -0.153884,-0.154898 -0.234375,-0.226563 C 21.12551,10.099903 19.889998,6.482481 17.042969,4.3964844 15.544516,3.2985802 13.772028,2.75 12,2.75 10.370447,2.75 8.7411228,3.2161285 7.3242188,4.1445312 Z"
     id="path3" /><path
     d="m 3.5112922,2.4512917 a 0.75,0.75 0 0 0 -1.06,1.06 L 20.451291,21.511292 a 0.75,0.75 0 1 0 1.06,-1.06 z"
     id="path4"
     style="fill:#000000" /></svg>
