<?xml version="1.0" encoding="UTF-8" standalone="no"?>
<svg
   viewBox="0 0 24 24"
   fill="currentColor"
   version="1.1"
   id="svg1"
   sodipodi:docname="lettered-list.svg"
   inkscape:version="1.3.2 (091e20e, 2023-11-25)"
   width="24"
   height="24"
   xmlns:inkscape="http://www.inkscape.org/namespaces/inkscape"
   xmlns:sodipodi="http://sodipodi.sourceforge.net/DTD/sodipodi-0.dtd"
   xmlns="http://www.w3.org/2000/svg"
   xmlns:svg="http://www.w3.org/2000/svg">
  <defs
     id="defs1">
    <inkscape:path-effect
       effect="mirror_symmetry"
       start_point="13.093381,7.925489"
       end_point="13.593381,11.894116"
       center_point="13.343381,9.9098025"
       id="path-effect3"
       is_visible="true"
       lpeversion="1.2"
       lpesatellites=""
       mode="free"
       discard_orig_path="false"
       fuse_paths="false"
       oposite_fuse="false"
       split_items="false"
       split_open="false"
       link_styles="false" />
    <inkscape:path-effect
       effect="mirror_symmetry"
       start_point="12,17.496996"
       end_point="12,24.996996"
       center_point="12,21.246996"
       id="path-effect2"
       is_visible="true"
       lpeversion="1.2"
       lpesatellites=""
       mode="free"
       discard_orig_path="false"
       fuse_paths="false"
       oposite_fuse="false"
       split_items="false"
       split_open="false"
       link_styles="false" />
    <inkscape:path-effect
       effect="fillet_chamfer"
       id="path-effect93"
       is_visible="true"
       lpeversion="1"
       nodesatellites_param="F,0,0,1,0,0,0,1 @ F,0,0,1,0,1.25,0,1 @ F,0,0,1,0,1.25,0,1 @ F,0,0,1,0,0,0,1"
       radius="0"
       unit="px"
       method="auto"
       mode="F"
       chamfer_steps="1"
       flexible="false"
       use_knot_distance="true"
       apply_no_radius="true"
       apply_with_radius="true"
       only_selected="false"
       hide_knots="false" />
    <inkscape:path-effect
       effect="fillet_chamfer"
       id="path-effect94"
       is_visible="true"
       lpeversion="1"
       nodesatellites_param="F,0,0,1,0,0,0,1 @ F,0,0,1,0,0,0,1 @ F,0,0,1,0,1.125,0,1 @ F,0,0,1,0,1.125,0,1 @ F,0,0,1,0,0,0,1 @ F,0,0,1,0,1.125,0,1 @ F,0,0,1,0,1.125,0,1"
       radius="0"
       unit="px"
       method="auto"
       mode="F"
       chamfer_steps="1"
       flexible="false"
       use_knot_distance="true"
       apply_no_radius="true"
       apply_with_radius="true"
       only_selected="false"
       hide_knots="false" />
    <inkscape:path-effect
       effect="fillet_chamfer"
       id="path-effect99"
       is_visible="true"
       lpeversion="1"
       nodesatellites_param="F,0,0,1,0,0,0,1 @ F,0,1,1,0,1.5,0,1 @ F,0,0,1,0,1.5,0,1 @ F,0,0,1,0,0,0,1"
       radius="0"
       unit="px"
       method="auto"
       mode="F"
       chamfer_steps="1"
       flexible="false"
       use_knot_distance="true"
       apply_no_radius="true"
       apply_with_radius="true"
       only_selected="false"
       hide_knots="false" />
  </defs>
  <sodipodi:namedview
     id="namedview1"
     pagecolor="#ffffff"
     bordercolor="#000000"
     borderopacity="0.25"
     inkscape:showpageshadow="2"
     inkscape:pageopacity="0.0"
     inkscape:pagecheckerboard="0"
     inkscape:deskcolor="#d1d1d1"
     showgrid="true"
     inkscape:zoom="33.188855"
     inkscape:cx="8.542024"
     inkscape:cy="12.082369"
     inkscape:window-width="2560"
     inkscape:window-height="1387"
     inkscape:window-x="0"
     inkscape:window-y="25"
     inkscape:window-maximized="0"
     inkscape:current-layer="svg1">
    <inkscape:grid
       id="grid1"
       units="px"
       originx="0"
       originy="0"
       spacingx="0.25"
       spacingy="0.25"
       empcolor="#0099e5"
       empopacity="0.6"
       color="#0099e5"
       opacity="0.14901961"
       empspacing="2"
       dotted="false"
       gridanglex="30"
       gridanglez="30"
       visible="true"
       snapvisiblegridlinesonly="false"
       enabled="true" />
    <inkscape:grid
       id="grid2"
       units="px"
       originx="0"
       originy="0"
       spacingx="4"
       spacingy="4"
       empcolor="#e50000"
       empopacity="0.6"
       color="#0099e5"
       opacity="0.14901961"
       empspacing="1"
       dotted="false"
       gridanglex="30"
       gridanglez="30"
       visible="true"
       snapvisiblegridlinesonly="false"
       enabled="true" />
  </sodipodi:namedview>
  <path
     style="fill:#000000"
     d="m 4.25,2.5 c -1.0956849,0 -2,0.9043151 -2,2 V 6 7.75 A 0.75,0.75 0 0 0 3,8.5 0.75,0.75 0 0 0 3.75,7.75 v -1 h 1 v 1 A 0.75,0.75 0 0 0 5.5,8.5 0.75,0.75 0 0 0 6.25,7.75 V 6 4.5 c 0,-1.0956849 -0.9043151,-2 -2,-2 z m 0,1.5 c 0.2850256,0 0.5,0.2149744 0.5,0.5 v 0.75 h -1 V 4.5 C 3.75,4.2149744 3.9649744,4 4.25,4 Z m 4,1.25 A 0.75,0.75 0 0 0 7.5,6 0.75,0.75 0 0 0 8.25,6.75 h 12 A 0.75,0.75 0 0 0 21,6 0.75,0.75 0 0 0 20.25,5.25 Z M 3,9 A 0.750075,0.750075 0 0 0 2.25,9.75 v 4.5 A 0.750075,0.750075 0 0 0 3,15 H 4.375 C 5.4016494,15 6.25,14.151649 6.25,13.125 6.25,12.688198 6.0348271,12.320645 5.7792969,12 6.0348271,11.679355 6.25,11.311802 6.25,10.875 6.25,9.8483506 5.4016494,9 4.375,9 Z m 0.75,1.5 h 0.625 c 0.21599,0 0.375,0.15901 0.375,0.375 0,0.21599 -0.15901,0.375 -0.375,0.375 H 3.75 Z m 4.5,0.75 A 0.75,0.75 0 0 0 7.5,12 0.75,0.75 0 0 0 8.25,12.75 h 12 A 0.75,0.75 0 0 0 21,12 0.75,0.75 0 0 0 20.25,11.25 Z m -4.5,1.5 h 0.625 c 0.21599,0 0.375,0.15901 0.375,0.375 0,0.21599 -0.15901,0.375 -0.375,0.375 H 3.75 Z M 4.5,15.5 c -1.233756,0 -2.25,1.016244 -2.25,2.25 v 1.5 c 0,1.233756 1.016244,2.25 2.25,2.25 h 1 A 0.75,0.75 0 0 0 6.25,20.75 0.75,0.75 0 0 0 5.5,20 h -1 C 4.0769034,20 3.75,19.673097 3.75,19.25 v -1.5 C 3.75,17.326903 4.0769034,17 4.5,17 h 1 A 0.75,0.75 0 0 0 6.25,16.25 0.75,0.75 0 0 0 5.5,15.5 Z m 3.75,1.75 A 0.75,0.75 0 0 0 7.5,18 0.75,0.75 0 0 0 8.25,18.75 h 12 A 0.75,0.75 0 0 0 21,18 0.75,0.75 0 0 0 20.25,17.25 Z"
     id="path1" />
</svg>
