<?xml version="1.0" encoding="UTF-8" standalone="no"?>
<svg
   viewBox="0 0 24 24"
   fill="currentColor"
   version="1.1"
   id="svg1"
   sodipodi:docname="lock-semi-open.svg"
   inkscape:version="1.3.2 (091e20e, 2023-11-25)"
   width="24"
   height="24"
   xmlns:inkscape="http://www.inkscape.org/namespaces/inkscape"
   xmlns:sodipodi="http://sodipodi.sourceforge.net/DTD/sodipodi-0.dtd"
   xmlns="http://www.w3.org/2000/svg"
   xmlns:svg="http://www.w3.org/2000/svg">
  <defs
     id="defs1" />
  <sodipodi:namedview
     id="namedview1"
     pagecolor="#ffffff"
     bordercolor="#000000"
     borderopacity="0.25"
     inkscape:showpageshadow="2"
     inkscape:pageopacity="0.0"
     inkscape:pagecheckerboard="0"
     inkscape:deskcolor="#d1d1d1"
     showgrid="true"
     inkscape:zoom="36.762958"
     inkscape:cx="6.2970993"
     inkscape:cy="12.050173"
     inkscape:window-width="2560"
     inkscape:window-height="1387"
     inkscape:window-x="1800"
     inkscape:window-y="25"
     inkscape:window-maximized="1"
     inkscape:current-layer="svg1">
    <inkscape:grid
       id="grid1"
       units="px"
       originx="0"
       originy="0"
       spacingx="0.5"
       spacingy="0.5"
       empcolor="#0099e5"
       empopacity="0.6"
       color="#0099e5"
       opacity="0.14901961"
       empspacing="2"
       dotted="false"
       gridanglex="30"
       gridanglez="30"
       visible="true" />
    <inkscape:grid
       id="grid2"
       units="px"
       originx="0"
       originy="0"
       spacingx="4"
       spacingy="4"
       empcolor="#e50000"
       empopacity="0.6"
       color="#0099e5"
       opacity="0.14901961"
       empspacing="1"
       dotted="false"
       gridanglex="30"
       gridanglez="30"
       visible="true" />
  </sodipodi:namedview>
  <path
     id="path1"
     style="fill:#000000"
     d="M 12 0.25 C 9.1093785 0.25 6.75 2.6093992 6.75 5.5 L 6.75 7 A 0.75 0.75 0 0 0 7.5 7.75 A 0.75 0.75 0 0 0 8.25 7 L 8.25 5.5 C 8.25 3.4200507 9.9200315 1.75 12 1.75 C 14.079969 1.75 15.75 3.4200507 15.75 5.5 L 15.75 9.75 L 6.75 9.75 C 5.1020166 9.75 3.75 11.10206 3.75 12.75 L 3.75 19.5 C 3.75 21.14794 5.1020166 22.5 6.75 22.5 L 17.25 22.5 C 18.897956 22.5 20.25 21.147956 20.25 19.5 L 20.25 12.75 C 20.25 11.102044 18.897956 9.75 17.25 9.75 L 17.25 5.5 C 17.25 2.6093992 14.890621 0.25 12 0.25 z " />
</svg>
