<?xml version="1.0" encoding="UTF-8" standalone="no"?>
<svg
   viewBox="0 0 24 24"
   fill="currentColor"
   version="1.1"
   id="svg1"
   sodipodi:docname="mask.svg"
   inkscape:version="1.3.2 (091e20e, 2023-11-25)"
   width="24"
   height="24"
   xmlns:inkscape="http://www.inkscape.org/namespaces/inkscape"
   xmlns:sodipodi="http://sodipodi.sourceforge.net/DTD/sodipodi-0.dtd"
   xmlns="http://www.w3.org/2000/svg"
   xmlns:svg="http://www.w3.org/2000/svg"><defs
     id="defs1"><inkscape:path-effect
       effect="mirror_symmetry"
       start_point="13.093381,7.925489"
       end_point="13.593381,11.894116"
       center_point="13.343381,9.9098025"
       id="path-effect3"
       is_visible="true"
       lpeversion="1.2"
       lpesatellites=""
       mode="free"
       discard_orig_path="false"
       fuse_paths="false"
       oposite_fuse="false"
       split_items="false"
       split_open="false"
       link_styles="false" /><inkscape:path-effect
       effect="mirror_symmetry"
       start_point="12,17.496996"
       end_point="12,24.996996"
       center_point="12,21.246996"
       id="path-effect2"
       is_visible="true"
       lpeversion="1.2"
       lpesatellites=""
       mode="free"
       discard_orig_path="false"
       fuse_paths="false"
       oposite_fuse="false"
       split_items="false"
       split_open="false"
       link_styles="false" /></defs><sodipodi:namedview
     id="namedview1"
     pagecolor="#ffffff"
     bordercolor="#000000"
     borderopacity="0.25"
     inkscape:showpageshadow="2"
     inkscape:pageopacity="0.0"
     inkscape:pagecheckerboard="0"
     inkscape:deskcolor="#d1d1d1"
     showgrid="true"
     inkscape:zoom="35.805135"
     inkscape:cx="13.168502"
     inkscape:cy="12.791461"
     inkscape:window-width="1800"
     inkscape:window-height="1017"
     inkscape:window-x="0"
     inkscape:window-y="44"
     inkscape:window-maximized="1"
     inkscape:current-layer="svg1"><inkscape:grid
       id="grid1"
       units="px"
       originx="0"
       originy="0"
       spacingx="0.5"
       spacingy="0.5"
       empcolor="#0099e5"
       empopacity="0.6"
       color="#0099e5"
       opacity="0.14901961"
       empspacing="2"
       dotted="false"
       gridanglex="30"
       gridanglez="30"
       visible="true"
       snapvisiblegridlinesonly="false"
       enabled="true" /><inkscape:grid
       id="grid2"
       units="px"
       originx="0"
       originy="0"
       spacingx="4"
       spacingy="4"
       empcolor="#e50000"
       empopacity="0.6"
       color="#0099e5"
       opacity="0.14901961"
       empspacing="1"
       dotted="false"
       gridanglex="30"
       gridanglez="30"
       visible="true"
       snapvisiblegridlinesonly="false"
       enabled="true" /></sodipodi:namedview><path
     id="path2"
     style="color:#000000;fill:#000000;stroke-linecap:round;stroke-linejoin:round;-inkscape-stroke:none"
     d="M 5.890625 6.6191406 C 5.6447753 6.6218729 5.4007615 6.6286994 5.1601562 6.6386719 C 4.1977356 6.6785616 3.2867131 6.7617188 2.5 6.7617188 C 2.1193996 6.7622192 1.7995032 7.0476911 1.7558594 7.4257812 C 1.7558594 7.4257812 1.6590394 8.2538484 1.6113281 9.2792969 C 1.5636173 10.304745 1.5447485 11.506851 1.7714844 12.449219 C 2.0488297 13.601932 2.5419678 14.828457 3.4746094 15.746094 C 4.2792849 16.537823 5.3367698 16.966422 6.3515625 17.171875 C 7.7505319 17.455107 9.3629588 17.53047 10.802734 16.896484 C 11.340939 16.659497 11.687035 16.264796 12 15.914062 C 12.312965 16.264796 12.659061 16.659497 13.197266 16.896484 C 14.637041 17.53047 16.249468 17.455107 17.648438 17.171875 C 18.66323 16.966422 19.720714 16.537823 20.525391 15.746094 C 21.458032 14.828457 21.95117 13.601932 22.228516 12.449219 C 22.45525 11.506851 22.436383 10.304745 22.388672 9.2792969 C 22.340961 8.2538484 22.244141 7.4257813 22.244141 7.4257812 C 22.200497 7.0476909 21.880601 6.762219 21.5 6.7617188 C 19.926574 6.7617188 17.8545 6.4306519 15.873047 6.7714844 C 15.050668 6.912941 14.047654 7.2794086 13.203125 7.6113281 C 12.53086 7.87554 12.20047 8.0281798 12 8.1171875 C 11.79953 8.0281798 11.46914 7.8755443 10.796875 7.6113281 C 9.9523459 7.2794086 8.9493321 6.912941 8.1269531 6.7714844 C 7.3839082 6.6436738 6.6281739 6.6109438 5.890625 6.6191406 z M 7.265625 10.320312 C 7.6354578 10.321297 8.0275072 10.370659 8.4277344 10.46875 C 9.0680959 10.625697 9.6161465 10.874707 10.029297 11.214844 C 10.235872 11.384912 10.413575 11.579155 10.533203 11.830078 C 10.652833 12.080997 10.698908 12.417189 10.589844 12.71875 C 10.371713 13.321871 9.806588 13.535516 9.265625 13.628906 C 8.724662 13.722288 8.1052073 13.688195 7.4648438 13.53125 C 6.8244803 13.374305 6.2764316 13.125294 5.8632812 12.785156 C 5.6567063 12.615087 5.4790012 12.420841 5.359375 12.169922 C 5.2397482 11.919002 5.1936693 11.582812 5.3027344 11.28125 C 5.5208642 10.678129 6.0859903 10.464484 6.6269531 10.371094 C 6.8298143 10.336074 7.0437253 10.319723 7.265625 10.320312 z M 16.558594 10.341797 C 16.861441 10.334643 17.150934 10.357463 17.419922 10.412109 C 17.957897 10.521403 18.51654 10.750087 18.716797 11.359375 C 18.816925 11.66402 18.761737 11.99881 18.634766 12.246094 C 18.507794 12.493377 18.324781 12.681799 18.113281 12.845703 C 17.690284 13.173512 17.134946 13.406922 16.490234 13.544922 C 15.845522 13.682922 15.225475 13.697184 14.6875 13.587891 C 14.149525 13.478597 13.590881 13.249913 13.390625 12.640625 C 13.290496 12.33598 13.345684 12.00119 13.472656 11.753906 C 13.599628 11.506623 13.784594 11.318201 13.996094 11.154297 C 14.419092 10.826488 14.972476 10.593078 15.617188 10.455078 C 15.939544 10.386078 16.255747 10.348951 16.558594 10.341797 z " /></svg>
