<?xml version="1.0" encoding="UTF-8" standalone="no"?>
<svg
   viewBox="0 0 24 24"
   fill="currentColor"
   version="1.1"
   id="svg1"
   sodipodi:docname="microphone-slash.svg"
   inkscape:version="1.3.2 (091e20e, 2023-11-25)"
   width="24"
   height="24"
   xml:space="preserve"
   xmlns:inkscape="http://www.inkscape.org/namespaces/inkscape"
   xmlns:sodipodi="http://sodipodi.sourceforge.net/DTD/sodipodi-0.dtd"
   xmlns="http://www.w3.org/2000/svg"
   xmlns:svg="http://www.w3.org/2000/svg"><defs
     id="defs1" /><sodipodi:namedview
     id="namedview1"
     pagecolor="#ffffff"
     bordercolor="#000000"
     borderopacity="0.25"
     inkscape:showpageshadow="2"
     inkscape:pageopacity="0.0"
     inkscape:pagecheckerboard="0"
     inkscape:deskcolor="#d1d1d1"
     showgrid="false"
     inkscape:zoom="26.150779"
     inkscape:cx="13.78544"
     inkscape:cy="5.3535689"
     inkscape:window-width="2560"
     inkscape:window-height="1387"
     inkscape:window-x="1800"
     inkscape:window-y="25"
     inkscape:window-maximized="1"
     inkscape:current-layer="svg1"><inkscape:grid
       id="grid1"
       units="px"
       originx="0"
       originy="0"
       spacingx="0.5"
       spacingy="0.5"
       empcolor="#0099e5"
       empopacity="0.6"
       color="#0099e5"
       opacity="0.14901961"
       empspacing="2"
       dotted="false"
       gridanglex="30"
       gridanglez="30"
       visible="false" /><inkscape:grid
       id="grid2"
       units="px"
       originx="0"
       originy="0"
       spacingx="4"
       spacingy="4"
       empcolor="#e50000"
       empopacity="0.6"
       color="#0099e5"
       opacity="0.14901961"
       empspacing="1"
       dotted="false"
       gridanglex="30"
       gridanglez="30"
       visible="false" /></sodipodi:namedview><path
     id="path1"
     style="fill:#000000"
     d="M 12 0.75 A 3.75 3.75 0 0 0 8.25 4.5 L 8.25 5.0703125 L 15.75 12.570312 L 15.75 4.5 A 3.75 3.75 0 0 0 12 0.75 z M 6 10.5 A 0.75 0.75 0 0 0 5.25 11.25 L 5.25 12.75 A 6.751 6.751 0 0 0 11.25 19.458984 L 11.25 21.75 L 8.25 21.75 A 0.75 0.75 0 0 0 8.25 23.25 L 15.75 23.25 A 0.75 0.75 0 0 0 15.75 21.75 L 12.75 21.75 L 12.75 19.458984 A 6.751 6.751 0 0 0 15.384766 18.564453 L 14.277344 17.457031 A 5.25 5.25 0 0 1 6.75 12.75 L 6.75 11.25 A 0.75 0.75 0 0 0 6 10.5 z M 18 10.5 A 0.75 0.75 0 0 0 17.25 11.25 L 17.25 12.75 A 5.25 5.25 0 0 1 17.103516 13.923828 L 18.302734 15.123047 A 6.751 6.751 0 0 0 18.75 12.75 L 18.75 11.25 A 0.75 0.75 0 0 0 18 10.5 z M 8.25 11.429688 L 8.25 12.75 A 3.75 3.75 0 0 0 13.125 16.304688 L 8.25 11.429688 z " /><path
     style="fill:#000000"
     d="m 3.5112917,2.4512919 a 0.75,0.75 0 0 0 -1.06,1.06 L 20.451292,21.511292 a 0.75,0.75 0 1 0 1.06,-1.06 z"
     id="path2" /></svg>
