<?xml version="1.0" encoding="UTF-8" standalone="no"?>
<svg
   viewBox="0 0 24 24"
   fill="currentColor"
   version="1.1"
   id="svg1"
   sodipodi:docname="outdent.svg"
   inkscape:version="1.3.2 (091e20e, 2023-11-25)"
   width="24"
   height="24"
   xmlns:inkscape="http://www.inkscape.org/namespaces/inkscape"
   xmlns:sodipodi="http://sodipodi.sourceforge.net/DTD/sodipodi-0.dtd"
   xmlns="http://www.w3.org/2000/svg"
   xmlns:svg="http://www.w3.org/2000/svg">
  <defs
     id="defs1" />
  <sodipodi:namedview
     id="namedview1"
     pagecolor="#ffffff"
     bordercolor="#000000"
     borderopacity="0.25"
     inkscape:showpageshadow="2"
     inkscape:pageopacity="0.0"
     inkscape:pagecheckerboard="0"
     inkscape:deskcolor="#d1d1d1"
     showgrid="true"
     inkscape:zoom="21.293452"
     inkscape:cx="8.6646355"
     inkscape:cy="7.514047"
     inkscape:window-width="2560"
     inkscape:window-height="1387"
     inkscape:window-x="1800"
     inkscape:window-y="25"
     inkscape:window-maximized="1"
     inkscape:current-layer="svg1">
    <inkscape:grid
       id="grid1"
       units="px"
       originx="0"
       originy="0"
       spacingx="0.5"
       spacingy="0.5"
       empcolor="#0099e5"
       empopacity="0.6"
       color="#0099e5"
       opacity="0.14901961"
       empspacing="2"
       dotted="false"
       gridanglex="30"
       gridanglez="30"
       visible="true" />
    <inkscape:grid
       id="grid2"
       units="px"
       originx="0"
       originy="0"
       spacingx="4"
       spacingy="4"
       empcolor="#e50000"
       empopacity="0.6"
       color="#0099e5"
       opacity="0.14901961"
       empspacing="1"
       dotted="false"
       gridanglex="30"
       gridanglez="30"
       visible="true" />
  </sodipodi:namedview>
  <path
     style="fill:#000000"
     d="M 3.7517346,5.25 A 0.74992459,0.75 0 0 0 3.00181,6 0.74992459,0.75 0 0 0 3.7517346,6.75 H 20.250076 A 0.74992459,0.75 0 0 0 21,6 0.74992459,0.75 0 0 0 20.250076,5.25 Z m 2.4997487,3.5 A 0.74992459,0.75 0 0 0 5.7202867,8.96875 l -2.4997487,2.5 a 0.74999959,0.750075 0 0 0 0,1.0625 l 2.4997487,2.5 a 0.74992459,0.75 0 0 0 1.0623932,0 0.74992459,0.75 0 0 0 0,-1.0625 L 4.8141278,12 6.7826799,10.03125 a 0.74992459,0.75 0 0 0 0,-1.0625 A 0.74992459,0.75 0 0 0 6.2514833,8.75 Z m 2.7497235,2.5 A 0.74992459,0.75 0 0 0 8.2512822,12 0.74992459,0.75 0 0 0 9.0012068,12.75 H 20.250076 A 0.74992459,0.75 0 0 0 21,12 0.74992459,0.75 0 0 0 20.250076,11.25 Z m -5.2494722,6 A 0.74992459,0.75 0 0 0 3.00181,18 0.74992459,0.75 0 0 0 3.7517346,18.75 H 20.250076 A 0.74992459,0.75 0 0 0 21,18 0.74992459,0.75 0 0 0 20.250076,17.25 Z"
     id="path1" />
</svg>
