<?xml version="1.0" encoding="UTF-8" standalone="no"?>
<svg
   viewBox="0 0 24 24"
   fill="currentColor"
   version="1.1"
   id="svg1"
   sodipodi:docname="password-pencil.svg"
   inkscape:version="1.3.2 (091e20e, 2023-11-25)"
   width="24"
   height="24"
   xmlns:inkscape="http://www.inkscape.org/namespaces/inkscape"
   xmlns:sodipodi="http://sodipodi.sourceforge.net/DTD/sodipodi-0.dtd"
   xmlns="http://www.w3.org/2000/svg"
   xmlns:svg="http://www.w3.org/2000/svg">
  <defs
     id="defs1" />
  <sodipodi:namedview
     id="namedview1"
     pagecolor="#ffffff"
     bordercolor="#000000"
     borderopacity="0.25"
     inkscape:showpageshadow="2"
     inkscape:pageopacity="0.0"
     inkscape:pagecheckerboard="0"
     inkscape:deskcolor="#d1d1d1"
     showgrid="false"
     inkscape:zoom="38.210511"
     inkscape:cx="15.820254"
     inkscape:cy="4.0303046"
     inkscape:window-width="2560"
     inkscape:window-height="1387"
     inkscape:window-x="1800"
     inkscape:window-y="25"
     inkscape:window-maximized="0"
     inkscape:current-layer="svg1"
     showguides="true">
    <inkscape:grid
       id="grid1"
       units="px"
       originx="0"
       originy="0"
       spacingx="0.25"
       spacingy="0.25"
       empcolor="#0099e5"
       empopacity="0.6"
       color="#0099e5"
       opacity="0.14901961"
       empspacing="2"
       dotted="false"
       gridanglex="30"
       gridanglez="30"
       visible="false" />
    <inkscape:grid
       id="grid2"
       units="px"
       originx="0"
       originy="0"
       spacingx="4"
       spacingy="4"
       empcolor="#e50000"
       empopacity="0.6"
       color="#0099e5"
       opacity="0.14901961"
       empspacing="1"
       dotted="false"
       gridanglex="30"
       gridanglez="30"
       visible="false" />
  </sodipodi:namedview>
  <path
     id="path1"
     style="fill:#000000"
     d="M 21.511719,5.8125 C 21.13731,5.776826 20.764017,5.9683955 20.523437,6.2089844 l -3.71289,3.7128906 c -0.310115,0.310128 -0.673391,0.774474 -0.888672,1.121094 a 0.750075,0.750075 0 0 0 -0.002,0.002 l -0.808594,1.310547 a 0.750075,0.750075 0 0 0 1.033203,1.033203 l 1.310547,-0.808594 -0.05273,0.0293 c 0.503771,-0.256716 0.893437,-0.637616 1.175781,-0.919922 L 22.291016,7.9765625 C 22.531594,7.7359971 22.723158,7.3627176 22.6875,6.9882812 22.651842,6.6138449 22.451357,6.3693053 22.291016,6.2089844 22.130694,6.0486516 21.886128,5.848174 21.511719,5.8125 Z M 5.25,7 c -1.647959,0 -3,1.3520409 -3,3 v 4 c 0,1.64793 1.3520249,3 3,3 h 13.5 c 1.647946,0 3,-1.352054 3,-3 V 10.638672 L 19.638672,12.75 c -0.278773,0.278736 -0.749144,0.755532 -1.447266,1.134766 l -1.253906,0.777343 -0.0039,0.002 c -0.909986,0.563892 -2.124827,0.332205 -2.777344,-0.320312 -0.652517,-0.652517 -0.884205,-1.867358 -0.320312,-2.777344 l 0.002,-0.002 v -0.002 l 0.583984,-0.943359 0.226563,-0.367188 c -1e-6,0 0.676245,-0.9652909 1.101562,-1.3906249 L 17.611328,7 Z M 6,9.75 c 0.4142124,0 0.75,0.335786 0.75,0.75 v 0.199219 l 0.1738281,-0.09961 c 0.3591412,-0.207552 0.8185602,-0.08417 1.0253907,0.275391 0.2075544,0.359142 0.084169,0.81856 -0.2753907,1.025391 L 7.5019531,12 l 0.171875,0.09961 C 8.0333867,12.306438 8.1567732,12.765858 7.9492188,13.125 7.7423883,13.484559 7.2829693,13.607943 6.9238281,13.400391 L 6.75,13.300781 V 13.5 c 0,0.414214 -0.3357876,0.75 -0.75,0.75 -0.4142124,0 -0.75,-0.335786 -0.75,-0.75 v -0.199219 l -0.1738281,0.09961 C 4.7170307,13.607943 4.2576117,13.484559 4.0507812,13.125 3.8432268,12.765858 3.9666133,12.30644 4.3261719,12.099609 L 4.4980469,12 4.3261719,11.900391 C 3.9666133,11.69356 3.8432268,11.234142 4.0507812,10.875 4.2576117,10.515441 4.7170307,10.392057 5.0761719,10.599609 L 5.25,10.699219 V 10.5 C 5.25,10.085786 5.5857876,9.75 6,9.75 Z m 5,0 c 0.414214,0 0.75,0.335786 0.75,0.75 v 0.199219 l 0.173828,-0.09961 c 0.359142,-0.207552 0.81856,-0.08417 1.025391,0.275391 0.207555,0.359142 0.08417,0.81856 -0.275391,1.025391 L 12.501953,12 l 0.171875,0.09961 c 0.35956,0.206831 0.482946,0.666249 0.275391,1.025391 -0.206831,0.35956 -0.666249,0.482943 -1.025391,0.275391 L 11.75,13.300781 V 13.5 c 0,0.414214 -0.335786,0.75 -0.75,0.75 -0.414214,0 -0.75,-0.335786 -0.75,-0.75 v -0.199219 l -0.173828,0.09961 C 9.7170306,13.607943 9.2576117,13.48456 9.0507812,13.125 8.8432269,12.765858 8.9666132,12.30644 9.3261719,12.099609 L 9.4980469,12 9.3261719,11.900391 C 8.9666132,11.69356 8.8432269,11.234142 9.0507812,10.875 9.2576117,10.51544 9.7170306,10.392057 10.076172,10.599609 L 10.25,10.699219 V 10.5 c 0,-0.414214 0.335786,-0.75 0.75,-0.75 z" />
</svg>
