<?xml version="1.0" encoding="UTF-8" standalone="no"?>
<svg
   viewBox="0 0 24 24"
   fill="currentColor"
   version="1.1"
   id="svg1"
   sodipodi:docname="password.svg"
   inkscape:version="1.3.2 (091e20e, 2023-11-25)"
   width="24"
   height="24"
   xmlns:inkscape="http://www.inkscape.org/namespaces/inkscape"
   xmlns:sodipodi="http://sodipodi.sourceforge.net/DTD/sodipodi-0.dtd"
   xmlns="http://www.w3.org/2000/svg"
   xmlns:svg="http://www.w3.org/2000/svg">
  <defs
     id="defs1" />
  <sodipodi:namedview
     id="namedview1"
     pagecolor="#ffffff"
     bordercolor="#000000"
     borderopacity="0.25"
     inkscape:showpageshadow="2"
     inkscape:pageopacity="0.0"
     inkscape:pagecheckerboard="0"
     inkscape:deskcolor="#d1d1d1"
     showgrid="false"
     inkscape:zoom="54.057185"
     inkscape:cx="13.402474"
     inkscape:cy="10.52589"
     inkscape:window-width="2560"
     inkscape:window-height="1387"
     inkscape:window-x="1800"
     inkscape:window-y="25"
     inkscape:window-maximized="1"
     inkscape:current-layer="svg1"
     showguides="true">
    <inkscape:grid
       id="grid1"
       units="px"
       originx="0"
       originy="0"
       spacingx="0.25"
       spacingy="0.25"
       empcolor="#0099e5"
       empopacity="0.6"
       color="#0099e5"
       opacity="0.14901961"
       empspacing="2"
       dotted="false"
       gridanglex="30"
       gridanglez="30"
       visible="false" />
    <inkscape:grid
       id="grid2"
       units="px"
       originx="0"
       originy="0"
       spacingx="4"
       spacingy="4"
       empcolor="#e50000"
       empopacity="0.6"
       color="#0099e5"
       opacity="0.14901961"
       empspacing="1"
       dotted="false"
       gridanglex="30"
       gridanglez="30"
       visible="false" />
  </sodipodi:namedview>
  <path
     id="path1"
     style="fill:#000000"
     d="M 5.25 7 C 3.6020362 7 2.25 8.3520361 2.25 10 L 2.25 14 C 2.25 15.647936 3.6020201 17 5.25 17 L 18.75 17 C 20.397952 17 21.75 15.647952 21.75 14 L 21.75 10 C 21.75 8.3520361 20.397963 7 18.75 7 L 5.25 7 z M 6.75 9.75 A 0.75 0.75 0 0 1 7.5 10.5 L 7.5 10.699219 L 7.6738281 10.599609 A 0.75 0.75 0 0 1 8.6992188 10.875 A 0.75 0.75 0 0 1 8.4238281 11.900391 L 8.2519531 12 L 8.4238281 12.099609 A 0.75 0.75 0 0 1 8.6992188 13.125 A 0.75 0.75 0 0 1 7.6738281 13.400391 L 7.5 13.300781 L 7.5 13.5 A 0.75 0.75 0 0 1 6.75 14.25 A 0.75 0.75 0 0 1 6 13.5 L 6 13.300781 L 5.8261719 13.400391 A 0.75 0.75 0 0 1 4.8007812 13.125 A 0.75 0.75 0 0 1 5.0761719 12.099609 L 5.2480469 12 L 5.0761719 11.900391 A 0.75 0.75 0 0 1 4.8007812 10.875 A 0.75 0.75 0 0 1 5.8261719 10.599609 L 6 10.699219 L 6 10.5 A 0.75 0.75 0 0 1 6.75 9.75 z M 12 9.75 A 0.75 0.75 0 0 1 12.75 10.5 L 12.75 10.699219 L 12.923828 10.599609 A 0.75 0.75 0 0 1 13.949219 10.875 A 0.75 0.75 0 0 1 13.673828 11.900391 L 13.501953 12 L 13.673828 12.099609 A 0.75 0.75 0 0 1 13.949219 13.125 A 0.75 0.75 0 0 1 12.923828 13.400391 L 12.75 13.300781 L 12.75 13.5 A 0.75 0.75 0 0 1 12 14.25 A 0.75 0.75 0 0 1 11.25 13.5 L 11.25 13.300781 L 11.076172 13.400391 A 0.75 0.75 0 0 1 10.050781 13.125 A 0.75 0.75 0 0 1 10.326172 12.099609 L 10.498047 12 L 10.326172 11.900391 A 0.75 0.75 0 0 1 10.050781 10.875 A 0.75 0.75 0 0 1 11.076172 10.599609 L 11.25 10.699219 L 11.25 10.5 A 0.75 0.75 0 0 1 12 9.75 z M 17.298828 9.75 A 0.75 0.75 0 0 1 18.048828 10.5 L 18.048828 10.699219 L 18.222656 10.599609 A 0.75 0.75 0 0 1 19.248047 10.875 A 0.75 0.75 0 0 1 18.972656 11.900391 L 18.800781 12 L 18.972656 12.099609 A 0.75 0.75 0 0 1 19.248047 13.125 A 0.75 0.75 0 0 1 18.222656 13.400391 L 18.048828 13.300781 L 18.048828 13.5 A 0.75 0.75 0 0 1 17.298828 14.25 A 0.75 0.75 0 0 1 16.548828 13.5 L 16.548828 13.300781 L 16.375 13.400391 A 0.75 0.75 0 0 1 15.349609 13.125 A 0.75 0.75 0 0 1 15.625 12.099609 L 15.796875 12 L 15.625 11.900391 A 0.75 0.75 0 0 1 15.349609 10.875 A 0.75 0.75 0 0 1 16.375 10.599609 L 16.548828 10.699219 L 16.548828 10.5 A 0.75 0.75 0 0 1 17.298828 9.75 z " />
</svg>
