<?xml version="1.0" encoding="UTF-8" standalone="no"?>
<svg
   viewBox="0 0 24 24"
   fill="currentColor"
   version="1.1"
   id="svg1"
   sodipodi:docname="photo-plus.svg"
   inkscape:version="1.3.2 (091e20e, 2023-11-25)"
   width="24"
   height="24"
   xmlns:inkscape="http://www.inkscape.org/namespaces/inkscape"
   xmlns:sodipodi="http://sodipodi.sourceforge.net/DTD/sodipodi-0.dtd"
   xmlns="http://www.w3.org/2000/svg"
   xmlns:svg="http://www.w3.org/2000/svg">
  <path
     id="path6"
     style="fill:#000000"
     d="M 19.25,1.5 A 0.75,0.75 0 0 0 18.5,2.25 V 4 H 16.75 A 0.75,0.75 0 0 0 16,4.75 0.75,0.75 0 0 0 16.75,5.5 H 18.5 V 7.25 A 0.75,0.75 0 0 0 19.25,8 0.75,0.75 0 0 0 20,7.25 V 5.5 h 1.75 A 0.75,0.75 0 0 0 22.5,4.75 0.75,0.75 0 0 0 21.75,4 H 20 V 2.25 A 0.75,0.75 0 0 0 19.25,1.5 Z M 3.75,3.75 C 2.5073636,3.75 1.5,4.7573636 1.5,6 v 12 c 0,1.242597 1.0073636,2.25 2.25,2.25 h 16.5 c 1.242597,0 2.25,-1.007403 2.25,-2.25 V 6.8613281 A 2.25,2.25 0 0 1 21.75,7 H 21.5 V 7.25 A 2.25,2.25 0 0 1 19.25,9.5 2.25,2.25 0 0 1 17,7.25 V 7 h -0.25 a 2.25,2.25 0 0 1 -2.25,-2.25 2.25,2.25 0 0 1 0.246094,-1 z m 10.5,3.375 c 0.621298,0 1.125,0.5036812 1.125,1.125 0,0.6213188 -0.503702,1.125 -1.125,1.125 -0.621298,0 -1.125,-0.5036812 -1.125,-1.125 0,-0.6213188 0.503702,-1.125 1.125,-1.125 z M 9,10.681641 c 0.3838871,0 0.7676322,0.146553 1.060547,0.439453 l 5.158203,5.160156 c 0.2929,0.2929 0.7696,0.2929 1.0625,0 0.2929,-0.2929 0.2929,-0.7696 0,-1.0625 L 15.310547,14.25 16.189453,13.371094 c 0.5858,-0.5858 1.535294,-0.5858 2.121094,0 L 21,16.060547 V 18 c 0,0.4142 -0.3358,0.75 -0.75,0.75 H 3.75 C 3.3357904,18.75 3,18.4142 3,18 V 16.060547 L 7.9394531,11.121094 C 8.2323478,10.828194 8.6161129,10.681641 9,10.681641 Z" />
  <defs
     id="defs1" />
  <sodipodi:namedview
     id="namedview1"
     pagecolor="#ffffff"
     bordercolor="#000000"
     borderopacity="0.25"
     inkscape:showpageshadow="2"
     inkscape:pageopacity="0.0"
     inkscape:pagecheckerboard="0"
     inkscape:deskcolor="#d1d1d1"
     showgrid="false"
     inkscape:zoom="17.076226"
     inkscape:cx="18.124613"
     inkscape:cy="6.734509"
     inkscape:window-width="2560"
     inkscape:window-height="1387"
     inkscape:window-x="0"
     inkscape:window-y="25"
     inkscape:window-maximized="0"
     inkscape:current-layer="svg1">
    <inkscape:grid
       id="grid1"
       units="px"
       originx="0"
       originy="0"
       spacingx="0.25"
       spacingy="0.25"
       empcolor="#0099e5"
       empopacity="0.6"
       color="#0099e5"
       opacity="0.14901961"
       empspacing="2"
       dotted="false"
       gridanglex="30"
       gridanglez="30"
       visible="false" />
    <inkscape:grid
       id="grid2"
       units="px"
       originx="0"
       originy="0"
       spacingx="4"
       spacingy="4"
       empcolor="#e50000"
       empopacity="0.6"
       color="#0099e5"
       opacity="0.14901961"
       empspacing="1"
       dotted="false"
       gridanglex="30"
       gridanglez="30"
       visible="false" />
  </sodipodi:namedview>
</svg>
