<?xml version="1.0" encoding="UTF-8" standalone="no"?>
<svg
   viewBox="0 0 24 24"
   fill="currentColor"
   version="1.1"
   id="svg1"
   sodipodi:docname="pin-slash.svg"
   inkscape:version="1.3.2 (091e20e, 2023-11-25)"
   width="24"
   height="24"
   xmlns:inkscape="http://www.inkscape.org/namespaces/inkscape"
   xmlns:sodipodi="http://sodipodi.sourceforge.net/DTD/sodipodi-0.dtd"
   xmlns="http://www.w3.org/2000/svg"
   xmlns:svg="http://www.w3.org/2000/svg">
  <defs
     id="defs1" />
  <sodipodi:namedview
     id="namedview1"
     pagecolor="#ffffff"
     bordercolor="#000000"
     borderopacity="0.25"
     inkscape:showpageshadow="2"
     inkscape:pageopacity="0.0"
     inkscape:pagecheckerboard="0"
     inkscape:deskcolor="#d1d1d1"
     showgrid="false"
     inkscape:zoom="6.4243983"
     inkscape:cx="21.247126"
     inkscape:cy="1.8678792"
     inkscape:window-width="2560"
     inkscape:window-height="1387"
     inkscape:window-x="1800"
     inkscape:window-y="25"
     inkscape:window-maximized="0"
     inkscape:current-layer="svg1">
    <inkscape:grid
       id="grid1"
       units="px"
       originx="0"
       originy="0"
       spacingx="0.5"
       spacingy="0.5"
       empcolor="#0099e5"
       empopacity="0.6"
       color="#0099e5"
       opacity="0.14901961"
       empspacing="2"
       dotted="false"
       gridanglex="30"
       gridanglez="30"
       visible="false" />
    <inkscape:grid
       id="grid2"
       units="px"
       originx="0"
       originy="0"
       spacingx="4"
       spacingy="4"
       empcolor="#e50000"
       empopacity="0.6"
       color="#0099e5"
       opacity="0.14901961"
       empspacing="1"
       dotted="false"
       gridanglex="30"
       gridanglez="30"
       visible="false" />
  </sodipodi:namedview>
  <path
     id="path1"
     style="fill:#000000"
     d="m 3.5112917,2.4512917 a 0.75,0.75 0 0 0 -1.06,1.06 L 20.451292,21.511292 a 0.75,0.75 0 1 0 1.06,-1.06 z M 15.804688,2.2753906 A 0.74993456,0.74991555 0 0 0 15.46875,2.4707031 l -2,2 a 0.74993456,0.74991555 0 0 0 0,1.0625 l 0.46875,0.46875 -2.378906,2.3769531 4.0625,4.0624998 2.376953,-2.378906 0.46875,0.46875 a 0.74993456,0.74991555 0 0 0 1.0625,0 l 2,-2 a 0.74993456,0.74991555 0 0 0 0,-1.0605469 l -4.998047,-5 A 0.74993456,0.74991555 0 0 0 15.804688,2.2753906 Z M 6.1386719,9.3183594 C 5.524868,9.5961477 4.9555173,9.9839477 4.4707031,10.46875 a 0.74993456,0.74991555 0 0 0 0,1.0625 L 7.9375,15 2.4707031,20.466797 a 0.74985958,0.74984056 0 0 0 0,1.0625 0.74985958,0.74984056 0 0 0 1.0625,0 L 9,16.0625 l 3.46875,3.466797 a 0.74993456,0.74991555 0 0 0 1.0625,0 c 0.484814,-0.484802 0.872595,-1.054181 1.150391,-1.667969 z" />
</svg>
