<?xml version="1.0" encoding="UTF-8" standalone="no"?>
<svg
   viewBox="0 0 24 24"
   fill="currentColor"
   version="1.1"
   id="svg1"
   sodipodi:docname="pin.svg"
   inkscape:version="1.3.2 (091e20e, 2023-11-25)"
   width="24"
   height="24"
   xmlns:inkscape="http://www.inkscape.org/namespaces/inkscape"
   xmlns:sodipodi="http://sodipodi.sourceforge.net/DTD/sodipodi-0.dtd"
   xmlns="http://www.w3.org/2000/svg"
   xmlns:svg="http://www.w3.org/2000/svg">
  <defs
     id="defs1" />
  <sodipodi:namedview
     id="namedview1"
     pagecolor="#ffffff"
     bordercolor="#000000"
     borderopacity="0.25"
     inkscape:showpageshadow="2"
     inkscape:pageopacity="0.0"
     inkscape:pagecheckerboard="0"
     inkscape:deskcolor="#d1d1d1"
     showgrid="true"
     inkscape:zoom="21.971286"
     inkscape:cx="6.0533553"
     inkscape:cy="15.110631"
     inkscape:window-width="2560"
     inkscape:window-height="1387"
     inkscape:window-x="1800"
     inkscape:window-y="25"
     inkscape:window-maximized="0"
     inkscape:current-layer="svg1">
    <inkscape:grid
       id="grid1"
       units="px"
       originx="0"
       originy="0"
       spacingx="0.5"
       spacingy="0.5"
       empcolor="#0099e5"
       empopacity="0.6"
       color="#0099e5"
       opacity="0.14901961"
       empspacing="2"
       dotted="false"
       gridanglex="30"
       gridanglez="30"
       visible="true" />
    <inkscape:grid
       id="grid2"
       units="px"
       originx="0"
       originy="0"
       spacingx="4"
       spacingy="4"
       empcolor="#e50000"
       empopacity="0.6"
       color="#0099e5"
       opacity="0.14901961"
       empspacing="1"
       dotted="false"
       gridanglex="30"
       gridanglez="30"
       visible="true" />
  </sodipodi:namedview>
  <path
     id="path1"
     style="fill:#000000;stroke-width:0.999994"
     d="m 15.803991,2.2757366 a 0.74993456,0.74991555 0 0 0 -0.335875,0.195271 L 13.46849,4.4705825 a 0.74993456,0.74991555 0 0 0 0,1.0622741 l 0.468662,0.4686503 -3.571597,3.5715062 C 9.5358827,9.0388432 8.5925419,8.7648239 7.6570786,8.8817539 6.4741127,9.029621 5.3378622,9.6016416 4.4701754,10.469307 a 0.74993456,0.74991555 0 0 0 0,1.062275 l 3.4681006,3.468012 -5.4677261,5.467588 a 0.74985958,0.74984056 0 0 0 0,1.062274 0.74985958,0.74984056 0 0 0 1.0623011,0 l 5.467726,-5.467588 3.4681,3.468013 a 0.74993456,0.74991555 0 0 0 1.062301,0 c 0.867687,-0.867665 1.439723,-2.003886 1.587594,-3.186823 0.116933,-0.935439 -0.157092,-1.878756 -0.691277,-2.708408 l 3.571597,-3.571506 0.468662,0.46865 a 0.74993456,0.74991555 0 0 0 1.062301,0 l 1.999626,-1.9995752 a 0.74993456,0.74991555 0 0 0 0,-1.0622741 L 16.530417,2.4710076 a 0.74993456,0.74991555 0 0 0 -0.726426,-0.195271 z" />
</svg>
