<?xml version="1.0" encoding="UTF-8" standalone="no"?>
<svg
   viewBox="0 0 24 24"
   fill="currentColor"
   version="1.1"
   id="svg1"
   sodipodi:docname="radial-rays.svg"
   inkscape:version="1.3.2 (091e20e, 2023-11-25)"
   width="24"
   height="24"
   xmlns:inkscape="http://www.inkscape.org/namespaces/inkscape"
   xmlns:sodipodi="http://sodipodi.sourceforge.net/DTD/sodipodi-0.dtd"
   xmlns="http://www.w3.org/2000/svg"
   xmlns:svg="http://www.w3.org/2000/svg">
  <defs
     id="defs1">
    <inkscape:path-effect
       effect="mirror_symmetry"
       start_point="13.093381,7.925489"
       end_point="13.593381,11.894116"
       center_point="13.343381,9.9098025"
       id="path-effect3"
       is_visible="true"
       lpeversion="1.2"
       lpesatellites=""
       mode="free"
       discard_orig_path="false"
       fuse_paths="false"
       oposite_fuse="false"
       split_items="false"
       split_open="false"
       link_styles="false" />
    <inkscape:path-effect
       effect="mirror_symmetry"
       start_point="12,17.496996"
       end_point="12,24.996996"
       center_point="12,21.246996"
       id="path-effect2"
       is_visible="true"
       lpeversion="1.2"
       lpesatellites=""
       mode="free"
       discard_orig_path="false"
       fuse_paths="false"
       oposite_fuse="false"
       split_items="false"
       split_open="false"
       link_styles="false" />
  </defs>
  <sodipodi:namedview
     id="namedview1"
     pagecolor="#ffffff"
     bordercolor="#000000"
     borderopacity="0.25"
     inkscape:showpageshadow="2"
     inkscape:pageopacity="0.0"
     inkscape:pagecheckerboard="0"
     inkscape:deskcolor="#d1d1d1"
     showgrid="true"
     inkscape:zoom="30.698833"
     inkscape:cx="11.694256"
     inkscape:cy="10.651871"
     inkscape:window-width="2560"
     inkscape:window-height="1387"
     inkscape:window-x="1512"
     inkscape:window-y="25"
     inkscape:window-maximized="1"
     inkscape:current-layer="svg1">
    <inkscape:grid
       id="grid1"
       units="px"
       originx="0"
       originy="0"
       spacingx="0.25"
       spacingy="0.25"
       empcolor="#0099e5"
       empopacity="0.6"
       color="#0099e5"
       opacity="0.14901961"
       empspacing="2"
       dotted="false"
       gridanglex="30"
       gridanglez="30"
       visible="true"
       snapvisiblegridlinesonly="false"
       enabled="true" />
    <inkscape:grid
       id="grid2"
       units="px"
       originx="0"
       originy="0"
       spacingx="4"
       spacingy="4"
       empcolor="#e50000"
       empopacity="0.6"
       color="#0099e5"
       opacity="0.14901961"
       empspacing="1"
       dotted="false"
       gridanglex="30"
       gridanglez="30"
       visible="true"
       snapvisiblegridlinesonly="false"
       enabled="true" />
  </sodipodi:namedview>
  <path
     style="fill:#000000"
     d="M 11.75,2 A 0.75,0.75 0 0 0 11,2.75 v 3.5 A 0.75,0.75 0 0 0 11.75,7 0.75,0.75 0 0 0 12.5,6.25 V 2.75 A 0.75,0.75 0 0 0 11.75,2 Z M 5.3867187,4.6367187 a 0.75,0.75 0 0 0 -0.53125,0.21875 0.75,0.75 0 0 0 0,1.0605469 L 7.3300781,8.390625 a 0.75,0.75 0 0 0 1.0605469,0 0.75,0.75 0 0 0 0,-1.0605469 L 5.9160156,4.8554687 a 0.75,0.75 0 0 0 -0.5292969,-0.21875 z m 12.7265623,0 a 0.75,0.75 0 0 0 -0.529297,0.21875 l -2.474609,2.4746094 a 0.75,0.75 0 0 0 0,1.0605469 0.75,0.75 0 0 0 1.060547,0 l 2.474609,-2.4746094 a 0.75,0.75 0 0 0 0,-1.0605469 0.75,0.75 0 0 0 -0.53125,-0.21875 z M 2.75,11 A 0.75,0.75 0 0 0 2,11.75 0.75,0.75 0 0 0 2.75,12.5 h 3.5 A 0.75,0.75 0 0 0 7,11.75 0.75,0.75 0 0 0 6.25,11 Z m 14.5,0 a 0.75,0.75 0 0 0 -0.75,0.75 0.75,0.75 0 0 0 0.75,0.75 h 3.5 A 0.75,0.75 0 0 0 21.5,11.75 0.75,0.75 0 0 0 20.75,11 Z m -9.3886719,3.888672 a 0.75,0.75 0 0 0 -0.53125,0.220703 l -2.4746094,2.474609 a 0.75,0.75 0 0 0 0,1.060547 0.75,0.75 0 0 0 1.0605469,0 L 8.390625,16.169922 a 0.75,0.75 0 0 0 0,-1.060547 0.75,0.75 0 0 0 -0.5292969,-0.220703 z m 7.7773439,0 a 0.75,0.75 0 0 0 -0.529297,0.220703 0.75,0.75 0 0 0 0,1.060547 l 2.474609,2.474609 a 0.75,0.75 0 0 0 1.060547,0 0.75,0.75 0 0 0 0,-1.060547 l -2.474609,-2.474609 a 0.75,0.75 0 0 0 -0.53125,-0.220703 z M 11.75,16.5 A 0.75,0.75 0 0 0 11,17.25 v 3.5 a 0.75,0.75 0 0 0 0.75,0.75 0.75,0.75 0 0 0 0.75,-0.75 v -3.5 A 0.75,0.75 0 0 0 11.75,16.5 Z"
     id="path1" />
</svg>
