<?xml version="1.0" encoding="UTF-8" standalone="no"?>
<svg
   viewBox="0 0 24 24"
   fill="currentColor"
   version="1.1"
   id="svg1"
   sodipodi:docname="radial-rays.svg"
   inkscape:version="1.3.2 (091e20e, 2023-11-25)"
   width="24"
   height="24"
   xmlns:inkscape="http://www.inkscape.org/namespaces/inkscape"
   xmlns:sodipodi="http://sodipodi.sourceforge.net/DTD/sodipodi-0.dtd"
   xmlns="http://www.w3.org/2000/svg"
   xmlns:svg="http://www.w3.org/2000/svg">
  <defs
     id="defs1">
    <inkscape:path-effect
       effect="mirror_symmetry"
       start_point="13.093381,7.925489"
       end_point="13.593381,11.894116"
       center_point="13.343381,9.9098025"
       id="path-effect3"
       is_visible="true"
       lpeversion="1.2"
       lpesatellites=""
       mode="free"
       discard_orig_path="false"
       fuse_paths="false"
       oposite_fuse="false"
       split_items="false"
       split_open="false"
       link_styles="false" />
    <inkscape:path-effect
       effect="mirror_symmetry"
       start_point="12,17.496996"
       end_point="12,24.996996"
       center_point="12,21.246996"
       id="path-effect2"
       is_visible="true"
       lpeversion="1.2"
       lpesatellites=""
       mode="free"
       discard_orig_path="false"
       fuse_paths="false"
       oposite_fuse="false"
       split_items="false"
       split_open="false"
       link_styles="false" />
  </defs>
  <sodipodi:namedview
     id="namedview1"
     pagecolor="#ffffff"
     bordercolor="#000000"
     borderopacity="0.25"
     inkscape:showpageshadow="2"
     inkscape:pageopacity="0.0"
     inkscape:pagecheckerboard="0"
     inkscape:deskcolor="#d1d1d1"
     showgrid="true"
     inkscape:zoom="25.402943"
     inkscape:cx="10.490911"
     inkscape:cy="11.140442"
     inkscape:window-width="1800"
     inkscape:window-height="1097"
     inkscape:window-x="0"
     inkscape:window-y="44"
     inkscape:window-maximized="1"
     inkscape:current-layer="svg1">
    <inkscape:grid
       id="grid1"
       units="px"
       originx="0"
       originy="0"
       spacingx="0.25"
       spacingy="0.25"
       empcolor="#0099e5"
       empopacity="0.6"
       color="#0099e5"
       opacity="0.14901961"
       empspacing="2"
       dotted="false"
       gridanglex="30"
       gridanglez="30"
       visible="true"
       snapvisiblegridlinesonly="false"
       enabled="true" />
    <inkscape:grid
       id="grid2"
       units="px"
       originx="0"
       originy="0"
       spacingx="4"
       spacingy="4"
       empcolor="#e50000"
       empopacity="0.6"
       color="#0099e5"
       opacity="0.14901961"
       empspacing="1"
       dotted="false"
       gridanglex="30"
       gridanglez="30"
       visible="true"
       snapvisiblegridlinesonly="false"
       enabled="true" />
  </sodipodi:namedview>
  <path
     style="fill:#000000"
     d="M 12,2.25 A 0.75,0.75 0 0 0 11.25,3 V 6.5 A 0.75,0.75 0 0 0 12,7.25 0.75,0.75 0 0 0 12.75,6.5 V 3 A 0.75,0.75 0 0 0 12,2.25 Z M 5.6367187,4.8867187 a 0.75,0.75 0 0 0 -0.53125,0.21875 0.75,0.75 0 0 0 0,1.0605469 L 7.5800781,8.640625 a 0.75,0.75 0 0 0 1.0605469,0 0.75,0.75 0 0 0 0,-1.0605469 L 6.1660156,5.1054687 a 0.75,0.75 0 0 0 -0.5292969,-0.21875 z m 12.7265623,0 a 0.75,0.75 0 0 0 -0.529297,0.21875 l -2.474609,2.4746094 a 0.75,0.75 0 0 0 0,1.0605469 0.75,0.75 0 0 0 1.060547,0 l 2.474609,-2.4746094 a 0.75,0.75 0 0 0 0,-1.0605469 0.75,0.75 0 0 0 -0.53125,-0.21875 z M 3,11.25 A 0.75,0.75 0 0 0 2.25,12 0.75,0.75 0 0 0 3,12.75 H 6.5 A 0.75,0.75 0 0 0 7.25,12 0.75,0.75 0 0 0 6.5,11.25 Z m 14.5,0 A 0.75,0.75 0 0 0 16.75,12 0.75,0.75 0 0 0 17.5,12.75 H 21 A 0.75,0.75 0 0 0 21.75,12 0.75,0.75 0 0 0 21,11.25 Z m -9.3886719,3.888672 a 0.75,0.75 0 0 0 -0.53125,0.220703 l -2.4746094,2.474609 a 0.75,0.75 0 0 0 0,1.060547 0.75,0.75 0 0 0 1.0605469,0 L 8.640625,16.419922 a 0.75,0.75 0 0 0 0,-1.060547 0.75,0.75 0 0 0 -0.5292969,-0.220703 z m 7.7773439,0 a 0.75,0.75 0 0 0 -0.529297,0.220703 0.75,0.75 0 0 0 0,1.060547 l 2.474609,2.474609 a 0.75,0.75 0 0 0 1.060547,0 0.75,0.75 0 0 0 0,-1.060547 l -2.474609,-2.474609 a 0.75,0.75 0 0 0 -0.53125,-0.220703 z M 12,16.75 A 0.75,0.75 0 0 0 11.25,17.5 V 21 A 0.75,0.75 0 0 0 12,21.75 0.75,0.75 0 0 0 12.75,21 V 17.5 A 0.75,0.75 0 0 0 12,16.75 Z"
     id="path1" />
</svg>
