<?xml version="1.0" encoding="UTF-8" standalone="no"?>
<svg
   viewBox="0 0 24 24"
   fill="currentColor"
   version="1.1"
   id="svg1"
   sodipodi:docname="shield.svg"
   inkscape:version="1.3.2 (091e20e, 2023-11-25)"
   width="24"
   height="24"
   xmlns:inkscape="http://www.inkscape.org/namespaces/inkscape"
   xmlns:sodipodi="http://sodipodi.sourceforge.net/DTD/sodipodi-0.dtd"
   xmlns="http://www.w3.org/2000/svg"
   xmlns:svg="http://www.w3.org/2000/svg"><defs
     id="defs1" /><sodipodi:namedview
     id="namedview1"
     pagecolor="#ffffff"
     bordercolor="#000000"
     borderopacity="0.25"
     inkscape:showpageshadow="2"
     inkscape:pageopacity="0.0"
     inkscape:pagecheckerboard="0"
     inkscape:deskcolor="#d1d1d1"
     showgrid="true"
     inkscape:zoom="14.140462"
     inkscape:cx="5.4807262"
     inkscape:cy="2.4044476"
     inkscape:window-width="1800"
     inkscape:window-height="1097"
     inkscape:window-x="0"
     inkscape:window-y="44"
     inkscape:window-maximized="1"
     inkscape:current-layer="svg1"><inkscape:grid
       id="grid1"
       units="px"
       originx="0"
       originy="0"
       spacingx="0.5"
       spacingy="0.5"
       empcolor="#0099e5"
       empopacity="0.6"
       color="#0099e5"
       opacity="0.14901961"
       empspacing="2"
       dotted="false"
       gridanglex="30"
       gridanglez="30"
       visible="true" /><inkscape:grid
       id="grid2"
       units="px"
       originx="0"
       originy="0"
       spacingx="4"
       spacingy="4"
       empcolor="#e50000"
       empopacity="0.6"
       color="#0099e5"
       opacity="0.14901961"
       empspacing="1"
       dotted="false"
       gridanglex="30"
       gridanglez="30"
       visible="true" /></sodipodi:namedview><path
     d="m 12.516003,2.1269988 c -0.289324,-0.2742893 -0.742676,-0.2742893 -1.032,0 -2.1227312,2.015881 -4.9498755,3.1213279 -7.8769997,3.08 -0.3272549,-0.00425 -0.6194791,0.2041892 -0.722,0.515 -0.422027,1.2861636 -0.6363819,2.6313672 -0.635,3.985 0,5.9420002 4.064,10.9330002 9.5629997,12.3480002 0.122661,0.03163 0.251339,0.03163 0.374,0 5.499,-1.415 9.563,-6.406 9.563,-12.3480002 0,-1.39 -0.223,-2.73 -0.635,-3.985 -0.102169,-0.3112065 -0.394477,-0.5201136 -0.722,-0.516 l -0.143,0.001 c -2.996,0 -5.717,-1.17 -7.734,-3.08 z"
     id="path1"
     style="fill:#000000" /></svg>
