<?xml version="1.0" encoding="UTF-8" standalone="no"?>
<svg
   viewBox="0 0 24 24"
   fill="currentColor"
   version="1.1"
   id="svg1"
   sodipodi:docname="cookie.svg"
   inkscape:version="1.3.2 (091e20e, 2023-11-25)"
   width="24"
   height="24"
   xmlns:inkscape="http://www.inkscape.org/namespaces/inkscape"
   xmlns:sodipodi="http://sodipodi.sourceforge.net/DTD/sodipodi-0.dtd"
   xmlns="http://www.w3.org/2000/svg"
   xmlns:svg="http://www.w3.org/2000/svg"><defs
     id="defs1"><inkscape:path-effect
       effect="mirror_symmetry"
       start_point="13.093381,7.925489"
       end_point="13.593381,11.894116"
       center_point="13.343381,9.9098025"
       id="path-effect3"
       is_visible="true"
       lpeversion="1.2"
       lpesatellites=""
       mode="free"
       discard_orig_path="false"
       fuse_paths="false"
       oposite_fuse="false"
       split_items="false"
       split_open="false"
       link_styles="false" /><inkscape:path-effect
       effect="mirror_symmetry"
       start_point="12,17.496996"
       end_point="12,24.996996"
       center_point="12,21.246996"
       id="path-effect2"
       is_visible="true"
       lpeversion="1.2"
       lpesatellites=""
       mode="free"
       discard_orig_path="false"
       fuse_paths="false"
       oposite_fuse="false"
       split_items="false"
       split_open="false"
       link_styles="false" /></defs><sodipodi:namedview
     id="namedview1"
     pagecolor="#ffffff"
     bordercolor="#000000"
     borderopacity="0.25"
     inkscape:showpageshadow="2"
     inkscape:pageopacity="0.0"
     inkscape:pagecheckerboard="0"
     inkscape:deskcolor="#d1d1d1"
     showgrid="true"
     inkscape:zoom="39.163718"
     inkscape:cx="9.5624219"
     inkscape:cy="12.613715"
     inkscape:window-width="2560"
     inkscape:window-height="1387"
     inkscape:window-x="1800"
     inkscape:window-y="25"
     inkscape:window-maximized="0"
     inkscape:current-layer="svg1"
     showguides="false"><inkscape:grid
       id="grid1"
       units="px"
       originx="0"
       originy="0"
       spacingx="0.5"
       spacingy="0.5"
       empcolor="#0099e5"
       empopacity="0.6"
       color="#0099e5"
       opacity="0.14901961"
       empspacing="2"
       dotted="false"
       gridanglex="30"
       gridanglez="30"
       visible="true"
       snapvisiblegridlinesonly="false"
       enabled="true" /><inkscape:grid
       id="grid2"
       units="px"
       originx="0"
       originy="0"
       spacingx="4"
       spacingy="4"
       empcolor="#e50000"
       empopacity="0.6"
       color="#0099e5"
       opacity="0.14901961"
       empspacing="1"
       dotted="false"
       gridanglex="30"
       gridanglez="30"
       visible="true"
       snapvisiblegridlinesonly="false"
       enabled="true" /></sodipodi:namedview><path
     id="path1"
     style="fill:none;stroke:#000000;stroke-width:1.5;stroke-linecap:round;stroke-linejoin:round"
     d="M 11.601562,3.0089914 C 6.8161557,3.2177545 3,7.1623734 3,11.999226 c 0,4.970551 4.029452,9 9,9 4.836849,0 8.78147,-3.816151 8.990234,-8.601562 -0.500818,0.525017 -1.207369,0.851562 -1.990234,0.851562 -1.214981,0 -2.245547,-0.788114 -2.609375,-1.880859 -0.408487,0.240406 -0.882362,0.380859 -1.390625,0.380859 -1.518779,0 -2.75,-1.23122 -2.75,-2.7500002 0,-0.508334 0.138437,-0.984054 0.378906,-1.3925781 C 11.537322,7.2421601 10.75,6.2133776 10.75,4.9992258 c 0,-0.7828622 0.326547,-1.489417 0.851562,-1.9902344 z M 19,9.4992258 v 0 m -1,-3.5 v 0 m -2.5,2.5 v 0 m -1,-3.5 v 0 m -6,2.5 v 0 m -2,7.0000002 v 0 m 3,1.509774 h 1.25 m -4.0625,-5.796299 1.125,1 m 7.214256,4.546299 0.946489,-1 M 13,18.009 v 0 m -2,-5.009774 v 0"
     stroke-linecap="round"
     stroke-linejoin="round" /></svg>
