<?xml version="1.0" encoding="UTF-8" standalone="no"?>
<svg
   viewBox="0 0 24 24"
   fill="currentColor"
   version="1.1"
   id="svg1"
   sodipodi:docname="dots-3x2.svg"
   inkscape:version="1.3.2 (091e20e, 2023-11-25)"
   width="24"
   height="24"
   xmlns:inkscape="http://www.inkscape.org/namespaces/inkscape"
   xmlns:sodipodi="http://sodipodi.sourceforge.net/DTD/sodipodi-0.dtd"
   xmlns="http://www.w3.org/2000/svg"
   xmlns:svg="http://www.w3.org/2000/svg">
  <defs
     id="defs1">
    <inkscape:path-effect
       effect="mirror_symmetry"
       start_point="13.093381,7.925489"
       end_point="13.593381,11.894116"
       center_point="13.343381,9.9098025"
       id="path-effect3"
       is_visible="true"
       lpeversion="1.2"
       lpesatellites=""
       mode="free"
       discard_orig_path="false"
       fuse_paths="false"
       oposite_fuse="false"
       split_items="false"
       split_open="false"
       link_styles="false" />
    <inkscape:path-effect
       effect="mirror_symmetry"
       start_point="12,17.496996"
       end_point="12,24.996996"
       center_point="12,21.246996"
       id="path-effect2"
       is_visible="true"
       lpeversion="1.2"
       lpesatellites=""
       mode="free"
       discard_orig_path="false"
       fuse_paths="false"
       oposite_fuse="false"
       split_items="false"
       split_open="false"
       link_styles="false" />
  </defs>
  <sodipodi:namedview
     id="namedview1"
     pagecolor="#ffffff"
     bordercolor="#000000"
     borderopacity="0.25"
     inkscape:showpageshadow="2"
     inkscape:pageopacity="0.0"
     inkscape:pagecheckerboard="0"
     inkscape:deskcolor="#d1d1d1"
     showgrid="true"
     inkscape:zoom="30.225629"
     inkscape:cx="11.430697"
     inkscape:cy="8.9328166"
     inkscape:window-width="2560"
     inkscape:window-height="1387"
     inkscape:window-x="1800"
     inkscape:window-y="25"
     inkscape:window-maximized="0"
     inkscape:current-layer="svg1">
    <inkscape:grid
       id="grid1"
       units="px"
       originx="0"
       originy="0"
       spacingx="0.5"
       spacingy="0.5"
       empcolor="#0099e5"
       empopacity="0.6"
       color="#0099e5"
       opacity="0.14901961"
       empspacing="2"
       dotted="false"
       gridanglex="30"
       gridanglez="30"
       visible="true"
       snapvisiblegridlinesonly="false"
       enabled="true" />
    <inkscape:grid
       id="grid2"
       units="px"
       originx="0"
       originy="0"
       spacingx="4"
       spacingy="4"
       empcolor="#e50000"
       empopacity="0.6"
       color="#0099e5"
       opacity="0.14901961"
       empspacing="1"
       dotted="false"
       gridanglex="30"
       gridanglez="30"
       visible="true"
       snapvisiblegridlinesonly="false"
       enabled="true" />
  </sodipodi:namedview>
  <path
     id="path1"
     style="fill:none;stroke:#000000;stroke-width:1.5;stroke-linecap:round;stroke-linejoin:round"
     d="m 4.9999999,9.25 a 0.75,0.75 0 0 1 -0.75,-0.75 0.75,0.75 0 0 1 0.75,-0.75 0.75,0.75 0 0 1 0.75,0.75 0.75,0.75 0 0 1 -0.75,0.75 z m 0,0.75 a 1.5,1.5 0 0 1 -1.5,-1.5 1.5,1.5 0 0 1 1.5,-1.5 1.5,1.5 0 0 1 1.5,1.5 1.5,1.5 0 0 1 -1.5,1.5 z M 12,16.25 A 0.75,0.75 0 0 1 11.25,15.5 0.75,0.75 0 0 1 12,14.75 0.75,0.75 0 0 1 12.75,15.5 0.75,0.75 0 0 1 12,16.25 Z M 12,17 A 1.5,1.5 0 0 1 10.5,15.5 1.5,1.5 0 0 1 12,14 1.5,1.5 0 0 1 13.5,15.5 1.5,1.5 0 0 1 12,17 Z m 0,-7.7500001 a 0.75,0.75 0 0 1 -0.75,-0.75 0.75,0.75 0 0 1 0.75,-0.75 0.75,0.75 0 0 1 0.75,0.75 0.75,0.75 0 0 1 -0.75,0.75 z m 0,0.75 A 1.5,1.5 0 0 1 10.5,8.5 1.5,1.5 0 0 1 12,6.9999999 1.5,1.5 0 0 1 13.5,8.5 1.5,1.5 0 0 1 12,9.9999999 Z M 19,16.25 A 0.75,0.75 0 0 1 18.25,15.5 0.75,0.75 0 0 1 19,14.75 0.75,0.75 0 0 1 19.75,15.5 0.75,0.75 0 0 1 19,16.25 Z M 19,17 A 1.5,1.5 0 0 1 17.5,15.5 1.5,1.5 0 0 1 19,14 1.5,1.5 0 0 1 20.5,15.5 1.5,1.5 0 0 1 19,17 Z M 19,9.25 A 0.75,0.75 0 0 1 18.25,8.5 0.75,0.75 0 0 1 19,7.75 0.75,0.75 0 0 1 19.75,8.5 0.75,0.75 0 0 1 19,9.25 Z M 19,10 A 1.5,1.5 0 0 1 17.5,8.5000001 1.5,1.5 0 0 1 19,7 1.5,1.5 0 0 1 20.5,8.5000001 1.5,1.5 0 0 1 19,10 Z M 4.9999999,16.25 a 0.75,0.75 0 0 1 -0.75,-0.75 0.75,0.75 0 0 1 0.75,-0.75 0.75,0.75 0 0 1 0.75,0.75 0.75,0.75 0 0 1 -0.75,0.75 z m 0,0.75 a 1.5,1.5 0 0 1 -1.5,-1.5 1.5,1.5 0 0 1 1.5,-1.5 1.5,1.5 0 0 1 1.5,1.5 1.5,1.5 0 0 1 -1.5,1.5 z"
     stroke-linecap="round"
     stroke-linejoin="round" />
</svg>
