<?xml version="1.0" encoding="UTF-8" standalone="no"?>
<svg
   viewBox="0 0 24 24"
   fill="currentColor"
   version="1.1"
   id="svg1"
   sodipodi:docname="headphones-slash.svg"
   inkscape:version="1.3.2 (091e20e, 2023-11-25)"
   width="24"
   height="24"
   xml:space="preserve"
   xmlns:inkscape="http://www.inkscape.org/namespaces/inkscape"
   xmlns:sodipodi="http://sodipodi.sourceforge.net/DTD/sodipodi-0.dtd"
   xmlns="http://www.w3.org/2000/svg"
   xmlns:svg="http://www.w3.org/2000/svg"><defs
     id="defs1" /><sodipodi:namedview
     id="namedview1"
     pagecolor="#ffffff"
     bordercolor="#000000"
     borderopacity="0.25"
     inkscape:showpageshadow="2"
     inkscape:pageopacity="0.0"
     inkscape:pagecheckerboard="0"
     inkscape:deskcolor="#d1d1d1"
     showgrid="false"
     inkscape:zoom="16.414811"
     inkscape:cx="5.0259488"
     inkscape:cy="5.970218"
     inkscape:window-width="2560"
     inkscape:window-height="1387"
     inkscape:window-x="1800"
     inkscape:window-y="25"
     inkscape:window-maximized="1"
     inkscape:current-layer="svg1"><inkscape:grid
       id="grid1"
       units="px"
       originx="0"
       originy="0"
       spacingx="0.5"
       spacingy="0.5"
       empcolor="#0099e5"
       empopacity="0.6"
       color="#0099e5"
       opacity="0.14901961"
       empspacing="2"
       dotted="false"
       gridanglex="30"
       gridanglez="30"
       visible="false" /><inkscape:grid
       id="grid2"
       units="px"
       originx="0"
       originy="0"
       spacingx="4"
       spacingy="4"
       empcolor="#e50000"
       empopacity="0.6"
       color="#0099e5"
       opacity="0.14901961"
       empspacing="1"
       dotted="false"
       gridanglex="30"
       gridanglez="30"
       visible="false" /></sodipodi:namedview><path
     id="path1"
     style="fill:none;stroke:#000000;stroke-width:1.5;stroke-linecap:round;stroke-linejoin:round"
     d="M 21,21 3,3 m 13.030655,13.030512 0.859622,-3.20826 c 2.550632,0.683462 4.289573,1.377804 3.376095,4.787064 -0.217077,0.810167 -0.487217,1.412665 -0.80717,1.851268 m -0.140374,-5.726176 a 7.7499056,7.7023072 0 0 0 -2.719888,-8.732571 7.7499056,7.7023072 0 0 0 -9.19788,0 7.7499056,7.7023072 0 0 0 -1.2526893,1.1494614 M 7.109723,12.822252 c -2.5506324,0.683462 -4.2895731,1.377803 -3.376095,4.787064 0.9134791,3.409256 2.7666056,3.141077 5.317237,2.457614 L 8.080294,16.444591 7.109723,12.822252 v 0 M 4.6765749,8.6815034 a 7.7499056,7.7023072 0 0 0 0.0046,5.0529046 M 16.402013,20.402465 C 15.947272,20.325144 15.46232,20.204443 14.949135,20.06693 l 0.236112,-0.881211"
     stroke-linecap="round"
     stroke-linejoin="round" /></svg>
