<?xml version="1.0" encoding="UTF-8" standalone="no"?>
<svg
   viewBox="0 0 24 24"
   fill="currentColor"
   version="1.1"
   id="svg1"
   sodipodi:docname="mask.svg"
   inkscape:version="1.3.2 (091e20e, 2023-11-25)"
   width="24"
   height="24"
   xmlns:inkscape="http://www.inkscape.org/namespaces/inkscape"
   xmlns:sodipodi="http://sodipodi.sourceforge.net/DTD/sodipodi-0.dtd"
   xmlns="http://www.w3.org/2000/svg"
   xmlns:svg="http://www.w3.org/2000/svg">
  <defs
     id="defs1">
    <inkscape:path-effect
       effect="mirror_symmetry"
       start_point="13.093381,7.925489"
       end_point="13.593381,11.894116"
       center_point="13.343381,9.9098025"
       id="path-effect3"
       is_visible="true"
       lpeversion="1.2"
       lpesatellites=""
       mode="free"
       discard_orig_path="false"
       fuse_paths="false"
       oposite_fuse="false"
       split_items="false"
       split_open="false"
       link_styles="false" />
    <inkscape:path-effect
       effect="mirror_symmetry"
       start_point="12,17.496996"
       end_point="12,24.996996"
       center_point="12,21.246996"
       id="path-effect2"
       is_visible="true"
       lpeversion="1.2"
       lpesatellites=""
       mode="free"
       discard_orig_path="false"
       fuse_paths="false"
       oposite_fuse="false"
       split_items="false"
       split_open="false"
       link_styles="false" />
  </defs>
  <sodipodi:namedview
     id="namedview1"
     pagecolor="#ffffff"
     bordercolor="#000000"
     borderopacity="0.25"
     inkscape:showpageshadow="2"
     inkscape:pageopacity="0.0"
     inkscape:pagecheckerboard="0"
     inkscape:deskcolor="#d1d1d1"
     showgrid="true"
     inkscape:zoom="39.659038"
     inkscape:cx="8.8252267"
     inkscape:cy="10.817206"
     inkscape:window-width="1800"
     inkscape:window-height="1097"
     inkscape:window-x="0"
     inkscape:window-y="44"
     inkscape:window-maximized="1"
     inkscape:current-layer="svg1">
    <inkscape:grid
       id="grid1"
       units="px"
       originx="0"
       originy="0"
       spacingx="0.5"
       spacingy="0.5"
       empcolor="#0099e5"
       empopacity="0.6"
       color="#0099e5"
       opacity="0.14901961"
       empspacing="2"
       dotted="false"
       gridanglex="30"
       gridanglez="30"
       visible="true"
       snapvisiblegridlinesonly="false"
       enabled="true" />
    <inkscape:grid
       id="grid2"
       units="px"
       originx="0"
       originy="0"
       spacingx="4"
       spacingy="4"
       empcolor="#e50000"
       empopacity="0.6"
       color="#0099e5"
       opacity="0.14901961"
       empspacing="1"
       dotted="false"
       gridanglex="30"
       gridanglez="30"
       visible="true"
       snapvisiblegridlinesonly="false"
       enabled="true" />
  </sodipodi:namedview>
  <path
     style="fill:none;stroke:#000000;stroke-width:1.5;stroke-linecap:round;stroke-linejoin:round;stroke-dasharray:none;stroke-opacity:1"
     d="m 12,8.9180285 c 0,0 -2.6058364,-1.1782196 -4,-1.4180285 -1.8067992,-0.310786 -3.8333333,0 -5.5,0 0,0 -0.3713907,3.219324 0,4.76291 0.2571344,1.068711 0.7164642,2.165794 1.5,2.936724 0.6616214,0.650977 1.5902794,1.042043 2.5,1.226223 1.308908,0.264998 2.7777807,0.311963 4,-0.226223 0.639319,-0.281514 1.5,-1.463492 1.5,-1.463492 m 0,-5.8181135 c 0,0 2.605836,-1.1782196 4,-1.4180285 1.806799,-0.310786 3.833333,0 5.5,0 0,0 0.371391,3.219324 0,4.76291 -0.257134,1.068711 -0.716464,2.165794 -1.5,2.936724 -0.661621,0.650977 -1.590279,1.042043 -2.5,1.226223 -1.308908,0.264998 -2.777781,0.311963 -4,-0.226223 C 12.860681,15.91812 12,14.736142 12,14.736142"
     id="path2"
     sodipodi:nodetypes="cacaaaac"
     stroke-linecap="round"
     stroke-linejoin="round" />
  <path
     id="path3"
     d="m 9.9311014,12.250093 c -0.095267,0.756158 -1.0612325,1.257175 -2.1575447,1.119053 -1.0963119,-0.138123 -1.9078191,-0.86308 -1.8125521,-1.619238 0.095267,-0.756159 1.0612325,-1.257176 2.1575443,-1.119054 1.0963123,0.138123 1.9078191,0.863081 1.8125525,1.619239 z m 4.1377976,0 c 0.09527,0.756159 1.061233,1.257175 2.157545,1.119053 1.096312,-0.138123 1.907818,-0.86308 1.812552,-1.619238 -0.09527,-0.756159 -1.061233,-1.257176 -2.157545,-1.119054 -1.096312,0.138123 -1.907819,0.86308 -1.812552,1.619239 z"
     style="display:inline;fill:none;stroke:#000000;stroke-width:1.5;stroke-linecap:round;stroke-linejoin:round;stroke-dasharray:none;stroke-opacity:1;image-rendering:auto"
     inkscape:label="path3"
     stroke-linecap="round"
     stroke-linejoin="round" />
</svg>
