<?xml version="1.0" encoding="UTF-8" standalone="no"?>
<svg
   viewBox="0 0 24 24"
   fill="currentColor"
   version="1.1"
   id="svg1"
   sodipodi:docname="microphone-slash.svg"
   inkscape:version="1.3.2 (091e20e, 2023-11-25)"
   width="24"
   height="24"
   xml:space="preserve"
   xmlns:inkscape="http://www.inkscape.org/namespaces/inkscape"
   xmlns:sodipodi="http://sodipodi.sourceforge.net/DTD/sodipodi-0.dtd"
   xmlns="http://www.w3.org/2000/svg"
   xmlns:svg="http://www.w3.org/2000/svg"><defs
     id="defs1" /><sodipodi:namedview
     id="namedview1"
     pagecolor="#ffffff"
     bordercolor="#000000"
     borderopacity="0.25"
     inkscape:showpageshadow="2"
     inkscape:pageopacity="0.0"
     inkscape:pagecheckerboard="0"
     inkscape:deskcolor="#d1d1d1"
     showgrid="false"
     inkscape:zoom="16.414811"
     inkscape:cx="19.58597"
     inkscape:cy="8.1633593"
     inkscape:window-width="2560"
     inkscape:window-height="1387"
     inkscape:window-x="1800"
     inkscape:window-y="25"
     inkscape:window-maximized="1"
     inkscape:current-layer="svg1"><inkscape:grid
       id="grid1"
       units="px"
       originx="0"
       originy="0"
       spacingx="0.5"
       spacingy="0.5"
       empcolor="#0099e5"
       empopacity="0.6"
       color="#0099e5"
       opacity="0.14901961"
       empspacing="2"
       dotted="false"
       gridanglex="30"
       gridanglez="30"
       visible="false" /><inkscape:grid
       id="grid2"
       units="px"
       originx="0"
       originy="0"
       spacingx="4"
       spacingy="4"
       empcolor="#e50000"
       empopacity="0.6"
       color="#0099e5"
       opacity="0.14901961"
       empspacing="1"
       dotted="false"
       gridanglex="30"
       gridanglez="30"
       visible="false" /></sodipodi:namedview><path
     id="path1"
     style="fill:none;stroke:#000000;stroke-width:1.5;stroke-linecap:round;stroke-linejoin:round"
     d="M 3,3 21,21 M 16.601458,16.60053 A 6,6 0 0 0 18,12.75 v -1.5 M 8.9999997,8.9999995 9,4.5 a 3,3 0 1 1 6,0 v 8.25 a 3,3 0 0 1 -0.536894,1.712632 M 12,18.75 a 6,6 0 0 0 2.291834,-0.454958 M 12,18.75 a 6,6 0 0 1 -6,-6 v -1.5 m 6,7.5 v 3.75 m -3.75,0 h 7.5 m -4.019574,-6.762136 a 3,3 0 0 1 -2.7182897,-2.71829"
     stroke-linecap="round"
     stroke-linejoin="round" /></svg>
