<svg xmlns="http://www.w3.org/2000/svg" viewBox="0 0 24 24" stroke-width="1.5" stroke="currentColor" aria-hidden="true" data-slot="icon" fill="none">
  <path stroke-linecap="round" stroke-linejoin="round" d="M5 9.25a.75.75 0 0 1-.75-.75.75.75 0 0 1 .75-.75.75.75 0 0 1 .75.75.75.75 0 0 1-.75.75zM5 10a1.5 1.5 0 0 1-1.5-1.5A1.5 1.5 0 0 1 5 7a1.5 1.5 0 0 1 1.5 1.5A1.5 1.5 0 0 1 5 10zm7 6.25a.75.75 0 0 1-.75-.75.75.75 0 0 1 .75-.75.75.75 0 0 1 .75.75.75.75 0 0 1-.75.75Zm0 .75a1.5 1.5 0 0 1-1.5-1.5A1.5 1.5 0 0 1 12 14a1.5 1.5 0 0 1 1.5 1.5A1.5 1.5 0 0 1 12 17Zm0-7.75a.75.75 0 0 1-.75-.75.75.75 0 0 1 .75-.75.75.75 0 0 1 .75.75.75.75 0 0 1-.75.75zm0 .75a1.5 1.5 0 0 1-1.5-1.5A1.5 1.5 0 0 1 12 7a1.5 1.5 0 0 1 1.5 1.5A1.5 1.5 0 0 1 12 10Zm7 6.25a.75.75 0 0 1-.75-.75.75.75 0 0 1 .75-.75.75.75 0 0 1 .75.75.75.75 0 0 1-.75.75Zm0 .75a1.5 1.5 0 0 1-1.5-1.5A1.5 1.5 0 0 1 19 14a1.5 1.5 0 0 1 1.5 1.5A1.5 1.5 0 0 1 19 17Zm0-7.75a.75.75 0 0 1-.75-.75.75.75 0 0 1 .75-.75.75.75 0 0 1 .75.75.75.75 0 0 1-.75.75Zm0 .75a1.5 1.5 0 0 1-1.5-1.5A1.5 1.5 0 0 1 19 7a1.5 1.5 0 0 1 1.5 1.5A1.5 1.5 0 0 1 19 10ZM5 16.25a.75.75 0 0 1-.75-.75.75.75 0 0 1 .75-.75.75.75 0 0 1 .75.75.75.75 0 0 1-.75.75zM5 17a1.5 1.5 0 0 1-1.5-1.5A1.5 1.5 0 0 1 5 14a1.5 1.5 0 0 1 1.5 1.5A1.5 1.5 0 0 1 5 17z"/>
</svg>
