<svg xmlns="http://www.w3.org/2000/svg" viewBox="0 0 20 20" fill="currentColor" aria-hidden="true" data-slot="icon">
  <path d="M17 7.25c0-.956-.794-1.75-1.75-1.75s-1.75.794-1.75 1.75S14.294 9 15.25 9 17 8.206 17 7.25Zm0 5.5c0-.956-.794-1.75-1.75-1.75s-1.75.794-1.75 1.75.794 1.75 1.75 1.75S17 13.706 17 12.75zm-5.25-5.5c0-.956-.794-1.75-1.75-1.75s-1.75.794-1.75 1.75S9.044 9 10 9s1.75-.794 1.75-1.75Zm0 5.5c0-.956-.794-1.75-1.75-1.75s-1.75.794-1.75 1.75.794 1.75 1.75 1.75 1.75-.794 1.75-1.75zM6.5 7.25c0-.956-.794-1.75-1.75-1.75S3 6.294 3 7.25 3.794 9 4.75 9 6.5 8.206 6.5 7.25Zm0 5.5c0-.956-.794-1.75-1.75-1.75S3 11.794 3 12.75s.794 1.75 1.75 1.75 1.75-.794 1.75-1.75z"/>
</svg>
