<svg xmlns="http://www.w3.org/2000/svg" viewBox="0 0 20 20" fill="currentColor" aria-hidden="true" data-slot="icon">
  <path d="M7.25 3c-.956 0-1.75.794-1.75 1.75S6.294 6.5 7.25 6.5 9 5.706 9 4.75 8.206 3 7.25 3Zm5.5 0C11.794 3 11 3.794 11 4.75s.794 1.75 1.75 1.75 1.75-.794 1.75-1.75S13.706 3 12.75 3Zm-5.5 5.25c-.956 0-1.75.794-1.75 1.75s.794 1.75 1.75 1.75S9 10.956 9 10s-.794-1.75-1.75-1.75Zm5.5 0c-.956 0-1.75.794-1.75 1.75s.794 1.75 1.75 1.75 1.75-.794 1.75-1.75-.794-1.75-1.75-1.75zm-5.5 5.25c-.956 0-1.75.794-1.75 1.75S6.294 17 7.25 17 9 16.206 9 15.25s-.794-1.75-1.75-1.75Zm5.5 0c-.956 0-1.75.794-1.75 1.75S11.794 17 12.75 17s1.75-.794 1.75-1.75-.794-1.75-1.75-1.75z"/>
</svg>
