<?xml version="1.0" encoding="UTF-8" standalone="no"?>
<svg
   viewBox="0 0 16 16"
   fill="currentColor"
   version="1.1"
   id="svg1"
   sodipodi:docname="arrow-path-single.svg"
   inkscape:version="1.3.2 (091e20e, 2023-11-25)"
   width="16"
   height="16"
   xmlns:inkscape="http://www.inkscape.org/namespaces/inkscape"
   xmlns:sodipodi="http://sodipodi.sourceforge.net/DTD/sodipodi-0.dtd"
   xmlns="http://www.w3.org/2000/svg"
   xmlns:svg="http://www.w3.org/2000/svg">
  <defs
     id="defs1" />
  <sodipodi:namedview
     id="namedview1"
     pagecolor="#ffffff"
     bordercolor="#000000"
     borderopacity="0.25"
     inkscape:showpageshadow="2"
     inkscape:pageopacity="0.0"
     inkscape:pagecheckerboard="0"
     inkscape:deskcolor="#d1d1d1"
     showgrid="true"
     inkscape:zoom="30.706327"
     inkscape:cx="6.8552646"
     inkscape:cy="5.7317177"
     inkscape:window-width="1800"
     inkscape:window-height="1097"
     inkscape:window-x="0"
     inkscape:window-y="44"
     inkscape:window-maximized="1"
     inkscape:current-layer="svg1">
    <inkscape:grid
       id="grid1"
       units="px"
       originx="0"
       originy="0"
       spacingx="0.5"
       spacingy="0.5"
       empcolor="#0099e5"
       empopacity="0.6"
       color="#0099e5"
       opacity="0.14901961"
       empspacing="2"
       dotted="false"
       gridanglex="30"
       gridanglez="30"
       visible="true" />
    <inkscape:grid
       id="grid2"
       units="px"
       originx="0"
       originy="0"
       spacingx="4"
       spacingy="4"
       empcolor="#e50000"
       empopacity="0.6"
       color="#0099e5"
       opacity="0.14901961"
       empspacing="1"
       dotted="false"
       gridanglex="30"
       gridanglez="30"
       visible="true" />
  </sodipodi:namedview>
  <path
     style="fill:#000000"
     d="m 8.9139503,1.0600265 c 1.4899727,0.1958979 2.9166157,0.8695022 4.0351557,1.9883554 l 0.472657,0.4726739 V 1.8510716 a 0.75000501,0.75003299 0 0 1 0.75,-0.7500279 0.75000501,0.75003299 0 0 1 0.75,0.7500279 v 3.4825518 a 0.75000501,0.75003299 0 0 1 -0.21875,0.5312699 0.75000501,0.75003299 0 0 1 -0.53125,0.2187581 H 10.691294 A 0.75000501,0.75003299 0 0 1 9.9412942,5.3336234 0.75000501,0.75003299 0 0 1 10.691294,4.5835955 h 1.671875 L 11.888559,4.1089684 C 10.126568,2.346483 7.4108763,1.9887056 5.2518408,3.2358889 c -2.159035,1.2471833 -3.209058,3.7795373 -2.564453,6.1877308 0.644605,2.4081943 2.818073,4.0768683 5.3105469,4.0763243 2.4924733,-5.45e-4 4.6667873,-1.66959 5.3124993,-4.0782775 a 0.75000501,0.75003299 0 0 1 0.917969,-0.5312698 0.75000501,0.75003299 0 0 1 0.53125,0.9199562 C 13.940093,12.867543 11.162236,14.999309 7.9979347,15 4.8336328,15.000691 2.0564528,12.869351 1.2381688,9.8123061 0.41988483,6.7552619 1.7593948,3.5200789 4.4998878,1.9370124 5.8701338,1.145479 7.4239773,0.86412867 8.9139503,1.0600265 Z"
     id="path1" />
</svg>
