<?xml version="1.0" encoding="UTF-8" standalone="no"?>
<svg
   viewBox="0 0 16 16"
   fill="currentColor"
   version="1.1"
   id="svg1"
   sodipodi:docname="arrow-path-clock.svg"
   inkscape:version="1.3.2 (091e20e, 2023-11-25)"
   width="16"
   height="16"
   xml:space="preserve"
   xmlns:inkscape="http://www.inkscape.org/namespaces/inkscape"
   xmlns:sodipodi="http://sodipodi.sourceforge.net/DTD/sodipodi-0.dtd"
   xmlns="http://www.w3.org/2000/svg"
   xmlns:svg="http://www.w3.org/2000/svg"><defs
     id="defs1" /><sodipodi:namedview
     id="namedview1"
     pagecolor="#ffffff"
     bordercolor="#000000"
     borderopacity="0.25"
     inkscape:showpageshadow="2"
     inkscape:pageopacity="0.0"
     inkscape:pagecheckerboard="0"
     inkscape:deskcolor="#d1d1d1"
     showgrid="true"
     inkscape:zoom="12.12575"
     inkscape:cx="8.370616"
     inkscape:cy="8.9066653"
     inkscape:window-width="1800"
     inkscape:window-height="1097"
     inkscape:window-x="0"
     inkscape:window-y="44"
     inkscape:window-maximized="1"
     inkscape:current-layer="svg1"><inkscape:grid
       id="grid1"
       units="px"
       originx="0"
       originy="0"
       spacingx="0.5"
       spacingy="0.5"
       empcolor="#0099e5"
       empopacity="0.6"
       color="#0099e5"
       opacity="0.14901961"
       empspacing="2"
       dotted="false"
       gridanglex="30"
       gridanglez="30"
       visible="true" /><inkscape:grid
       id="grid2"
       units="px"
       originx="0"
       originy="0"
       spacingx="4"
       spacingy="4"
       empcolor="#e50000"
       empopacity="0.6"
       color="#0099e5"
       opacity="0.14901961"
       empspacing="1"
       dotted="false"
       gridanglex="30"
       gridanglez="30"
       visible="true" /></sodipodi:namedview><path
     style="color:#000000;fill:currentColor;stroke-linecap:round;stroke-linejoin:round;-inkscape-stroke:none"
     d="m 8.0019531,3.0820313 a 0.75,0.75 0 0 0 -0.75,0.75 V 8 a 0.750075,0.750075 0 0 0 0.75,0.75 h 3.1249999 a 0.75,0.75 0 0 0 0.75,-0.75 0.75,0.75 0 0 0 -0.75,-0.75 H 8.7519531 V 3.8320313 a 0.75,0.75 0 0 0 -0.75,-0.75 z"
     id="path1-61-1"
     inkscape:label="path1" /><path
     style="color:#000000;fill:currentColor;stroke-linecap:round;stroke-linejoin:round;-inkscape-stroke:none"
     d="M 7.0859375,1.0605469 C 5.5959645,1.2564374 4.1693212,1.9300166 3.0507813,3.0488281 L 2.578125,3.5214844 V 1.8515625 a 0.75000501,0.75000501 0 0 0 -0.75,-0.75 0.75000501,0.75000501 0 0 0 -0.75,0.75 v 3.4824219 a 0.75000501,0.75000501 0 0 0 0.21875,0.53125 0.75000501,0.75000501 0 0 0 0.53125,0.21875 h 3.4804687 a 0.75000501,0.75000501 0 0 0 0.75,-0.75 0.75000501,0.75000501 0 0 0 -0.75,-0.75 H 3.6367188 L 4.1113281,4.109375 C 5.8733198,2.3469554 8.5890115,1.9891913 10.748047,3.2363281 12.907082,4.4834649 13.957105,7.0157244 13.3125,9.4238281 12.667895,11.831932 10.494427,13.500544 8.0019531,13.5 5.5094795,13.499455 3.3351656,11.830472 2.6894531,9.421875 A 0.75000501,0.75000501 0 0 0 1.7714844,8.890625 0.75000501,0.75000501 0 0 0 1.2402344,9.8105469 C 2.0597949,12.867622 4.837652,14.999309 8.0019531,15 11.166255,15.000691 13.943435,12.86943 14.761719,9.8125 15.580003,6.7555698 14.240493,3.5205075 11.5,1.9375 10.129754,1.1459962 8.5759105,0.86465638 7.0859375,1.0605469 Z"
     id="path3-5-0"
     inkscape:label="path2" /></svg>
