<?xml version="1.0" encoding="UTF-8" standalone="no"?>
<svg
   viewBox="0 0 16 16"
   fill="currentColor"
   version="1.1"
   id="svg1"
   sodipodi:docname="arrows-crossing.svg"
   inkscape:version="1.3.2 (091e20e, 2023-11-25)"
   width="16"
   height="16"
   xmlns:inkscape="http://www.inkscape.org/namespaces/inkscape"
   xmlns:sodipodi="http://sodipodi.sourceforge.net/DTD/sodipodi-0.dtd"
   xmlns="http://www.w3.org/2000/svg"
   xmlns:svg="http://www.w3.org/2000/svg">
  <defs
     id="defs1" />
  <sodipodi:namedview
     id="namedview1"
     pagecolor="#ffffff"
     bordercolor="#000000"
     borderopacity="0.25"
     inkscape:showpageshadow="2"
     inkscape:pageopacity="0.0"
     inkscape:pagecheckerboard="0"
     inkscape:deskcolor="#d1d1d1"
     showgrid="false"
     inkscape:zoom="28.576915"
     inkscape:cx="3.8317642"
     inkscape:cy="6.1238241"
     inkscape:window-width="1800"
     inkscape:window-height="1097"
     inkscape:window-x="356"
     inkscape:window-y="1484"
     inkscape:window-maximized="1"
     inkscape:current-layer="svg1">
    <inkscape:grid
       id="grid1"
       units="px"
       originx="0"
       originy="0"
       spacingx="0.25"
       spacingy="0.25"
       empcolor="#0099e5"
       empopacity="0.6"
       color="#0099e5"
       opacity="0.14901961"
       empspacing="2"
       dotted="false"
       gridanglex="30"
       gridanglez="30"
       visible="false" />
    <inkscape:grid
       id="grid2"
       units="px"
       originx="0"
       originy="0"
       spacingx="4"
       spacingy="4"
       empcolor="#e50000"
       empopacity="0.6"
       color="#0099e5"
       opacity="0.14901961"
       empspacing="1"
       dotted="false"
       gridanglex="30"
       gridanglez="30"
       visible="false" />
  </sodipodi:namedview>
  <path
     id="path1"
     style="fill:#000000"
     d="M 2.75,4 A 0.75,0.75 0 0 0 2,4.75 0.75,0.75 0 0 0 2.75,5.5 C 3.9254845,5.5 4.5223782,5.7223192 4.9023438,6.0371094 5.080645,5.6111262 5.3158348,5.1663788 5.6503906,4.734375 4.9642337,4.2700147 4.0101251,4 2.75,4 Z m 8.5,4.4980469 a 0.75,0.75 0 0 0 -0.53125,0.2207031 0.75,0.75 0 0 0 0,1.0625 L 11.4375,10.5 H 11.25 C 9.7562936,10.5 8.9435017,10.219426 8.4453125,9.8476562 8.2989209,10.275514 8.0974394,10.736746 7.78125,11.205078 8.5895573,11.713423 9.7121444,12 11.25,12 h 0.1875 l -0.71875,0.71875 a 0.75,0.75 0 0 0 0,1.0625 0.75,0.75 0 0 0 1.0625,0 l 2,-2 a 0.75,0.75 0 0 0 0.193359,-0.337891 0.75,0.75 0 0 0 0,-0.130859 A 0.75,0.75 0 0 0 14,11.25 a 0.75,0.75 0 0 0 -0.02539,-0.128906 0.75,0.75 0 0 0 0,-0.06445 0.75,0.75 0 0 0 -0.01953,-0.0332 0.75,0.75 0 0 0 -0.173828,-0.304688 l -2,-2 A 0.75,0.75 0 0 0 11.25,8.4980469 Z M 11.25,2 a 0.75,0.75 0 0 0 -0.53125,0.21875 0.75,0.75 0 0 0 0,1.0625 L 11.4375,4 H 11.25 C 9.325433,4 8.049287,4.4474226 7.2285156,5.21875 6.4077442,5.9900774 6.123802,6.9748738 5.9003906,7.8046875 5.6769793,8.6345012 5.4933623,9.3195278 5.1269531,9.7460938 4.7605439,10.17266 4.1824986,10.5 2.75,10.5 A 0.75,0.75 0 0 0 2,11.25 0.75,0.75 0 0 0 2.75,12 C 4.4424983,12 5.5832071,11.514839 6.2636719,10.722656 6.9441366,9.9304734 7.1355212,8.9904972 7.3496094,8.1953125 7.5636976,7.4001278 7.7797571,6.7599214 8.2558594,6.3125 8.7319617,5.8650786 9.5495707,5.5 11.25,5.5 h 0.1875 l -0.71875,0.71875 a 0.75,0.75 0 0 0 0,1.0625 0.75,0.75 0 0 0 1.0625,0 l 2,-2 A 0.75,0.75 0 0 0 14,4.75 0.75,0.75 0 0 0 13.943359,4.4628906 0.75,0.75 0 0 0 13.78125,4.21875 l -2,-2 A 0.75,0.75 0 0 0 11.25,2 Z" />
</svg>
