<?xml version="1.0" encoding="UTF-8" standalone="no"?>
<svg
   viewBox="0 0 16 16"
   fill="currentColor"
   version="1.1"
   id="svg1"
   sodipodi:docname="arrow-bottom-left-on-square.svg"
   inkscape:version="1.3.2 (091e20e, 2023-11-25)"
   width="16"
   height="16"
   xmlns:inkscape="http://www.inkscape.org/namespaces/inkscape"
   xmlns:sodipodi="http://sodipodi.sourceforge.net/DTD/sodipodi-0.dtd"
   xmlns="http://www.w3.org/2000/svg"
   xmlns:svg="http://www.w3.org/2000/svg">
  <defs
     id="defs1" />
  <sodipodi:namedview
     id="namedview1"
     pagecolor="#ffffff"
     bordercolor="#000000"
     borderopacity="0.25"
     inkscape:showpageshadow="2"
     inkscape:pageopacity="0.0"
     inkscape:pagecheckerboard="0"
     inkscape:deskcolor="#d1d1d1"
     showgrid="true"
     inkscape:zoom="17.115671"
     inkscape:cx="5.6673209"
     inkscape:cy="4.4988011"
     inkscape:window-width="2560"
     inkscape:window-height="1387"
     inkscape:window-x="0"
     inkscape:window-y="25"
     inkscape:window-maximized="1"
     inkscape:current-layer="svg1">
    <inkscape:grid
       id="grid1"
       units="px"
       originx="0"
       originy="0"
       spacingx="0.5"
       spacingy="0.5"
       empcolor="#0099e5"
       empopacity="0.6"
       color="#0099e5"
       opacity="0.14901961"
       empspacing="2"
       dotted="false"
       gridanglex="30"
       gridanglez="30"
       visible="true" />
    <inkscape:grid
       id="grid2"
       units="px"
       originx="0"
       originy="0"
       spacingx="4"
       spacingy="4"
       empcolor="#e50000"
       empopacity="0.6"
       color="#0099e5"
       opacity="0.14901961"
       empspacing="1"
       dotted="false"
       gridanglex="30"
       gridanglez="30"
       visible="true" />
  </sodipodi:namedview>
  <path
     id="path1"
     d="m 12.5,9.25 c 0,0.69036 -0.55964,1.25 -1.25,1.25 H 9.0000001 c -0.41421,0 -0.75,0.33579 -0.75,0.75 0,0.41421 0.33579,0.75 0.75,0.75 H 11.25 C 12.76878,12 14,10.76878 14,9.25 V 4.75 C 14,3.2312 12.76878,2 11.25,2 H 6.7500001 c -1.5188,0 -2.75,1.2312 -2.75,2.75 V 7 c 0,0.41421 0.3358,0.75 0.75,0.75 0.4142,0 0.75,-0.33579 0.75,-0.75 V 4.75 c 0,-0.6904 0.55964,-1.25 1.25,-1.25 H 11.25 c 0.69036,0 1.25,0.5596 1.25,1.25 z M 9.7803301,7.28033 c 0.2928899,-0.29289 0.2928899,-0.76777 0,-1.06066 -0.29289,-0.29287 -0.76777,-0.29287 -1.06066,0 L 3.5,11.43934 V 9.75 C 3.5,9.33579 3.1642,9 2.75,9 2.3358,9 2,9.33579 2,9.75 v 3.5 C 2,13.66421 2.3358,14 2.75,14 h 3.5000001 c 0.41421,0 0.75,-0.33579 0.75,-0.75 0,-0.41421 -0.33579,-0.75 -0.75,-0.75 h -1.6893 z"
     style="fill:#000000;fill-opacity:1" />
</svg>
