<?xml version="1.0" encoding="UTF-8" standalone="no"?>
<svg
   viewBox="0 0 16 16"
   fill="currentColor"
   version="1.1"
   id="svg1"
   sodipodi:docname="blockquote.svg"
   inkscape:version="1.3.2 (091e20e, 2023-11-25)"
   width="16"
   height="16"
   xmlns:inkscape="http://www.inkscape.org/namespaces/inkscape"
   xmlns:sodipodi="http://sodipodi.sourceforge.net/DTD/sodipodi-0.dtd"
   xmlns="http://www.w3.org/2000/svg"
   xmlns:svg="http://www.w3.org/2000/svg">
  <defs
     id="defs1" />
  <sodipodi:namedview
     id="namedview1"
     pagecolor="#ffffff"
     bordercolor="#000000"
     borderopacity="0.25"
     inkscape:showpageshadow="2"
     inkscape:pageopacity="0.0"
     inkscape:pagecheckerboard="0"
     inkscape:deskcolor="#d1d1d1"
     showgrid="true"
     inkscape:zoom="40.718003"
     inkscape:cx="9.1728468"
     inkscape:cy="3.954025"
     inkscape:window-width="2560"
     inkscape:window-height="1387"
     inkscape:window-x="1800"
     inkscape:window-y="25"
     inkscape:window-maximized="0"
     inkscape:current-layer="svg1">
    <inkscape:grid
       id="grid1"
       units="px"
       originx="0"
       originy="0"
       spacingx="0.5"
       spacingy="0.5"
       empcolor="#0099e5"
       empopacity="0.6"
       color="#0099e5"
       opacity="0.14901961"
       empspacing="2"
       dotted="false"
       gridanglex="30"
       gridanglez="30"
       visible="true" />
    <inkscape:grid
       id="grid2"
       units="px"
       originx="0"
       originy="0"
       spacingx="4"
       spacingy="4"
       empcolor="#e50000"
       empopacity="0.6"
       color="#0099e5"
       opacity="0.14901961"
       empspacing="1"
       dotted="false"
       gridanglex="30"
       gridanglez="30"
       visible="true" />
  </sodipodi:namedview>
  <path
     id="path1"
     style="fill:#000000"
     d="M 3.5,2.75 C 3.500003,2.3357853 3.164215,1.9999972 2.75,2 2.335785,1.9999972 1.999997,2.3357853 2,2.75 v 10.5 c -3e-6,0.414215 0.335785,0.750003 0.75,0.75 0.414215,3e-6 0.750003,-0.335785 0.75,-0.75 z M 7.25,2 C 6.8357853,1.9999972 6.4999972,2.3357853 6.5,2.75 6.4999972,3.1642147 6.8357853,3.5000028 7.25,3.5 h 6 c 0.414215,2.8e-6 0.750003,-0.3357853 0.75,-0.75 3e-6,-0.4142147 -0.335785,-0.7500028 -0.75,-0.75 z m 0,5.25 C 6.8357853,7.2499972 6.4999972,7.5857853 6.5,8 c -2.8e-6,0.4142147 0.3357853,0.7500028 0.75,0.75 h 6 c 0.414215,2.8e-6 0.750003,-0.3357853 0.75,-0.75 3e-6,-0.4142147 -0.335785,-0.7500028 -0.75,-0.75 z m 0,5.25 c -0.4142147,-3e-6 -0.7500028,0.335785 -0.75,0.75 -2.8e-6,0.414215 0.3357853,0.750003 0.75,0.75 h 4 c 0.414215,3e-6 0.750003,-0.335785 0.75,-0.75 3e-6,-0.414215 -0.335785,-0.750003 -0.75,-0.75 z" />
</svg>
