<?xml version="1.0" encoding="UTF-8" standalone="no"?>
<svg
   viewBox="0 0 16 16"
   fill="currentColor"
   version="1.1"
   id="svg1"
   sodipodi:docname="checklist-boxes.svg"
   inkscape:version="1.3.2 (091e20e, 2023-11-25)"
   width="16"
   height="16"
   xmlns:inkscape="http://www.inkscape.org/namespaces/inkscape"
   xmlns:sodipodi="http://sodipodi.sourceforge.net/DTD/sodipodi-0.dtd"
   xmlns="http://www.w3.org/2000/svg"
   xmlns:svg="http://www.w3.org/2000/svg">
  <defs
     id="defs1" />
  <sodipodi:namedview
     id="namedview1"
     pagecolor="#ffffff"
     bordercolor="#000000"
     borderopacity="0.25"
     inkscape:showpageshadow="2"
     inkscape:pageopacity="0.0"
     inkscape:pagecheckerboard="0"
     inkscape:deskcolor="#d1d1d1"
     showgrid="true"
     inkscape:zoom="25.150443"
     inkscape:cx="3.6381069"
     inkscape:cy="6.9581279"
     inkscape:window-width="2560"
     inkscape:window-height="1387"
     inkscape:window-x="0"
     inkscape:window-y="25"
     inkscape:window-maximized="0"
     inkscape:current-layer="svg1">
    <inkscape:grid
       id="grid1"
       units="px"
       originx="0"
       originy="0"
       spacingx="0.25"
       spacingy="0.25"
       empcolor="#0099e5"
       empopacity="0.6"
       color="#0099e5"
       opacity="0.14901961"
       empspacing="2"
       dotted="false"
       gridanglex="30"
       gridanglez="30"
       visible="true" />
    <inkscape:grid
       id="grid2"
       units="px"
       originx="0"
       originy="0"
       spacingx="4"
       spacingy="4"
       empcolor="#e50000"
       empopacity="0.6"
       color="#0099e5"
       opacity="0.14901961"
       empspacing="1"
       dotted="false"
       gridanglex="30"
       gridanglez="30"
       visible="true" />
  </sodipodi:namedview>
  <path
     id="path"
     style="fill:#000000"
     d="M 5.1402304,0.95777627 A 0.74990576,0.74970667 0 0 0 4.6481047,1.2525829 L 3.5935497,2.6699971 3.2693718,2.3595716 a 0.74990576,0.74970667 0 0 0 -1.0604137,0.021476 0.74990576,0.74970667 0 0 0 0.021481,1.060132 L 3.1678213,4.3412178 A 0.74998075,0.74978164 0 0 0 4.2887742,4.2475045 L 5.8510781,2.1487162 A 0.74990576,0.74970667 0 0 0 5.696801,1.0983464 0.74990576,0.74970667 0 0 0 5.1402304,0.95777627 Z M 2.75,6 A 0.750075,0.750075 0 0 0 2,6.75 v 2.5 A 0.750075,0.750075 0 0 0 2.75,10 h 2.5 A 0.750075,0.750075 0 0 0 6,9.25 V 6.75 A 0.750075,0.750075 0 0 0 5.25,6 Z M 3.5,7.5 h 1 v 1 h -1 z M 7.75,1.9998741 c -0.9999996,0 -0.9999996,1.5 0,1.5 h 5.5 c 1,0 1,-1.5 0,-1.5 z M 2.75,11 A 0.750075,0.750075 0 0 0 2,11.75 v 2.5 A 0.750075,0.750075 0 0 0 2.75,15 h 2.5 A 0.750075,0.750075 0 0 0 6,14.25 v -2.5 A 0.750075,0.750075 0 0 0 5.25,11 Z m 0.75,1.5 h 1 v 1 h -1 z M 7.75,7.25 c -0.9999996,0 -0.9999996,1.5 0,1.5 h 5.5 c 1,0 1,-1.5 0,-1.5 z m 0,5.250244 c -0.9999996,0 -0.9999996,1.5 0,1.5 h 5.5 c 1,0 1,-1.5 0,-1.5 z" />
</svg>
