<?xml version="1.0" encoding="UTF-8" standalone="no"?>
<svg
   viewBox="0 0 16 16"
   fill="currentColor"
   version="1.1"
   id="svg1"
   sodipodi:docname="circle-dashed.svg"
   inkscape:version="1.3.2 (091e20e, 2023-11-25)"
   width="16"
   height="16"
   xmlns:inkscape="http://www.inkscape.org/namespaces/inkscape"
   xmlns:sodipodi="http://sodipodi.sourceforge.net/DTD/sodipodi-0.dtd"
   xmlns="http://www.w3.org/2000/svg"
   xmlns:svg="http://www.w3.org/2000/svg">
  <defs
     id="defs1" />
  <sodipodi:namedview
     id="namedview1"
     pagecolor="#ffffff"
     bordercolor="#000000"
     borderopacity="0.25"
     inkscape:showpageshadow="2"
     inkscape:pageopacity="0.0"
     inkscape:pagecheckerboard="0"
     inkscape:deskcolor="#d1d1d1"
     showgrid="true"
     inkscape:zoom="55.25"
     inkscape:cx="7.9909502"
     inkscape:cy="8"
     inkscape:window-width="1800"
     inkscape:window-height="1097"
     inkscape:window-x="0"
     inkscape:window-y="44"
     inkscape:window-maximized="0"
     inkscape:current-layer="svg1">
    <inkscape:grid
       id="grid1"
       units="px"
       originx="0"
       originy="0"
       spacingx="0.25"
       spacingy="0.25"
       empcolor="#0099e5"
       empopacity="0.6"
       color="#0099e5"
       opacity="0.14901961"
       empspacing="2"
       dotted="false"
       gridanglex="30"
       gridanglez="30"
       visible="true" />
    <inkscape:grid
       id="grid2"
       units="px"
       originx="0"
       originy="0"
       spacingx="4"
       spacingy="4"
       empcolor="#e50000"
       empopacity="0.6"
       color="#0099e5"
       opacity="0.14901961"
       empspacing="1"
       dotted="false"
       gridanglex="30"
       gridanglez="30"
       visible="true" />
  </sodipodi:namedview>
  <path
     id="path1"
     style="fill:#000000"
     d="m 13.038117,4.2255254 a 0.75,0.75 0 0 0 -0.27449,1.0244096 c 0.240326,0.4162576 0.424186,0.8615587 0.548589,1.3258338 a 0.75,0.75 0 0 0 0.919175,0.5313976 0.75,0.75 0 0 0 0.52951,-0.9196805 C 14.602572,5.596593 14.368394,5.029795 14.062526,4.5000152 A 0.75,0.75 0 0 0 13.038117,4.2255254 Z M 9.8127292,1.2381605 A 0.75,0.75 0 0 0 8.8941706,1.7684906 0.75,0.75 0 0 0 9.4245007,2.6870492 c 0.464275,0.1244022 0.9086393,0.308793 1.3248973,0.5491194 A 0.75,0.75 0 0 0 11.774966,2.9630005 0.75,0.75 0 0 0 11.499911,1.9369266 C 10.970131,1.6310579 10.403622,1.3964897 9.8127292,1.2381605 Z m -3.055181,0.075101 A 0.75,0.75 0 0 0 6.189346,1.2378493 C 5.5984533,1.3961786 5.0292632,1.6317369 4.4994832,1.9376055 A 0.75,0.75 0 0 0 4.2249934,2.9620151 0.75,0.75 0 0 0 5.2494031,3.2365048 C 5.6656607,2.9961785 6.1128485,2.812824 6.5771234,2.6884218 A 0.75,0.75 0 0 0 7.1066343,1.7687413 0.75,0.75 0 0 0 6.7575482,1.3132617 Z M 2.9624685,4.2251654 A 0.75,0.75 0 0 0 1.9382812,4.5007257 C 1.6324127,5.0305056 1.3978443,5.5970153 1.2395151,6.187908 A 0.75,0.75 0 0 0 1.7698452,7.1064666 0.75,0.75 0 0 0 2.6884039,6.5761365 C 2.8128059,6.1118617 2.9977025,5.6656102 3.2380288,5.2493528 A 0.75,0.75 0 0 0 2.9624685,4.2251654 Z M 2.3388037,8.9675287 A 0.75,0.75 0 0 0 1.7682094,8.8934973 0.75,0.75 0 0 0 1.2392039,9.8112912 C 1.3975332,10.402184 1.631205,10.970868 1.9370735,11.500649 a 0.75,0.75 0 0 0 1.0244096,0.274489 0.75,0.75 0 0 0 0.2744898,-1.024409 C 2.9956466,10.334471 2.8122919,9.8872832 2.6878898,9.4230083 A 0.75,0.75 0 0 0 2.3388037,8.9675287 Z m 2.9119037,3.7950793 a 0.75,0.75 0 0 0 -1.0260739,0.275055 0.75,0.75 0 0 0 0.2755602,1.024188 c 0.5297799,0.305868 1.0981762,0.540942 1.6890689,0.699271 A 0.75,0.75 0 0 0 7.1078211,14.230792 0.75,0.75 0 0 0 6.5774912,13.312233 C 6.1132163,13.187831 5.6669654,13.002933 5.2507074,12.762608 Z m 5.4994896,0.0016 c -0.416258,0.240326 -0.8615586,0.424186 -1.3258342,0.548588 a 0.75,0.75 0 0 0 -0.531397,0.919176 0.75,0.75 0 0 0 0.9196799,0.52951 c 0.5908933,-0.158329 1.1576903,-0.392507 1.6874713,-0.698375 a 0.75,0.75 0 0 0 0.274489,-1.024409 0.75,0.75 0 0 0 -1.024409,-0.27449 z m 3.48195,-3.8713431 A 0.75,0.75 0 0 0 13.313588,9.423146 c -0.124402,0.464275 -0.309301,0.910526 -0.549625,1.326784 a 0.75,0.75 0 0 0 0.273674,1.023682 0.75,0.75 0 0 0 1.023682,-0.273674 c 0.305868,-0.52978 0.542828,-1.097671 0.701158,-1.6885634 a 0.75,0.75 0 0 0 -0.53033,-0.9185587 z" />
</svg>
