<?xml version="1.0" encoding="UTF-8" standalone="no"?>
<svg
   viewBox="0 0 16 16"
   fill="currentColor"
   version="1.1"
   id="svg1"
   sodipodi:docname="compass.svg"
   inkscape:version="1.3.2 (091e20e, 2023-11-25)"
   width="16"
   height="16"
   xmlns:inkscape="http://www.inkscape.org/namespaces/inkscape"
   xmlns:sodipodi="http://sodipodi.sourceforge.net/DTD/sodipodi-0.dtd"
   xmlns="http://www.w3.org/2000/svg"
   xmlns:svg="http://www.w3.org/2000/svg"><defs
     id="defs1" /><sodipodi:namedview
     id="namedview1"
     pagecolor="#ffffff"
     bordercolor="#000000"
     borderopacity="0.25"
     inkscape:showpageshadow="2"
     inkscape:pageopacity="0.0"
     inkscape:pagecheckerboard="0"
     inkscape:deskcolor="#d1d1d1"
     showgrid="false"
     inkscape:zoom="26.804494"
     inkscape:cx="7.1816314"
     inkscape:cy="2.5741952"
     inkscape:window-width="2560"
     inkscape:window-height="1387"
     inkscape:window-x="1800"
     inkscape:window-y="25"
     inkscape:window-maximized="1"
     inkscape:current-layer="svg1"><inkscape:grid
       id="grid1"
       units="px"
       originx="0"
       originy="0"
       spacingx="0.5"
       spacingy="0.5"
       empcolor="#0099e5"
       empopacity="0.6"
       color="#0099e5"
       opacity="0.14901961"
       empspacing="2"
       dotted="false"
       gridanglex="30"
       gridanglez="30"
       visible="false" /><inkscape:grid
       id="grid2"
       units="px"
       originx="0"
       originy="0"
       spacingx="4"
       spacingy="4"
       empcolor="#e50000"
       empopacity="0.6"
       color="#0099e5"
       opacity="0.14901961"
       empspacing="1"
       dotted="false"
       gridanglex="30"
       gridanglez="30"
       visible="false" /></sodipodi:namedview><path
     id="path8"
     style="fill:#000000;stroke-width:1.5;stroke-linecap:round;stroke-linejoin:round"
     d="M 8.75,8 A 0.75,0.75 0 0 1 8,8.75 0.75,0.75 0 0 1 7.25,8 0.75,0.75 0 0 1 8,7.25 0.75,0.75 0 0 1 8.75,8 Z M 8,1 C 4.1340334,1 1,4.1340296 1,8 c 0,3.865972 3.1340334,7 7,7 3.865967,0 7,-3.134028 7,-7 C 15,4.1340296 11.865967,1 8,1 Z m 3.248047,3.2304688 c 0.054,0.00181 0.109113,0.013541 0.160156,0.03125 0.328362,0.1140241 0.463987,0.5036402 0.277344,0.796875 L 9.171875,9.0058594 C 9.1295163,9.0724731 9.0724757,9.1295145 9.0058594,9.171875 L 5.0585938,11.685547 C 4.5729526,11.993557 4.0083955,11.427048 4.3164062,10.941406 L 6.828125,6.9941406 C 6.870484,6.9275227 6.9275242,6.8704847 6.9941406,6.828125 L 10.941406,4.3164062 c 0.09154,-0.058358 0.198136,-0.089488 0.306641,-0.085937 z" /></svg>
