<?xml version="1.0" encoding="UTF-8" standalone="no"?>
<svg
   viewBox="0 0 16 16"
   fill="currentColor"
   version="1.1"
   id="svg1"
   sodipodi:docname="cookie.svg"
   inkscape:version="1.3.2 (091e20e, 2023-11-25)"
   width="16"
   height="16"
   xmlns:inkscape="http://www.inkscape.org/namespaces/inkscape"
   xmlns:sodipodi="http://sodipodi.sourceforge.net/DTD/sodipodi-0.dtd"
   xmlns="http://www.w3.org/2000/svg"
   xmlns:svg="http://www.w3.org/2000/svg"><defs
     id="defs1" /><sodipodi:namedview
     id="namedview1"
     pagecolor="#ffffff"
     bordercolor="#000000"
     borderopacity="0.25"
     inkscape:showpageshadow="2"
     inkscape:pageopacity="0.0"
     inkscape:pagecheckerboard="0"
     inkscape:deskcolor="#d1d1d1"
     showgrid="false"
     inkscape:zoom="24.062314"
     inkscape:cx="6.5039464"
     inkscape:cy="2.8259959"
     inkscape:window-width="2560"
     inkscape:window-height="1387"
     inkscape:window-x="1800"
     inkscape:window-y="25"
     inkscape:window-maximized="1"
     inkscape:current-layer="svg1"><inkscape:grid
       id="grid1"
       units="px"
       originx="0"
       originy="0"
       spacingx="0.5"
       spacingy="0.5"
       empcolor="#0099e5"
       empopacity="0.6"
       color="#0099e5"
       opacity="0.14901961"
       empspacing="2"
       dotted="false"
       gridanglex="30"
       gridanglez="30"
       visible="false" /><inkscape:grid
       id="grid2"
       units="px"
       originx="0"
       originy="0"
       spacingx="4"
       spacingy="4"
       empcolor="#e50000"
       empopacity="0.6"
       color="#0099e5"
       opacity="0.14901961"
       empspacing="1"
       dotted="false"
       gridanglex="30"
       gridanglez="30"
       visible="false" /></sodipodi:namedview><path
     id="path1"
     style="fill:#000000"
     d="M 13.75,4 A 0.75,0.75 0 0 0 13,4.75 0.75,0.75 0 0 0 13.75,5.5 0.75,0.75 0 0 0 14.5,4.75 0.75,0.75 0 0 0 13.75,4 Z m -1,-3 A 0.75,0.75 0 0 0 12,1.75 0.75,0.75 0 0 0 12.75,2.5 0.75,0.75 0 0 0 13.5,1.75 0.75,0.75 0 0 0 12.75,1 Z M 11,3 A 0.75,0.75 0 0 0 10.25,3.75 0.75,0.75 0 0 0 11,4.5 0.75,0.75 0 0 0 11.75,3.75 0.75,0.75 0 0 0 11,3 Z M 8,1 C 4.1429019,1 1,4.1429019 1,8 c 0,3.857098 3.1429019,7 7,7 3.857098,0 7,-3.142902 7,-7 a 0.750075,0.750075 0 0 0 0,-0.00195 0.750075,0.750075 0 0 0 0,-0.00195 0.750075,0.750075 0 0 0 0,-0.00195 0.750075,0.750075 0 0 0 0,-0.00195 0.750075,0.750075 0 0 0 0,-0.00195 0.750075,0.750075 0 0 0 0,-0.00195 0.750075,0.750075 0 0 0 0,-0.00195 0.750075,0.750075 0 0 0 0,-0.00195 0.750075,0.750075 0 0 0 0,-0.00195 C 14.995,7.7791798 14.981664,7.5750571 14.958984,7.3730469 A 0.750075,0.750075 0 0 0 13.640625,6.9707031 C 13.355567,7.3061357 12.940197,7.4996823 12.5,7.5 11.66335,7.5 11.00104,6.8383289 11,6.0019531 V 6 c 0.0012,-0.059937 0.0055,-0.1193982 0.01367,-0.1777344 A 0.750075,0.750075 0 0 0 10.140625,4.9804688 c -0.04827,0.00855 -0.09762,0.013791 -0.1464844,0.017578 C 9.1600126,4.9945093 8.5,4.3350649 8.5,3.5 8.5011507,3.0560431 8.6981156,2.6360157 9.0390625,2.3515625 A 0.750075,0.750075 0 0 0 8.6269531,1.0292969 C 8.4189407,1.010489 8.2088609,1.0001409 8,1 Z M 5.75,4 A 0.75,0.75 0 0 1 6.5,4.75 0.75,0.75 0 0 1 5.75,5.5 0.75,0.75 0 0 1 5,4.75 0.75,0.75 0 0 1 5.75,4 Z m -1,3 A 1.25,1.25 0 0 1 6,8.25 1.25,1.25 0 0 1 4.75,9.5 1.25,1.25 0 0 1 3.5,8.25 1.25,1.25 0 0 1 4.75,7 Z M 9,7.5 A 0.75,0.75 0 0 1 9.75,8.25 0.75,0.75 0 0 1 9,9 0.75,0.75 0 0 1 8.25,8.25 0.75,0.75 0 0 1 9,7.5 Z M 11.25,10 A 0.75,0.75 0 0 1 12,10.75 0.75,0.75 0 0 1 11.25,11.5 0.75,0.75 0 0 1 10.5,10.75 0.75,0.75 0 0 1 11.25,10 Z m -4,1.25 A 0.75,0.75 0 0 1 8,12 0.75,0.75 0 0 1 7.25,12.75 0.75,0.75 0 0 1 6.5,12 0.75,0.75 0 0 1 7.25,11.25 Z" /></svg>
