<?xml version="1.0" encoding="UTF-8" standalone="no"?>
<svg
   viewBox="0 0 16 16"
   fill="currentColor"
   version="1.1"
   id="svg1"
   sodipodi:docname="dice.svg"
   inkscape:version="1.3.2 (091e20e, 2023-11-25)"
   width="16"
   height="16"
   xmlns:inkscape="http://www.inkscape.org/namespaces/inkscape"
   xmlns:sodipodi="http://sodipodi.sourceforge.net/DTD/sodipodi-0.dtd"
   xmlns="http://www.w3.org/2000/svg"
   xmlns:svg="http://www.w3.org/2000/svg">
  <defs
     id="defs1" />
  <sodipodi:namedview
     id="namedview1"
     pagecolor="#ffffff"
     bordercolor="#000000"
     borderopacity="0.25"
     inkscape:showpageshadow="2"
     inkscape:pageopacity="0.0"
     inkscape:pagecheckerboard="0"
     inkscape:deskcolor="#d1d1d1"
     showgrid="false"
     inkscape:zoom="36.819006"
     inkscape:cx="10.062738"
     inkscape:cy="7.1158901"
     inkscape:window-width="2560"
     inkscape:window-height="1387"
     inkscape:window-x="0"
     inkscape:window-y="25"
     inkscape:window-maximized="1"
     inkscape:current-layer="svg1">
    <inkscape:grid
       id="grid1"
       units="px"
       originx="0"
       originy="0"
       spacingx="0.25"
       spacingy="0.25"
       empcolor="#0099e5"
       empopacity="0.6"
       color="#0099e5"
       opacity="0.14901961"
       empspacing="2"
       dotted="false"
       gridanglex="30"
       gridanglez="30"
       visible="false" />
    <inkscape:grid
       id="grid2"
       units="px"
       originx="0"
       originy="0"
       spacingx="4"
       spacingy="4"
       empcolor="#e50000"
       empopacity="0.6"
       color="#0099e5"
       opacity="0.14901961"
       empspacing="1"
       dotted="false"
       gridanglex="30"
       gridanglez="30"
       visible="false" />
  </sodipodi:namedview>
  <path
     id="path1"
     d="M 2,5.3574219 V 11 c 0,0.2691 0.1432643,0.516891 0.3769531,0.650391 L 7.25,14.435547 V 8.4296875 Z m 1.1835938,1.734375 C 3.4672307,7.0742367 3.8166507,7.3106072 4.0410156,7.6992188 4.3171571,8.1775098 4.2989322,8.7063183 4,8.8789062 3.7010682,9.0514944 3.2351254,8.8025094 2.9589844,8.3242188 2.6828432,7.8459278 2.7010683,7.3190726 3,7.1464844 c 0.05605,-0.03236 0.1181389,-0.050635 0.1835938,-0.054687 z m 2.25,1.2675781 C 5.717231,8.3418142 6.0666505,8.5781834 6.2910156,8.9667969 6.5671574,9.4450884 6.5489323,9.9738974 6.25,10.146484 5.9510679,10.319073 5.4851257,10.07009 5.2089844,9.5917969 4.9328429,9.1135064 4.9510682,8.5866509 5.25,8.4140625 c 0.05605,-0.03236 0.1181389,-0.050635 0.1835938,-0.054687 z m -2.25,1.2324219 C 3.4672313,9.574236 3.8166503,9.8106045 4.0410156,10.199219 4.3171577,10.67751 4.2989326,11.206318 4,11.378906 3.7010676,11.551495 3.235126,11.302513 2.9589844,10.824219 2.6828426,10.345927 2.7010679,9.819073 3,9.6464844 c 0.05605,-0.032361 0.1181389,-0.050635 0.1835938,-0.054687 z m 2.25,1.2675781 c 0.2836378,-0.01756 0.6330563,0.218808 0.8574218,0.607422 C 6.567158,11.945089 6.5489329,12.473897 6.25,12.646484 5.9510673,12.819073 5.4851263,12.570092 5.2089844,12.091797 4.9328423,11.613505 4.9510676,11.086651 5.25,10.914062 c 0.05605,-0.03236 0.1181389,-0.05063 0.1835938,-0.05469 z M 14,5.3574219 8.75,8.4296875 v 6.0058595 l 4.873047,-2.785156 C 13.856747,11.516891 14,11.2691 14,11 Z M 10.5,8.359375 c 0.09006,-0.00644 0.175267,0.01154 0.25,0.054687 0.298937,0.1725886 0.317156,0.6994434 0.04102,1.1777344 C 10.514874,10.070091 10.048933,10.319073 9.75,10.146484 9.4510639,9.9738969 9.4328423,9.445089 9.7089844,8.9667969 9.9160912,8.6080763 10.229828,8.3786832 10.5,8.359375 Z m 2.25,1.2324219 c 0.09006,-0.00644 0.175267,0.01154 0.25,0.054687 0.298937,0.1725888 0.317158,0.6994426 0.04102,1.1777346 C 12.764874,11.302514 12.298933,11.551495 12,11.378906 11.701063,11.206318 11.682842,10.677511 11.958984,10.199219 12.166091,9.8404978 12.479828,9.611105 12.75,9.5917969 Z M 8,1.25 c -0.1284074,0 -0.257762,0.033729 -0.3730469,0.099609 L 2.8183594,4.0976562 8,7.1308594 13.181641,4.0976562 8.3730469,1.3496094 C 8.257762,1.2837294 8.1284074,1.25 8,1.25 Z M 8,3.375 A 1,0.625 0 0 1 9,4 1,0.625 0 0 1 8,4.625 1,0.625 0 0 1 7,4 1,0.625 0 0 1 8,3.375 Z"
     style="fill:#000000" />
</svg>
