<?xml version="1.0" encoding="UTF-8" standalone="no"?>
<svg
   viewBox="0 0 16 16"
   fill="currentColor"
   version="1.1"
   id="svg1"
   sodipodi:docname="dots-3x2.svg"
   inkscape:version="1.3.2 (091e20e, 2023-11-25)"
   width="16"
   height="16"
   xmlns:inkscape="http://www.inkscape.org/namespaces/inkscape"
   xmlns:sodipodi="http://sodipodi.sourceforge.net/DTD/sodipodi-0.dtd"
   xmlns="http://www.w3.org/2000/svg"
   xmlns:svg="http://www.w3.org/2000/svg">
  <defs
     id="defs1" />
  <sodipodi:namedview
     id="namedview1"
     pagecolor="#ffffff"
     bordercolor="#000000"
     borderopacity="0.25"
     inkscape:showpageshadow="2"
     inkscape:pageopacity="0.0"
     inkscape:pagecheckerboard="0"
     inkscape:deskcolor="#d1d1d1"
     showgrid="true"
     inkscape:zoom="20.186322"
     inkscape:cx="6.415235"
     inkscape:cy="-0.099076989"
     inkscape:window-width="2560"
     inkscape:window-height="1387"
     inkscape:window-x="1800"
     inkscape:window-y="25"
     inkscape:window-maximized="1"
     inkscape:current-layer="svg1">
    <inkscape:grid
       id="grid1"
       units="px"
       originx="0"
       originy="0"
       spacingx="0.5"
       spacingy="0.5"
       empcolor="#0099e5"
       empopacity="0.6"
       color="#0099e5"
       opacity="0.14901961"
       empspacing="2"
       dotted="false"
       gridanglex="30"
       gridanglez="30"
       visible="true" />
    <inkscape:grid
       id="grid2"
       units="px"
       originx="0"
       originy="0"
       spacingx="4"
       spacingy="4"
       empcolor="#e50000"
       empopacity="0.6"
       color="#0099e5"
       opacity="0.14901961"
       empspacing="1"
       dotted="false"
       gridanglex="30"
       gridanglez="30"
       visible="true" />
  </sodipodi:namedview>
  <path
     id="path1"
     style="fill:#000000"
     d="M 14,5.5 C 14,4.680458 13.319542,4 12.5,4 11.680458,4 11,4.680458 11,5.5 11,6.319542 11.680458,7 12.5,7 13.319542,7 14,6.319542 14,5.5 Z m 0,5 C 14,9.680458 13.319542,9 12.5,9 11.680458,9 11,9.680458 11,10.5 11,11.319542 11.680458,12 12.5,12 13.319542,12 14,11.319542 14,10.5 Z M 9.5,5.5 C 9.5,4.680458 8.8195422,4 8,4 7.180458,4 6.5,4.680458 6.5,5.5 6.5,6.319542 7.180458,7 8,7 8.8195422,7 9.5,6.319542 9.5,5.5 Z m 0,5 C 9.5,9.680458 8.8195422,9 8,9 7.180458,9 6.5,9.680458 6.5,10.5 6.5,11.319542 7.180458,12 8,12 8.8195422,12 9.5,11.319542 9.5,10.5 Z M 5,5.5 C 5,4.680458 4.319542,4 3.5,4 2.680458,4 2,4.680458 2,5.5 2,6.319542 2.680458,7 3.5,7 4.319542,7 5,6.319542 5,5.5 Z m 0,5 C 5,9.680458 4.319542,9 3.5,9 2.680458,9 2,9.680458 2,10.5 2,11.319542 2.680458,12 3.5,12 4.319542,12 5,11.319542 5,10.5 Z" />
</svg>
