<?xml version="1.0" encoding="UTF-8" standalone="no"?>
<svg
   viewBox="0 0 16 16"
   fill="currentColor"
   version="1.1"
   id="svg1"
   sodipodi:docname="dots-2x2.svg"
   inkscape:version="1.3.2 (091e20e, 2023-11-25)"
   width="16"
   height="16"
   xmlns:inkscape="http://www.inkscape.org/namespaces/inkscape"
   xmlns:sodipodi="http://sodipodi.sourceforge.net/DTD/sodipodi-0.dtd"
   xmlns="http://www.w3.org/2000/svg"
   xmlns:svg="http://www.w3.org/2000/svg">
  <defs
     id="defs1" />
  <sodipodi:namedview
     id="namedview1"
     pagecolor="#ffffff"
     bordercolor="#000000"
     borderopacity="0.25"
     inkscape:showpageshadow="2"
     inkscape:pageopacity="0.0"
     inkscape:pagecheckerboard="0"
     inkscape:deskcolor="#d1d1d1"
     showgrid="true"
     inkscape:zoom="34.359561"
     inkscape:cx="1.9790707"
     inkscape:cy="5.3260285"
     inkscape:window-width="2560"
     inkscape:window-height="1387"
     inkscape:window-x="1512"
     inkscape:window-y="25"
     inkscape:window-maximized="1"
     inkscape:current-layer="svg1">
    <inkscape:grid
       id="grid1"
       units="px"
       originx="0"
       originy="0"
       spacingx="0.5"
       spacingy="0.5"
       empcolor="#0099e5"
       empopacity="0.6"
       color="#0099e5"
       opacity="0.14901961"
       empspacing="2"
       dotted="false"
       gridanglex="30"
       gridanglez="30"
       visible="true" />
    <inkscape:grid
       id="grid2"
       units="px"
       originx="0"
       originy="0"
       spacingx="4"
       spacingy="4"
       empcolor="#e50000"
       empopacity="0.6"
       color="#0099e5"
       opacity="0.14901961"
       empspacing="1"
       dotted="false"
       gridanglex="30"
       gridanglez="30"
       visible="true" />
  </sodipodi:namedview>
  <path
     id="path1"
     style="fill:#000000"
     d="m 11.75,5.75 c 0,-0.819542 -0.680458,-1.5 -1.5,-1.5 -0.819542,0 -1.5,0.680458 -1.5,1.5 0,0.819542 0.680458,1.5 1.5,1.5 0.819542,0 1.5,-0.680458 1.5,-1.5 z m 0,4.5 c 0,-0.819542 -0.680458,-1.5 -1.5,-1.5 -0.819542,0 -1.5,0.680458 -1.5,1.5 0,0.819542 0.680458,1.5 1.5,1.5 0.819542,0 1.5,-0.680458 1.5,-1.5 z m -4.5,-4.5 c 0,-0.819542 -0.680458,-1.5 -1.5,-1.5 -0.819542,0 -1.5,0.680458 -1.5,1.5 0,0.819542 0.680458,1.5 1.5,1.5 0.819542,0 1.5,-0.680458 1.5,-1.5 z m 0,4.5 c 0,-0.819542 -0.680458,-1.5 -1.5,-1.5 -0.819542,0 -1.5,0.680458 -1.5,1.5 0,0.819542 0.680458,1.5 1.5,1.5 0.819542,0 1.5,-0.680458 1.5,-1.5 z" />
</svg>
