<?xml version="1.0" encoding="UTF-8" standalone="no"?>
<svg
   viewBox="0 0 16 16"
   fill="currentColor"
   version="1.1"
   id="svg1"
   sodipodi:docname="dots-3x3.svg"
   inkscape:version="1.3.2 (091e20e, 2023-11-25)"
   width="16"
   height="16"
   xmlns:inkscape="http://www.inkscape.org/namespaces/inkscape"
   xmlns:sodipodi="http://sodipodi.sourceforge.net/DTD/sodipodi-0.dtd"
   xmlns="http://www.w3.org/2000/svg"
   xmlns:svg="http://www.w3.org/2000/svg">
  <defs
     id="defs1" />
  <sodipodi:namedview
     id="namedview1"
     pagecolor="#ffffff"
     bordercolor="#000000"
     borderopacity="0.25"
     inkscape:showpageshadow="2"
     inkscape:pageopacity="0.0"
     inkscape:pagecheckerboard="0"
     inkscape:deskcolor="#d1d1d1"
     showgrid="true"
     inkscape:zoom="34.359561"
     inkscape:cx="1.9790707"
     inkscape:cy="5.3260285"
     inkscape:window-width="2560"
     inkscape:window-height="1387"
     inkscape:window-x="1512"
     inkscape:window-y="25"
     inkscape:window-maximized="1"
     inkscape:current-layer="svg1">
    <inkscape:grid
       id="grid1"
       units="px"
       originx="0"
       originy="0"
       spacingx="0.5"
       spacingy="0.5"
       empcolor="#0099e5"
       empopacity="0.6"
       color="#0099e5"
       opacity="0.14901961"
       empspacing="2"
       dotted="false"
       gridanglex="30"
       gridanglez="30"
       visible="true" />
    <inkscape:grid
       id="grid2"
       units="px"
       originx="0"
       originy="0"
       spacingx="4"
       spacingy="4"
       empcolor="#e50000"
       empopacity="0.6"
       color="#0099e5"
       opacity="0.14901961"
       empspacing="1"
       dotted="false"
       gridanglex="30"
       gridanglez="30"
       visible="true" />
  </sodipodi:namedview>
  <path
     id="path1"
     style="fill:#000000"
     d="M 14,12.5 C 14,11.680458 13.319542,11 12.5,11 11.680458,11 11,11.680458 11,12.5 c 0,0.819542 0.680458,1.5 1.5,1.5 0.819542,0 1.5,-0.680458 1.5,-1.5 z m -4.5,0 C 9.5,11.680458 8.8195422,11 8,11 7.180458,11 6.5,11.680458 6.5,12.5 6.5,13.319542 7.180458,14 8,14 8.8195422,14 9.5,13.319542 9.5,12.5 Z M 5,12.5 C 5,11.680458 4.319542,11 3.5,11 2.680458,11 2,11.680458 2,12.5 2,13.319542 2.680458,14 3.5,14 4.319542,14 5,13.319542 5,12.5 Z m 9,-9 C 14,2.680458 13.319542,2 12.5,2 11.680458,2 11,2.680458 11,3.5 11,4.319542 11.680458,5 12.5,5 13.319542,5 14,4.319542 14,3.5 Z M 14,8 C 14,7.180458 13.319542,6.5 12.5,6.5 11.680458,6.5 11,7.180458 11,8 11,8.819542 11.680458,9.5 12.5,9.5 13.319542,9.5 14,8.819542 14,8 Z M 9.5,3.5 C 9.5,2.680458 8.8195422,2 8,2 7.180458,2 6.5,2.680458 6.5,3.5 6.5,4.319542 7.180458,5 8,5 8.8195422,5 9.5,4.319542 9.5,3.5 Z M 9.5,8 C 9.5,7.180458 8.8195422,6.5 8,6.5 7.180458,6.5 6.5,7.180458 6.5,8 6.5,8.819542 7.180458,9.5 8,9.5 8.8195422,9.5 9.5,8.819542 9.5,8 Z M 5,3.5 C 5,2.680458 4.319542,2 3.5,2 2.680458,2 2,2.680458 2,3.5 2,4.319542 2.680458,5 3.5,5 4.319542,5 5,4.319542 5,3.5 Z M 5,8 C 5,7.180458 4.319542,6.5 3.5,6.5 2.680458,6.5 2,7.180458 2,8 2,8.819542 2.680458,9.5 3.5,9.5 4.319542,9.5 5,8.819542 5,8 Z" />
</svg>
