<?xml version="1.0" encoding="UTF-8" standalone="no"?>
<svg
   viewBox="0 0 16 16"
   fill="currentColor"
   version="1.1"
   id="svg1"
   sodipodi:docname="face-smile-plus.svg"
   inkscape:version="1.3.2 (091e20e, 2023-11-25)"
   width="16"
   height="16"
   xmlns:inkscape="http://www.inkscape.org/namespaces/inkscape"
   xmlns:sodipodi="http://sodipodi.sourceforge.net/DTD/sodipodi-0.dtd"
   xmlns="http://www.w3.org/2000/svg"
   xmlns:svg="http://www.w3.org/2000/svg">
  <defs
     id="defs1" />
  <sodipodi:namedview
     id="namedview1"
     pagecolor="#ffffff"
     bordercolor="#000000"
     borderopacity="0.25"
     inkscape:showpageshadow="2"
     inkscape:pageopacity="0.0"
     inkscape:pagecheckerboard="0"
     inkscape:deskcolor="#d1d1d1"
     showgrid="false"
     inkscape:zoom="16.374714"
     inkscape:cx="10.381861"
     inkscape:cy="13.19107"
     inkscape:window-width="2560"
     inkscape:window-height="1387"
     inkscape:window-x="1800"
     inkscape:window-y="25"
     inkscape:window-maximized="1"
     inkscape:current-layer="svg1">
    <inkscape:grid
       id="grid1"
       units="px"
       originx="0"
       originy="0"
       spacingx="0.5"
       spacingy="0.5"
       empcolor="#0099e5"
       empopacity="0.6"
       color="#0099e5"
       opacity="0.14901961"
       empspacing="2"
       dotted="false"
       gridanglex="30"
       gridanglez="30"
       visible="false" />
    <inkscape:grid
       id="grid2"
       units="px"
       originx="0"
       originy="0"
       spacingx="4"
       spacingy="4"
       empcolor="#e50000"
       empopacity="0.6"
       color="#0099e5"
       opacity="0.14901961"
       empspacing="1"
       dotted="false"
       gridanglex="30"
       gridanglez="30"
       visible="false" />
  </sodipodi:namedview>
  <path
     id="path1"
     style="fill:#000000"
     d="m 12.5,1 a 0.75,0.75 0 0 0 -0.75,0.75 v 1 h -1 A 0.75,0.75 0 0 0 10,3.5 0.75,0.75 0 0 0 10.75,4.25 h 1 v 1 A 0.75,0.75 0 0 0 12.5,6 0.75,0.75 0 0 0 13.25,5.25 v -1 h 1 A 0.75,0.75 0 0 0 15,3.5 0.75,0.75 0 0 0 14.25,2.75 h -1 v -1 A 0.75,0.75 0 0 0 12.5,1 Z M 7.4765625,1.0195312 A 7,7 0 0 0 1,8 7,7 0 0 0 15,8 7,7 0 0 0 14.585938,5.6738281 2.25,2.25 0 0 1 12.5,7.5 2.25,2.25 0 0 1 10.396484,5.6035156 2.25,2.25 0 0 1 8.5,3.5 2.25,2.25 0 0 1 10.328125,1.4140625 7,7 0 0 0 7.4765625,1.0195312 Z M 6,6.5 C 6.5519988,6.5 7,7.1720016 7,8 7,8.8279984 6.5519988,9.5 6,9.5 5.4480012,9.5 5,8.8279984 5,8 5,7.1720016 5.4480012,6.5 6,6.5 Z m 4,0 c 0.551997,0 1,0.6720024 1,1.5 0,0.8279976 -0.448003,1.5 -1,1.5 C 9.4480018,9.5 9,8.8279976 9,8 9,7.1720024 9.4480018,6.5 10,6.5 Z m 0.474609,4.025391 a 0.75,0.75 0 0 1 0.53125,0.21875 0.75,0.75 0 0 1 0,1.060547 4.25,4.25 0 0 1 -6.0117184,0 0.75,0.75 0 0 1 1.0605469,-1.060547 2.75,2.75 0 0 0 3.890625,0 0.75,0.75 0 0 1 0.5292965,-0.21875 z" />
</svg>
