<?xml version="1.0" encoding="UTF-8" standalone="no"?>
<svg
   viewBox="0 0 16 16"
   fill="currentColor"
   version="1.1"
   id="svg1"
   sodipodi:docname="floppy-disk.svg"
   inkscape:version="1.3.2 (091e20e, 2023-11-25)"
   width="16"
   height="16"
   xmlns:inkscape="http://www.inkscape.org/namespaces/inkscape"
   xmlns:sodipodi="http://sodipodi.sourceforge.net/DTD/sodipodi-0.dtd"
   xmlns="http://www.w3.org/2000/svg"
   xmlns:svg="http://www.w3.org/2000/svg">
  <defs
     id="defs1">
    <inkscape:path-effect
       effect="mirror_symmetry"
       start_point="13.093381,7.925489"
       end_point="13.593381,11.894116"
       center_point="13.343381,9.9098025"
       id="path-effect3"
       is_visible="true"
       lpeversion="1.2"
       lpesatellites=""
       mode="free"
       discard_orig_path="false"
       fuse_paths="false"
       oposite_fuse="false"
       split_items="false"
       split_open="false"
       link_styles="false" />
    <inkscape:path-effect
       effect="mirror_symmetry"
       start_point="12,17.496996"
       end_point="12,24.996996"
       center_point="12,21.246996"
       id="path-effect2"
       is_visible="true"
       lpeversion="1.2"
       lpesatellites=""
       mode="free"
       discard_orig_path="false"
       fuse_paths="false"
       oposite_fuse="false"
       split_items="false"
       split_open="false"
       link_styles="false" />
  </defs>
  <sodipodi:namedview
     id="namedview1"
     pagecolor="#ffffff"
     bordercolor="#000000"
     borderopacity="0.25"
     inkscape:showpageshadow="2"
     inkscape:pageopacity="0.0"
     inkscape:pagecheckerboard="0"
     inkscape:deskcolor="#d1d1d1"
     showgrid="true"
     inkscape:zoom="54.409533"
     inkscape:cx="4.2088213"
     inkscape:cy="9.4101157"
     inkscape:window-width="2560"
     inkscape:window-height="1387"
     inkscape:window-x="1800"
     inkscape:window-y="25"
     inkscape:window-maximized="1"
     inkscape:current-layer="svg1">
    <inkscape:grid
       id="grid1"
       units="px"
       originx="0"
       originy="0"
       spacingx="0.25"
       spacingy="0.25"
       empcolor="#0099e5"
       empopacity="0.6"
       color="#0099e5"
       opacity="0.14901961"
       empspacing="2"
       dotted="false"
       gridanglex="30"
       gridanglez="30"
       visible="true"
       snapvisiblegridlinesonly="false"
       enabled="true" />
    <inkscape:grid
       id="grid2"
       units="px"
       originx="0"
       originy="0"
       spacingx="4"
       spacingy="4"
       empcolor="#e50000"
       empopacity="0.6"
       color="#0099e5"
       opacity="0.14901961"
       empspacing="1"
       dotted="false"
       gridanglex="30"
       gridanglez="30"
       visible="true"
       snapvisiblegridlinesonly="false"
       enabled="true" />
  </sodipodi:namedview>
  <path
     id="path1"
     style="fill:#000000"
     d="M 8.5,3 C 8.0857864,3 7.75,3.3357864 7.75,3.75 v 1 c 0,0.4142136 0.3357864,0.75 0.75,0.75 0.4142136,0 0.75,-0.3357864 0.75,-0.75 v -1 C 9.25,3.3357864 8.9142136,3 8.5,3 Z M 3.0429688,1 C 2.469695,1 1.9833534,1.2627401 1.6230469,1.6230469 1.2627401,1.9833534 1,2.469695 1,3.0429688 v 9.9140622 c 0,0.573275 0.2627402,1.059615 0.6230469,1.419922 C 1.9833533,14.737261 2.4696948,15 3.0429688,15 h 9.9140622 c 0.573276,0 1.059615,-0.262739 1.419922,-0.623047 C 14.737261,14.016646 15,13.530307 15,12.957031 V 5.5 C 14.999962,5.3015791 14.921305,5.1112571 14.78125,4.9707032 L 11.029297,1.21875 C 10.888743,1.0786948 10.698421,1.0000377 10.5,1 Z M 4.25,2.5 H 10 c 0.414196,4.14e-5 0.749959,0.3358036 0.75,0.75 v 2 C 10.749959,5.6641964 10.414196,5.9999586 10,6 H 4.25 C 3.8358036,5.9999586 3.5000414,5.6641964 3.5,5.25 v -2 C 3.5000414,2.8358036 3.8358036,2.5000414 4.25,2.5 Z m 0,5.5 h 7.5 c 0.414196,4.14e-5 0.749959,0.3358036 0.75,0.75 v 3.5 c -4.1e-5,0.414196 -0.335804,0.749959 -0.75,0.75 H 4.25 C 3.8358036,12.999959 3.5000414,12.664196 3.5,12.25 V 8.75 C 3.5000414,8.3358036 3.8358036,8.0000414 4.25,8 Z"
     sodipodi:nodetypes="ssssssssssssssssccccscccccccccccccccccc" />
</svg>
