<?xml version="1.0" encoding="UTF-8" standalone="no"?>
<svg
   viewBox="0 0 16 16"
   fill="currentColor"
   version="1.1"
   id="svg1"
   sodipodi:docname="gamepad.svg"
   inkscape:version="1.3.2 (091e20e, 2023-11-25)"
   width="16"
   height="16"
   xmlns:inkscape="http://www.inkscape.org/namespaces/inkscape"
   xmlns:sodipodi="http://sodipodi.sourceforge.net/DTD/sodipodi-0.dtd"
   xmlns="http://www.w3.org/2000/svg"
   xmlns:svg="http://www.w3.org/2000/svg">
  <defs
     id="defs1" />
  <sodipodi:namedview
     id="namedview1"
     pagecolor="#ffffff"
     bordercolor="#000000"
     borderopacity="0.25"
     inkscape:showpageshadow="2"
     inkscape:pageopacity="0.0"
     inkscape:pagecheckerboard="0"
     inkscape:deskcolor="#d1d1d1"
     showgrid="false"
     inkscape:zoom="11.861263"
     inkscape:cx="-0.33723223"
     inkscape:cy="20.233934"
     inkscape:window-width="1800"
     inkscape:window-height="1097"
     inkscape:window-x="356"
     inkscape:window-y="1484"
     inkscape:window-maximized="1"
     inkscape:current-layer="svg1">
    <inkscape:grid
       id="grid1"
       units="px"
       originx="0"
       originy="0"
       spacingx="0.25"
       spacingy="0.25"
       empcolor="#0099e5"
       empopacity="0.6"
       color="#0099e5"
       opacity="0.14901961"
       empspacing="2"
       dotted="false"
       gridanglex="30"
       gridanglez="30"
       visible="false" />
    <inkscape:grid
       id="grid2"
       units="px"
       originx="0"
       originy="0"
       spacingx="4"
       spacingy="4"
       empcolor="#e50000"
       empopacity="0.6"
       color="#0099e5"
       opacity="0.14901961"
       empspacing="1"
       dotted="false"
       gridanglex="30"
       gridanglez="30"
       visible="false" />
  </sodipodi:namedview>
  <path
     id="path1"
     style="fill:#000000"
     d="M 4 4 C 2.3380034 4 1 5.3380034 1 7 L 1 9 C 1 10.661996 2.3380034 12 4 12 L 12 12 C 13.661996 12 15 10.661996 15 9 L 15 7 C 15 5.3380034 13.661996 4 12 4 L 4 4 z M 5 5.75 A 0.75 0.75 0 0 1 5.75 6.5 L 5.75 7.25 L 6.5 7.25 A 0.75 0.75 0 0 1 7.25 8 A 0.75 0.75 0 0 1 6.5 8.75 L 5.75 8.75 L 5.75 9.5 A 0.75 0.75 0 0 1 5 10.25 A 0.75 0.75 0 0 1 4.25 9.5 L 4.25 8.75 L 3.5 8.75 A 0.75 0.75 0 0 1 2.75 8 A 0.75 0.75 0 0 1 3.5 7.25 L 4.25 7.25 L 4.25 6.5 A 0.75 0.75 0 0 1 5 5.75 z M 11.875 6 A 1.1249991 1.1250001 0 0 1 13 7.125 A 1.1249991 1.1250001 0 0 1 11.875 8.25 A 1.1249991 1.1250001 0 0 1 10.75 7.125 A 1.1249991 1.1250001 0 0 1 11.875 6 z M 9.625 7.75 A 1.1250007 1.1250001 0 0 1 10.75 8.875 A 1.1250007 1.1250001 0 0 1 9.625 10 A 1.1250007 1.1250001 0 0 1 8.5 8.875 A 1.1250007 1.1250001 0 0 1 9.625 7.75 z " />
</svg>
