<?xml version="1.0" encoding="UTF-8" standalone="no"?>
<svg
   viewBox="0 0 16 16"
   fill="currentColor"
   version="1.1"
   id="svg1"
   sodipodi:docname="h5.svg"
   inkscape:version="1.3.2 (091e20e, 2023-11-25)"
   width="16"
   height="16"
   xmlns:inkscape="http://www.inkscape.org/namespaces/inkscape"
   xmlns:sodipodi="http://sodipodi.sourceforge.net/DTD/sodipodi-0.dtd"
   xmlns="http://www.w3.org/2000/svg"
   xmlns:svg="http://www.w3.org/2000/svg">
  <defs
     id="defs1" />
  <sodipodi:namedview
     id="namedview1"
     pagecolor="#ffffff"
     bordercolor="#000000"
     borderopacity="0.25"
     inkscape:showpageshadow="2"
     inkscape:pageopacity="0.0"
     inkscape:pagecheckerboard="0"
     inkscape:deskcolor="#d1d1d1"
     showgrid="true"
     inkscape:zoom="27.015248"
     inkscape:cx="10.53109"
     inkscape:cy="8.957904"
     inkscape:window-width="2560"
     inkscape:window-height="1387"
     inkscape:window-x="1800"
     inkscape:window-y="25"
     inkscape:window-maximized="1"
     inkscape:current-layer="svg1">
    <inkscape:grid
       id="grid1"
       units="px"
       originx="0"
       originy="0"
       spacingx="0.5"
       spacingy="0.5"
       empcolor="#0099e5"
       empopacity="0.6"
       color="#0099e5"
       opacity="0.14901961"
       empspacing="2"
       dotted="false"
       gridanglex="30"
       gridanglez="30"
       visible="true" />
    <inkscape:grid
       id="grid2"
       units="px"
       originx="0"
       originy="0"
       spacingx="4"
       spacingy="4"
       empcolor="#e50000"
       empopacity="0.6"
       color="#0099e5"
       opacity="0.14901961"
       empspacing="1"
       dotted="false"
       gridanglex="30"
       gridanglez="30"
       visible="true" />
  </sodipodi:namedview>
  <path
     id="path1"
     style="fill:#000000"
     d="m 1.7496965,3 a 0.74997063,0.75 0 0 1 0.7499706,0.75 v 3.5 h 3.9998434 v -3.5 a 0.74997063,0.75 0 0 1 1.4999412,0 v 8.5 a 0.74997063,0.75 0 0 1 -1.4999412,0 V 8.75 H 2.4996671 v 3.5 a 0.74997063,0.75 0 0 1 -1.49994126,0 V 3.75 A 0.74997063,0.75 0 0 1 1.7496965,3 Z m 9.4085065,3 a 0.750075,0.750075 0 0 0 -0.75,0.7050781 l -0.15625,2.6796875 A 0.750075,0.750075 0 0 0 11,10.179688 h 1.578125 c 0.424872,-1e-6 0.538272,0.09258 0.580078,0.136718 0.04181,0.04414 0.0918,0.142128 0.0918,0.382813 0,0.282086 -0.02413,0.543158 -0.06641,0.646484 -0.04094,0.100061 0.0078,0.100048 -0.234375,0.128906 -0.671068,0.04624 -1.17241,0.02824 -1.84961,-0.0625 a 0.75,0.75 0 0 0 -0.84375,0.644532 0.75,0.75 0 0 0 0.644532,0.841797 c 0.76046,0.101898 1.408655,0.127367 2.18164,0.07226 a 0.750075,0.750075 0 0 0 0.03516,-0.002 c 0.698643,-0.08203 1.254879,-0.565373 1.455078,-1.054687 C 14.772464,11.424748 14.75,10.981305 14.75,10.699219 14.75,10.234688 14.640356,9.6994033 14.248047,9.2851563 13.855738,8.8709092 13.258274,8.6796869 12.578125,8.6796875 H 11.794922 L 11.865234,7.5 H 14 A 0.75,0.75 0 0 0 14.75,6.75 0.75,0.75 0 0 0 14,6 Z" />
</svg>
