<?xml version="1.0" encoding="UTF-8" standalone="no"?>
<svg
   viewBox="0 0 16 16"
   fill="currentColor"
   version="1.1"
   id="svg1"
   sodipodi:docname="h6.svg"
   inkscape:version="1.3.2 (091e20e, 2023-11-25)"
   width="16"
   height="16"
   xmlns:inkscape="http://www.inkscape.org/namespaces/inkscape"
   xmlns:sodipodi="http://sodipodi.sourceforge.net/DTD/sodipodi-0.dtd"
   xmlns="http://www.w3.org/2000/svg"
   xmlns:svg="http://www.w3.org/2000/svg">
  <defs
     id="defs1" />
  <sodipodi:namedview
     id="namedview1"
     pagecolor="#ffffff"
     bordercolor="#000000"
     borderopacity="0.25"
     inkscape:showpageshadow="2"
     inkscape:pageopacity="0.0"
     inkscape:pagecheckerboard="0"
     inkscape:deskcolor="#d1d1d1"
     showgrid="true"
     inkscape:zoom="29.63512"
     inkscape:cx="9.0939399"
     inkscape:cy="3.2731435"
     inkscape:window-width="2560"
     inkscape:window-height="1387"
     inkscape:window-x="1800"
     inkscape:window-y="25"
     inkscape:window-maximized="1"
     inkscape:current-layer="svg1">
    <inkscape:grid
       id="grid1"
       units="px"
       originx="0"
       originy="0"
       spacingx="0.5"
       spacingy="0.5"
       empcolor="#0099e5"
       empopacity="0.6"
       color="#0099e5"
       opacity="0.14901961"
       empspacing="2"
       dotted="false"
       gridanglex="30"
       gridanglez="30"
       visible="true" />
    <inkscape:grid
       id="grid2"
       units="px"
       originx="0"
       originy="0"
       spacingx="4"
       spacingy="4"
       empcolor="#e50000"
       empopacity="0.6"
       color="#0099e5"
       opacity="0.14901961"
       empspacing="1"
       dotted="false"
       gridanglex="30"
       gridanglez="30"
       visible="true" />
  </sodipodi:namedview>
  <path
     id="path1"
     style="fill:#000000"
     d="M 12.410156,6.0195312 C 11.955895,6.0690623 11.54441,6.2173213 11.195313,6.4941406 10.497117,7.0477793 10.25,7.957336 10.25,8.9941406 v 1.5566404 0.283203 c 0,0.675755 0.284656,1.294018 0.744141,1.664063 C 11.453625,12.868091 12.019795,13 12.572266,13 c 0.55247,0 1.115697,-0.141897 1.542968,-0.535156 C 14.542506,12.071585 14.75,11.473708 14.75,10.833984 14.75,10.194261 14.542506,9.5963839 14.115234,9.203125 13.687963,8.8098661 13.124736,8.6679687 12.572266,8.6679688 c -0.266234,0 -0.520394,0.1285008 -0.783203,0.1875 0.03245,-0.6399386 0.163598,-1.047341 0.33789,-1.1855469 0.194661,-0.1543576 0.604089,-0.2569244 1.419922,-0.070312 a 0.75,0.75 0 0 0 0.898438,-0.5625 0.75,0.75 0 0 0 -0.564454,-0.8984375 C 13.360205,6.0195786 12.864417,5.9700002 12.410156,6.0195312 Z m 0.16211,4.1484378 c 0.304671,0 0.454615,0.07173 0.527343,0.138672 0.07273,0.06694 0.150391,0.175872 0.150391,0.527343 0,0.351471 -0.07766,0.460405 -0.150391,0.527344 C 13.026881,11.428267 12.876936,11.5 12.572266,11.5 12.267593,11.5 12.04749,11.420231 11.935547,11.330078 11.823604,11.239925 11.75,11.149424 11.75,10.833984 v -0.283203 c 0,-0.214615 0.0092,-0.185983 0.109375,-0.248047 0.100183,-0.06206 0.366919,-0.134765 0.712891,-0.134765 z M 1.7497258,3 a 0.75,0.75 0 0 1 0.75,0.75 v 3.5 h 4 v -3.5 a 0.75,0.75 0 0 1 1.5,0 v 8.5 a 0.75,0.75 0 0 1 -1.5,0 v -3.5 h -4 v 3.5 a 0.75,0.75 0 0 1 -1.49999996,0 V 3.75 A 0.75,0.75 0 0 1 1.7497258,3 Z" />
</svg>
