<?xml version="1.0" encoding="UTF-8" standalone="no"?>
<svg
   viewBox="0 0 16 16"
   fill="currentColor"
   version="1.1"
   id="svg1"
   sodipodi:docname="headphones-slash.svg"
   inkscape:version="1.3.2 (091e20e, 2023-11-25)"
   width="16"
   height="16"
   xmlns:inkscape="http://www.inkscape.org/namespaces/inkscape"
   xmlns:sodipodi="http://sodipodi.sourceforge.net/DTD/sodipodi-0.dtd"
   xmlns="http://www.w3.org/2000/svg"
   xmlns:svg="http://www.w3.org/2000/svg"><defs
     id="defs1" /><sodipodi:namedview
     id="namedview1"
     pagecolor="#ffffff"
     bordercolor="#000000"
     borderopacity="0.25"
     inkscape:showpageshadow="2"
     inkscape:pageopacity="0.0"
     inkscape:pagecheckerboard="0"
     inkscape:deskcolor="#d1d1d1"
     showgrid="false"
     inkscape:zoom="20.65803"
     inkscape:cx="17.499248"
     inkscape:cy="4.1146227"
     inkscape:window-width="2560"
     inkscape:window-height="1387"
     inkscape:window-x="1800"
     inkscape:window-y="25"
     inkscape:window-maximized="1"
     inkscape:current-layer="svg1"><inkscape:grid
       id="grid1"
       units="px"
       originx="0"
       originy="0"
       spacingx="0.5"
       spacingy="0.5"
       empcolor="#0099e5"
       empopacity="0.6"
       color="#0099e5"
       opacity="0.14901961"
       empspacing="2"
       dotted="false"
       gridanglex="30"
       gridanglez="30"
       visible="false" /><inkscape:grid
       id="grid2"
       units="px"
       originx="0"
       originy="0"
       spacingx="4"
       spacingy="4"
       empcolor="#e50000"
       empopacity="0.6"
       color="#0099e5"
       opacity="0.14901961"
       empspacing="1"
       dotted="false"
       gridanglex="30"
       gridanglez="30"
       visible="false" /></sodipodi:namedview><path
     style="color:#000000;fill:#000000;stroke-linecap:round;stroke-linejoin:round;-inkscape-stroke:none"
     d="m 9.6796875,12.863281 -0.234375,0.873047 a 0.750075,0.750075 0 0 0 0.53125,0.917969 c 0.6224345,0.166672 1.2293355,0.326848 1.8359375,0.341797 z"
     id="path1" /><path
     style="color:#000000;fill:#000000;stroke-linecap:round;stroke-linejoin:round;-inkscape-stroke:none"
     d="M 1.96875,5.1523438 C 1.5104908,6.3634099 1.4171927,7.7062726 1.7519531,9.0039062 1.7197786,9.0352326 1.6873542,9.0663002 1.65625,9.0996094 0.98592284,9.8174543 0.82320638,10.935884 1.1933594,12.316406 c 0.3701532,1.380523 1.0703351,2.268034 2.0097656,2.554688 0.9394305,0.28665 1.861896,0.03984 2.8203125,-0.216797 a 0.750075,0.750075 0 0 0 0.53125,-0.917969 L 5.8398438,11.072266 5.1269531,8.4082031 A 0.750075,0.750075 0 0 0 5.0234375,8.2070312 L 4.7851562,7.96875 A 0.750075,0.750075 0 0 0 4.4414062,7.8535156 0.750075,0.750075 0 0 0 4.2089844,7.8789062 C 3.8356941,7.9788635 3.4670783,8.0778477 3.1171875,8.203125 3.0139608,7.5807563 3.0371137,6.95398 3.1699219,6.3535156 Z"
     id="path2" /><path
     style="color:#000000;fill:#000000;stroke-linecap:round;stroke-linejoin:round;-inkscape-stroke:none"
     d="M 8,1 C 6.9489725,1 5.8990049,1.2553169 4.9472656,1.7636719 l 1.125,1.125 C 7.6569234,2.2221389 9.5082602,2.4110211 10.939453,3.4589844 12.456102,4.5695207 13.180651,6.4074151 12.882812,8.203125 12.532922,8.0778477 12.164305,7.9788635 11.791016,7.8789062 a 0.750075,0.750075 0 0 0 -0.232422,-0.025391 0.750075,0.750075 0 0 0 -0.378906,0.1425782 l 3.75,3.7500002 c 0.188624,-1.118929 -0.01054,-2.0302919 -0.585938,-2.6464846 -0.0311,-0.033309 -0.06353,-0.064377 -0.0957,-0.095703 C 14.896079,6.4919338 13.953123,3.8054654 11.826172,2.2480469 10.689164,1.4154955 9.3447669,1 8,1 Z"
     id="path3" /><path
     style="color:#000000;fill:#000000;stroke-linecap:round;stroke-linejoin:round;-inkscape-stroke:none"
     d="m 2.75,2 a 0.75,0.75 0 0 0 -0.53125,0.21875 0.75,0.75 0 0 0 0,1.0625 l 10.5,10.5 a 0.75,0.75 0 0 0 1.0625,0 0.75,0.75 0 0 0 0,-1.0625 l -10.5,-10.5 A 0.75,0.75 0 0 0 2.75,2 Z"
     id="path4" /></svg>
