<?xml version="1.0" encoding="UTF-8" standalone="no"?>
<svg
   viewBox="0 0 16 16"
   fill="currentColor"
   version="1.1"
   id="svg1"
   sodipodi:docname="headphones.svg"
   inkscape:version="1.3.2 (091e20e, 2023-11-25)"
   width="16"
   height="16"
   xmlns:inkscape="http://www.inkscape.org/namespaces/inkscape"
   xmlns:sodipodi="http://sodipodi.sourceforge.net/DTD/sodipodi-0.dtd"
   xmlns="http://www.w3.org/2000/svg"
   xmlns:svg="http://www.w3.org/2000/svg"><defs
     id="defs1" /><sodipodi:namedview
     id="namedview1"
     pagecolor="#ffffff"
     bordercolor="#000000"
     borderopacity="0.25"
     inkscape:showpageshadow="2"
     inkscape:pageopacity="0.0"
     inkscape:pagecheckerboard="0"
     inkscape:deskcolor="#d1d1d1"
     showgrid="false"
     inkscape:zoom="20.65803"
     inkscape:cx="17.499248"
     inkscape:cy="4.1146227"
     inkscape:window-width="2560"
     inkscape:window-height="1387"
     inkscape:window-x="1800"
     inkscape:window-y="25"
     inkscape:window-maximized="1"
     inkscape:current-layer="svg1"><inkscape:grid
       id="grid1"
       units="px"
       originx="0"
       originy="0"
       spacingx="0.5"
       spacingy="0.5"
       empcolor="#0099e5"
       empopacity="0.6"
       color="#0099e5"
       opacity="0.14901961"
       empspacing="2"
       dotted="false"
       gridanglex="30"
       gridanglez="30"
       visible="false" /><inkscape:grid
       id="grid2"
       units="px"
       originx="0"
       originy="0"
       spacingx="4"
       spacingy="4"
       empcolor="#e50000"
       empopacity="0.6"
       color="#0099e5"
       opacity="0.14901961"
       empspacing="1"
       dotted="false"
       gridanglex="30"
       gridanglez="30"
       visible="false" /></sodipodi:namedview><path
     id="path1"
     style="color:#000000;fill:#000000;stroke-linecap:round;stroke-linejoin:round;-inkscape-stroke:none"
     d="M 8 1 C 6.6552318 1 5.3108365 1.4154947 4.1738281 2.2480469 C 2.0468749 3.8054671 1.1039198 6.4919313 1.7519531 9.0039062 C 1.7197785 9.0352326 1.6873542 9.0663002 1.65625 9.0996094 C 0.98592217 9.817455 0.82320603 10.935882 1.1933594 12.316406 C 1.563513 13.69693 2.2636936 14.58444 3.203125 14.871094 C 4.1425564 15.157745 5.06502 14.910934 6.0234375 14.654297 A 0.750075 0.750075 0 0 0 6.5546875 13.736328 L 5.8398438 11.072266 L 5.1269531 8.4082031 A 0.750075 0.750075 0 0 0 4.4414062 7.8535156 A 0.750075 0.750075 0 0 0 4.2089844 7.8789062 C 3.8356938 7.9788635 3.4670786 8.0778476 3.1171875 8.203125 C 2.819349 6.4074134 3.5438967 4.5695219 5.0605469 3.4589844 C 6.8101447 2.1778755 9.1898555 2.1778755 10.939453 3.4589844 C 12.456103 4.5695218 13.180651 6.4074133 12.882812 8.203125 C 12.532921 8.0778476 12.164306 7.9788635 11.791016 7.8789062 A 0.750075 0.750075 0 0 0 11.558594 7.8535156 A 0.750075 0.750075 0 0 0 10.873047 8.4082031 L 10.160156 11.072266 L 9.4453125 13.736328 A 0.750075 0.750075 0 0 0 9.9765625 14.654297 C 10.93498 14.910937 11.857444 15.157745 12.796875 14.871094 C 13.736306 14.58444 14.436486 13.696931 14.806641 12.316406 C 15.176793 10.935882 15.014077 9.8174551 14.34375 9.0996094 C 14.312646 9.0663002 14.280221 9.0352326 14.248047 9.0039062 C 14.89608 6.4919312 13.953125 3.805467 11.826172 2.2480469 C 10.689163 1.4154947 9.3447682 1 8 1 z " /></svg>
