<?xml version="1.0" encoding="UTF-8" standalone="no"?>
<svg
   viewBox="0 0 16 16"
   fill="currentColor"
   version="1.1"
   id="svg1"
   sodipodi:docname="lettered-list.svg"
   inkscape:version="1.3.2 (091e20e, 2023-11-25)"
   width="16"
   height="16"
   xmlns:inkscape="http://www.inkscape.org/namespaces/inkscape"
   xmlns:sodipodi="http://sodipodi.sourceforge.net/DTD/sodipodi-0.dtd"
   xmlns="http://www.w3.org/2000/svg"
   xmlns:svg="http://www.w3.org/2000/svg">
  <defs
     id="defs1">
    <inkscape:path-effect
       effect="fillet_chamfer"
       id="path-effect98"
       is_visible="true"
       lpeversion="1"
       nodesatellites_param="F,0,0,1,0,0,0,1 @ F,0,0,1,0,0.87555684,0,1 @ F,0,0,1,0,0.875,0,1 @ F,0,1,1,0,0,0,1"
       radius="0"
       unit="px"
       method="auto"
       mode="F"
       chamfer_steps="1"
       flexible="false"
       use_knot_distance="true"
       apply_no_radius="true"
       apply_with_radius="true"
       only_selected="false"
       hide_knots="false" />
    <inkscape:path-effect
       effect="fillet_chamfer"
       id="path-effect98-8"
       is_visible="true"
       lpeversion="1"
       nodesatellites_param="F,0,0,1,0,0,0,1 @ F,0,0,1,0,1.125,0,1 @ F,0,0,1,0,1.125,0,1 @ F,0,1,1,0,0,0,1"
       radius="0"
       unit="px"
       method="auto"
       mode="F"
       chamfer_steps="1"
       flexible="false"
       use_knot_distance="true"
       apply_no_radius="true"
       apply_with_radius="true"
       only_selected="false"
       hide_knots="false" />
    <inkscape:path-effect
       effect="fillet_chamfer"
       id="path-effect103"
       is_visible="true"
       lpeversion="1"
       nodesatellites_param="F,0,0,1,0,0,0,1 @ F,0,0,1,0,0,0,1 @ F,0,0,1,0,0.75,0,1 @ F,0,0,1,0,0.75,0,1 @ F,0,0,1,0,0,0,1 @ F,0,0,1,0,0.75,0,1 @ F,0,0,1,0,0.75,0,1"
       radius="0"
       unit="px"
       method="auto"
       mode="F"
       chamfer_steps="1"
       flexible="false"
       use_knot_distance="true"
       apply_no_radius="true"
       apply_with_radius="true"
       only_selected="false"
       hide_knots="false" />
  </defs>
  <sodipodi:namedview
     id="namedview1"
     pagecolor="#ffffff"
     bordercolor="#000000"
     borderopacity="0.25"
     inkscape:showpageshadow="2"
     inkscape:pageopacity="0.0"
     inkscape:pagecheckerboard="0"
     inkscape:deskcolor="#d1d1d1"
     showgrid="true"
     inkscape:zoom="21.663797"
     inkscape:cx="6.3469945"
     inkscape:cy="9.7397515"
     inkscape:window-width="2560"
     inkscape:window-height="1387"
     inkscape:window-x="0"
     inkscape:window-y="25"
     inkscape:window-maximized="0"
     inkscape:current-layer="svg1">
    <inkscape:grid
       id="grid1"
       units="px"
       originx="0"
       originy="0"
       spacingx="0.25"
       spacingy="0.25"
       empcolor="#0099e5"
       empopacity="0.6"
       color="#0099e5"
       opacity="0.14901961"
       empspacing="2"
       dotted="false"
       gridanglex="30"
       gridanglez="30"
       visible="true" />
    <inkscape:grid
       id="grid2"
       units="px"
       originx="0"
       originy="0"
       spacingx="4"
       spacingy="4"
       empcolor="#e50000"
       empopacity="0.6"
       color="#0099e5"
       opacity="0.14901961"
       empspacing="1"
       dotted="false"
       gridanglex="30"
       gridanglez="30"
       visible="true" />
  </sodipodi:namedview>
  <path
     id="path1"
     style="fill:#000000"
     d="M 2.5,5.875 A 0.50005,0.50005 0 0 0 2,6.375 v 3.25 a 0.50005,0.50005 0 0 0 0.5,0.5 H 3.75 C 4.434433,10.125 5,9.559433 5,8.875 V 8.75 C 5,8.458602 4.856107,8.213832 4.685547,8 4.856107,7.786168 5,7.541398 5,7.25 V 7.125 C 5,6.440567 4.434433,5.875 3.75,5.875 Z m 0.5,1 H 3.75 C 3.893993,6.875 4,6.981007 4,7.125 V 7.25 C 4,7.393993 3.893993,7.5 3.75,7.5 H 3 Z M 3,8.5 H 3.75 C 3.893993,8.5 4,8.606007 4,8.75 V 8.875 C 4,9.018993 3.893993,9.125 3.75,9.125 H 3 Z M 3.5,1 C 2.678669,1 2,1.678669 2,2.5 v 1 1.125 A 0.625,0.625 0 0 0 2.625,5.25 0.625,0.625 0 0 0 3.25,4.625 v -0.5 h 0.5 v 0.5 A 0.625,0.625 0 0 0 4.375,5.25 0.625,0.625 0 0 0 5,4.625 V 3.5 2.5 C 5.000261,1.67913 4.32087,1.000261 3.5,1 Z m 0,1.25 c 0.14532,4.6e-5 0.250046,0.102727 0.25,0.248047 a 0.6250625,0.6250625 0 0 0 0,0.0019 v 0.375 h -0.5 v -0.375 c 0,-0.145782 0.104219,-0.25 0.25,-0.25 z M 2,13.25 C 2,14.209094 2.790906,15 3.75,15 H 4.375 A 0.625,0.625 0 0 0 5,14.375 0.625,0.625 0 0 0 4.375,13.75 H 3.75 c -0.283545,0 -0.5,-0.216455 -0.5,-0.5 V 12.5 C 3.25,12.216455 3.466455,12 3.75,12 H 4.375 A 0.625,0.625 0 0 0 5,11.375 0.625,0.625 0 0 0 4.375,10.75 H 3.75 C 2.790906,10.75 2,11.540906 2,12.5 Z M 7.25,2 a 0.75,0.75 0 0 0 0,1.5 h 6 a 0.75,0.75 0 0 0 0,-1.5 z m 0,5.25 a 0.75,0.75 0 0 0 0,1.5 h 6 a 0.75000005,0.75000005 0 0 0 0,-1.5 z m -0.75,6 A 0.75,0.75 0 0 1 7.25,12.5 h 6 a 0.75,0.75 0 0 1 0,1.5 h -6 A 0.75,0.75 0 0 1 6.5,13.25 Z" />
</svg>
