<?xml version="1.0" encoding="UTF-8" standalone="no"?>
<svg
   viewBox="0 0 16 16"
   fill="currentColor"
   version="1.1"
   id="svg1"
   sodipodi:docname="mask.svg"
   inkscape:version="1.3.2 (091e20e, 2023-11-25)"
   width="16"
   height="16"
   xmlns:inkscape="http://www.inkscape.org/namespaces/inkscape"
   xmlns:sodipodi="http://sodipodi.sourceforge.net/DTD/sodipodi-0.dtd"
   xmlns="http://www.w3.org/2000/svg"
   xmlns:svg="http://www.w3.org/2000/svg"><defs
     id="defs1"><inkscape:path-effect
       effect="mirror_symmetry"
       start_point="13.093381,7.925489"
       end_point="13.593381,11.894116"
       center_point="13.343381,9.9098025"
       id="path-effect3"
       is_visible="true"
       lpeversion="1.2"
       lpesatellites=""
       mode="free"
       discard_orig_path="false"
       fuse_paths="false"
       oposite_fuse="false"
       split_items="false"
       split_open="false"
       link_styles="false" /><inkscape:path-effect
       effect="mirror_symmetry"
       start_point="12,17.496996"
       end_point="12,24.996996"
       center_point="12,21.246996"
       id="path-effect2"
       is_visible="true"
       lpeversion="1.2"
       lpesatellites=""
       mode="free"
       discard_orig_path="false"
       fuse_paths="false"
       oposite_fuse="false"
       split_items="false"
       split_open="false"
       link_styles="false" /></defs><sodipodi:namedview
     id="namedview1"
     pagecolor="#ffffff"
     bordercolor="#000000"
     borderopacity="0.25"
     inkscape:showpageshadow="2"
     inkscape:pageopacity="0.0"
     inkscape:pagecheckerboard="0"
     inkscape:deskcolor="#d1d1d1"
     showgrid="true"
     inkscape:zoom="3.1188331"
     inkscape:cx="27.574415"
     inkscape:cy="30.780743"
     inkscape:window-width="1800"
     inkscape:window-height="1017"
     inkscape:window-x="0"
     inkscape:window-y="44"
     inkscape:window-maximized="1"
     inkscape:current-layer="svg1"><inkscape:grid
       id="grid1"
       units="px"
       originx="0"
       originy="0"
       spacingx="0.5"
       spacingy="0.5"
       empcolor="#0099e5"
       empopacity="0.6"
       color="#0099e5"
       opacity="0.14901961"
       empspacing="2"
       dotted="false"
       gridanglex="30"
       gridanglez="30"
       visible="false"
       snapvisiblegridlinesonly="false"
       enabled="true" /><inkscape:grid
       id="grid2"
       units="px"
       originx="0"
       originy="0"
       spacingx="4"
       spacingy="4"
       empcolor="#e50000"
       empopacity="0.6"
       color="#0099e5"
       opacity="0.14901961"
       empspacing="1"
       dotted="false"
       gridanglex="30"
       gridanglez="30"
       visible="false"
       snapvisiblegridlinesonly="false"
       enabled="true" /></sodipodi:namedview><path
     id="path2"
     style="color:#000000;fill:#000000;stroke-width:0.666666;stroke-linecap:round;stroke-linejoin:round;-inkscape-stroke:none"
     d="m 3.9270831,4.4128474 c -0.1638997,0.00182 -0.3265756,0.00638 -0.4869792,0.013021 -0.6416136,0.026594 -1.2489621,0.082031 -1.7734374,0.082031 -0.2537336,3.336e-4 -0.466998,0.1906481 -0.4960938,0.4427082 0,0 -0.064546,0.5520448 -0.096354,1.2356771 -0.031807,0.6836321 -0.044386,1.4850361 0.1067708,2.1132812 0.1848969,0.7684752 0.5136556,1.5861583 1.1354168,2.1979161 0.5364503,0.52782 1.2414402,0.813552 1.9179687,0.95052 0.9326463,0.188822 2.0075975,0.239064 2.9674477,-0.183593 0.3588032,-0.157991 0.5895338,-0.421126 0.798177,-0.654948 0.2086432,0.233822 0.4393736,0.496957 0.7981776,0.654948 0.9598496,0.422657 2.0348007,0.372415 2.9674487,0.183593 0.676528,-0.136968 1.381516,-0.4227 1.917968,-0.95052 0.62176,-0.6117577 0.95052,-1.4294408 1.135416,-2.197916 0.151156,-0.6282451 0.138579,-1.4296491 0.106772,-2.1132811 -0.03181,-0.6836323 -0.09635,-1.2356771 -0.09635,-1.2356771 -0.0291,-0.2520602 -0.24236,-0.4423748 -0.496093,-0.4427083 -1.048952,0 -2.430334,-0.2207113 -3.751303,0.00651 C 10.033778,4.6087143 9.3651021,4.853026 8.8020829,5.0743057 8.3539061,5.250447 8.1336461,5.3522068 7.9999997,5.4115453 7.8663531,5.3522068 7.6460931,5.2504498 7.1979165,5.0743057 6.6348971,4.853026 5.9662212,4.6087143 5.4179686,4.5144099 4.9226053,4.4292028 4.4187824,4.4073828 3.9270831,4.4128474 Z m 0.9166668,2.4674475 c 0.2465552,6.567e-4 0.5079214,0.033566 0.7747396,0.098959 0.4269076,0.1046313 0.7922747,0.270638 1.0677084,0.497396 0.1377166,0.1133787 0.2561852,0.242874 0.3359372,0.410156 0.079754,0.1672788 0.11047,0.3914068 0.03776,0.5924476 C 6.9144745,8.881334 6.5377245,9.0237636 6.1770825,9.0860236 5.8164405,9.1482796 5.4034707,9.1255516 4.9765617,9.0209196 4.5496534,8.91629 4.1842875,8.750282 3.9088539,8.5235236 3.7711374,8.4101444 3.6526673,8.2806468 3.5729165,8.1133676 3.4931653,7.9460883 3.462446,7.7219616 3.5351559,7.5209203 3.6805757,7.1188396 4.0573264,6.9764096 4.4179683,6.9141496 4.5532091,6.8908029 4.6958164,6.8799029 4.8437495,6.8802963 Z m 6.1953121,0.014326 c 0.201899,-0.0048 0.394894,0.010446 0.57422,0.046874 0.358649,0.072862 0.731078,0.2253187 0.864583,0.6315107 0.06675,0.2030967 0.02996,0.42629 -0.05469,0.5911452 -0.08465,0.1648552 -0.206656,0.2904704 -0.347656,0.3997392 -0.281999,0.21854 -0.652224,0.3741464 -1.082032,0.4661464 -0.429808,0.092 -0.843172,0.101508 -1.2018229,0.028648 C 9.4330165,8.9858204 9.0605869,8.833366 8.9270829,8.427174 8.8603309,8.2240772 8.8971229,8.0008836 8.9817709,7.8360285 9.0664189,7.6711732 9.1897301,7.5455585 9.3307301,7.4362892 9.6127285,7.2177499 9.9816509,7.0621432 10.411459,6.9701432 c 0.214904,-0.046 0.425707,-0.070751 0.627604,-0.075521 z" /></svg>
