<?xml version="1.0" encoding="UTF-8" standalone="no"?>
<svg
   viewBox="0 0 16 16"
   fill="currentColor"
   version="1.1"
   id="svg1"
   sodipodi:docname="microphone-slash.svg"
   inkscape:version="1.3.2 (091e20e, 2023-11-25)"
   width="16"
   height="16"
   xmlns:inkscape="http://www.inkscape.org/namespaces/inkscape"
   xmlns:sodipodi="http://sodipodi.sourceforge.net/DTD/sodipodi-0.dtd"
   xmlns="http://www.w3.org/2000/svg"
   xmlns:svg="http://www.w3.org/2000/svg"><defs
     id="defs1" /><sodipodi:namedview
     id="namedview1"
     pagecolor="#ffffff"
     bordercolor="#000000"
     borderopacity="0.25"
     inkscape:showpageshadow="2"
     inkscape:pageopacity="0.0"
     inkscape:pagecheckerboard="0"
     inkscape:deskcolor="#d1d1d1"
     showgrid="false"
     inkscape:zoom="34.658864"
     inkscape:cx="7.2852936"
     inkscape:cy="6.0879087"
     inkscape:window-width="2560"
     inkscape:window-height="1387"
     inkscape:window-x="1800"
     inkscape:window-y="25"
     inkscape:window-maximized="1"
     inkscape:current-layer="svg1"><inkscape:grid
       id="grid1"
       units="px"
       originx="0"
       originy="0"
       spacingx="0.5"
       spacingy="0.5"
       empcolor="#0099e5"
       empopacity="0.6"
       color="#0099e5"
       opacity="0.14901961"
       empspacing="2"
       dotted="false"
       gridanglex="30"
       gridanglez="30"
       visible="false" /><inkscape:grid
       id="grid2"
       units="px"
       originx="0"
       originy="0"
       spacingx="4"
       spacingy="4"
       empcolor="#e50000"
       empopacity="0.6"
       color="#0099e5"
       opacity="0.14901961"
       empspacing="1"
       dotted="false"
       gridanglex="30"
       gridanglez="30"
       visible="false" /></sodipodi:namedview><path
     style="fill:#000000"
     d="M 3.2617188,6.4414062 A 0.75,0.75 0 0 0 3,7 5.001,5.001 0 0 0 7.25,11.943359 V 13.5 h -1.5 a 0.75,0.75 0 0 0 0,1.5 h 4.5 a 0.75,0.75 0 0 0 0.732422,-0.837891 L 10.337891,13.517578 A 0.75,0.75 0 0 0 10.25,13.5 h -1.5 v -1.556641 a 5.001,5.001 0 0 0 0.011719,-0.002 L 7.2265625,10.40625 A 3.5,3.5 0 0 1 4.59375,7.7734375 Z"
     id="path1" /><path
     style="fill:#000000"
     d="m 12.25,6.25 c -0.414214,0 -0.75,0.3357864 -0.75,0.75 -0.0048,0.3820671 -0.07206,0.7607756 -0.199219,1.1210938 l 1.150391,1.1503906 C 12.810932,8.5682898 12.999008,7.7898788 13,7 13,6.5857864 12.664214,6.25 12.25,6.25 Z"
     id="path2" /><path
     style="fill:#000000"
     d="M 8,1 A 2,2 0 0 0 6.0214844,2.8417969 L 10,6.8203125 V 3 A 2,2 0 0 0 8,1 Z"
     id="path3" /><path
     d="m 2.2103159,2.2103155 a 0.75,0.75 0 0 1 1.06,0 L 13.770316,12.710316 a 0.75,0.75 0 1 1 -1.06,1.06 L 2.2103159,3.2703157 a 0.75,0.75 0 0 1 0,-1.0600002 z"
     id="path4"
     style="fill:#000000" /></svg>
