<?xml version="1.0" encoding="UTF-8" standalone="no"?>
<svg
   viewBox="0 0 16 16"
   fill="currentColor"
   version="1.1"
   id="svg1"
   sodipodi:docname="outdent.svg"
   inkscape:version="1.3.2 (091e20e, 2023-11-25)"
   width="16"
   height="16"
   xmlns:inkscape="http://www.inkscape.org/namespaces/inkscape"
   xmlns:sodipodi="http://sodipodi.sourceforge.net/DTD/sodipodi-0.dtd"
   xmlns="http://www.w3.org/2000/svg"
   xmlns:svg="http://www.w3.org/2000/svg">
  <defs
     id="defs1" />
  <sodipodi:namedview
     id="namedview1"
     pagecolor="#ffffff"
     bordercolor="#000000"
     borderopacity="0.25"
     inkscape:showpageshadow="2"
     inkscape:pageopacity="0.0"
     inkscape:pagecheckerboard="0"
     inkscape:deskcolor="#d1d1d1"
     showgrid="true"
     inkscape:zoom="55.25"
     inkscape:cx="7.9909502"
     inkscape:cy="8"
     inkscape:window-width="1800"
     inkscape:window-height="1097"
     inkscape:window-x="0"
     inkscape:window-y="44"
     inkscape:window-maximized="0"
     inkscape:current-layer="svg1">
    <inkscape:grid
       id="grid1"
       units="px"
       originx="0"
       originy="0"
       spacingx="0.5"
       spacingy="0.5"
       empcolor="#0099e5"
       empopacity="0.6"
       color="#0099e5"
       opacity="0.14901961"
       empspacing="2"
       dotted="false"
       gridanglex="30"
       gridanglez="30"
       visible="true" />
    <inkscape:grid
       id="grid2"
       units="px"
       originx="0"
       originy="0"
       spacingx="4"
       spacingy="4"
       empcolor="#e50000"
       empopacity="0.6"
       color="#0099e5"
       opacity="0.14901961"
       empspacing="1"
       dotted="false"
       gridanglex="30"
       gridanglez="30"
       visible="true" />
  </sodipodi:namedview>
  <path
     id="path1"
     style="fill:#000000"
     d="M 2.75,2 A 0.74999499,0.74999499 0 0 0 2,2.75 0.74999499,0.74999499 0 0 0 2.75,3.5 h 10.5 A 0.74999499,0.74999499 0 0 0 14,2.75 0.74999499,0.74999499 0 0 0 13.25,2 Z m 2.2499688,3 a 0.74999499,0.74999499 0 0 1 0.53125,0.21875 0.74999499,0.74999499 0 0 1 0,1.0625 L 3.8124688,8 l 1.71875,1.71875 a 0.74999499,0.74999499 0 0 1 0,1.0625 0.74999499,0.74999499 0 0 1 -1.0625,0 l -2.25,-2.25 a 0.75006999,0.75006999 0 0 1 0,-1.0625 l 2.25,-2.25 A 0.74999499,0.74999499 0 0 1 4.9999688,5 Z M 8,7.25 A 0.74999499,0.74999499 0 0 0 7.25,8 0.74999499,0.74999499 0 0 0 8,8.75 h 5.25 A 0.74999499,0.74999499 0 0 0 14,8 0.74999499,0.74999499 0 0 0 13.25,7.25 Z M 2.75,12.5 A 0.74999499,0.74999499 0 0 0 2,13.25 0.74999499,0.74999499 0 0 0 2.75,14 h 10.5 A 0.74999499,0.74999499 0 0 0 14,13.25 0.74999499,0.74999499 0 0 0 13.25,12.5 Z" />
</svg>
