<?xml version="1.0" encoding="UTF-8" standalone="no"?>
<svg
   viewBox="0 0 16 16"
   fill="currentColor"
   version="1.1"
   id="svg1"
   sodipodi:docname="password.svg"
   inkscape:version="1.3.2 (091e20e, 2023-11-25)"
   width="16"
   height="16"
   xmlns:inkscape="http://www.inkscape.org/namespaces/inkscape"
   xmlns:sodipodi="http://sodipodi.sourceforge.net/DTD/sodipodi-0.dtd"
   xmlns="http://www.w3.org/2000/svg"
   xmlns:svg="http://www.w3.org/2000/svg">
  <defs
     id="defs1" />
  <sodipodi:namedview
     id="namedview1"
     pagecolor="#ffffff"
     bordercolor="#000000"
     borderopacity="0.25"
     inkscape:showpageshadow="2"
     inkscape:pageopacity="0.0"
     inkscape:pagecheckerboard="0"
     inkscape:deskcolor="#d1d1d1"
     showgrid="false"
     inkscape:zoom="25.793545"
     inkscape:cx="15.294525"
     inkscape:cy="9.4209619"
     inkscape:window-width="2560"
     inkscape:window-height="1387"
     inkscape:window-x="1800"
     inkscape:window-y="25"
     inkscape:window-maximized="1"
     inkscape:current-layer="svg1"
     showguides="false">
    <inkscape:grid
       id="grid1"
       units="px"
       originx="0"
       originy="0"
       spacingx="0.25"
       spacingy="0.25"
       empcolor="#0099e5"
       empopacity="0.6"
       color="#0099e5"
       opacity="0.14901961"
       empspacing="2"
       dotted="false"
       gridanglex="30"
       gridanglez="30"
       visible="false" />
    <inkscape:grid
       id="grid2"
       units="px"
       originx="0"
       originy="0"
       spacingx="4"
       spacingy="4"
       empcolor="#e50000"
       empopacity="0.6"
       color="#0099e5"
       opacity="0.14901961"
       empspacing="1"
       dotted="false"
       gridanglex="30"
       gridanglez="30"
       visible="false" />
  </sodipodi:namedview>
  <path
     id="path1"
     style="fill:#000000"
     d="M 3.2304688 4.5 C 2.0142929 4.5 1 5.4889036 1 6.7050781 L 1 9.2949219 C 1 10.511084 2.0142775 11.5 3.2304688 11.5 L 12.769531 11.5 C 13.985709 11.5 15 10.511101 15 9.2949219 L 15 6.7050781 C 15 5.488904 13.985708 4.5 12.769531 4.5 L 3.2304688 4.5 z M 4.25 6.75 A 1.25 1.25 0 0 1 5.5 8 A 1.25 1.25 0 0 1 4.25 9.25 A 1.25 1.25 0 0 1 3 8 A 1.25 1.25 0 0 1 4.25 6.75 z M 8 6.75 A 1.25 1.25 0 0 1 9.25 8 A 1.25 1.25 0 0 1 8 9.25 A 1.25 1.25 0 0 1 6.75 8 A 1.25 1.25 0 0 1 8 6.75 z M 11.75 6.75 A 1.25 1.25 0 0 1 13 8 A 1.25 1.25 0 0 1 11.75 9.25 A 1.25 1.25 0 0 1 10.5 8 A 1.25 1.25 0 0 1 11.75 6.75 z " />
</svg>
