<?xml version="1.0" encoding="UTF-8" standalone="no"?>
<svg
   viewBox="0 0 16 16"
   fill="currentColor"
   version="1.1"
   id="svg1"
   sodipodi:docname="password-pencil.svg"
   inkscape:version="1.3.2 (091e20e, 2023-11-25)"
   width="16"
   height="16"
   xmlns:inkscape="http://www.inkscape.org/namespaces/inkscape"
   xmlns:sodipodi="http://sodipodi.sourceforge.net/DTD/sodipodi-0.dtd"
   xmlns="http://www.w3.org/2000/svg"
   xmlns:svg="http://www.w3.org/2000/svg">
  <defs
     id="defs1" />
  <sodipodi:namedview
     id="namedview1"
     pagecolor="#ffffff"
     bordercolor="#000000"
     borderopacity="0.25"
     inkscape:showpageshadow="2"
     inkscape:pageopacity="0.0"
     inkscape:pagecheckerboard="0"
     inkscape:deskcolor="#d1d1d1"
     showgrid="false"
     inkscape:zoom="16.374714"
     inkscape:cx="21.710302"
     inkscape:cy="-3.7863256"
     inkscape:window-width="2560"
     inkscape:window-height="1387"
     inkscape:window-x="1800"
     inkscape:window-y="25"
     inkscape:window-maximized="0"
     inkscape:current-layer="svg1"
     showguides="false">
    <inkscape:grid
       id="grid1"
       units="px"
       originx="0"
       originy="0"
       spacingx="0.25"
       spacingy="0.25"
       empcolor="#0099e5"
       empopacity="0.6"
       color="#0099e5"
       opacity="0.14901961"
       empspacing="2"
       dotted="false"
       gridanglex="30"
       gridanglez="30"
       visible="false" />
    <inkscape:grid
       id="grid2"
       units="px"
       originx="0"
       originy="0"
       spacingx="4"
       spacingy="4"
       empcolor="#e50000"
       empopacity="0.6"
       color="#0099e5"
       opacity="0.14901961"
       empspacing="1"
       dotted="false"
       gridanglex="30"
       gridanglez="30"
       visible="false" />
  </sodipodi:namedview>
  <path
     id="path1"
     style="fill:#000000"
     d="m 14.3125,3.3222656 c -0.177295,-0.00557 -0.311393,0.031344 -0.429687,0.076172 -0.23659,0.089656 -0.420823,0.225507 -0.59375,0.3984375 l -2.533204,2.53125 C 10.559673,6.5243168 10.389689,6.7390736 10.25,6.96875 L 9.859375,7.6113281 A 0.750075,0.750075 0 0 0 10.888672,8.640625 L 11.53125,8.25 c 0.22973,-0.1397085 0.444463,-0.3097153 0.640625,-0.5058594 l 2.53125,-2.5332031 C 14.876114,5.0379886 15.011904,4.8538181 15.101563,4.6171875 15.146392,4.4988722 15.18332,4.3647996 15.177734,4.1875 15.172148,4.0102004 15.103418,3.7635476 14.919922,3.5800781 14.73642,3.3965565 14.489795,3.3278321 14.3125,3.3222656 Z M 3.2304688,4.5 C 2.0142941,4.5 1,5.4889048 1,6.7050781 V 9.2949219 C 1,10.511083 2.0142787,11.5 3.2304688,11.5 H 12.769531 C 13.985708,11.5 15,10.5111 15,9.2949219 V 7.0351562 L 13.232422,8.8027344 C 12.959193,9.0759381 12.652603,9.3232316 12.310547,9.53125 L 11.673828,9.9199219 C 10.764396,10.476179 9.5584862,10.242079 8.9082031,9.5917969 8.2579202,8.9415138 8.0238216,7.7356042 8.5800781,6.8261719 L 8.96875,6.1894531 C 9.1766841,5.8475684 9.4239231,5.5409274 9.6972656,5.2675781 L 10.464844,4.5 Z M 3.5,6.75 C 4.1903552,6.75 4.75,7.3096448 4.75,8 4.75,8.6903552 4.1903552,9.25 3.5,9.25 2.8096448,9.25 2.25,8.6903552 2.25,8 2.25,7.3096448 2.8096448,6.75 3.5,6.75 Z m 3,0 C 7.1903552,6.75 7.75,7.3096448 7.75,8 7.75,8.6903552 7.1903552,9.25 6.5,9.25 5.8096448,9.25 5.25,8.6903552 5.25,8 5.25,7.3096448 5.8096448,6.75 6.5,6.75 Z" />
</svg>
