<?xml version="1.0" encoding="UTF-8" standalone="no"?>
<svg
   viewBox="0 0 16 16"
   fill="currentColor"
   version="1.1"
   id="svg1"
   sodipodi:docname="pin-slash.svg"
   inkscape:version="1.3.2 (091e20e, 2023-11-25)"
   width="16"
   height="16"
   xmlns:inkscape="http://www.inkscape.org/namespaces/inkscape"
   xmlns:sodipodi="http://sodipodi.sourceforge.net/DTD/sodipodi-0.dtd"
   xmlns="http://www.w3.org/2000/svg"
   xmlns:svg="http://www.w3.org/2000/svg">
  <defs
     id="defs1" />
  <sodipodi:namedview
     id="namedview1"
     pagecolor="#ffffff"
     bordercolor="#000000"
     borderopacity="0.25"
     inkscape:showpageshadow="2"
     inkscape:pageopacity="0.0"
     inkscape:pagecheckerboard="0"
     inkscape:deskcolor="#d1d1d1"
     showgrid="true"
     inkscape:zoom="19.15356"
     inkscape:cx="14.22712"
     inkscape:cy="3.6024635"
     inkscape:window-width="2560"
     inkscape:window-height="1387"
     inkscape:window-x="1800"
     inkscape:window-y="25"
     inkscape:window-maximized="0"
     inkscape:current-layer="svg1">
    <inkscape:grid
       id="grid1"
       units="px"
       originx="0"
       originy="0"
       spacingx="0.5"
       spacingy="0.5"
       empcolor="#0099e5"
       empopacity="0.6"
       color="#0099e5"
       opacity="0.14901961"
       empspacing="2"
       dotted="false"
       gridanglex="30"
       gridanglez="30"
       visible="true" />
    <inkscape:grid
       id="grid2"
       units="px"
       originx="0"
       originy="0"
       spacingx="4"
       spacingy="4"
       empcolor="#e50000"
       empopacity="0.6"
       color="#0099e5"
       opacity="0.14901961"
       empspacing="1"
       dotted="false"
       gridanglex="30"
       gridanglez="30"
       visible="true" />
  </sodipodi:namedview>
  <path
     id="path1"
     style="fill:#000000"
     d="m 2.2190133,2.2190132 a 0.74887367,0.74887367 0 0 1 1.058408,0 L 13.761653,12.703245 a 0.74887367,0.74887367 0 1 1 -1.058409,1.058408 L 2.2190133,3.2774213 a 0.74887367,0.74887367 0 0 1 0,-1.0584081 z M 10.779297,1 a 0.74993178,0.74997624 0 0 0 -0.53125,0.21875 L 8.859375,2.609375 a 0.74993178,0.74997624 0 0 0 0,1.0605469 L 9.0234375,3.8320312 8.015625,4.8398438 11.158203,7.9824219 12.166016,6.9765625 12.330078,7.140625 a 0.74993178,0.74997624 0 0 0 1.060547,0 L 14.78125,5.7519531 a 0.74993178,0.74997624 0 0 0 0,-1.0605469 L 11.308594,1.21875 A 0.74993178,0.74997624 0 0 0 10.779297,1 Z M 3.1464844,6.3222656 C 2.956752,6.4572969 2.7776955,6.6090134 2.6113281,6.7753906 a 0.74993178,0.74997624 0 0 0 0,1.0605469 l 2.2460938,2.2441405 -3.6367188,3.636719 a 0.74985679,0.74990125 0 0 0 0,1.0625 0.74985679,0.74990125 0 0 0 1.0625,0 l 3.6347657,-3.636719 2.2460937,2.246094 a 0.74993178,0.74997624 0 0 0 1.0605469,0 c 0.1663673,-0.166377 0.3181016,-0.345413 0.453125,-0.535156 z" />
</svg>
