<?xml version="1.0" encoding="UTF-8" standalone="no"?>
<svg
   viewBox="0 0 16 16"
   fill="currentColor"
   version="1.1"
   id="svg1"
   sodipodi:docname="pin.svg"
   inkscape:version="1.3.2 (091e20e, 2023-11-25)"
   width="16"
   height="16"
   xmlns:inkscape="http://www.inkscape.org/namespaces/inkscape"
   xmlns:sodipodi="http://sodipodi.sourceforge.net/DTD/sodipodi-0.dtd"
   xmlns="http://www.w3.org/2000/svg"
   xmlns:svg="http://www.w3.org/2000/svg">
  <defs
     id="defs1" />
  <sodipodi:namedview
     id="namedview1"
     pagecolor="#ffffff"
     bordercolor="#000000"
     borderopacity="0.25"
     inkscape:showpageshadow="2"
     inkscape:pageopacity="0.0"
     inkscape:pagecheckerboard="0"
     inkscape:deskcolor="#d1d1d1"
     showgrid="true"
     inkscape:zoom="11.257501"
     inkscape:cx="19.276036"
     inkscape:cy="4.3526534"
     inkscape:window-width="2560"
     inkscape:window-height="1387"
     inkscape:window-x="1800"
     inkscape:window-y="25"
     inkscape:window-maximized="1"
     inkscape:current-layer="svg1">
    <inkscape:grid
       id="grid1"
       units="px"
       originx="0"
       originy="0"
       spacingx="0.5"
       spacingy="0.5"
       empcolor="#0099e5"
       empopacity="0.6"
       color="#0099e5"
       opacity="0.14901961"
       empspacing="2"
       dotted="false"
       gridanglex="30"
       gridanglez="30"
       visible="true" />
    <inkscape:grid
       id="grid2"
       units="px"
       originx="0"
       originy="0"
       spacingx="4"
       spacingy="4"
       empcolor="#e50000"
       empopacity="0.6"
       color="#0099e5"
       opacity="0.14901961"
       empspacing="1"
       dotted="false"
       gridanglex="30"
       gridanglez="30"
       visible="true" />
  </sodipodi:namedview>
  <path
     id="path1"
     style="fill:#000000;stroke-width:1"
     d="M 10.779271,1.0000024 A 0.74993178,0.74997624 0 0 0 10.248123,1.2187236 L 8.8597155,2.6091655 a 0.74993178,0.74997624 0 0 0 0,1.0604072 L 9.0237467,3.8316607 6.822995,6.0325428 C 6.2336393,5.7078333 5.5901928,5.5275594 4.9561641,5.6068176 4.0786974,5.7165075 3.2494714,6.1360321 2.6109089,6.7746326 a 0.74993178,0.74997624 0 0 0 0,1.0604072 l 2.2456649,2.2457972 -3.6360244,3.63624 a 0.74985679,0.74990125 0 0 0 0,1.06236 0.74985679,0.74990125 0 0 0 1.0622971,0 l 3.6360244,-3.63624 2.2456648,2.245799 a 0.74993178,0.74997624 0 0 0 1.0603444,0 c 0.6385623,-0.6386 1.0580629,-1.467876 1.1677459,-2.345395 0.07932,-0.634594 -0.100365,-1.2791568 -0.4257001,-1.8688939 l 2.1988001,-2.1989291 0.16403,0.1640409 a 0.74993178,0.74997624 0 0 0 1.060345,0 L 14.78046,5.7513298 a 0.74993178,0.74997624 0 0 0 0,-1.0604072 L 11.308467,1.2187236 A 0.74993178,0.74997624 0 0 0 10.779271,1.0000024 Z" />
</svg>
