<?xml version="1.0" encoding="UTF-8" standalone="no"?>
<svg
   viewBox="0 0 16 16"
   fill="currentColor"
   version="1.1"
   id="svg1"
   sodipodi:docname="quotation-mark.svg"
   inkscape:version="1.3.2 (091e20e, 2023-11-25)"
   width="16"
   height="16"
   xmlns:inkscape="http://www.inkscape.org/namespaces/inkscape"
   xmlns:sodipodi="http://sodipodi.sourceforge.net/DTD/sodipodi-0.dtd"
   xmlns="http://www.w3.org/2000/svg"
   xmlns:svg="http://www.w3.org/2000/svg">
  <defs
     id="defs1" />
  <sodipodi:namedview
     id="namedview1"
     pagecolor="#ffffff"
     bordercolor="#000000"
     borderopacity="0.25"
     inkscape:showpageshadow="2"
     inkscape:pageopacity="0.0"
     inkscape:pagecheckerboard="0"
     inkscape:deskcolor="#d1d1d1"
     showgrid="true"
     inkscape:zoom="62.501677"
     inkscape:cx="5.8798422"
     inkscape:cy="4.0318918"
     inkscape:window-width="2560"
     inkscape:window-height="1387"
     inkscape:window-x="1800"
     inkscape:window-y="25"
     inkscape:window-maximized="1"
     inkscape:current-layer="svg1">
    <inkscape:grid
       id="grid1"
       units="px"
       originx="0"
       originy="0"
       spacingx="0.25"
       spacingy="0.25"
       empcolor="#0099e5"
       empopacity="0.6"
       color="#0099e5"
       opacity="0.14901961"
       empspacing="2"
       dotted="false"
       gridanglex="30"
       gridanglez="30"
       visible="true" />
    <inkscape:grid
       id="grid2"
       units="px"
       originx="0"
       originy="0"
       spacingx="4"
       spacingy="4"
       empcolor="#e50000"
       empopacity="0.6"
       color="#0099e5"
       opacity="0.14901961"
       empspacing="1"
       dotted="false"
       gridanglex="30"
       gridanglez="30"
       visible="true" />
  </sodipodi:namedview>
  <path
     id="path1"
     style="fill:#000000"
     d="m 4,5.0000034 c -1.6486809,0.00247 -3,1.3508648 -3,3 0,0.7246198 0.1530786,1.3991524 0.5390625,1.9563934 0.2747239,0.3966162 0.7471303,0.6292302 1.1972656,0.8803992 0.00502,0.789797 -0.00483,0.982789 -0.6289062,2.02238 -0.4074201,0.677898 0.3768939,1.442754 1.0449219,1.018998 C 4.5695239,12.976803 5.5362187,12.170182 6.1582031,11.219408 6.7801875,10.268635 7,9.207703 7,8.0000034 c 0,-1.6446094 -1.3409753,-3.0024822 -3,-3 z m 8,0 c -1.648681,0.00247 -3,1.350865 -3,3 0,0.7246198 0.1530786,1.3991524 0.5390625,1.9563934 0.2747239,0.3966162 0.7471305,0.6292302 1.1972655,0.8803992 0.005,0.789797 -0.0048,0.982789 -0.628906,2.02238 -0.4074206,0.677899 0.376894,1.442755 1.044922,1.018998 1.417179,-0.901371 2.383875,-1.707992 3.005859,-2.658766 C 14.780188,10.268635 15,9.207703 15,8.0000034 c 0,-1.6446094 -1.340974,-3.0024847 -3,-3 z" />
</svg>
