<?xml version="1.0" encoding="UTF-8" standalone="no"?>
<svg
   viewBox="0 0 16 16"
   fill="currentColor"
   version="1.1"
   id="svg1"
   sodipodi:docname="radial-rays.svg"
   inkscape:version="1.3.2 (091e20e, 2023-11-25)"
   width="16"
   height="16"
   xmlns:inkscape="http://www.inkscape.org/namespaces/inkscape"
   xmlns:sodipodi="http://sodipodi.sourceforge.net/DTD/sodipodi-0.dtd"
   xmlns="http://www.w3.org/2000/svg"
   xmlns:svg="http://www.w3.org/2000/svg">
  <defs
     id="defs1" />
  <sodipodi:namedview
     id="namedview1"
     pagecolor="#ffffff"
     bordercolor="#000000"
     borderopacity="0.25"
     inkscape:showpageshadow="2"
     inkscape:pageopacity="0.0"
     inkscape:pagecheckerboard="0"
     inkscape:deskcolor="#d1d1d1"
     showgrid="true"
     inkscape:zoom="60.037765"
     inkscape:cx="8.7278398"
     inkscape:cy="6.3793181"
     inkscape:window-width="2560"
     inkscape:window-height="1387"
     inkscape:window-x="1512"
     inkscape:window-y="25"
     inkscape:window-maximized="1"
     inkscape:current-layer="svg1">
    <inkscape:grid
       id="grid1"
       units="px"
       originx="0"
       originy="0"
       spacingx="0.25"
       spacingy="0.25"
       empcolor="#0099e5"
       empopacity="0.6"
       color="#0099e5"
       opacity="0.14901961"
       empspacing="2"
       dotted="false"
       gridanglex="30"
       gridanglez="30"
       visible="true" />
    <inkscape:grid
       id="grid2"
       units="px"
       originx="0"
       originy="0"
       spacingx="4"
       spacingy="4"
       empcolor="#e50000"
       empopacity="0.6"
       color="#0099e5"
       opacity="0.14901961"
       empspacing="1"
       dotted="false"
       gridanglex="30"
       gridanglez="30"
       visible="true" />
  </sodipodi:namedview>
  <path
     id="path1"
     style="fill:#000000"
     d="m 12.949748,12.949747 c 0.292893,-0.292893 0.292893,-0.767766 0,-1.06066 L 11.181981,10.12132 c -0.292894,-0.2928933 -0.767767,-0.292893 -1.06066,0 -0.292894,0.292894 -0.2928939,0.767767 -10e-7,1.060661 l 1.767768,1.767766 c 0.292893,0.292894 0.767766,0.292894 1.06066,0 z M 5.8786801,5.8786797 c 0.2928929,-0.2928934 0.2928932,-0.7677668 0,-1.0606602 l -1.767767,-1.767767 c -0.292894,-0.2928936 -0.767767,-0.2928932 -1.06066,0 -0.2928939,0.2928932 -0.292894,0.7677666 0,1.0606602 l 1.767766,1.767767 c 0.292894,0.2928934 0.767767,0.2928931 1.060661,0 z M 15,7.9999997 C 15,7.5857863 14.664214,7.2500004 14.25,7.2499998 h -2.5 c -0.414214,2e-7 -0.75,0.3357866 -0.75,0.75 0,0.4142141 0.335786,0.75 0.75,0.7500006 l 2.5,-7e-7 c 0.414214,6e-7 0.75,-0.3357859 0.75,-0.75 z m -9.9999997,1e-7 C 5,7.5857864 4.664214,7.25 4.2500003,7.2499998 H 1.7500002 c -0.4142143,3e-7 -0.75,0.3357865 -0.7499999,0.7499999 -4.5e-7,0.4142141 0.3357857,0.7500003 0.7500001,0.75 l 2.4999993,7e-7 c 0.4142143,-4e-7 0.75,-0.3357865 0.7500006,-0.7500006 z M 12.949747,3.0502525 c -0.292893,-0.2928932 -0.767766,-0.2928932 -1.06066,0 l -1.767767,1.767767 c -0.2928929,0.2928932 -0.2928929,0.7677669 0,1.0606602 0.292894,0.2928932 0.767767,0.2928932 1.060661,0 l 1.767766,-1.767767 c 0.292894,-0.2928932 0.292894,-0.7677669 0,-1.0606602 z M 5.8786797,10.12132 c -0.2928933,-0.2928929 -0.7677667,-0.2928932 -1.0606602,0 l -1.767767,1.767767 c -0.2928935,0.292894 -0.2928932,0.767767 0,1.06066 0.2928933,0.292894 0.7677667,0.292894 1.0606602,0 l 1.767767,-1.767766 c 0.2928935,-0.292894 0.2928932,-0.767767 0,-1.060661 z M 8,1 C 7.5857864,1 7.25,1.3357864 7.25,1.75 v 2.5 C 7.25,4.6642136 7.5857864,5 8,5 8.4142136,5 8.75,4.6642136 8.75,4.25 V 1.75 C 8.75,1.3357864 8.4142136,1 8,1 Z m 0,10 c -0.4142136,0 -0.75,0.335786 -0.75,0.75 v 2.5 C 7.25,14.664214 7.5857864,15 8,15 8.4142136,15 8.75,14.664214 8.75,14.25 v -2.5 C 8.75,11.335786 8.4142136,11 8,11 Z" />
</svg>
