<?xml version="1.0" encoding="UTF-8" standalone="no"?>
<svg
   viewBox="0 0 16 16"
   fill="currentColor"
   version="1.1"
   id="svg1"
   sodipodi:docname="robot.svg"
   inkscape:version="1.3.2 (091e20e, 2023-11-25)"
   width="16"
   height="16"
   xmlns:inkscape="http://www.inkscape.org/namespaces/inkscape"
   xmlns:sodipodi="http://sodipodi.sourceforge.net/DTD/sodipodi-0.dtd"
   xmlns="http://www.w3.org/2000/svg"
   xmlns:svg="http://www.w3.org/2000/svg">
  <defs
     id="defs1" />
  <sodipodi:namedview
     id="namedview1"
     pagecolor="#ffffff"
     bordercolor="#000000"
     borderopacity="0.25"
     inkscape:showpageshadow="2"
     inkscape:pageopacity="0.0"
     inkscape:pagecheckerboard="0"
     inkscape:deskcolor="#d1d1d1"
     showgrid="false"
     inkscape:zoom="28.769572"
     inkscape:cx="8.2031112"
     inkscape:cy="8.5507006"
     inkscape:window-width="1800"
     inkscape:window-height="1097"
     inkscape:window-x="356"
     inkscape:window-y="1484"
     inkscape:window-maximized="1"
     inkscape:current-layer="svg1">
    <inkscape:grid
       id="grid1"
       units="px"
       originx="0"
       originy="0"
       spacingx="0.25"
       spacingy="0.25"
       empcolor="#0099e5"
       empopacity="0.6"
       color="#0099e5"
       opacity="0.14901961"
       empspacing="2"
       dotted="false"
       gridanglex="30"
       gridanglez="30"
       visible="false" />
    <inkscape:grid
       id="grid2"
       units="px"
       originx="0"
       originy="0"
       spacingx="4"
       spacingy="4"
       empcolor="#e50000"
       empopacity="0.6"
       color="#0099e5"
       opacity="0.14901961"
       empspacing="1"
       dotted="false"
       gridanglex="30"
       gridanglez="30"
       visible="false" />
  </sodipodi:namedview>
  <path
     id="path1"
     style="fill:#000000"
     d="M 8 2 C 7.5857872 2 7.25 2.3357872 7.25 2.75 L 7.25 5 L 5.5 5 C 4.0083999 5 2.7796314 6.0775906 2.5429688 7.5 L 2.5 7.5 C 1.6804596 7.5 1 8.1804601 1 9 L 1 10 C 1 10.81954 1.6804596 11.5 2.5 11.5 L 2.5429688 11.5 C 2.7796314 12.92241 4.0083999 14 5.5 14 L 10.5 14 C 11.991601 14 13.220368 12.92241 13.457031 11.5 L 13.5 11.5 C 14.31954 11.5 15 10.81954 15 10 L 15 9 C 15 8.1804601 14.31954 7.5 13.5 7.5 L 13.457031 7.5 C 13.220368 6.0775906 11.991601 5 10.5 5 L 8.75 5 L 8.75 2.75 C 8.75 2.3357872 8.4142128 2 8 2 z M 6 6.75 C 6.6857502 6.75 7.2500002 7.3142507 7.25 8 C 7.25 8.6857503 6.6857503 9.25 6 9.25 C 5.3142498 9.25 4.75 8.6857503 4.75 8 C 4.7499998 7.3142507 5.3142499 6.75 6 6.75 z M 10 6.75 C 10.685749 6.75 11.25 7.3142505 11.25 8 C 11.25 8.6857503 10.68575 9.25 10 9.25 C 9.3142497 9.25 8.75 8.6857503 8.75 8 C 8.75 7.3142505 9.3142507 6.75 10 6.75 z M 5.5 10.75 L 10.5 10.75 A 0.75 0.75 0 0 1 11.25 11.5 A 0.75 0.75 0 0 1 10.5 12.25 L 5.5 12.25 A 0.75 0.75 0 0 1 4.75 11.5 A 0.75 0.75 0 0 1 5.5 10.75 z " />
</svg>
